<svg width="182" height="116" viewBox="0 0 182 116" fill="none" xmlns="http://www.w3.org/2000/svg">
<rect x="0.999985" width="180" height="115" rx="20" fill="#FA6E5A"/>
<path d="M66.0971 33.8143C43.7281 10.7871 13.3786 13.6409 0.999985 17.9462L0.999985 96.9177C5.89319 111.384 17.0194 115 21.9709 115L159.592 115C176.718 110.867 181 101.223 181 96.9177L181 29.386C152.689 19.0533 126.68 36.3975 117.214 46.3612C103.233 31.6002 77.3107 31.8462 66.0971 33.8143Z" fill="#F05D48" stroke="#F05D48"/>
<g style="mix-blend-mode:overlay">
<path d="M86.2043 90.0524C87.9344 90.661 89.6895 91.2423 91.4793 91.7878C101.224 94.7747 112.066 94.9483 122.4 92.6074C122.933 92.869 123.468 93.136 123.992 93.406C124.723 93.786 125.415 94.1762 125.898 94.799C126.348 95.3837 126.615 96.3324 126.182 97.0816C126.164 97.1129 126.148 97.1408 126.126 97.1702C125.595 97.9692 124.526 98.0863 123.769 98.1086C122.287 98.1501 120.75 97.9969 119.321 97.6826C119.848 97.987 120.367 98.3144 120.867 98.6587C121.696 99.2304 122.053 99.8221 121.935 100.414C121.841 100.866 121.443 101.249 120.917 101.387C120.462 101.505 119.991 101.442 119.583 101.374C118.208 101.143 116.83 100.723 115.555 100.173C115.667 100.261 115.772 100.354 115.876 100.447C116.505 101.028 116.919 101.899 116.93 102.663C116.937 103.191 116.761 103.648 116.413 103.986C115.899 104.488 115.105 104.662 113.976 104.512C111.961 104.245 110.105 103.475 108.222 102.639C102.058 99.9116 96.0348 96.7131 90.3233 93.1368C88.8777 92.2371 87.4114 91.2604 86.2043 90.0524Z" fill="#0D6EFD"/>
<path d="M115.628 96.7632L116.906 97.5012C117.612 97.9084 116.98 99.0026 116.275 98.5953L114.996 97.8573C114.293 97.4465 114.919 96.3539 115.628 96.7632Z" fill="white"/>
<path d="M117.878 94.6567L118.975 95.2898C119.68 95.6971 119.048 96.7913 118.343 96.384L117.246 95.7509C116.541 95.3436 117.173 94.2494 117.878 94.6567Z" fill="white"/>
<path d="M122.101 94.3025L123.198 94.9356C123.903 95.3429 123.271 96.437 122.566 96.0297L121.469 95.3966C120.764 94.9893 121.396 93.8952 122.101 94.3025Z" fill="white"/>
<path d="M92.6916 92.5108L94.4273 93.5129C95.1327 93.9202 94.501 95.0144 93.7956 94.6071L92.0599 93.605C91.3544 93.1977 91.9861 92.1035 92.6916 92.5108Z" fill="white"/>
<path d="M97.3607 94.965L99.4596 96.1768C100.165 96.5841 99.5333 97.6782 98.8279 97.2709L96.729 96.0591C96.029 95.6503 96.6552 94.5577 97.3607 94.965Z" fill="white"/>
<path d="M102.593 97.5074C103.192 97.8018 103.794 98.0982 104.394 98.3891C105.128 98.7476 104.492 99.8397 103.762 99.4832C103.164 99.1888 102.562 98.8925 101.962 98.6016C101.228 98.2431 101.863 97.151 102.593 97.5074Z" fill="white"/>
<path d="M107.183 99.6881C107.364 99.3745 107.736 99.3106 108.047 99.4576C108.491 99.6722 108.937 99.8833 109.382 100.098C109.693 100.245 109.775 100.683 109.614 100.962C109.433 101.275 109.061 101.339 108.75 101.192C108.306 100.977 107.86 100.766 107.415 100.552C107.106 100.401 107.022 99.9668 107.183 99.6881Z" fill="white"/>
<path d="M101.661 94.7435C101.74 94.4363 102.11 94.1757 102.433 94.2928C103.121 94.5457 103.77 94.8558 104.382 95.2556C105.062 95.6992 104.434 96.7954 103.751 96.3498C103.236 96.0154 102.693 95.7298 102.117 95.518C101.795 95.3974 101.57 95.0951 101.661 94.7435Z" fill="white"/>
<path d="M109.476 96.9745L110.573 97.6076C111.278 98.0149 110.646 99.109 109.941 98.7018L108.844 98.0686C108.139 97.6613 108.771 96.5672 109.476 96.9745Z" fill="white"/>
<path d="M113.215 100.838L114.584 101.629C115.289 102.036 114.658 103.13 113.952 102.723L112.583 101.932C111.88 101.522 112.506 100.429 113.215 100.838Z" fill="white"/>
<path d="M110.595 95.6737C110.31 95.4814 110.183 95.1202 110.362 94.8101C110.523 94.5313 110.942 94.3873 111.227 94.5796C111.595 94.8292 111.976 95.0311 112.4 95.1687C112.724 95.2768 112.945 95.5951 112.853 95.9411C112.769 96.2553 112.41 96.4985 112.08 96.3918C111.55 96.2207 111.051 95.9883 110.595 95.6737Z" fill="white"/>
<path d="M154.793 87.9259C154.554 87.8627 154.313 87.9418 154.154 88.1052L147.259 84.4171C146.935 84.2441 146.52 84.3667 146.358 84.6869C146.185 85.01 146.306 85.4142 146.63 85.5872L153.253 89.1325L153.122 93.3123C153.111 93.6778 153.398 93.9874 153.767 94.0009C154.023 94.0093 154.246 93.8732 154.365 93.6676C154.417 93.577 154.45 93.4708 154.455 93.3575L154.534 90.8427L155.926 93.1981C156.111 93.5142 156.52 93.6203 156.836 93.4358C156.941 93.3754 157.018 93.29 157.072 93.1959C157.189 92.9938 157.195 92.7416 157.069 92.5247L155.23 89.4098L157.927 90.1115C158.222 90.189 158.524 90.0524 158.669 89.8015C158.699 89.7492 158.72 89.6964 158.737 89.636C158.83 89.281 158.615 88.9198 158.259 88.826L154.793 87.9259Z" fill="white"/>
<path d="M166.676 74.2465L163.206 73.3444C162.968 73.2812 162.727 73.3603 162.567 73.5237L155.673 69.8356C155.349 69.6626 154.931 69.7887 154.772 70.1054C154.599 70.4285 154.72 70.8326 155.044 71.0057L161.667 74.551L161.535 78.7308C161.525 79.0963 161.812 79.4059 162.181 79.4194C162.437 79.4278 162.66 79.2917 162.778 79.0861C162.831 78.9955 162.864 78.8893 162.869 78.776L162.947 76.2612L164.339 78.6167C164.525 78.9328 164.934 79.0388 165.25 78.8543C165.355 78.7939 165.432 78.7085 165.486 78.6144C165.603 78.4123 165.609 78.1601 165.483 77.9432L163.644 74.8283L166.34 75.53C166.635 75.6075 166.938 75.4709 167.083 75.22C167.113 75.1677 167.134 75.1149 167.15 75.0545C167.245 74.705 167.032 74.3403 166.676 74.2465Z" fill="white"/>
<path d="M151.737 6.98383C151.172 6.96379 150.611 7.3787 150.369 7.99159C150.164 8.51479 150.19 9.0827 150.249 9.61832C150.421 11.1438 150.843 12.6376 151.254 14.0874L152.926 19.9913C151.855 17.0548 150.524 14.2143 148.945 11.5138C148.018 9.93331 146.942 8.34554 145.346 7.45654C144.736 7.11818 144.185 6.96737 143.663 6.99151C142.986 7.02779 142.388 7.3936 142.139 7.93754C141.816 8.63388 142.104 9.4179 142.394 10.0217C143.833 13.0455 146.213 15.4793 148.517 17.8362C149.719 19.0691 150.95 20.3326 152.053 21.6803C150.741 20.2351 149.365 18.8275 147.861 17.569C145.009 15.1786 142.081 13.6513 139.151 13.0327C138.794 12.9568 138.384 12.9102 138.063 13.1431C137.559 13.5074 137.661 14.226 137.906 14.7297C138.753 16.5055 140.58 17.4771 142.539 18.399L152.747 23.1961C151.623 26.4822 147.611 27.971 145.71 28.5045C139.972 30.1118 134.266 27.1148 129.234 24.4744L128.816 24.256C121.337 20.3375 115.019 17.1264 108.481 14.2068C94.4648 7.94045 78.2579 2.44425 64.3044 9.16729C59.1296 11.662 54.5711 16.041 51.1266 21.8298C46.4284 29.701 44.8052 38.5856 46.4083 47.5116C47.9196 55.9433 52.1803 63.9924 58.7304 70.7941C65.6925 78.0194 74.3796 83.402 81.1729 87.2822C85.1747 89.5694 88.529 91.3248 91.7277 92.8093C96.1024 94.8378 100.151 96.3343 104.105 97.3814C120.258 101.657 137.519 97.4241 149.153 86.3377C152.651 83.005 155.555 79.3295 157.839 75.3746C161.486 69.0571 163.545 62.0315 163.881 54.578C164.456 41.9521 161.295 30.9329 154.73 22.5612C156.457 17.8672 155.932 12.3885 153.246 8.13799C152.944 7.65249 152.455 7.00769 151.737 6.98383Z" fill="#FFCB14"/>
<path d="M138.535 31.4563C133.963 30.7539 130.062 30.8481 126.602 31.7357C122.385 32.8224 118.887 35.1379 116.759 38.2673C114.372 41.7812 113.9 46.3083 115.553 49.8087C117.691 54.3323 122.645 56.3241 125.407 57.1056C131.549 58.8486 138.398 58.3334 144.195 55.6873C145.309 55.178 146.576 54.5158 147.522 53.4498C147.832 53.0989 148.087 52.7213 148.285 52.3294C148.731 51.444 148.869 50.4875 148.662 49.62C148.121 47.356 143.704 47.0544 141.241 47.101C141.572 46.9715 143.721 46.0653 144.041 45.9063C144.958 45.4464 145.603 44.9176 146.016 44.2916C146.557 43.4751 146.662 42.4949 146.292 41.7329C145.653 40.4117 143.958 40.1533 142.553 40.0713L138.297 40.1277C138.954 39.9819 140.916 39.5352 141.504 39.2013C143.022 38.3396 144.293 36.4116 143.662 34.5371C143.115 32.9113 141.439 31.902 138.535 31.4563Z" fill="#0D6EFD"/>
<path d="M92.9372 34.9351C92.0917 34.5445 91.0271 34.6221 90.088 35.1438C89.3652 35.5489 88.7105 36.207 88.0878 37.1484C87.336 38.2893 86.8012 39.5463 86.4951 40.8749C86.3713 41.412 86.2483 42.1169 86.3778 42.8282C86.5112 43.5649 86.9275 44.1909 87.4868 44.5045C88.3205 44.9719 89.3122 44.7221 89.9599 44.3341C90.6247 43.9328 91.2543 43.4553 91.8281 42.9131C92.5874 42.1947 93.2417 41.3598 93.7568 40.4678C93.9097 40.2029 94.0521 39.9321 94.1785 39.6566C94.9401 38.0149 94.6262 35.7197 92.9372 34.9351Z" fill="white"/>
<path d="M69.9448 62.2017C69.3041 62.5612 68.7227 63.1408 68.1729 63.9803C67.5065 64.9893 67.0327 66.1003 66.7626 67.2778C66.655 67.7546 66.5438 68.3827 66.6566 69.01C66.7748 69.6682 67.1463 70.2265 67.6462 70.5059C68.3926 70.9229 69.2777 70.7045 69.8563 70.3556C70.448 70.0002 71.0038 69.5778 71.5089 69.0982C72.1785 68.4626 72.762 67.7263 73.2187 66.9353C73.3534 66.7018 73.4798 66.4588 73.5916 66.2167C74.2706 64.7503 73.9903 62.7115 72.484 62.0137C71.7298 61.6666 70.7812 61.7368 69.9448 62.2017Z" fill="white"/>
<path d="M65.8927 48.5166C65.5677 48.8214 65.5504 49.3272 65.8508 49.6539C67.2413 51.149 67.7864 53.3825 67.2442 55.346C67.031 56.1104 66.6825 56.7222 66.2332 57.1132C65.6069 57.6576 64.6273 57.8865 63.675 57.7131C62.8032 57.5535 61.9001 57.0693 61.0634 56.3167C60.7325 56.0188 60.2235 56.0455 59.9259 56.3755C59.6283 56.7054 59.656 57.2139 59.9869 57.5118C61.0464 58.4673 62.2215 59.0854 63.3881 59.2989C64.8349 59.5674 66.2974 59.2038 67.2973 58.3269C67.6553 58.0132 67.961 57.6369 68.2165 57.1944C68.458 56.7762 68.6521 56.3029 68.7969 55.7779C69.4894 53.2879 68.7919 50.4553 67.0314 48.5607C66.7311 48.234 66.2192 48.2173 65.8927 48.5166Z" fill="#3F4553"/>
<path d="M80.8422 27.6964C80.4419 27.5025 79.9609 27.6662 79.7656 28.0691C79.5722 28.4685 79.7405 28.9513 80.1407 29.1452C81.1344 29.626 81.8718 30.744 82.0199 31.9957C82.1559 33.1474 81.8299 34.4459 81.1089 35.6465C80.7202 36.2955 80.3243 36.6988 79.9073 36.8808C79.3846 37.1087 78.6699 37.0399 77.9933 36.6957C77.2921 36.3374 76.6718 35.7423 76.0719 35.1683C75.7506 34.8619 75.2391 34.8687 74.9331 35.1891C74.627 35.5095 74.6347 36.0204 74.9561 36.3267C75.6088 36.9544 76.3452 37.663 77.2639 38.1284C78.3842 38.6962 79.5837 38.7801 80.555 38.3559C81.289 38.0363 81.9195 37.4201 82.4882 36.4754C82.5144 36.4301 82.5426 36.3813 82.5687 36.336C83.4177 34.8655 83.7887 33.2631 83.6183 31.8081C83.4072 30.0043 82.3394 28.4261 80.8422 27.6964Z" fill="#3F4553"/>
<path d="M86.0187 55.2579C85.8588 55.2446 85.7099 55.2283 85.57 55.2126C84.4886 55.0854 83.3948 55.0764 82.3241 55.197C80.6338 55.3826 79.482 55.9581 78.9078 56.9042C78.5357 57.5164 78.4347 58.2479 78.3807 58.9462C78.2907 60.1022 78.438 61.3069 78.5789 62.4662C78.6464 63.0348 78.7199 63.6254 78.7569 64.1904C78.9465 66.8784 79.334 69.5785 79.9132 72.2127C80.0456 72.8141 80.3598 73.1489 80.7539 73.1116C81.1935 73.068 81.3736 72.5866 81.4422 72.4032L83.4265 67.063C83.6271 68.4657 83.9393 69.8121 84.2693 71.2246C84.3683 71.6581 84.4728 72.0901 84.5697 72.527C84.6544 72.8965 84.7791 73.2612 85.1195 73.4298C85.5881 73.6586 86.0932 73.3322 86.3848 72.9803C86.5094 72.8291 86.6199 72.6699 86.7165 72.5027C87.2335 71.6072 87.3662 70.5223 87.4754 69.6236L88.596 60.3513C88.6207 60.1472 88.6474 59.9396 88.6742 59.732C88.7687 58.9875 88.8684 58.218 88.888 57.4581C88.9013 56.9593 88.8052 56.5693 88.5978 56.2591C88.5779 56.2291 88.5545 56.197 88.5326 56.1704C87.9533 55.4317 86.8828 55.334 86.0187 55.2579Z" fill="#3F4553"/>
<path d="M132.016 71.5326C132.655 71.9251 134.311 73.0017 133.338 73.8712C132.82 74.3338 131.908 74.3558 131.307 74.7286C130.581 75.1786 131.241 76.3351 131.966 75.8852C133.038 75.2218 134.549 75.2904 134.88 73.7902C135.232 72.2047 133.871 71.1172 132.678 70.3862C131.948 69.9324 131.284 71.0822 132.016 71.5326Z" fill="white"/>
<path d="M140.068 83.4667C140.414 83.7871 140.762 84.1041 141.111 84.4266C141.283 84.5813 141.572 84.7577 141.688 84.9595C141.747 85.0587 141.786 85.0719 141.806 85.0695C141.795 85.0814 141.775 85.1073 141.741 85.1665C141.595 85.4354 140.943 85.7185 140.697 85.8784C140.308 86.1325 139.913 86.3735 139.514 86.6126C138.776 87.051 139.438 88.2041 140.173 87.7691C140.811 87.3896 141.44 86.995 142.048 86.5704C142.481 86.2721 143.052 85.9606 143.188 85.4026C143.304 84.9263 143.074 84.4956 142.76 84.1519C142.232 83.5733 141.589 83.067 141.01 82.5375C140.387 81.9549 139.436 82.8835 140.068 83.4667Z" fill="white"/>
<path d="M140.425 74.0972C139.615 73.8152 139.286 75.1027 140.091 75.3862C140.648 75.5825 141.946 76.0115 141.712 76.8521C141.63 77.1483 141.246 77.3125 141.007 77.453C140.678 77.644 140.365 77.8395 140.079 78.0926C139.439 78.6614 140.374 79.6057 141.016 79.0425C141.466 78.6424 142.069 78.4609 142.499 78.0308C142.91 77.6176 143.109 77.0779 143.044 76.4968C142.884 75.1127 141.588 74.5035 140.425 74.0972Z" fill="white"/>
<path d="M147.971 76.4326C147.201 76.0719 146.53 77.2177 147.307 77.5825C147.641 77.7381 147.961 77.9091 148.269 78.11C148.556 78.2988 148.793 78.5568 149.065 78.7555C148.953 78.8118 148.832 78.8765 148.797 78.8888C148.445 79.0477 148.09 79.2101 147.738 79.369C146.957 79.7218 147.623 80.8734 148.397 80.5255C149.165 80.1792 150.94 79.7588 150.601 78.5875C150.466 78.1194 149.968 77.7482 149.606 77.4556C149.101 77.0479 148.559 76.7119 147.971 76.4326Z" fill="white"/>
<path d="M96.828 86.4433C97.3239 87.157 98.3301 88.4952 97.4813 89.32C96.8664 89.9174 95.3738 89.7201 94.5898 89.7553C93.7389 89.7936 93.7377 91.1264 94.5997 91.0851C95.9487 91.023 97.8621 91.2171 98.7141 89.9109C99.6157 88.5266 98.8083 86.9733 97.9846 85.7869C97.5006 85.0847 96.3405 85.739 96.828 86.4433Z" fill="white"/>
<path d="M100.584 76.9779C101.057 77.8039 101.625 78.8197 101.643 79.8055C101.664 80.9701 99.6092 81.0938 98.7516 81.3048C97.916 81.51 98.2645 82.7938 99.098 82.592C100.412 82.2681 102.462 82.1928 102.892 80.6102C103.282 79.1767 102.428 77.5267 101.744 76.3236C101.315 75.5742 100.162 76.2326 100.584 76.9779Z" fill="white"/>
<path d="M103.833 68.3494C104.319 69.0481 105.232 69.9749 105.372 70.8545C105.475 71.5137 104.749 71.5542 104.252 71.6484C103.71 71.7488 103.17 71.8457 102.633 71.9447C101.79 72.0989 102.138 73.3826 102.979 73.2319C104.18 73.0147 106.266 73.039 106.675 71.5741C107.065 70.1641 105.715 68.7436 104.988 67.6965C104.506 66.9908 103.346 67.6452 103.833 68.3494Z" fill="white"/>
<path d="M107.648 59.7263C107.892 60.2625 108.133 60.7966 108.378 61.3327C108.554 61.7221 109.117 62.5212 109.108 62.9391C109.086 64.1154 107.165 64.1914 106.372 64.0403C105.537 63.883 105.192 65.1659 106.038 65.3293C107.44 65.595 109.305 65.3245 110.223 64.0891C110.627 63.542 110.553 63.0018 110.319 62.4068C109.873 61.2759 109.309 60.1793 108.808 59.072C108.45 58.2891 107.298 58.9529 107.648 59.7263Z" fill="white"/>
<path d="M106.586 87.4868C107.28 87.9944 108.712 89.0393 108.079 90.0865C107.659 90.7823 106.109 91.119 105.406 91.4187C104.617 91.753 105.287 92.9067 106.065 92.5753C107.388 92.0102 109.309 91.5862 109.507 89.8885C109.696 88.2696 108.431 87.1952 107.252 86.3334C106.559 85.8313 105.9 86.9887 106.586 87.4868Z" fill="white"/>
<path d="M110.582 76.5571C111.291 77.1846 112.17 78.0967 112.338 79.0719C112.583 80.4953 110.784 80.6274 109.82 80.6841C108.966 80.7349 108.971 82.0661 109.83 82.0139C111.29 81.9279 113.139 81.6204 113.625 79.9816C114.103 78.3713 112.648 76.6073 111.533 75.6195C110.889 75.0572 109.937 75.9894 110.582 76.5571Z" fill="white"/>
<path d="M115.218 65.9137C115.751 66.6856 116.487 67.5799 116.369 68.534C116.275 69.302 115.789 69.4582 115.083 69.6731C114.595 69.8237 114.109 69.868 113.599 69.8713C112.743 69.8786 112.749 71.2064 113.609 71.2011C114.996 71.1936 116.927 70.7936 117.671 69.4719C118.454 68.084 117.142 66.3646 116.373 65.2519C115.891 64.5552 114.731 65.2095 115.218 65.9137Z" fill="white"/>
<path d="M118.066 89.3062C118.317 89.7579 118.571 90.2062 118.822 90.658C118.976 90.9325 119.596 91.7043 119.578 92.0098C119.519 92.9278 117.601 93.1771 116.929 93.2678C116.081 93.3821 116.438 94.6663 117.275 94.555C118.397 94.4033 120.529 93.8965 120.959 92.6585C121.144 92.1287 120.893 91.6445 120.64 91.1872C120.176 90.3383 119.696 89.4993 119.224 88.6553C118.803 87.901 117.646 88.5574 118.066 89.3062Z" fill="white"/>
<path d="M120.252 80.8022C120.837 81.3771 122.624 83.1615 121.875 84.1042C121.436 84.6546 120.136 84.689 119.499 84.9622C118.711 85.3019 119.381 86.4556 120.158 86.1187C121.381 85.589 123.014 85.6723 123.322 84.0336C123.617 82.4663 122.227 80.8738 121.199 79.8716C120.586 79.2715 119.639 80.2022 120.252 80.8022Z" fill="white"/>
<path d="M122.306 70.4288C122.862 71.2328 123.764 72.1624 124.07 73.0919C124.312 73.8262 123.908 74.0018 123.262 74.1536C122.712 74.2825 122.161 74.4058 121.609 74.5327C120.772 74.7234 121.121 76.0071 121.955 75.8199C123.185 75.5359 125.152 75.4771 125.478 73.9514C125.803 72.4292 124.253 70.9117 123.463 69.7724C122.975 69.0682 121.815 69.7226 122.306 70.4288Z" fill="white"/>
<path d="M129.59 88.4048C129.999 88.8499 130.4 89.3 130.799 89.7536C130.943 89.9157 131.275 90.1631 131.341 90.3727C131.569 91.09 131.087 91.1274 130.614 91.2122C129.81 91.3616 129.081 91.3911 128.487 92.0241C127.9 92.6466 128.837 93.5964 129.424 92.9739C129.92 92.4468 130.766 92.6012 131.411 92.397C131.992 92.2124 132.566 91.8469 132.796 91.255C133.022 90.6789 132.823 90.1276 132.466 89.6568C131.887 88.8856 131.185 88.1827 130.535 87.4687C129.959 86.8383 129.015 87.771 129.59 88.4048Z" fill="white"/>
<path d="M131.128 79.4338C131.554 80.1957 132.391 80.6416 132.787 81.3908C133.141 82.0598 132.502 82.4014 131.964 82.6951C131.494 82.9532 131.02 83.2093 130.55 83.4674C129.796 83.8778 130.461 85.0329 131.209 84.624C132.303 84.0287 134.159 83.4421 134.264 81.9785C134.369 80.506 132.907 79.8849 132.281 78.7755C131.865 78.0287 130.708 78.685 131.128 79.4338Z" fill="white"/>
<path d="M139.881 45.0055C139.375 45.229 138.868 45.4525 138.36 45.6794C138.03 45.8234 137.948 46.2964 138.112 46.5859C138.306 46.926 138.69 46.98 139.02 46.836C139.526 46.6125 140.032 46.389 140.54 46.1621C140.87 46.0181 140.952 45.5452 140.789 45.2556C140.596 44.912 140.213 44.858 139.881 45.0055Z" fill="white"/>
<path d="M144.048 42.2962C143.398 42.3486 142.797 42.5032 142.199 42.7571C141.867 42.8956 141.785 43.3775 141.95 43.6635C142.145 44.0036 142.527 44.0522 142.858 43.9136C143.173 43.7795 143.697 43.6545 144.054 43.624C144.412 43.5935 144.72 43.3345 144.715 42.9555C144.713 42.6199 144.406 42.2657 144.048 42.2962Z" fill="white"/>
<path d="M137.492 41.4008C136.746 41.644 135.998 41.8906 135.249 42.1317C134.435 42.396 134.778 43.6812 135.596 43.4189C136.341 43.1758 137.089 42.9291 137.838 42.688C138.649 42.4218 138.308 41.1331 137.492 41.4008Z" fill="white"/>
<path d="M121.473 36.32C120.874 36.6244 120.22 36.837 119.547 36.9223C119.191 36.9673 118.884 37.1993 118.886 37.5908C118.889 37.9174 119.197 38.2951 119.557 38.2521C120.465 38.1397 121.315 37.8921 122.133 37.4766C122.901 37.0887 122.237 35.9337 121.473 36.32Z" fill="white"/>
<path d="M127.833 33.6686C127.065 33.8382 126.286 33.9603 125.5 34.0315C125.143 34.062 124.837 34.3175 124.839 34.7C124.841 35.0356 125.15 35.3953 125.51 35.3613C126.409 35.2807 127.299 35.1493 128.181 34.9523C129.014 34.7686 128.666 33.4849 127.833 33.6686Z" fill="white"/>
<path d="M132.995 35.6727C132.237 35.7745 131.471 35.8198 130.707 35.8291C129.85 35.8365 129.855 37.1678 130.716 37.1589C131.596 37.1512 132.467 37.078 133.341 36.9599C133.7 36.9114 133.894 36.4616 133.812 36.1446C133.705 35.7575 133.35 35.6222 132.995 35.6727Z" fill="white"/>
<path d="M136.426 32.3669C135.546 32.4305 134.665 32.4887 133.786 32.5523C132.937 32.6106 132.936 33.9434 133.796 33.8821C134.675 33.8185 135.556 33.7603 136.436 33.6967C137.286 33.6349 137.285 32.3056 136.426 32.3669Z" fill="white"/>
<path d="M140.799 35.059C139.96 35.1504 139.128 35.2837 138.306 35.4825C137.472 35.6842 137.821 36.9679 138.652 36.7696C139.361 36.5982 140.079 36.4688 140.807 36.3923C141.165 36.3528 141.472 36.1118 141.468 35.7238C141.466 35.3882 141.157 35.0195 140.799 35.059Z" fill="white"/>
<path d="M119.799 40.0271L117.774 40.6468C116.954 40.8981 117.297 42.1832 118.12 41.934C118.794 41.7279 119.472 41.5204 120.145 41.3143C120.962 41.0611 120.619 39.7759 119.799 40.0271Z" fill="white"/>
<path d="M126.551 38.5591C125.749 38.7051 124.947 38.8455 124.145 38.9915C123.791 39.0565 123.589 39.4788 123.674 39.8069C123.777 40.1774 124.134 40.3417 124.492 40.2787L126.897 39.8463C127.251 39.7813 127.453 39.359 127.368 39.0309C127.269 38.6624 126.908 38.4961 126.551 38.5591Z" fill="white"/>
<path d="M134.31 38.2256C133.488 38.383 132.663 38.5383 131.841 38.6956C130.999 38.8553 131.347 40.139 132.187 39.9828C133.009 39.8255 133.835 39.6701 134.656 39.5128C135.498 39.3531 135.146 38.0674 134.31 38.2256Z" fill="white"/>
<path d="M118.936 43.9982C118.169 44.0759 117.406 44.1557 116.639 44.2335C116.283 44.2695 115.976 44.5195 115.979 44.902C115.982 45.2341 116.288 45.6008 116.649 45.5633C117.416 45.4855 118.179 45.4058 118.945 45.328C119.302 45.292 119.609 45.042 119.606 44.6595C119.602 44.3274 119.294 43.9587 118.936 43.9982Z" fill="white"/>
<path d="M119.602 48.0211C118.917 48.0713 118.236 48.1615 117.562 48.2972C117.209 48.3677 117.004 48.7791 117.091 49.1126C117.189 49.4757 117.555 49.6549 117.908 49.5844C118.471 49.4726 119.037 49.3953 119.61 49.3544C119.969 49.3294 120.272 49.0629 120.271 48.6859C120.27 48.3413 119.961 47.9961 119.602 48.0211Z" fill="white"/>
<path d="M122.139 51.725C121.255 51.8605 120.369 51.9996 119.486 52.1351C119.128 52.1891 118.931 52.628 119.015 52.9505C119.117 53.33 119.475 53.4763 119.832 53.4223C120.716 53.2868 121.602 53.1477 122.485 53.0122C122.843 52.9582 123.04 52.5194 122.956 52.1968C122.851 51.8153 122.493 51.669 122.139 51.725Z" fill="white"/>
<path d="M127.817 54.376C127.186 54.4529 126.554 54.5299 125.922 54.6014C125.565 54.6464 125.257 54.8819 125.261 55.2699C125.263 55.5965 125.572 55.9742 125.932 55.9312C126.563 55.8542 127.194 55.7773 127.827 55.7058C128.183 55.6608 128.492 55.4252 128.487 55.0372C128.485 54.7106 128.177 54.333 127.817 54.376Z" fill="white"/>
<path d="M125.967 47.8444C125.283 48.0948 124.57 48.2732 123.846 48.3482C123.49 48.3842 123.18 48.6322 123.186 49.0167C123.19 49.3488 123.495 49.7155 123.856 49.678C124.7 49.5887 125.52 49.4169 126.316 49.1281C126.652 49.006 126.886 48.6813 126.787 48.3127C126.697 47.9916 126.303 47.7223 125.967 47.8444Z" fill="white"/>
<path d="M125.092 43.3759C124.395 43.4056 123.698 43.4352 123 43.4594C122.145 43.4957 122.15 44.827 123.01 44.7892C123.707 44.7596 124.404 44.7299 125.102 44.7057C125.954 44.6729 125.95 43.3416 125.092 43.3759Z" fill="white"/>
<path d="M131.862 50.6762C131.064 50.7268 130.265 50.7809 129.467 50.8315C128.615 50.8878 128.616 52.2171 129.477 52.1613C130.275 52.1107 131.074 52.0566 131.872 52.006C132.722 51.9532 132.721 50.6239 131.862 50.6762Z" fill="white"/>
<path d="M136.446 54.512C135.976 54.5754 135.506 54.6387 135.037 54.7021C134.678 54.7506 134.484 55.2004 134.566 55.5175C134.67 55.9025 135.025 56.0378 135.383 55.9893C135.853 55.9259 136.323 55.8626 136.792 55.7992C137.151 55.7507 137.345 55.3008 137.263 54.9838C137.157 54.6022 136.804 54.4635 136.446 54.512Z" fill="white"/>
<path d="M132.806 46.3473L130.753 46.5559C130.397 46.592 130.09 46.842 130.092 47.2245C130.096 47.5566 130.401 47.9233 130.763 47.8858C131.446 47.8156 132.133 47.7474 132.816 47.6772C133.172 47.6412 133.479 47.3911 133.476 47.0086C133.473 46.6765 133.167 46.3099 132.806 46.3473Z" fill="white"/>
<path d="M131.301 42.0587C130.537 42.1474 129.772 42.2307 129.008 42.3194C128.65 42.3589 128.343 42.5999 128.347 42.9879C128.348 43.318 128.658 43.6922 129.018 43.6492C129.782 43.5605 130.547 43.4772 131.311 43.3885C131.669 43.349 131.975 43.108 131.971 42.72C131.969 42.3934 131.659 42.0192 131.301 42.0587Z" fill="white"/>
<path d="M137.605 49.1972C137.126 49.4782 136.609 49.6487 136.054 49.6816C135.697 49.7032 135.39 49.9767 135.393 50.3502C135.395 50.6947 135.701 51.0345 136.064 51.0115C136.845 50.9653 137.595 50.7476 138.27 50.3523C139.003 49.9208 138.344 48.7643 137.605 49.1972Z" fill="white"/>
<path d="M142.546 52.4308C141.93 52.6511 141.29 52.807 140.639 52.8629C140.281 52.8934 139.975 53.1489 139.978 53.5314C139.98 53.867 140.289 54.2267 140.649 54.1927C141.415 54.1239 142.168 53.9732 142.894 53.7145C143.234 53.5945 143.464 53.2677 143.365 52.8991C143.274 52.5726 142.887 52.3073 142.546 52.4308Z" fill="white"/>
<path d="M145.332 49.5652C145.4 49.5351 145.23 49.6041 145.217 49.6105C145.136 49.638 145.052 49.6635 144.969 49.6856C144.826 49.7237 144.682 49.7474 144.593 49.7564C144.237 49.7924 143.929 50.0424 143.932 50.4249C143.934 50.7605 144.243 51.1202 144.603 51.0862C145.095 51.0405 145.541 50.9215 145.991 50.7217C146.321 50.5777 146.403 50.1048 146.24 49.8153C146.045 49.4752 145.662 49.4212 145.332 49.5652Z" fill="white"/>
</g>
<path d="M15.519 86.633L15.519 90.962L20.703 90.962L20.703 92.519L15.519 92.519L15.519 98L13.593 98L13.593 85.076L21.603 85.076L21.603 86.633L15.519 86.633ZM25.2116 88.856L25.2116 98L23.4566 98L23.4566 88.856L25.2116 88.856ZM25.5446 86.03C25.5446 86.192 25.5116 86.348 25.4456 86.498C25.3796 86.642 25.2896 86.771 25.1756 86.885C25.0676 86.993 24.9386 87.08 24.7886 87.146C24.6386 87.206 24.4826 87.236 24.3206 87.236C24.1586 87.236 24.0056 87.206 23.8616 87.146C23.7176 87.08 23.5886 86.993 23.4746 86.885C23.3666 86.771 23.2796 86.642 23.2136 86.498C23.1536 86.348 23.1236 86.192 23.1236 86.03C23.1236 85.862 23.1536 85.706 23.2136 85.562C23.2796 85.412 23.3666 85.283 23.4746 85.175C23.5886 85.061 23.7176 84.974 23.8616 84.914C24.0056 84.848 24.1586 84.815 24.3206 84.815C24.4826 84.815 24.6386 84.848 24.7886 84.914C24.9386 84.974 25.0676 85.061 25.1756 85.175C25.2896 85.283 25.3796 85.412 25.4456 85.562C25.5116 85.706 25.5446 85.862 25.5446 86.03ZM29.4085 90.611C29.7025 90.011 30.0565 89.54 30.4705 89.198C30.8845 88.856 31.3825 88.685 31.9645 88.685C32.1625 88.685 32.3485 88.709 32.5225 88.757C32.7025 88.799 32.8585 88.865 32.9905 88.955L32.8735 90.278C32.8315 90.44 32.7325 90.521 32.5765 90.521C32.4925 90.521 32.3665 90.506 32.1985 90.476C32.0305 90.44 31.8505 90.422 31.6585 90.422C31.3765 90.422 31.1275 90.464 30.9115 90.548C30.6955 90.626 30.5005 90.746 30.3265 90.908C30.1585 91.064 30.0085 91.259 29.8765 91.493C29.7445 91.721 29.6215 91.982 29.5075 92.276L29.5075 98L27.7525 98L27.7525 88.856L28.7605 88.856C28.9525 88.856 29.0815 88.892 29.1475 88.964C29.2195 89.03 29.2705 89.15 29.3005 89.324L29.4085 90.611ZM40.0673 92.411C40.0673 92.063 40.0163 91.742 39.9143 91.448C39.8183 91.154 39.6743 90.899 39.4823 90.683C39.2903 90.467 39.0563 90.299 38.7803 90.179C38.5043 90.059 38.1863 89.999 37.8263 89.999C37.0883 89.999 36.5063 90.212 36.0803 90.638C35.6603 91.064 35.3933 91.655 35.2793 92.411L40.0673 92.411ZM41.5163 96.695C41.3003 96.947 41.0513 97.166 40.7693 97.352C40.4873 97.532 40.1873 97.679 39.8693 97.793C39.5513 97.907 39.2213 97.991 38.8793 98.045C38.5433 98.099 38.2103 98.126 37.8803 98.126C37.2503 98.126 36.6653 98.021 36.1253 97.811C35.5913 97.595 35.1263 97.283 34.7303 96.875C34.3403 96.461 34.0343 95.951 33.8123 95.345C33.5963 94.733 33.4883 94.031 33.4883 93.239C33.4883 92.603 33.5873 92.012 33.7853 91.466C33.9833 90.914 34.2653 90.434 34.6313 90.026C35.0033 89.618 35.4563 89.297 35.9903 89.063C36.5243 88.829 37.1243 88.712 37.7903 88.712C38.3483 88.712 38.8613 88.805 39.3293 88.991C39.8033 89.171 40.2113 89.435 40.5533 89.783C40.8953 90.131 41.1623 90.56 41.3543 91.07C41.5523 91.58 41.6513 92.162 41.6513 92.816C41.6513 93.086 41.6213 93.269 41.5613 93.365C41.5013 93.455 41.3903 93.5 41.2283 93.5L35.2343 93.5C35.2523 94.046 35.3303 94.523 35.4683 94.931C35.6063 95.333 35.7953 95.669 36.0353 95.939C36.2813 96.209 36.5723 96.41 36.9083 96.542C37.2443 96.674 37.6193 96.74 38.0333 96.74C38.4233 96.74 38.7593 96.695 39.0413 96.605C39.3293 96.515 39.5753 96.419 39.7793 96.317C39.9893 96.209 40.1633 96.11 40.3013 96.02C40.4453 95.93 40.5713 95.885 40.6793 95.885C40.8233 95.885 40.9343 95.939 41.0123 96.047L41.5163 96.695ZM53.0674 96.479C53.5534 96.479 53.9674 96.422 54.3094 96.308C54.6574 96.194 54.9394 96.038 55.1554 95.84C55.3774 95.642 55.5394 95.408 55.6414 95.138C55.7434 94.862 55.7944 94.562 55.7944 94.238C55.7944 93.596 55.5724 93.092 55.1284 92.726C54.6844 92.354 53.9974 92.168 53.0674 92.168L50.3674 92.168L50.3674 96.479L53.0674 96.479ZM50.3674 86.579L50.3674 90.809L52.5724 90.809C53.5144 90.809 54.2134 90.62 54.6694 90.242C55.1314 89.858 55.3624 89.342 55.3624 88.694C55.3624 87.956 55.1434 87.419 54.7054 87.083C54.2674 86.747 53.5864 86.579 52.6624 86.579L50.3674 86.579ZM52.6624 85.076C53.4724 85.076 54.1654 85.154 54.7414 85.31C55.3234 85.466 55.8004 85.691 56.1724 85.985C56.5444 86.279 56.8174 86.636 56.9914 87.056C57.1714 87.47 57.2614 87.941 57.2614 88.469C57.2614 88.781 57.2134 89.081 57.1174 89.369C57.0214 89.657 56.8744 89.927 56.6764 90.179C56.4784 90.425 56.2294 90.647 55.9294 90.845C55.6294 91.043 55.2754 91.208 54.8674 91.34C56.7454 91.712 57.6844 92.693 57.6844 94.283C57.6844 94.835 57.5824 95.339 57.3784 95.795C57.1744 96.245 56.8774 96.635 56.4874 96.965C56.0974 97.295 55.6174 97.55 55.0474 97.73C54.4774 97.91 53.8294 98 53.1034 98L48.4504 98L48.4504 85.076L52.6624 85.076ZM61.2425 90.611C61.5365 90.011 61.8905 89.54 62.3045 89.198C62.7185 88.856 63.2165 88.685 63.7985 88.685C63.9965 88.685 64.1825 88.709 64.3565 88.757C64.5365 88.799 64.6925 88.865 64.8245 88.955L64.7075 90.278C64.6655 90.44 64.5665 90.521 64.4105 90.521C64.3265 90.521 64.2005 90.506 64.0325 90.476C63.8645 90.44 63.6845 90.422 63.4925 90.422C63.2105 90.422 62.9615 90.464 62.7455 90.548C62.5295 90.626 62.3345 90.746 62.1605 90.908C61.9925 91.064 61.8425 91.259 61.7105 91.493C61.5785 91.721 61.4555 91.982 61.3415 92.276L61.3415 98L59.5865 98L59.5865 88.856L60.5945 88.856C60.7865 88.856 60.9155 88.892 60.9815 88.964C61.0535 89.03 61.1045 89.15 61.1345 89.324L61.2425 90.611ZM71.9013 92.411C71.9013 92.063 71.8503 91.742 71.7483 91.448C71.6523 91.154 71.5083 90.899 71.3163 90.683C71.1243 90.467 70.8903 90.299 70.6143 90.179C70.3383 90.059 70.0203 89.999 69.6603 89.999C68.9223 89.999 68.3403 90.212 67.9143 90.638C67.4943 91.064 67.2273 91.655 67.1133 92.411L71.9013 92.411ZM73.3503 96.695C73.1343 96.947 72.8853 97.166 72.6033 97.352C72.3213 97.532 72.0213 97.679 71.7033 97.793C71.3853 97.907 71.0553 97.991 70.7133 98.045C70.3773 98.099 70.0443 98.126 69.7143 98.126C69.0843 98.126 68.4993 98.021 67.9593 97.811C67.4253 97.595 66.9603 97.283 66.5643 96.875C66.1743 96.461 65.8683 95.951 65.6463 95.345C65.4303 94.733 65.3223 94.031 65.3223 93.239C65.3223 92.603 65.4213 92.012 65.6193 91.466C65.8173 90.914 66.0993 90.434 66.4653 90.026C66.8373 89.618 67.2903 89.297 67.8243 89.063C68.3583 88.829 68.9583 88.712 69.6243 88.712C70.1823 88.712 70.6953 88.805 71.1633 88.991C71.6373 89.171 72.0453 89.435 72.3873 89.783C72.7293 90.131 72.9963 90.56 73.1883 91.07C73.3863 91.58 73.4853 92.162 73.4853 92.816C73.4853 93.086 73.4553 93.269 73.3953 93.365C73.3353 93.455 73.2243 93.5 73.0623 93.5L67.0683 93.5C67.0863 94.046 67.1643 94.523 67.3023 94.931C67.4403 95.333 67.6293 95.669 67.8693 95.939C68.1153 96.209 68.4063 96.41 68.7423 96.542C69.0783 96.674 69.4533 96.74 69.8673 96.74C70.2573 96.74 70.5933 96.695 70.8753 96.605C71.1633 96.515 71.4093 96.419 71.6133 96.317C71.8233 96.209 71.9973 96.11 72.1353 96.02C72.2793 95.93 72.4053 95.885 72.5133 95.885C72.6573 95.885 72.7683 95.939 72.8463 96.047L73.3503 96.695ZM80.2857 93.941C79.5717 93.965 78.9657 94.022 78.4677 94.112C77.9697 94.196 77.5647 94.31 77.2527 94.454C76.9407 94.598 76.7157 94.769 76.5777 94.967C76.4397 95.159 76.3707 95.375 76.3707 95.615C76.3707 95.843 76.4067 96.041 76.4787 96.209C76.5567 96.371 76.6587 96.506 76.7847 96.614C76.9167 96.716 77.0697 96.791 77.2437 96.839C77.4177 96.887 77.6067 96.911 77.8107 96.911C78.0807 96.911 78.3267 96.884 78.5487 96.83C78.7767 96.776 78.9897 96.701 79.1877 96.605C79.3857 96.503 79.5747 96.38 79.7547 96.236C79.9347 96.092 80.1117 95.927 80.2857 95.741L80.2857 93.941ZM75.1377 90.134C75.6477 89.648 76.1997 89.285 76.7937 89.045C77.3937 88.805 78.0507 88.685 78.7647 88.685C79.2867 88.685 79.7487 88.772 80.1507 88.946C80.5527 89.114 80.8917 89.351 81.1677 89.657C81.4437 89.963 81.6507 90.329 81.7887 90.755C81.9327 91.181 82.0047 91.652 82.0047 92.168L82.0047 98L81.2217 98C81.0477 98 80.9157 97.973 80.8257 97.919C80.7357 97.859 80.6637 97.751 80.6097 97.595L80.4207 96.794C80.1867 97.01 79.9557 97.202 79.7277 97.37C79.4997 97.532 79.2597 97.673 79.0077 97.793C78.7617 97.907 78.4977 97.994 78.2157 98.054C77.9337 98.114 77.6217 98.144 77.2797 98.144C76.9197 98.144 76.5807 98.096 76.2627 98C75.9507 97.898 75.6777 97.745 75.4437 97.541C75.2097 97.337 75.0237 97.082 74.8857 96.776C74.7537 96.47 74.6877 96.113 74.6877 95.705C74.6877 95.345 74.7837 95 74.9757 94.67C75.1737 94.334 75.4917 94.034 75.9297 93.77C76.3737 93.506 76.9497 93.29 77.6577 93.122C78.3717 92.954 79.2477 92.858 80.2857 92.834L80.2857 92.168C80.2857 91.478 80.1387 90.962 79.8447 90.62C79.5507 90.278 79.1187 90.107 78.5487 90.107C78.1647 90.107 77.8407 90.155 77.5767 90.251C77.3187 90.347 77.0937 90.455 76.9017 90.575C76.7157 90.689 76.5507 90.794 76.4067 90.89C76.2687 90.986 76.1247 91.034 75.9747 91.034C75.8547 91.034 75.7497 91.001 75.6597 90.935C75.5757 90.869 75.5067 90.791 75.4527 90.701L75.1377 90.134ZM87.093 98.144C86.355 98.144 85.785 97.937 85.383 97.523C84.987 97.109 84.789 96.518 84.789 95.75L84.789 90.278L83.727 90.278C83.625 90.278 83.538 90.248 83.466 90.188C83.4 90.122 83.367 90.026 83.367 89.9L83.367 89.189L84.852 88.982L85.248 86.255C85.272 86.153 85.317 86.075 85.383 86.021C85.455 85.961 85.545 85.931 85.653 85.931L86.544 85.931L86.544 89L89.136 89L89.136 90.278L86.544 90.278L86.544 95.633C86.544 95.993 86.631 96.263 86.805 96.443C86.985 96.617 87.213 96.704 87.489 96.704C87.651 96.704 87.789 96.683 87.903 96.641C88.023 96.599 88.125 96.554 88.209 96.506C88.293 96.452 88.365 96.404 88.425 96.362C88.485 96.32 88.539 96.299 88.587 96.299C88.647 96.299 88.692 96.314 88.722 96.344C88.758 96.368 88.794 96.41 88.83 96.47L89.352 97.316C89.064 97.58 88.722 97.784 88.326 97.928C87.93 98.072 87.519 98.144 87.093 98.144ZM92.5075 90.017C92.8915 89.627 93.3145 89.312 93.7765 89.072C94.2445 88.832 94.7815 88.712 95.3875 88.712C95.8915 88.712 96.3325 88.796 96.7105 88.964C97.0945 89.132 97.4155 89.369 97.6735 89.675C97.9315 89.975 98.1265 90.338 98.2585 90.764C98.3905 91.19 98.4565 91.661 98.4565 92.177L98.4565 98L96.6925 98L96.6925 92.177C96.6925 91.523 96.5425 91.016 96.2425 90.656C95.9425 90.29 95.4835 90.107 94.8655 90.107C94.4155 90.107 93.9925 90.215 93.5965 90.431C93.2065 90.641 92.8435 90.929 92.5075 91.295L92.5075 98L90.7525 98L90.7525 84.716L92.5075 84.716L92.5075 90.017ZM102.661 88.856L102.661 98L100.906 98L100.906 88.856L102.661 88.856ZM102.994 86.03C102.994 86.192 102.961 86.348 102.895 86.498C102.829 86.642 102.739 86.771 102.625 86.885C102.517 86.993 102.388 87.08 102.238 87.146C102.088 87.206 101.932 87.236 101.77 87.236C101.608 87.236 101.455 87.206 101.311 87.146C101.167 87.08 101.038 86.993 100.924 86.885C100.816 86.771 100.729 86.642 100.663 86.498C100.603 86.348 100.573 86.192 100.573 86.03C100.573 85.862 100.603 85.706 100.663 85.562C100.729 85.412 100.816 85.283 100.924 85.175C101.038 85.061 101.167 84.974 101.311 84.914C101.455 84.848 101.608 84.815 101.77 84.815C101.932 84.815 102.088 84.848 102.238 84.914C102.388 84.974 102.517 85.061 102.625 85.175C102.739 85.283 102.829 85.412 102.895 85.562C102.961 85.706 102.994 85.862 102.994 86.03ZM106.849 90.125C107.047 89.915 107.254 89.723 107.47 89.549C107.686 89.375 107.914 89.228 108.154 89.108C108.4 88.982 108.661 88.886 108.937 88.82C109.219 88.748 109.519 88.712 109.837 88.712C110.341 88.712 110.782 88.796 111.16 88.964C111.544 89.132 111.865 89.369 112.123 89.675C112.381 89.975 112.576 90.338 112.708 90.764C112.84 91.19 112.906 91.661 112.906 92.177L112.906 98L111.142 98L111.142 92.177C111.142 91.523 110.992 91.016 110.692 90.656C110.392 90.29 109.933 90.107 109.315 90.107C108.865 90.107 108.442 90.215 108.046 90.431C107.656 90.641 107.293 90.929 106.957 91.295L106.957 98L105.202 98L105.202 88.856L106.255 88.856C106.501 88.856 106.654 88.973 106.714 89.207L106.849 90.125ZM118.487 93.437C118.799 93.437 119.072 93.395 119.306 93.311C119.546 93.227 119.744 93.11 119.9 92.96C120.062 92.804 120.182 92.618 120.26 92.402C120.344 92.186 120.386 91.949 120.386 91.691C120.386 91.163 120.224 90.743 119.9 90.431C119.582 90.113 119.111 89.954 118.487 89.954C117.869 89.954 117.398 90.113 117.074 90.431C116.756 90.743 116.597 91.163 116.597 91.691C116.597 91.949 116.636 92.186 116.714 92.402C116.798 92.612 116.918 92.795 117.074 92.951C117.236 93.101 117.434 93.221 117.668 93.311C117.908 93.395 118.181 93.437 118.487 93.437ZM121.286 98.477C121.286 98.261 121.226 98.09 121.106 97.964C120.986 97.832 120.821 97.73 120.611 97.658C120.407 97.58 120.167 97.526 119.891 97.496C119.615 97.46 119.324 97.433 119.018 97.415C118.718 97.397 118.409 97.382 118.091 97.37C117.773 97.352 117.467 97.322 117.173 97.28C116.861 97.436 116.603 97.625 116.399 97.847C116.201 98.069 116.102 98.33 116.102 98.63C116.102 98.822 116.15 99.002 116.246 99.17C116.348 99.338 116.501 99.482 116.705 99.602C116.915 99.728 117.176 99.824 117.488 99.89C117.806 99.962 118.184 99.998 118.622 99.998C119.054 99.998 119.435 99.959 119.765 99.881C120.095 99.809 120.371 99.704 120.593 99.566C120.821 99.434 120.992 99.275 121.106 99.089C121.226 98.903 121.286 98.699 121.286 98.477ZM123.068 89.198L123.068 89.855C123.068 90.071 122.933 90.206 122.663 90.26L121.682 90.404C121.766 90.59 121.832 90.788 121.88 90.998C121.928 91.202 121.952 91.418 121.952 91.646C121.952 92.096 121.865 92.504 121.691 92.87C121.517 93.23 121.277 93.539 120.971 93.797C120.665 94.055 120.299 94.253 119.873 94.391C119.453 94.529 118.991 94.598 118.487 94.598C118.073 94.598 117.686 94.553 117.326 94.463C117.146 94.571 117.008 94.691 116.912 94.823C116.822 94.949 116.777 95.075 116.777 95.201C116.777 95.411 116.864 95.567 117.038 95.669C117.218 95.771 117.449 95.846 117.731 95.894C118.019 95.936 118.346 95.963 118.712 95.975C119.084 95.987 119.459 96.008 119.837 96.038C120.221 96.062 120.596 96.11 120.962 96.182C121.334 96.248 121.661 96.359 121.943 96.515C122.231 96.665 122.462 96.875 122.636 97.145C122.816 97.409 122.906 97.754 122.906 98.18C122.906 98.576 122.807 98.96 122.609 99.332C122.417 99.704 122.135 100.034 121.763 100.322C121.391 100.61 120.938 100.841 120.404 101.015C119.87 101.189 119.264 101.276 118.586 101.276C117.908 101.276 117.317 101.21 116.813 101.078C116.315 100.946 115.898 100.769 115.562 100.547C115.232 100.325 114.983 100.067 114.815 99.773C114.653 99.479 114.572 99.173 114.572 98.855C114.572 98.411 114.71 98.036 114.986 97.73C115.262 97.418 115.643 97.175 116.129 97.001C115.865 96.881 115.655 96.719 115.499 96.515C115.343 96.305 115.265 96.029 115.265 95.687C115.265 95.555 115.289 95.42 115.337 95.282C115.385 95.138 115.457 94.997 115.553 94.859C115.655 94.715 115.778 94.58 115.922 94.454C116.072 94.328 116.243 94.214 116.435 94.112C115.985 93.86 115.631 93.527 115.373 93.113C115.115 92.693 114.986 92.204 114.986 91.646C114.986 91.196 115.073 90.791 115.247 90.431C115.421 90.071 115.661 89.762 115.967 89.504C116.279 89.246 116.648 89.048 117.074 88.91C117.506 88.772 117.977 88.703 118.487 88.703C119.279 88.703 119.96 88.868 120.53 89.198L123.068 89.198Z" fill="white"/>
</svg>
