<svg width="180" height="115" viewBox="0 0 180 115" fill="none" xmlns="http://www.w3.org/2000/svg">
<mask id="mask0_90_1401" style="mask-type:alpha" maskUnits="userSpaceOnUse" x="0" y="0" width="180" height="115">
<rect width="180" height="115" rx="20" fill="url(#paint0_linear_90_1401)"/>
</mask>
<g mask="url(#mask0_90_1401)">
<path d="M156.859 -100.455H19.8078C8.76214 -100.455 -0.192169 -91.5008 -0.192169 -80.4551V129.95C-0.192169 140.996 8.76212 149.95 19.8078 149.95H156.859C167.905 149.95 176.859 140.996 176.859 129.95V-80.4551C176.859 -91.5008 167.905 -100.455 156.859 -100.455Z" fill="#DEFDED"/>
<path d="M117.016 2.14982C123.359 3.30659 122.753 12.5879 116.314 12.9101L35.3629 16.9611C31.219 17.1685 30.6215 23.0491 34.6389 24.0858V24.0858C38.4776 25.0764 38.1639 30.628 34.2381 31.1798L7.53622 34.933C3.10402 35.556 -0.192429 39.3482 -0.192429 43.824V52.6351C-0.192429 63.1919 8.36549 71.7498 18.9222 71.7498H156.859C167.904 71.7498 176.859 62.7955 176.859 51.7498V-1.60921C176.859 -8.91316 170.502 -14.5911 163.245 -13.7702L117.38 -8.58289C111.172 -7.88079 110.87 1.029 117.016 2.14982V2.14982Z" fill="#C7FDE2"/>
<path d="M156.859 -100.455H19.8078C8.76214 -100.455 -0.192169 -91.5008 -0.192169 -80.4551V129.95C-0.192169 140.996 8.76212 149.95 19.8078 149.95H156.859C167.905 149.95 176.859 140.996 176.859 129.95V-80.4551C176.859 -91.5008 167.905 -100.455 156.859 -100.455Z" fill="url(#paint1_linear_90_1401)"/>
<path d="M122.561 74.4354C125.307 57.3592 113.691 41.2897 96.6146 38.5431C79.5385 35.7966 63.469 47.413 60.7224 64.4891C57.9758 81.5653 69.5922 97.6348 86.6684 100.381C103.745 103.128 119.814 91.5115 122.561 74.4354Z" fill="#FFDA8C"/>
<path d="M155.48 37C152.018 37 148.773 37.9087 145.96 39.488V39.488C141.755 41.6171 136.301 42.0501 131.662 41.2195C130.706 41.0485 129.722 40.9592 128.717 40.9592C125.382 40.9592 122.278 41.9443 119.677 43.6384C116.402 45.7722 111.64 46.4437 107.731 46.4437V46.4437C107.372 46.4437 107.018 46.4613 106.668 46.4955C98.5033 47.2954 103.94 56.5149 112.145 56.5149V56.5149H118.451H134.71V56.5149C135.409 56.5149 135.971 57.0832 136.016 57.7808C136.668 67.9648 145.131 76.019 155.48 76.019C166.254 76.019 174.984 67.2892 174.984 56.5149C174.973 45.7298 166.243 37 155.48 37Z" fill="url(#paint2_linear_90_1401)"/>
<path d="M55.2909 54.0956V54.0956C52.369 54.0956 49.1452 53.079 47.2435 50.8607C43.7147 46.7446 38.4865 44.1326 32.639 44.1326C31.0623 44.1326 29.5299 44.3274 28.0634 44.6909C25.961 45.212 23.625 44.2458 22.6219 42.3261V42.3261C18.1218 32.547 8.24535 25.7536 -3.22127 25.7536C-18.9284 25.7536 -31.6606 38.4858 -31.6606 54.1929C-31.6606 69.9 -18.9284 82.6323 -3.22127 82.6323C-1.97974 82.6323 -0.756747 82.5527 0.442863 82.3983C10.0475 81.1622 22.9551 82.6648 32.639 82.6648V82.6648C36.6689 82.6648 40.4102 81.4262 43.5018 79.3078C46.7409 77.0882 51.3535 76.4879 55.2801 76.4879V76.4879C61.4569 76.4879 66.4763 71.4794 66.4763 65.2918C66.4763 59.1041 61.4678 54.0956 55.2909 54.0956Z" fill="url(#paint3_linear_90_1401)"/>
<path d="M156.859 60.4561H19.8076C8.76195 60.4561 -0.192352 69.4104 -0.192352 80.4561V129.939C-0.192352 140.985 8.76194 149.939 19.8076 149.939H156.859C167.904 149.939 176.859 140.985 176.859 129.939V80.4561C176.859 69.4104 167.904 60.4561 156.859 60.4561Z" fill="#6AF8E4"/>
<path opacity="0.69" d="M95.9747 115.581C79.7061 114.387 84.527 89.4833 100.019 84.3766V84.3766C107.227 82.001 107.556 87.9515 110.629 94.8898V94.8898C115.143 105.079 107.089 116.397 95.9747 115.581V115.581Z" fill="#B2F8EE"/>
<path d="M164.563 94.118C169.285 98.4105 176.858 95.0601 176.858 88.6787V88.6787C176.858 85.7059 175.068 83.0258 172.322 81.8878V81.8878C164.708 78.733 158.465 88.5746 164.563 94.118V94.118Z" fill="#40EBD2"/>
<path d="M4.80128 60.4561C2.04338 60.4561 -0.192352 62.6918 -0.192352 65.4497V65.4497C-0.192352 68.4168 2.37951 70.7294 5.32993 70.4153L98.8749 60.4561H4.80128Z" fill="#40EBD2"/>
<path d="M170.009 70.9839C173.44 71.9688 176.858 69.3935 176.858 65.8242V65.8242C176.858 62.8594 174.455 60.4561 171.49 60.4561V60.4561C165.269 60.4561 164.03 69.2672 170.009 70.9839V70.9839Z" fill="#40EBD2"/>
<path d="M-0.192627 90.1227C-0.192627 94.9874 4.45804 98.5033 9.13844 97.1771V97.1771C17.8339 94.7131 15.2411 81.7677 6.26746 82.8426V82.8426C2.58168 83.2841 -0.192627 86.4106 -0.192627 90.1227V90.1227Z" fill="#40EBD2"/>
<path d="M156.859 60.4561H19.8076C8.76195 60.4561 -0.192352 69.4104 -0.192352 80.4561V94.8035C-0.192352 105.849 8.76194 114.804 19.8076 114.804H156.859C167.904 114.804 176.859 105.849 176.859 94.8035V80.4561C176.859 69.4104 167.904 60.4561 156.859 60.4561Z" fill="url(#paint4_linear_90_1401)"/>
<path d="M176.858 149.95H19.8074C8.76166 149.95 -0.192627 140.995 -0.192627 129.95V115.537C-0.192627 104.492 8.76168 95.5373 19.8074 95.5373H44.9383C54.9553 95.5373 64.8858 97.4196 74.2214 101.076C83.5461 104.743 93.4767 106.615 103.505 106.615H156.869C167.915 106.615 176.869 115.569 176.869 126.615V149.939C176.869 149.945 176.864 149.95 176.858 149.95V149.95Z" fill="#FDC88B"/>
<path d="M176.858 149.95H19.8074C8.76166 149.95 -0.192627 140.995 -0.192627 129.95V115.537C-0.192627 104.492 8.76168 95.5373 19.8074 95.5373H44.9383C54.9553 95.5373 64.8858 97.4196 74.2214 101.076C83.5461 104.743 93.4767 106.615 103.505 106.615H156.869C167.915 106.615 176.869 115.569 176.869 126.615V149.939C176.869 149.945 176.864 149.95 176.858 149.95V149.95Z" fill="url(#paint5_linear_90_1401)"/>
<path d="M103.494 106.615C93.4767 106.615 83.5461 104.732 74.2106 101.076C64.8858 97.4088 54.9553 95.5373 44.9274 95.5373H1.32183C0.485419 95.5373 -0.192627 96.2154 -0.192627 97.0518V97.0518C-0.192627 97.8882 0.48542 98.5663 1.32183 98.5663H44.9383C54.9553 98.5663 64.8858 100.449 74.2214 104.105C83.5461 107.772 93.4767 109.643 103.505 109.643H175.355C176.191 109.643 176.869 108.965 176.869 108.129V108.129C176.869 107.293 176.191 106.615 175.355 106.615H103.494Z" fill="url(#paint6_linear_90_1401)"/>
<g opacity="0.12">
<path opacity="0.12" d="M37.1168 107.372H20.6633C19.8953 107.372 19.2787 106.744 19.2787 105.987C19.2787 105.23 19.8953 104.603 20.6633 104.603H37.1277C37.8957 104.603 38.5123 105.23 38.5123 105.987C38.5123 106.744 37.8849 107.372 37.1168 107.372Z" fill="#5F4122"/>
<path opacity="0.12" d="M130.559 115.095H122.803C122.035 115.095 121.418 114.468 121.418 113.711C121.418 112.954 122.035 112.326 122.803 112.326H130.559C131.327 112.326 131.944 112.954 131.944 113.711C131.944 114.468 131.327 115.095 130.559 115.095Z" fill="#5F4122"/>
</g>
<path d="M151.913 147.116C158.425 147.116 164.074 142.526 164.871 136.063C165.869 127.963 166.43 118.801 166.43 109.092C166.43 76.0982 159.929 49.3464 151.913 49.3464C143.897 49.3464 137.396 76.0982 137.396 109.092C137.396 118.794 137.958 127.96 138.956 136.063C139.752 142.526 145.402 147.116 151.913 147.116V147.116Z" fill="#7A55B7"/>
<path d="M151.908 129.602C159.628 129.602 166.113 123.709 166.325 115.992C166.388 113.732 166.419 111.433 166.419 109.103V109.103C166.419 106.905 164.625 105.143 162.427 105.143H141.366C139.169 105.143 137.374 106.905 137.374 109.103V109.103C137.374 111.425 137.407 113.716 137.47 115.969C137.686 123.695 144.179 129.602 151.908 129.602V129.602Z" fill="#ECE7FF"/>
<path d="M151.902 49.3571C151.711 49.3571 151.567 49.5241 151.567 49.7149V146.786C151.567 146.974 151.719 147.126 151.908 147.126V147.126C152.096 147.126 152.248 146.974 152.248 146.786V49.7257C152.248 49.5288 152.099 49.3571 151.902 49.3571V49.3571V49.3571Z" fill="#4A1971"/>
<path d="M63.0471 138.581V138.581C58.6341 138.581 53.2704 137.821 49.5719 135.414C46.6363 133.503 43.1309 132.393 39.3675 132.393C35.7496 132.393 32.3706 133.424 29.5018 135.204C28.2761 135.964 26.6458 135.813 25.6104 134.809C25.5746 134.774 25.5387 134.74 25.5026 134.705C24.6712 133.909 24.3985 132.665 24.9288 131.643V131.643C26.1593 129.273 23.2073 126.949 21.1922 128.702L20.1126 129.642C19.5727 130.111 18.8164 130.217 18.1524 129.95V129.95C16.9511 129.468 16.4425 127.958 17.2364 126.935L18.4481 125.374C20.0668 123.289 17.3268 120.635 15.294 122.318V122.318C13.5219 123.786 10.9666 121.905 11.8418 119.777L13.4865 115.778C14.9995 112.099 9.89669 109.397 7.70361 112.715L0.550532 123.54C0.058941 124.284 -0.203148 125.156 -0.203148 126.047V126.523C-0.203148 128.909 -1.63108 131.02 -3.59578 132.374C-5.66816 133.802 -7.49709 135.557 -9.00662 137.565C-13.3623 143.359 -7.45176 149.939 -0.203148 149.939V149.939H15.4174H20.6639H32.5849H50.9315H58.0494V149.939C67.3145 149.939 73.4539 139.53 64.232 138.638C63.8422 138.6 63.447 138.581 63.0471 138.581Z" fill="#50520F"/>
<path opacity="0.64" d="M63.0471 138.581V138.581C58.6341 138.581 53.2704 137.821 49.5719 135.414C46.6363 133.503 43.1309 132.393 39.3675 132.393C35.7496 132.393 32.3706 133.424 29.5018 135.204C28.2761 135.964 26.6458 135.813 25.6104 134.809C25.5746 134.774 25.5387 134.74 25.5026 134.705C24.6712 133.909 24.3985 132.665 24.9288 131.643V131.643C26.1593 129.273 23.2073 126.949 21.1922 128.702L20.1126 129.642C19.5727 130.111 18.8164 130.217 18.1524 129.95V129.95C16.9511 129.468 16.4425 127.958 17.2364 126.935L18.4481 125.374C20.0668 123.289 17.3268 120.635 15.294 122.318V122.318C13.5219 123.786 10.9666 121.905 11.8418 119.777L13.4865 115.778C14.9995 112.099 9.89669 109.397 7.70361 112.715L0.550532 123.54C0.058941 124.284 -0.203148 125.156 -0.203148 126.047V126.523C-0.203148 128.909 -1.63108 131.02 -3.59578 132.374C-5.66816 133.802 -7.49709 135.557 -9.00662 137.565C-13.3623 143.359 -7.45176 149.939 -0.203148 149.939V149.939H15.4174H20.6639H32.5849H50.9315H58.0494V149.939C67.3145 149.939 73.4539 139.53 64.232 138.638C63.8422 138.6 63.447 138.581 63.0471 138.581Z" fill="url(#paint7_linear_90_1401)"/>
<path d="M14.271 67.6032C14.8403 68.6043 15.4307 69.6032 16.0495 70.5999C19.4126 76.034 24.2756 80.6169 29.8021 83.82C29.9514 84.1631 30.0994 84.5093 30.2413 84.8524C30.4379 85.3323 30.6134 85.8009 30.6113 86.291C30.6073 86.7493 30.3911 87.3011 29.9281 87.4696C29.9087 87.4766 29.8915 87.4829 29.8713 87.4876C29.3457 87.6383 28.8186 87.249 28.4664 86.9446C27.7788 86.3487 27.1353 85.6395 26.5978 84.8998C26.729 85.2602 26.8481 85.6278 26.9526 85.9953C27.1259 86.6053 27.0775 87.0284 26.8134 87.2543C26.6099 87.4257 26.2926 87.4385 26.0046 87.2838C25.7559 87.1499 25.5643 86.925 25.4034 86.724C24.8613 86.0455 24.3845 85.2783 24.0012 84.4932C24.0208 84.5807 24.0353 84.6674 24.0498 84.754C24.1284 85.285 24.0067 85.8618 23.7399 86.2211C23.5548 86.4696 23.3128 86.6091 23.0344 86.6212C22.6222 86.6415 22.1999 86.3924 21.7405 85.854C20.92 84.8929 20.3509 83.7646 19.7932 82.5943C17.9637 78.7673 16.3662 74.7802 15.0445 70.7467C14.708 69.7284 14.3895 68.6657 14.271 67.6032Z" fill="#0D6EFD"/>
<path d="M25.2477 82.9392L25.5657 83.8129C25.7412 84.2951 25.065 84.5412 24.8895 84.059L24.5715 83.1854C24.3981 82.7024 25.0713 82.4547 25.2477 82.9392Z" fill="white"/>
<path d="M27.0191 82.8946L27.2919 83.6442C27.4675 84.1264 26.7912 84.3725 26.6157 83.8903L26.3429 83.1408C26.1674 82.6586 26.8436 82.4125 27.0191 82.8946Z" fill="white"/>
<path d="M29.0633 84.4836L29.3362 85.2332C29.5117 85.7154 28.8354 85.9615 28.6599 85.4793L28.3871 84.7298C28.2116 84.2476 28.8878 84.0014 29.0633 84.4836Z" fill="white"/>
<path d="M16.3428 71.4392L16.7747 72.6256C16.9502 73.1078 16.2739 73.3539 16.0984 72.8717L15.6666 71.6854C15.4911 71.2032 16.1673 70.957 16.3428 71.4392Z" fill="white"/>
<path d="M17.5904 74.5184L18.1126 75.9531C18.2881 76.4353 17.6119 76.6814 17.4364 76.1992L16.9142 74.7646C16.7417 74.284 17.4149 74.0362 17.5904 74.5184Z" fill="white"/>
<path d="M19.0624 77.8726C19.2295 78.2579 19.3974 78.6455 19.5666 79.03C19.7723 79.5012 19.0952 79.7449 18.8904 79.2761C18.7233 78.8908 18.5554 78.5032 18.3862 78.1188C18.1806 77.6475 18.8577 77.4038 19.0624 77.8726Z" fill="white"/>
<path d="M20.3712 80.7917C20.565 80.7211 20.7568 80.846 20.8457 81.0434C20.9711 81.3276 21.0986 81.611 21.224 81.8951C21.3129 82.0925 21.1946 82.3303 21.0223 82.393C20.8285 82.4635 20.6367 82.3387 20.5478 82.1413C20.4224 81.8571 20.2949 81.5737 20.1695 81.2895C20.0827 81.0913 20.1989 80.8544 20.3712 80.7917Z" fill="white"/>
<path d="M19.6223 76.201C19.7677 76.0913 20.0282 76.1236 20.1335 76.3123C20.3558 76.7153 20.5406 77.1292 20.6763 77.5692C20.8272 78.0576 20.1519 78.3061 20.0001 77.8153C19.8852 77.4462 19.7403 77.088 19.5539 76.7504C19.4508 76.5608 19.4558 76.3265 19.6223 76.201Z" fill="white"/>
<path d="M22.3782 80.4829L22.651 81.2324C22.8265 81.7146 22.1503 81.9607 21.9748 81.4785L21.702 80.729C21.5265 80.2468 22.2027 80.0007 22.3782 80.4829Z" fill="white"/>
<path d="M22.7016 83.8308L23.0422 84.7665C23.2177 85.2487 22.5415 85.4949 22.366 85.0127L22.0254 84.0769C21.8521 83.594 22.5253 83.3462 22.7016 83.8308Z" fill="white"/>
<path d="M23.3493 80.343C23.2883 80.1354 23.3593 79.915 23.551 79.8452C23.7232 79.7825 23.9646 79.8893 24.0255 80.0969C24.1038 80.3658 24.2054 80.6181 24.3488 80.8578C24.4575 81.0426 24.4448 81.2824 24.2796 81.4048C24.1298 81.516 23.8801 81.4799 23.7683 81.2935C23.5886 80.9939 23.4446 80.6787 23.3493 80.343Z" fill="white"/>
<path d="M46.1807 95.0951C46.095 94.9668 45.9573 94.9034 45.8267 94.9131L44.0072 90.3363C43.9217 90.1215 43.6895 90.006 43.5021 90.0877C43.3088 90.1661 43.2197 90.404 43.3052 90.6189L45.0522 95.0166L43.5053 96.9042C43.3703 97.0696 43.3905 97.3326 43.5534 97.4923C43.6667 97.6024 43.8164 97.6317 43.9434 97.5855C43.9994 97.5651 44.0524 97.5296 44.0949 97.479L45.0252 96.3429L44.8194 98.0155C44.7911 98.2393 44.9392 98.4585 45.1484 98.504C45.2174 98.5194 45.283 98.5118 45.3411 98.4906C45.466 98.4451 45.5584 98.3304 45.5782 98.1772L45.8516 95.9665L46.8265 97.412C46.933 97.5706 47.119 97.6327 47.274 97.5762C47.3063 97.5645 47.3347 97.5487 47.3636 97.5274C47.5322 97.4011 47.563 97.1439 47.4349 96.9527L46.1807 95.0951Z" fill="white"/>
<path d="M56.4454 93.673L55.1905 91.813C55.1047 91.6847 54.967 91.6213 54.8364 91.631L53.017 87.0542C52.9314 86.8394 52.697 86.7246 52.5118 86.8056C52.3185 86.8841 52.2294 87.1219 52.315 87.3368L54.0619 91.7345L52.515 93.6222C52.3801 93.7875 52.4002 94.0505 52.5632 94.2102C52.6764 94.3203 52.8261 94.3496 52.9532 94.3034C53.0092 94.283 53.0621 94.2475 53.1046 94.1969L54.035 93.0608L53.8291 94.7334C53.8009 94.9572 53.9489 95.1764 54.1581 95.2219C54.2272 95.2373 54.2927 95.2297 54.3508 95.2085C54.4757 95.1631 54.5681 95.0483 54.588 94.8951L54.8613 92.6844L55.8362 94.1299C55.9427 94.2885 56.1287 94.3506 56.2837 94.2941C56.316 94.2824 56.3445 94.2666 56.3733 94.2453C56.5407 94.1222 56.5736 93.8642 56.4454 93.673Z" fill="white"/>
<path d="M73.5926 56.2141C73.3427 55.9699 72.9404 55.9298 72.6123 56.1141C72.3334 56.2724 72.1431 56.5471 71.9792 56.8203C71.5144 57.6004 71.1749 58.4701 70.8456 59.3144L69.5043 62.7519C70.0628 60.9429 70.469 59.0703 70.7126 57.1597C70.8539 56.0404 70.93 54.8557 70.5214 53.7798C70.3646 53.3692 70.168 53.0704 69.9226 52.8651C69.602 52.6006 69.2003 52.5224 68.8938 52.6719C68.4994 52.8614 68.3511 53.3452 68.2677 53.7459C67.8455 55.7486 68.0608 57.868 68.2686 59.9199C68.3759 60.9919 68.4854 62.0901 68.5069 63.1744C68.4251 61.958 68.301 60.7326 68.0658 59.5233C67.6206 57.2281 66.8345 55.3029 65.7236 53.7987C65.5886 53.6153 65.4186 53.4231 65.1901 53.3981C64.8317 53.3583 64.6223 53.7345 64.5542 54.0702C64.307 55.2469 64.7914 56.4574 65.3532 57.6992L68.2828 64.167C66.603 65.2272 64.251 64.2531 63.198 63.7118C60.0198 62.0761 58.4945 58.3141 57.1484 54.9977L57.036 54.7224C55.0332 49.796 53.306 45.6804 51.3754 41.609C47.2388 32.8772 41.8331 23.5935 33.1033 20.9237C29.8653 19.9342 26.2367 20.0762 22.6125 21.3358C17.678 23.0427 13.7795 26.4972 11.3317 31.3106C9.01814 35.8562 8.08945 41.3656 8.64448 47.246C9.23587 53.4944 11.2665 59.6028 12.9714 64.2267C13.9752 66.9512 14.8742 69.1597 15.7989 71.1777C17.0641 73.9368 18.3705 76.3133 19.7939 78.4418C25.6093 87.1357 34.9553 92.336 44.1843 92.0154C46.9589 91.9192 49.5858 91.4173 52.0301 90.5276C55.9346 89.1065 59.3694 86.6966 62.1739 83.3726C66.9274 77.7443 69.4126 71.3115 69.4091 64.6951C71.864 63.2312 73.5749 60.4675 73.867 57.3767C73.9027 57.0258 73.9099 56.5231 73.5926 56.2141Z" fill="#FFCB14"/>
<path d="M58.8885 62.1039C57.0617 59.879 55.2565 58.3031 53.3691 57.2788C51.0669 56.0326 48.6545 55.6563 46.5744 56.2268C44.2398 56.8684 42.4148 58.7761 41.9202 61.0891C41.2817 64.0789 42.8234 67.0618 43.7998 68.5717C45.969 71.9317 49.2632 74.5363 52.838 75.7141C53.525 75.9398 54.3362 76.1582 55.1451 76.0557C55.4106 76.0212 55.6609 75.9518 55.8905 75.852C56.4081 75.6257 56.811 75.2385 57.0257 74.7495C57.5852 73.4726 55.6862 71.4983 54.5513 70.4976C54.7477 70.5748 56.0459 71.0457 56.2478 71.1047C56.8282 71.2719 57.3094 71.2941 57.7195 71.1746C58.2558 71.0199 58.6522 70.608 58.7552 70.1002C58.9352 69.221 58.2573 68.3972 57.6481 67.7755L55.695 66.0344C56.0452 66.2395 57.0954 66.8466 57.4815 66.9359C58.4773 67.1655 59.7408 66.7975 60.121 65.6643C60.4511 64.6818 60.0491 63.517 58.8885 62.1039Z" fill="#0D6EFD"/>
<path d="M36.9401 44.7868C36.6951 44.2542 36.1839 43.8482 35.5717 43.7007C35.0993 43.5888 34.5678 43.6228 33.95 43.8017C33.2026 44.0196 32.5124 44.3817 31.9007 44.8719C31.6533 45.0701 31.3467 45.3466 31.1524 45.7309C30.9509 46.1287 30.9172 46.5924 31.0597 46.9703C31.272 47.5337 31.8113 47.8294 32.2436 47.9181C32.6883 48.0076 33.1442 48.0472 33.5977 48.0335C34.1982 48.015 34.7925 47.8987 35.3438 47.698C35.5075 47.6385 35.6685 47.5717 35.824 47.4962C36.754 47.0496 37.4281 45.8527 36.9401 44.7868Z" fill="white"/>
<path d="M16.7953 47.9099C16.3764 47.811 15.9061 47.8389 15.3577 48.0006C14.6959 48.1928 14.0855 48.5123 13.5438 48.9473C13.3253 49.1242 13.0513 49.3699 12.8794 49.7082C12.6988 50.0632 12.6689 50.4769 12.7966 50.8143C12.9873 51.318 13.467 51.584 13.8539 51.6621C14.2491 51.7427 14.6519 51.7772 15.0519 51.764C15.5822 51.7468 16.1092 51.6469 16.5981 51.4689C16.7424 51.4164 16.8862 51.3559 17.0231 51.2899C17.8533 50.8904 18.4514 49.8266 18.0155 48.8769C17.7965 48.4024 17.3406 48.0412 16.7953 47.9099Z" fill="white"/>
<path d="M19.8241 39.8681C19.568 39.8748 19.3802 40.1027 19.4003 40.3792C19.5 41.6513 18.9529 42.9156 18.0079 43.6028C17.6392 43.8695 17.2632 44.009 16.92 44.0042C16.4418 43.9971 15.9154 43.6967 15.5446 43.2207C15.2054 42.7846 14.9675 42.1845 14.8552 41.4874C14.8109 41.2116 14.5702 41.0126 14.3177 41.0424C14.0651 41.0721 13.8968 41.3199 13.9411 41.5958C14.0823 42.4797 14.3962 43.2548 14.85 43.8385C15.4116 44.564 16.2053 45.0023 16.9715 45.01C17.2457 45.0129 17.5184 44.965 17.792 44.8655C18.0504 44.7714 18.307 44.6321 18.5595 44.4482C19.7601 43.5787 20.4511 41.9729 20.3255 40.3614C20.3054 40.0849 20.0788 39.8646 19.8241 39.8681Z" fill="#3F4553"/>
<path d="M34.0221 36.4008C33.9093 36.1445 33.6326 36.0209 33.4005 36.127C33.1705 36.2323 33.0752 36.5265 33.188 36.7828C33.4683 37.4188 33.4054 38.2446 33.0273 38.8877C32.6793 39.4793 32.0692 39.9474 31.3146 40.2058C30.9071 40.346 30.5838 40.3691 30.3296 40.2805C30.0111 40.1693 29.711 39.8406 29.5261 39.3997C29.3352 38.9421 29.2651 38.408 29.1969 37.8921C29.1599 37.6163 28.9252 37.4071 28.6722 37.4289C28.4192 37.4507 28.2409 37.6913 28.2779 37.9671C28.351 38.5298 28.4334 39.1649 28.6851 39.7626C28.9919 40.4916 29.5069 41.0287 30.0989 41.2349C30.546 41.3912 31.0517 41.3666 31.6461 41.1638C31.6741 41.1536 31.7043 41.1426 31.7323 41.1324C32.6411 40.8016 33.3798 40.2111 33.8201 39.4642C34.366 38.5384 34.4425 37.3616 34.0221 36.4008Z" fill="#3F4553"/>
<path d="M26.5667 51.3577C26.4988 51.2851 26.437 51.2157 26.379 51.1503C25.9331 50.6421 25.4395 50.1838 24.9103 49.7952C24.0765 49.1796 23.3486 48.9687 22.7511 49.17C22.3643 49.3 22.0582 49.5979 21.7852 49.9C21.333 50.3998 20.9713 51.0208 20.6228 51.618C20.4511 51.9102 20.2743 52.2152 20.0901 52.4931C19.2199 53.8209 18.4352 55.2365 17.761 56.701C17.6071 57.0355 17.6308 57.3215 17.823 57.4678C18.0382 57.6301 18.2913 57.4812 18.3877 57.4245L21.189 55.7669C20.781 56.502 20.4438 57.2573 20.0911 58.0507C19.9819 58.2932 19.8756 58.5374 19.7642 58.7807C19.6712 58.9875 19.5981 59.2088 19.6926 59.4285C19.8241 59.7293 20.1696 59.7874 20.4273 59.745C20.5376 59.7264 20.6445 59.6984 20.7479 59.6607C21.3013 59.4593 21.7476 59.0103 22.117 58.638L25.9251 54.7946C26.0089 54.7101 26.0949 54.6247 26.1809 54.5393C26.4888 54.2326 26.8078 53.9165 27.0871 53.5715C27.2706 53.3452 27.3657 53.1241 27.3819 52.8938C27.3836 52.8716 27.3844 52.847 27.3839 52.8255C27.3836 52.2417 26.9321 51.7518 26.5667 51.3577Z" fill="#3F4553"/>
<path d="M41.6681 78.0197C41.819 78.4676 42.1878 79.6553 41.4368 79.6556C41.0367 79.6553 40.6149 79.2871 40.209 79.2104C39.7194 79.1183 39.6073 79.9295 40.0969 80.0216C40.8199 80.1586 41.4818 80.8179 42.1658 80.2581C42.8898 79.6674 42.6588 78.5972 42.3767 77.7618C42.2067 77.2479 41.496 77.5066 41.6681 78.0197Z" fill="white"/>
<path d="M41.0794 86.9089C41.1224 87.2014 41.1677 87.4931 41.2116 87.788C41.2344 87.9311 41.3031 88.1332 41.284 88.2753C41.2756 88.3459 41.2886 88.3682 41.2985 88.3754C41.2891 88.3762 41.271 88.3801 41.2344 88.3934C41.0724 88.4577 40.6754 88.3184 40.5067 88.2906C40.2397 88.2472 39.9744 88.1951 39.7083 88.1405C39.2174 88.0381 39.1075 88.8485 39.5962 88.9518C40.0212 89.0404 40.4469 89.1179 40.8743 89.1732C41.1771 89.2144 41.5473 89.3068 41.8076 89.1039C42.03 88.931 42.0783 88.635 42.0581 88.345C42.0245 87.8571 41.9123 87.3546 41.8377 86.8681C41.7621 86.3387 40.9999 86.3756 41.0794 86.9089Z" fill="white"/>
<path d="M44.5753 82.7034C44.3076 82.2358 43.7001 82.6975 43.9648 83.1635C44.148 83.486 44.5851 84.2245 44.1797 84.518C44.0369 84.6213 43.8043 84.5384 43.6455 84.5043C43.4281 84.4564 43.2163 84.4172 42.9964 84.4161C42.5031 84.4145 42.5921 85.2418 43.084 85.2466C43.4307 85.2475 43.7691 85.4135 44.1175 85.3922C44.4511 85.3708 44.7339 85.203 44.9112 84.906C45.3309 84.1963 44.9587 83.3748 44.5753 82.7034Z" fill="white"/>
<path d="M47.1716 86.9218C46.9504 86.4346 46.238 86.6885 46.4609 87.1804C46.5572 87.3914 46.6419 87.6039 46.7102 87.825C46.7733 88.0318 46.7894 88.2503 46.8421 88.4555C46.7714 88.4353 46.6933 88.4151 46.673 88.4063C46.4563 88.3337 46.2376 88.262 46.0209 88.1894C45.5406 88.029 45.4338 88.8411 45.9089 89.0006C46.381 89.1586 47.3366 89.7002 47.5994 89.0152C47.7048 88.7417 47.6106 88.3624 47.5503 88.0761C47.466 87.677 47.3395 87.2959 47.1716 86.9218Z" fill="white"/>
<path d="M20.3805 70.3373C20.3517 70.8749 20.3326 71.9145 19.6536 71.9454C19.1618 71.9676 18.5541 71.2562 18.1854 70.947C17.7853 70.6115 17.3106 71.2303 17.7168 71.569C18.3516 72.1003 19.1516 72.9851 20.0033 72.7318C20.9054 72.463 21.0913 71.4059 21.1393 70.5126C21.1693 69.9853 20.4096 69.8077 20.3805 70.3373Z" fill="white"/>
<path d="M25.4542 67.4985C25.3752 68.0787 25.2719 68.7867 24.9291 69.2521C24.5245 69.8022 23.5471 69.0063 23.0824 68.7483C22.6299 68.4967 22.3314 69.2379 22.7818 69.4903C23.4938 69.8854 24.4519 70.7018 25.2101 70.1447C25.8972 69.6405 26.0964 68.5191 26.2139 67.6761C26.2858 67.1499 25.5278 66.977 25.4542 67.4985Z" fill="white"/>
<path d="M30.0002 64.8383C29.9723 65.3647 30.0573 66.1745 29.8076 66.6412C29.6202 66.9905 29.2758 66.7077 29.0167 66.5452C28.7346 66.3667 28.4548 66.1874 28.1758 66.0105C27.7378 65.732 27.4393 66.4732 27.8751 66.7525C28.4979 67.1503 29.4368 68.0278 30.1433 67.5165C30.8223 67.0234 30.7146 65.8028 30.7569 65.0143C30.7891 64.4862 30.0293 64.3086 30.0002 64.8383Z" fill="white"/>
<path d="M34.8008 62.4152C34.7212 62.7658 34.6407 63.1141 34.561 63.4648C34.5022 63.7187 34.4737 64.3238 34.3211 64.5145C33.8923 65.0518 32.993 64.2896 32.6867 63.8902C32.363 63.4701 31.7499 63.923 32.0761 64.3503C32.6183 65.0559 33.5617 65.7046 34.4183 65.5118C34.7966 65.4255 34.9549 65.1435 35.0604 64.7699C35.2602 64.0592 35.3944 63.3156 35.5606 62.5928C35.6764 62.0802 34.9172 61.9106 34.8008 62.4152Z" fill="white"/>
<path d="M24.4413 74.8741C24.576 75.3982 24.8544 76.4782 24.1945 76.7022C23.756 76.851 22.9325 76.364 22.5061 76.211C22.0288 76.0388 21.9228 76.8532 22.3941 77.0223C23.196 77.3089 24.2194 77.9096 24.9133 77.2029C25.5755 76.5294 25.383 75.5046 25.1542 74.6147C25.0182 74.0938 24.3071 74.358 24.4413 74.8741Z" fill="white"/>
<path d="M30.1452 71.4546C30.2438 72.0404 30.3188 72.8295 30.0482 73.3524C29.6527 74.1154 28.7886 73.4297 28.3305 73.0558C27.9248 72.725 27.4531 73.3454 27.8619 73.6778C28.5558 74.2443 29.5052 74.8693 30.3086 74.3092C31.0987 73.7594 31.0659 72.3359 30.9108 71.4138C30.8183 70.8851 30.054 70.9227 30.1452 71.4546Z" fill="white"/>
<path d="M36.0379 68.4339C36.005 69.0136 36.0212 69.7348 35.6282 70.1293C35.3122 70.4471 35.0359 70.3178 34.6387 70.1245C34.3637 69.9921 34.127 69.8106 33.8944 69.6006C33.5029 69.2484 33.0333 69.8681 33.4258 70.2227C34.0585 70.7952 35.0777 71.411 35.8861 71.1059C36.7355 70.786 36.7512 69.4421 36.798 68.606C36.8268 68.0819 36.0671 67.9042 36.0379 68.4339Z" fill="white"/>
<path d="M29.0083 80.4864C28.9617 80.8008 28.9173 81.1143 28.8707 81.4286C28.8428 81.6199 28.8501 82.2363 28.7332 82.3708C28.3795 82.7725 27.4196 82.0919 27.0822 81.8552C26.6563 81.5561 26.3617 82.3013 26.7816 82.5972C27.3449 82.9923 28.4935 83.6421 29.1297 83.2456C29.4021 83.0762 29.4603 82.7468 29.5081 82.4293C29.5992 81.842 29.6799 81.253 29.7659 80.6649C29.8429 80.1394 29.084 79.9642 29.0083 80.4864Z" fill="white"/>
<path d="M33.0269 77.4424C33.0882 77.9527 33.2649 79.5238 32.5893 79.6508C32.1941 79.7243 31.5912 79.2004 31.2045 79.0627C30.7259 78.8935 30.62 79.708 31.0925 79.8739C31.8365 80.1356 32.5486 80.8524 33.2716 80.2188C33.9632 79.613 33.8984 78.2957 33.7881 77.4032C33.7233 76.8699 32.962 76.9091 33.0269 77.4424Z" fill="white"/>
<path d="M37.6508 73.4751C37.6171 74.0794 37.6961 74.886 37.5045 75.445C37.3531 75.8867 37.1071 75.8006 36.7594 75.6027C36.4641 75.4344 36.17 75.263 35.8738 75.0924C35.426 74.8337 35.1275 75.5749 35.5731 75.8344C36.233 76.2133 37.147 77.0025 37.8383 76.4292C38.5274 75.8567 38.3633 74.508 38.4097 73.6504C38.4389 73.1207 37.6791 72.9431 37.6508 73.4751Z" fill="white"/>
<path d="M34.5631 84.8526C34.5904 85.2292 34.6125 85.605 34.6326 85.9816C34.6403 86.1167 34.703 86.3696 34.6581 86.4941C34.5066 86.9222 34.2742 86.7392 34.0293 86.5824C33.6112 86.3182 33.2694 86.029 32.7746 86.0767C32.2862 86.1219 32.3739 86.9524 32.8622 86.9071C33.2747 86.8678 33.6044 87.2912 33.9696 87.4637C34.2994 87.6194 34.6903 87.688 35.0054 87.5085C35.3127 87.3344 35.4187 86.9958 35.4242 86.6288C35.4355 86.03 35.3665 85.4117 35.3256 84.8102C35.288 84.2779 34.5275 84.3195 34.5631 84.8526Z" fill="white"/>
<path d="M38.4536 81.3226C38.3762 81.8536 38.5976 82.4083 38.511 82.921C38.4338 83.3789 38.0218 83.2721 37.6732 83.1854C37.3677 83.1101 37.0614 83.0323 36.7559 82.957C36.2675 82.8347 36.1585 83.6475 36.6439 83.7682C37.3523 83.9456 38.4044 84.4439 38.9726 83.8073C39.5443 83.1667 39.1012 82.271 39.2116 81.4955C39.2882 80.9756 38.5293 80.8003 38.4536 81.3226Z" fill="white"/>
<path d="M54.679 68.9589C54.3695 68.8525 54.0601 68.7462 53.7485 68.6406C53.5474 68.5706 53.3419 68.7562 53.3131 68.9586C53.2805 69.1975 53.4354 69.3818 53.6365 69.4519C53.9459 69.5582 54.2554 69.6646 54.5669 69.7701C54.768 69.8402 54.9736 69.6545 55.0024 69.4521C55.0371 69.2124 54.8822 69.0282 54.679 68.9589Z" fill="white"/>
<path d="M57.5357 69.4303C57.222 69.1849 56.8938 69.007 56.5318 68.8766C56.3319 68.8033 56.1229 68.9929 56.0963 69.1946C56.0638 69.4335 56.2199 69.6145 56.4197 69.6878C56.6105 69.7562 56.8929 69.9157 57.0661 70.0499C57.2394 70.1842 57.4714 70.1917 57.6041 70.0136C57.7227 69.8569 57.7089 69.5646 57.5357 69.4303Z" fill="white"/>
<path d="M54.8764 66.2919C54.4512 66.0952 54.0239 65.8993 53.5978 65.7003C53.1341 65.4851 52.8326 66.2248 53.2971 66.4423C53.7223 66.6389 54.1497 66.8348 54.5758 67.0338C55.0386 67.2466 55.3422 66.5062 54.8764 66.2919Z" fill="white"/>
<path d="M49.4086 57.2795C49.028 57.1721 48.6554 56.9995 48.3194 56.7596C48.1414 56.6324 47.9197 56.6131 47.7814 56.7959C47.6663 56.9486 47.6718 57.2521 47.8507 57.3816C48.303 57.7063 48.7775 57.9445 49.2965 58.0908C49.7837 58.2297 49.8927 57.4169 49.4086 57.2795Z" fill="white"/>
<path d="M53.2405 58.6882C52.8311 58.4479 52.4342 58.1815 52.0518 57.8881C51.8786 57.7538 51.6488 57.7456 51.5139 57.9244C51.3953 58.0811 51.4078 58.3767 51.5832 58.5102C52.02 58.8459 52.4713 59.1547 52.942 59.4294C53.3855 59.6897 53.684 58.9485 53.2405 58.6882Z" fill="white"/>
<path d="M54.8719 61.7628C54.4918 61.4956 54.1275 61.1984 53.777 60.8853C53.3854 60.5331 52.9137 61.1536 53.3083 61.5074C53.7107 61.8691 54.1324 62.1968 54.5713 62.5047C54.7514 62.6311 54.9998 62.5029 55.0752 62.3213C55.1643 62.097 55.0512 61.8867 54.8719 61.7628Z" fill="white"/>
<path d="M57.6066 61.6513C57.1845 61.3157 56.7636 60.9769 56.3415 60.6412C55.9353 60.316 55.4606 60.9348 55.8728 61.2633C56.2949 61.5989 56.7158 61.9377 57.1379 62.2734C57.5463 62.5978 58.0188 61.9798 57.6066 61.6513Z" fill="white"/>
<path d="M58.6352 64.7183C58.2213 64.4121 57.7962 64.1289 57.3519 63.8797C56.9015 63.6273 56.6031 64.3685 57.0513 64.6217C57.4343 64.8364 57.8062 65.0741 58.1643 65.3411C58.341 65.4715 58.5661 65.4869 58.7023 65.3048C58.8209 65.1481 58.8118 64.8487 58.6352 64.7183Z" fill="white"/>
<path d="M47.3289 58.3068L46.1888 57.754C45.7268 57.5302 45.4253 58.2698 45.8881 58.496C46.2672 58.6797 46.6492 58.8651 47.0283 59.0488C47.4894 59.2703 47.7909 58.5307 47.3289 58.3068Z" fill="white"/>
<path d="M50.9181 60.4283C50.5021 60.1634 50.0875 59.8953 49.6716 59.6303C49.4876 59.5135 49.2456 59.6259 49.1677 59.8138C49.0824 60.0286 49.1861 60.2531 49.371 60.3723L50.6174 61.1703C50.8014 61.2872 51.0434 61.1747 51.1214 60.9869C51.2074 60.7744 51.1029 60.5476 50.9181 60.4283Z" fill="white"/>
<path d="M54.561 63.4952C54.1317 63.2271 53.7015 62.9565 53.2722 62.6883C52.833 62.413 52.5345 63.1542 52.9716 63.4303C53.4009 63.6985 53.8311 63.9691 54.2604 64.2372C54.6996 64.5126 54.9972 63.769 54.561 63.4952Z" fill="white"/>
<path d="M45.524 59.7937C45.1481 59.5115 44.7731 59.2317 44.3972 58.9495C44.2227 58.8184 43.9942 58.8069 43.8593 58.9858C43.7429 59.1417 43.751 59.4388 43.9286 59.5715C44.3044 59.8537 44.6794 60.1335 45.0553 60.4157C45.2298 60.5469 45.4584 60.5583 45.5933 60.3794C45.7097 60.2235 45.7007 59.924 45.524 59.7937Z" fill="white"/>
<path d="M44.3954 61.9399C44.0662 61.6786 43.7249 61.4378 43.3703 61.2209C43.1851 61.1072 42.9456 61.2132 42.8664 61.4043C42.7816 61.6136 42.8844 61.8492 43.0697 61.9629C43.3651 62.1446 43.6498 62.3437 43.9246 62.5627C44.0965 62.7002 44.3289 62.7021 44.4626 62.5264C44.5846 62.3657 44.5674 62.0773 44.3954 61.9399Z" fill="white"/>
<path d="M44.2297 64.7144C43.7801 64.4104 43.3283 64.1071 42.8786 63.8031C42.6972 63.6799 42.4513 63.8018 42.3747 63.9865C42.286 64.2053 42.3966 64.4219 42.578 64.5451C43.0276 64.8491 43.4795 65.1524 43.9291 65.4564C44.1105 65.5796 44.3564 65.4576 44.433 65.2729C44.5208 65.0518 44.4103 64.8352 44.2297 64.7144Z" fill="white"/>
<path d="M45.8654 68.3038C45.5513 68.0775 45.2373 67.8512 44.9245 67.6217C44.7465 67.4945 44.5227 67.476 44.3865 67.658C44.2714 67.8107 44.277 68.1142 44.4558 68.2437C44.7699 68.47 45.0839 68.6964 45.3967 68.9258C45.5747 69.053 45.7985 69.0715 45.9347 68.8895C46.0498 68.7368 46.0442 68.4333 45.8654 68.3038Z" fill="white"/>
<path d="M47.3494 64.5008C46.9492 64.3328 46.5619 64.1196 46.2068 63.8542C46.0322 63.7231 45.8028 63.7093 45.6688 63.8905C45.5524 64.0464 45.5605 64.3435 45.7381 64.4763C46.1528 64.7849 46.5869 65.0459 47.0509 65.242C47.2468 65.3247 47.4687 65.271 47.5548 65.0585C47.6285 64.8722 47.5453 64.5835 47.3494 64.5008Z" fill="white"/>
<path d="M48.5417 62.0609C48.2146 61.7853 47.8874 61.5096 47.5616 61.2309C47.1606 60.8929 46.6889 61.5134 47.0929 61.8529C47.4201 62.1285 47.7472 62.4041 48.073 62.6829C48.4719 63.0216 48.9436 62.4012 48.5417 62.0609Z" fill="white"/>
<path d="M49.0191 68.2643C48.6389 67.9566 48.2564 67.6498 47.8762 67.3421C47.4692 67.0145 46.9966 67.6325 47.4075 67.9642C47.7878 68.2718 48.1702 68.5787 48.5504 68.8863C48.9553 69.2147 49.4279 68.5967 49.0191 68.2643Z" fill="white"/>
<path d="M49.7363 71.9501C49.5004 71.7845 49.2646 71.6189 49.0287 71.4534C48.8486 71.327 48.6001 71.4553 48.5248 71.6368C48.4348 71.8587 48.5479 72.069 48.7281 72.1954C48.9639 72.3609 49.1998 72.5265 49.4356 72.6921C49.6158 72.8184 49.8642 72.6902 49.9396 72.5086C50.0274 72.2875 49.9164 72.0764 49.7363 71.9501Z" fill="white"/>
<path d="M50.9881 66.6447L49.9814 65.8892C49.8069 65.7581 49.5784 65.7467 49.4435 65.9255C49.3271 66.0814 49.3352 66.3785 49.5128 66.5112C49.848 66.7623 50.1841 67.0157 50.5194 67.2667C50.6939 67.3978 50.9225 67.4093 51.0574 67.2304C51.1738 67.0745 51.1656 66.7774 50.9881 66.6447Z" fill="white"/>
<path d="M51.8303 64.0268C51.4519 63.7509 51.0747 63.4719 50.6963 63.196C50.5196 63.0657 50.2945 63.0503 50.1583 63.2323C50.041 63.3859 50.0487 63.6885 50.2276 63.8181C50.606 64.0939 50.9832 64.373 51.3616 64.6488C51.5383 64.7792 51.7634 64.7946 51.8996 64.6125C52.0147 64.4598 52.007 64.1571 51.8303 64.0268Z" fill="white"/>
<path d="M52.1539 69.9617C51.8364 69.8935 51.5407 69.7578 51.2771 69.5429C51.1072 69.4046 50.8705 69.4043 50.7391 69.5792C50.6171 69.7398 50.6356 70.0251 50.8084 70.1649C51.1796 70.4677 51.5975 70.6779 52.0449 70.7746C52.5315 70.8786 52.6435 70.0674 52.1539 69.9617Z" fill="white"/>
<path d="M53.2475 73.5159C52.8892 73.3625 52.5434 73.1694 52.2275 72.9248C52.0543 72.7905 51.8245 72.7822 51.6896 72.9611C51.571 73.1178 51.5834 73.4133 51.7589 73.5468C52.1313 73.833 52.5269 74.0756 52.949 74.2571C53.1459 74.3423 53.3669 74.2862 53.453 74.0737C53.5279 73.8843 53.4465 73.6003 53.2475 73.5159Z" fill="white"/>
<path d="M55.5325 73.3412C55.5743 73.3557 55.4725 73.3171 55.4643 73.3146C55.4177 73.2938 55.3702 73.2705 55.3248 73.2464C55.2463 73.2048 55.1724 73.1559 55.1288 73.1232C54.9542 72.9921 54.7257 72.9806 54.5908 73.1595C54.4722 73.3162 54.4847 73.6117 54.6601 73.7452C54.8999 73.9282 55.1447 74.0581 55.4205 74.1524C55.6216 74.2225 55.8271 74.0368 55.8559 73.8344C55.8884 73.5955 55.7336 73.4112 55.5325 73.3412Z" fill="white"/>
<path d="M128.635 18.538C128.635 19.504 128.479 20.392 128.167 21.202C127.861 22.006 127.426 22.702 126.862 23.29C126.298 23.872 125.623 24.325 124.837 24.649C124.051 24.973 123.178 25.135 122.218 25.135C121.264 25.135 120.391 24.973 119.599 24.649C118.813 24.325 118.138 23.872 117.574 23.29C117.016 22.702 116.581 22.006 116.269 21.202C115.957 20.392 115.801 19.504 115.801 18.538C115.801 17.578 115.957 16.693 116.269 15.883C116.581 15.073 117.016 14.377 117.574 13.795C118.138 13.207 118.813 12.751 119.599 12.427C120.391 12.097 121.264 11.932 122.218 11.932C123.178 11.932 124.051 12.097 124.837 12.427C125.623 12.751 126.298 13.207 126.862 13.795C127.426 14.377 127.861 15.073 128.167 15.883C128.479 16.693 128.635 17.578 128.635 18.538ZM126.673 18.538C126.673 17.77 126.568 17.08 126.358 16.468C126.148 15.856 125.848 15.337 125.458 14.911C125.074 14.485 124.606 14.158 124.054 13.93C123.508 13.702 122.896 13.588 122.218 13.588C121.54 13.588 120.925 13.702 120.373 13.93C119.827 14.158 119.359 14.485 118.969 14.911C118.579 15.337 118.279 15.856 118.069 16.468C117.859 17.08 117.754 17.77 117.754 18.538C117.754 19.312 117.859 20.005 118.069 20.617C118.279 21.223 118.579 21.739 118.969 22.165C119.359 22.591 119.827 22.918 120.373 23.146C120.925 23.368 121.54 23.479 122.218 23.479C122.896 23.479 123.508 23.368 124.054 23.146C124.606 22.918 125.074 22.591 125.458 22.165C125.848 21.739 126.148 21.223 126.358 20.617C126.568 20.005 126.673 19.312 126.673 18.538ZM136.967 17.566C136.913 17.632 136.859 17.686 136.805 17.728C136.757 17.764 136.685 17.782 136.589 17.782C136.493 17.782 136.391 17.746 136.283 17.674C136.181 17.596 136.049 17.515 135.887 17.431C135.731 17.341 135.539 17.26 135.311 17.188C135.089 17.11 134.813 17.071 134.483 17.071C134.051 17.071 133.67 17.149 133.34 17.305C133.01 17.461 132.734 17.683 132.512 17.971C132.296 18.259 132.131 18.61 132.017 19.024C131.903 19.438 131.846 19.903 131.846 20.419C131.846 20.953 131.906 21.43 132.026 21.85C132.146 22.264 132.317 22.615 132.539 22.903C132.761 23.185 133.031 23.401 133.349 23.551C133.667 23.695 134.021 23.767 134.411 23.767C134.789 23.767 135.101 23.722 135.347 23.632C135.593 23.536 135.797 23.434 135.959 23.326C136.121 23.218 136.256 23.119 136.364 23.029C136.472 22.933 136.583 22.885 136.697 22.885C136.841 22.885 136.952 22.939 137.03 23.047L137.534 23.695C137.324 23.953 137.087 24.172 136.823 24.352C136.565 24.532 136.289 24.679 135.995 24.793C135.701 24.907 135.392 24.991 135.068 25.045C134.75 25.099 134.426 25.126 134.096 25.126C133.526 25.126 132.992 25.021 132.494 24.811C132.002 24.601 131.573 24.295 131.207 23.893C130.847 23.491 130.562 22.999 130.352 22.417C130.142 21.829 130.037 21.163 130.037 20.419C130.037 19.741 130.13 19.114 130.316 18.538C130.508 17.962 130.787 17.467 131.153 17.053C131.525 16.633 131.981 16.306 132.521 16.072C133.061 15.832 133.679 15.712 134.375 15.712C135.029 15.712 135.605 15.817 136.103 16.027C136.601 16.237 137.045 16.534 137.435 16.918L136.967 17.566ZM145.071 19.411C145.071 19.063 145.02 18.742 144.918 18.448C144.822 18.154 144.678 17.899 144.486 17.683C144.294 17.467 144.06 17.299 143.784 17.179C143.508 17.059 143.19 16.999 142.83 16.999C142.092 16.999 141.51 17.212 141.084 17.638C140.664 18.064 140.397 18.655 140.283 19.411L145.071 19.411ZM146.52 23.695C146.304 23.947 146.055 24.166 145.773 24.352C145.491 24.532 145.191 24.679 144.873 24.793C144.555 24.907 144.225 24.991 143.883 25.045C143.547 25.099 143.214 25.126 142.884 25.126C142.254 25.126 141.669 25.021 141.129 24.811C140.595 24.595 140.13 24.283 139.734 23.875C139.344 23.461 139.038 22.951 138.816 22.345C138.6 21.733 138.492 21.031 138.492 20.239C138.492 19.603 138.591 19.012 138.789 18.466C138.987 17.914 139.269 17.434 139.635 17.026C140.007 16.618 140.46 16.297 140.994 16.063C141.528 15.829 142.128 15.712 142.794 15.712C143.352 15.712 143.865 15.805 144.333 15.991C144.807 16.171 145.215 16.435 145.557 16.783C145.899 17.131 146.166 17.56 146.358 18.07C146.556 18.58 146.655 19.162 146.655 19.816C146.655 20.086 146.625 20.269 146.565 20.365C146.505 20.455 146.394 20.5 146.232 20.5L140.238 20.5C140.256 21.046 140.334 21.523 140.472 21.931C140.61 22.333 140.799 22.669 141.039 22.939C141.285 23.209 141.576 23.41 141.912 23.542C142.248 23.674 142.623 23.74 143.037 23.74C143.427 23.74 143.763 23.695 144.045 23.605C144.333 23.515 144.579 23.419 144.783 23.317C144.993 23.209 145.167 23.11 145.305 23.02C145.449 22.93 145.575 22.885 145.683 22.885C145.827 22.885 145.938 22.939 146.016 23.047L146.52 23.695ZM153.456 20.941C152.742 20.965 152.136 21.022 151.638 21.112C151.14 21.196 150.735 21.31 150.423 21.454C150.111 21.598 149.886 21.769 149.748 21.967C149.61 22.159 149.541 22.375 149.541 22.615C149.541 22.843 149.577 23.041 149.649 23.209C149.727 23.371 149.829 23.506 149.955 23.614C150.087 23.716 150.24 23.791 150.414 23.839C150.588 23.887 150.777 23.911 150.981 23.911C151.251 23.911 151.497 23.884 151.719 23.83C151.947 23.776 152.16 23.701 152.358 23.605C152.556 23.503 152.745 23.38 152.925 23.236C153.105 23.092 153.282 22.927 153.456 22.741L153.456 20.941ZM148.308 17.134C148.818 16.648 149.37 16.285 149.964 16.045C150.564 15.805 151.221 15.685 151.935 15.685C152.457 15.685 152.919 15.772 153.321 15.946C153.723 16.114 154.062 16.351 154.338 16.657C154.614 16.963 154.821 17.329 154.959 17.755C155.103 18.181 155.175 18.652 155.175 19.168L155.175 25L154.392 25C154.218 25 154.086 24.973 153.996 24.919C153.906 24.859 153.834 24.751 153.78 24.595L153.591 23.794C153.357 24.01 153.126 24.202 152.898 24.37C152.67 24.532 152.43 24.673 152.178 24.793C151.932 24.907 151.668 24.994 151.386 25.054C151.104 25.114 150.792 25.144 150.45 25.144C150.09 25.144 149.751 25.096 149.433 25C149.121 24.898 148.848 24.745 148.614 24.541C148.38 24.337 148.194 24.082 148.056 23.776C147.924 23.47 147.858 23.113 147.858 22.705C147.858 22.345 147.954 22 148.146 21.67C148.344 21.334 148.662 21.034 149.1 20.77C149.544 20.506 150.12 20.29 150.828 20.122C151.542 19.954 152.418 19.858 153.456 19.834L153.456 19.168C153.456 18.478 153.309 17.962 153.015 17.62C152.721 17.278 152.289 17.107 151.719 17.107C151.335 17.107 151.011 17.155 150.747 17.251C150.489 17.347 150.264 17.455 150.072 17.575C149.886 17.689 149.721 17.794 149.577 17.89C149.439 17.986 149.295 18.034 149.145 18.034C149.025 18.034 148.92 18.001 148.83 17.935C148.746 17.869 148.677 17.791 148.623 17.701L148.308 17.134ZM159.171 17.125C159.369 16.915 159.576 16.723 159.792 16.549C160.008 16.375 160.236 16.228 160.476 16.108C160.722 15.982 160.983 15.886 161.259 15.82C161.541 15.748 161.841 15.712 162.159 15.712C162.663 15.712 163.104 15.796 163.482 15.964C163.866 16.132 164.187 16.369 164.445 16.675C164.703 16.975 164.898 17.338 165.03 17.764C165.162 18.19 165.228 18.661 165.228 19.177L165.228 25L163.464 25L163.464 19.177C163.464 18.523 163.314 18.016 163.014 17.656C162.714 17.29 162.255 17.107 161.637 17.107C161.187 17.107 160.764 17.215 160.368 17.431C159.978 17.641 159.615 17.929 159.279 18.295L159.279 25L157.524 25L157.524 15.856L158.577 15.856C158.823 15.856 158.976 15.973 159.036 16.207L159.171 17.125Z" fill="#3F4553"/>
</g>
<defs>
<linearGradient id="paint0_linear_90_1401" x1="90" y1="-3.65651e-08" x2="90" y2="218.98" gradientUnits="userSpaceOnUse">
<stop stop-color="#FF7C6B"/>
<stop offset="1" stop-color="#FAC978"/>
</linearGradient>
<linearGradient id="paint1_linear_90_1401" x1="87.6262" y1="156.545" x2="88.5878" y2="-22.7861" gradientUnits="userSpaceOnUse">
<stop offset="0.4372" stop-color="#DAEDA3"/>
<stop offset="0.9596" stop-color="#8CFFAF" stop-opacity="0"/>
</linearGradient>
<linearGradient id="paint2_linear_90_1401" x1="135.812" y1="38.2057" x2="136.502" y2="111.38" gradientUnits="userSpaceOnUse">
<stop stop-color="white"/>
<stop offset="1" stop-color="white" stop-opacity="0"/>
</linearGradient>
<linearGradient id="paint3_linear_90_1401" x1="17.1054" y1="27.0688" x2="18.1184" y2="134.457" gradientUnits="userSpaceOnUse">
<stop stop-color="white"/>
<stop offset="1" stop-color="white" stop-opacity="0"/>
</linearGradient>
<linearGradient id="paint4_linear_90_1401" x1="87.3228" y1="54.6407" x2="88.8423" y2="104.277" gradientUnits="userSpaceOnUse">
<stop offset="0.4372" stop-color="white" stop-opacity="0.53"/>
<stop offset="0.9596" stop-color="white" stop-opacity="0"/>
</linearGradient>
<linearGradient id="paint5_linear_90_1401" x1="86.4536" y1="86.4761" x2="88.3767" y2="129.266" gradientUnits="userSpaceOnUse">
<stop offset="0.1372" stop-color="#FFF456" stop-opacity="0.53"/>
<stop offset="0.4372" stop-color="#FFF456" stop-opacity="0.53"/>
<stop offset="0.9596" stop-color="#FFF456" stop-opacity="0"/>
</linearGradient>
<linearGradient id="paint6_linear_90_1401" x1="92.3963" y1="41.0028" x2="84.0627" y2="167.288" gradientUnits="userSpaceOnUse">
<stop offset="0.1372" stop-color="#FFFBC0" stop-opacity="0.53"/>
<stop offset="0.4372" stop-color="#FFFBC0" stop-opacity="0.53"/>
<stop offset="0.9596" stop-color="#FFFBC0" stop-opacity="0"/>
</linearGradient>
<linearGradient id="paint7_linear_90_1401" x1="48.4" y1="91.7636" x2="32.5343" y2="143.207" gradientUnits="userSpaceOnUse">
<stop offset="0.4372" stop-color="#FFF456" stop-opacity="0.53"/>
<stop offset="0.9596" stop-color="#FFF456" stop-opacity="0"/>
</linearGradient>
</defs>
</svg>
