<svg width="183" height="116" viewBox="0 0 183 116" fill="none" xmlns="http://www.w3.org/2000/svg">
<rect x="1.00002" y="-6.10352e-05" width="180" height="115" rx="20" fill="#B4BAFF"/>
<path d="M66.0971 33.8143C43.7282 10.7871 13.3787 13.6409 1.00002 17.9462L1.00002 96.9177C5.89322 111.383 17.0194 115 21.9709 115L159.592 115C176.718 110.867 181 101.223 181 96.9177L181 29.386C152.689 19.0533 126.68 36.3975 117.214 46.3612C103.233 31.6001 77.3107 31.8461 66.0971 33.8143Z" fill="#8E97FD" stroke="#8E97FD"/>
<path d="M134.404 16.7828C133.017 16.7928 131.62 16.8282 130.207 16.8972C122.512 17.2613 114.772 19.8656 108.05 24.0975C107.603 24.049 107.153 23.997 106.711 23.9402C106.093 23.8586 105.5 23.7601 104.995 23.4467C104.523 23.1515 104.086 22.5563 104.197 21.9246C104.202 21.8981 104.206 21.8746 104.214 21.8487C104.382 21.1573 105.11 20.8069 105.642 20.6008C106.683 20.1995 107.813 19.9202 108.91 19.7802C108.456 19.7002 108.003 19.6021 107.558 19.4873C106.82 19.2966 106.413 18.9733 106.342 18.5306C106.29 18.1912 106.473 17.8235 106.81 17.5952C107.102 17.3982 107.453 17.3237 107.76 17.2688C108.797 17.0849 109.884 17.0313 110.932 17.095C110.83 17.0617 110.731 17.0232 110.633 16.9846C110.035 16.7368 109.514 16.2328 109.307 15.7024C109.164 15.3349 109.169 14.9722 109.328 14.6488C109.562 14.1689 110.08 13.8482 110.92 13.6691C112.42 13.3489 113.938 13.4196 115.493 13.5301C120.579 13.8847 125.688 14.6038 130.675 15.6649C131.936 15.9296 133.232 16.2429 134.404 16.7828Z" fill="#0D6EFD"/>
<path d="M111.771 19.4939L110.671 19.3C110.064 19.193 110.227 18.2703 110.833 18.3773L111.933 18.5712C112.54 18.6812 112.381 19.6014 111.771 19.4939Z" fill="white"/>
<path d="M110.724 21.5301L109.78 21.3637C109.173 21.2567 109.336 20.334 109.943 20.4411L110.886 20.6074C111.493 20.7144 111.331 21.6371 110.724 21.5301Z" fill="white"/>
<path d="M107.819 22.839L106.876 22.6726C106.269 22.5656 106.431 21.6429 107.038 21.7499L107.982 21.9163C108.589 22.0233 108.426 22.946 107.819 22.839Z" fill="white"/>
<path d="M129.158 16.6972L127.665 16.4339C127.058 16.3268 127.22 15.4042 127.827 15.5112L129.321 15.7745C129.928 15.8815 129.765 16.8042 129.158 16.6972Z" fill="white"/>
<path d="M125.204 16.1575L123.398 15.8391C122.791 15.732 122.954 14.8094 123.561 14.9164L125.367 15.2348C125.97 15.3443 125.811 16.2645 125.204 16.1575Z" fill="white"/>
<path d="M120.827 15.6978C120.325 15.6427 119.821 15.5871 119.319 15.5349C118.704 15.469 118.87 14.5469 119.481 14.6122C119.983 14.6673 120.487 14.723 120.989 14.7751C121.604 14.841 121.438 15.7631 120.827 15.6978Z" fill="white"/>
<path d="M117 15.3291C116.954 15.5935 116.706 15.7317 116.447 15.7072C116.076 15.669 115.704 15.6338 115.333 15.5956C115.074 15.5711 114.901 15.2861 114.943 15.0511C114.989 14.7866 115.237 14.6484 115.496 14.6729C115.867 14.7111 116.239 14.7464 116.61 14.7845C116.868 14.812 117.042 15.094 117 15.3291Z" fill="white"/>
<path d="M122.21 17.393C122.234 17.6274 122.04 17.9023 121.779 17.9018C121.226 17.8981 120.683 17.8449 120.145 17.7196C119.547 17.5808 119.706 16.6576 120.307 16.797C120.76 16.901 121.22 16.9639 121.684 16.967C121.944 16.9704 122.183 17.1246 122.21 17.393Z" fill="white"/>
<path d="M116.081 17.7999L115.138 17.6336C114.531 17.5265 114.694 16.6039 115.301 16.7109L116.244 16.8773C116.851 16.9843 116.688 17.907 116.081 17.7999Z" fill="white"/>
<path d="M112.419 16.0422L111.242 15.8346C110.635 15.7275 110.797 14.8049 111.404 14.9119L112.582 15.1196C113.189 15.2295 113.029 16.1498 112.419 16.0422Z" fill="white"/>
<path d="M115.627 18.9893C115.879 19.052 116.063 19.2723 116.017 19.5338C115.976 19.7689 115.716 19.9747 115.464 19.912C115.138 19.8302 114.814 19.7853 114.478 19.7956C114.22 19.8016 113.979 19.635 113.955 19.3701C113.932 19.1298 114.124 18.8697 114.385 18.8613C114.806 18.8476 115.221 18.8844 115.627 18.9893Z" fill="white"/>
<path d="M86.2832 35.5084C86.4687 35.4926 86.6193 35.3767 86.6898 35.2225L92.5457 36.0642C92.8207 36.1036 93.0835 35.9136 93.1146 35.6494C93.1527 35.3805 92.9616 35.1286 92.6866 35.0892L87.0607 34.279L86.063 31.3278C85.9752 31.0699 85.6908 30.9259 85.4251 31.0093C85.2413 31.0678 85.1186 31.2188 85.0881 31.3922C85.0746 31.4686 85.0786 31.5511 85.1048 31.6315L85.7057 33.4068L84.1029 32.1123C83.8889 31.9382 83.5709 31.967 83.3947 32.1753C83.3362 32.2437 83.3036 32.3228 83.2896 32.4022C83.2596 32.5726 83.3212 32.7501 83.4674 32.8698L85.5851 34.5824L83.4886 34.7702C83.2589 34.7903 83.08 34.9617 83.0427 35.1733C83.0349 35.2174 83.0337 35.2596 83.0379 35.3058C83.0644 35.577 83.3114 35.7751 83.5883 35.7512L86.2832 35.5084Z" fill="white"/>
<path d="M81.4207 48.0457L84.1186 47.8034C84.3042 47.7876 84.4547 47.6718 84.5253 47.5176L90.3811 48.3592C90.6561 48.3986 90.9194 48.2057 90.95 47.9445C90.9881 47.6755 90.7971 47.4237 90.5221 47.3843L84.8961 46.574L83.8984 43.6228C83.8106 43.365 83.5262 43.2209 83.2606 43.3043C83.0767 43.3628 82.9541 43.5139 82.9235 43.6872C82.91 43.7636 82.9141 43.8462 82.9402 43.9265L83.5411 45.7019L81.9383 44.4073C81.7243 44.2332 81.4063 44.262 81.2301 44.4703C81.1716 44.5387 81.1391 44.6178 81.1251 44.6972C81.095 44.8676 81.1567 45.0451 81.3029 45.1648L83.4206 46.8774L81.3241 47.0652C81.0943 47.0853 80.9154 47.2568 80.8781 47.4683C80.8703 47.5124 80.8691 47.5546 80.8733 47.6008C80.8974 47.8686 81.1439 48.0696 81.4207 48.0457Z" fill="white"/>
<path d="M109.58 91.25C109.987 91.1218 110.277 90.6911 110.289 90.2024C110.297 89.7858 110.13 89.3958 109.949 89.0366C109.429 88.0148 108.739 87.0781 108.069 86.1692L105.342 82.4676C106.868 84.2486 108.554 85.8972 110.38 87.3856C111.45 88.256 112.628 89.0939 113.993 89.3134C114.514 89.3962 114.945 89.363 115.308 89.2151C115.78 89.0195 116.108 88.6138 116.143 88.1715C116.19 87.6042 115.782 87.1292 115.419 86.7804C113.608 85.031 111.283 83.9304 109.033 82.864C107.858 82.3054 106.655 81.7327 105.52 81.069C106.829 81.7482 108.172 82.385 109.568 82.8856C112.217 83.8374 114.693 84.168 116.934 83.8632C117.207 83.8265 117.51 83.7559 117.677 83.5126C117.939 83.1316 117.68 82.6556 117.374 82.3655C116.31 81.3385 114.759 81.1196 113.128 80.9684L104.632 80.1852C104.572 77.6084 107.03 75.5606 108.24 74.7104C111.893 72.1459 116.724 72.804 120.985 73.3825L121.339 73.4297C127.669 74.2854 132.991 74.939 138.393 75.334C149.976 76.1857 162.912 75.9489 171.059 67.7478C174.081 64.7054 176.173 60.5023 177.106 55.595C178.386 48.9187 177.218 42.3079 173.751 36.4792C170.477 30.9725 165.352 26.4241 158.928 23.322C152.101 20.0277 144.531 18.4535 138.697 17.4521C135.26 16.8612 132.422 16.4788 129.764 16.2465C126.13 15.9299 122.866 15.9028 119.787 16.1658C107.207 17.2411 96.0629 24.535 90.7001 35.1996C89.0876 38.4056 87.986 41.7016 87.3979 45.0367C86.4585 50.3641 86.8315 55.7865 88.5388 61.0746C91.4266 70.0339 96.5459 76.9325 103.391 81.1268C103.39 84.8382 105.193 88.5312 108.209 90.8234C108.55 91.0865 109.065 91.4137 109.58 91.25Z" fill="#FFCB14"/>
<path d="M112.562 70.8459C115.99 70.1869 118.733 69.1407 120.957 67.6513C123.667 65.8324 125.544 63.3367 126.238 60.6171C127.015 57.5637 126.168 54.2846 124.081 52.2563C121.383 49.6355 117.347 49.4903 115.183 49.639C110.369 49.9658 105.643 52.0471 102.219 55.3519C101.562 55.9874 100.836 56.7682 100.443 57.7502C100.314 58.073 100.232 58.4008 100.193 58.7243C100.108 59.4546 100.26 60.157 100.633 60.7106C101.608 62.1551 104.822 61.2553 106.557 60.6038C106.356 60.7775 105.068 61.9501 104.883 62.1416C104.352 62.6933 104.032 63.2247 103.902 63.7654C103.731 64.4715 103.913 65.1821 104.374 65.6211C105.173 66.3829 106.443 66.1373 107.462 65.8412L110.467 64.7321C110.039 64.999 108.763 65.8041 108.433 66.1852C107.581 67.1681 107.182 68.8338 108.119 69.9838C108.932 70.9814 110.384 71.2648 112.562 70.8459Z" fill="#0D6EFD"/>
<path d="M144.013 56.9554C144.715 57.0156 145.45 56.6938 145.981 56.0934C146.388 55.629 146.681 55.005 146.877 54.1912C147.113 53.2057 147.164 52.1937 147.034 51.1892C146.982 50.7831 146.885 50.26 146.608 49.796C146.321 49.3152 145.862 48.9828 145.383 48.9044C144.67 48.7877 144.031 49.2114 143.673 49.6451C143.306 50.0924 142.983 50.584 142.718 51.1067C142.366 51.7992 142.12 52.5465 141.987 53.2988C141.948 53.5221 141.918 53.747 141.9 53.9711C141.788 55.3087 142.61 56.8322 144.013 56.9554Z" fill="white"/>
<path d="M153.213 32.1397C153.573 31.7276 153.835 31.1768 154.006 30.4526C154.215 29.5806 154.262 28.6859 154.146 27.7959C154.098 27.436 154.013 26.9695 153.769 26.5599C153.513 26.1301 153.104 25.8337 152.676 25.7643C152.038 25.6608 151.467 26.0358 151.147 26.4248C150.82 26.8216 150.536 27.2563 150.302 27.7181C149.993 28.3301 149.771 28.9909 149.654 29.6579C149.619 29.8548 149.593 30.0562 149.577 30.2533C149.477 31.4477 150.209 32.8007 151.46 32.9092C152.086 32.962 152.74 32.6745 153.213 32.1397Z" fill="white"/>
<path d="M159.661 40.6753C159.812 40.3808 159.692 40.0234 159.394 39.8708C158.016 39.1765 157.047 37.7542 156.919 36.2471C156.871 35.6599 156.958 35.1452 157.175 34.7592C157.477 34.2217 158.113 33.8157 158.834 33.6974C159.494 33.5896 160.262 33.7007 161.052 34.0158C161.364 34.1406 161.719 33.994 161.844 33.6888C161.969 33.3836 161.816 33.0356 161.504 32.9108C160.502 32.5101 159.507 32.3739 158.624 32.5181C157.527 32.6943 156.584 33.3158 156.103 34.1794C155.931 34.4883 155.812 34.8279 155.746 35.2011C155.684 35.5537 155.67 35.933 155.704 36.3359C155.863 38.2484 157.097 40.0506 158.841 40.9308C159.139 41.0834 159.507 40.9664 159.661 40.6753Z" fill="#3F4553"/>
<path d="M154.486 58.9688C154.821 59.0036 155.12 58.7684 155.153 58.438C155.186 58.1105 154.941 57.8158 154.606 57.781C153.775 57.6951 152.96 57.0999 152.528 56.2633C152.131 55.4934 152.023 54.5049 152.222 53.4855C152.328 52.9346 152.504 52.5536 152.752 52.3217C153.064 52.0312 153.589 51.8996 154.159 51.9698C154.75 52.0437 155.346 52.3033 155.921 52.5532C156.229 52.6863 156.59 52.553 156.724 52.2524C156.857 51.9518 156.719 51.5971 156.411 51.464C155.784 51.1898 155.076 50.8802 154.303 50.7862C153.359 50.6714 152.486 50.9144 151.908 51.4546C151.47 51.8623 151.183 52.451 151.026 53.2535C151.02 53.2917 151.012 53.3329 151.006 53.3711C150.787 54.6111 150.942 55.8231 151.443 56.796C152.064 58.0023 153.233 58.8357 154.486 58.9688Z" fill="#3F4553"/>
<path d="M143.618 41.0279C143.735 40.997 143.845 40.971 143.948 40.9468C144.749 40.7638 145.527 40.4951 146.256 40.1418C147.407 39.5873 148.074 38.896 148.235 38.0911C148.339 37.5702 148.22 37.0341 148.076 36.533C147.838 35.7033 147.419 34.8993 147.016 34.1254C146.82 33.7454 146.614 33.3515 146.44 32.9663C145.604 31.1374 144.624 29.3497 143.525 27.6562C143.274 27.2696 142.964 27.1149 142.694 27.24C142.393 27.3809 142.391 27.7623 142.39 27.9076L142.376 32.1347C141.868 31.2057 141.294 30.3442 140.692 29.4411C140.508 29.1633 140.321 28.888 140.138 28.6073C139.982 28.3706 139.798 28.1474 139.513 28.1152C139.12 28.0733 138.847 28.4281 138.732 28.7471C138.683 28.8839 138.646 29.0229 138.621 29.1639C138.488 29.9191 138.677 30.7098 138.834 31.3647L140.459 38.1199C140.495 38.2686 140.53 38.4202 140.566 38.5719C140.693 39.1154 140.823 39.6777 141.007 40.2131C141.128 40.5647 141.298 40.8128 141.526 40.9772C141.548 40.9932 141.573 41.0098 141.596 41.0228C142.2 41.3929 142.985 41.192 143.618 41.0279Z" fill="#3F4553"/>
<path d="M106.727 41.2279C106.17 41.1147 104.715 40.7792 105.178 39.9277C105.425 39.4744 106.066 39.2299 106.396 38.8184C106.793 38.3219 106.023 37.6802 105.626 38.1767C105.038 38.9093 103.948 39.2412 104.105 40.3717C104.269 41.5671 105.518 41.9844 106.556 42.1947C107.193 42.3281 107.364 41.3584 106.727 41.2279Z" fill="white"/>
<path d="M97.8969 34.9203C97.5679 34.7835 97.2383 34.6496 96.9062 34.5123C96.7441 34.4474 96.4928 34.397 96.3576 34.2853C96.2897 34.2309 96.2586 34.2315 96.245 34.2382C96.2501 34.2269 96.2573 34.204 96.2661 34.154C96.2994 33.9296 96.6885 33.568 96.8214 33.3945C97.031 33.1194 97.2486 32.8518 97.4692 32.5846C97.878 32.0932 97.1077 31.4544 96.6993 31.9429C96.3455 32.3683 96.0026 32.8017 95.6817 33.2511C95.4523 33.5682 95.1284 33.9292 95.1776 34.3529C95.2192 34.7147 95.4955 34.9574 95.8079 35.1185C96.3332 35.3899 96.9221 35.5816 97.4713 35.8057C98.0654 36.0559 98.4976 35.1686 97.8969 34.9203Z" fill="white"/>
<path d="M100.089 41.5514C100.738 41.5445 100.635 40.563 99.9902 40.5674C99.5435 40.5704 98.5102 40.5973 98.4567 39.9516C98.438 39.7241 98.6673 39.513 98.8005 39.3547C98.9842 39.1387 99.1554 38.9234 99.2922 38.6749C99.5981 38.1168 98.6877 37.6927 98.3792 38.2473C98.1644 38.6397 97.7839 38.9179 97.591 39.3263C97.4073 39.7181 97.4064 40.1451 97.6042 40.5345C98.0791 41.4605 99.1583 41.5599 100.089 41.5514Z" fill="white"/>
<path d="M94.1247 41.8176C94.7651 41.876 94.942 40.9074 94.2957 40.848C94.0181 40.8232 93.7461 40.7844 93.4753 40.7215C93.2225 40.6617 92.9865 40.5414 92.7418 40.471C92.8064 40.4036 92.8755 40.3279 92.8971 40.3105C93.1058 40.111 93.315 39.9085 93.5237 39.709C93.9859 39.2663 93.2121 38.63 92.7539 39.0673C92.2992 39.5022 91.1495 40.2417 91.6957 40.9742C91.9136 41.2672 92.364 41.4011 92.6972 41.5144C93.1621 41.6721 93.6342 41.7705 94.1247 41.8176Z" fill="white"/>
<path d="M127.806 21.973C127.268 21.5994 126.205 20.918 126.592 20.1288C126.872 19.5572 127.983 19.3198 128.53 19.0981C129.124 18.8575 128.777 17.9267 128.176 18.1722C127.235 18.5546 125.826 18.9001 125.563 20.0262C125.284 21.2192 126.263 22.1008 127.157 22.722C127.684 23.0906 128.336 22.3421 127.806 21.973Z" fill="white"/>
<path d="M127.612 29.5253C127.06 29.0676 126.392 28.5013 126.122 27.8175C125.803 27.0098 127.229 26.4069 127.783 26.0439C128.322 25.6906 127.74 24.882 127.201 25.2324C126.353 25.7888 124.917 26.3568 125.026 27.5696C125.123 28.6684 126.16 29.6056 126.959 30.2738C127.459 30.6891 128.106 29.9396 127.612 29.5253Z" fill="white"/>
<path d="M127.558 36.3661C127.031 36.0005 126.141 35.583 125.812 35.0039C125.567 34.5698 126.072 34.3589 126.4 34.1683C126.758 33.9618 127.116 33.7584 127.471 33.5543C128.03 33.2347 127.447 32.426 126.89 32.7428C126.094 33.1963 124.607 33.7037 124.7 34.829C124.791 35.9115 126.12 36.5639 126.909 37.1122C127.435 37.4837 128.088 36.7352 127.558 36.3661Z" fill="white"/>
<path d="M127.102 43.3452C126.788 43.0324 126.478 42.7201 126.164 42.4073C125.938 42.1795 125.33 41.7632 125.227 41.4693C124.936 40.6424 126.279 40.1066 126.881 40.0128C127.515 39.9126 127.425 38.9302 126.782 39.0288C125.718 39.1957 124.465 39.8534 124.136 40.9467C123.991 41.4302 124.185 41.7886 124.507 42.1452C125.118 42.8227 125.805 43.4466 126.45 44.0936C126.908 44.5502 127.552 43.7972 127.102 43.3452Z" fill="white"/>
<path d="M120.609 23.6973C119.984 23.5174 118.695 23.1478 118.871 22.2577C118.987 21.6662 119.999 21.0417 120.42 20.6555C120.893 20.2238 120.116 19.5869 119.65 20.0138C118.859 20.7408 117.607 21.5197 117.909 22.7547C118.197 23.9326 119.376 24.3646 120.437 24.67C121.06 24.8464 121.225 23.8727 120.609 23.6973Z" fill="white"/>
<path d="M120.626 32.3323C119.959 32.0724 119.097 31.6567 118.723 31.0182C118.178 30.0859 119.42 29.5414 120.09 29.2595C120.682 29.0095 120.332 28.0812 119.736 28.3336C118.722 28.7607 117.49 29.4403 117.573 30.7063C117.654 31.9507 119.147 32.8168 120.196 33.226C120.8 33.4567 121.232 32.5665 120.626 32.3323Z" fill="white"/>
<path d="M120.114 40.9284C119.535 40.5233 118.779 40.084 118.614 39.3883C118.48 38.8285 118.784 38.5973 119.229 38.2697C119.536 38.042 119.869 37.8888 120.23 37.7585C120.836 37.5381 120.485 36.6127 119.876 36.8326C118.893 37.1865 117.628 37.951 117.444 39.0609C117.251 40.2267 118.631 41.0972 119.467 41.6809C119.992 42.046 120.644 41.2975 120.114 40.9284Z" fill="white"/>
<path d="M111.987 25.3129C111.691 25.0606 111.394 24.8114 111.097 24.5591C110.917 24.4061 110.275 24.0233 110.208 23.8054C110.011 23.1495 111.307 22.4934 111.76 22.2612C112.332 21.9682 111.743 21.1615 111.178 21.4496C110.422 21.8374 109.041 22.7271 109.058 23.6997C109.066 24.116 109.37 24.391 109.669 24.6466C110.22 25.1226 110.78 25.5878 111.335 26.0584C111.831 26.4791 112.48 25.7301 111.987 25.3129Z" fill="white"/>
<path d="M112.655 31.7993C112.09 31.5451 110.356 30.7486 110.642 29.9021C110.809 29.4075 111.723 29.0566 112.104 28.7057C112.574 28.2705 111.798 27.6336 111.334 28.064C110.605 28.7412 109.424 29.0936 109.633 30.3151C109.833 31.4834 111.235 32.2458 112.226 32.6871C112.818 32.952 113.247 32.0642 112.655 31.7993Z" fill="white"/>
<path d="M113.905 39.5579C113.301 39.1363 112.418 38.714 111.958 38.1421C111.595 37.6902 111.836 37.466 112.255 37.1976C112.611 36.9695 112.97 36.745 113.329 36.5174C113.873 36.174 113.291 35.3654 112.747 35.7059C111.948 36.2134 110.568 36.7487 110.735 37.896C110.902 39.0404 112.398 39.7102 113.256 40.3069C113.786 40.676 114.438 39.9276 113.905 39.5579Z" fill="white"/>
<path d="M104.044 28.8388C103.638 28.6308 103.235 28.4175 102.834 28.2012C102.689 28.1242 102.389 28.0349 102.288 27.905C101.939 27.4617 102.271 27.3143 102.585 27.1362C103.116 26.83 103.626 26.626 103.882 26.0349C104.136 25.4526 103.223 25.025 102.969 25.6073C102.755 26.0998 102.114 26.2049 101.71 26.5094C101.345 26.7844 101.033 27.1839 101.025 27.655C101.015 28.1138 101.3 28.4488 101.676 28.6878C102.288 29.0806 102.97 29.3948 103.617 29.7301C104.191 30.0252 104.617 29.1368 104.044 28.8388Z" fill="white"/>
<path d="M105.294 35.4885C104.793 35.0638 104.083 34.9628 103.606 34.5394C103.18 34.1613 103.545 33.7621 103.849 33.4219C104.116 33.1235 104.385 32.8256 104.652 32.5272C105.079 32.0512 104.306 31.4119 103.882 31.8855C103.261 32.5759 102.097 33.4522 102.404 34.5002C102.714 35.5547 103.914 35.6208 104.648 36.238C105.138 36.6547 105.788 35.9058 105.294 35.4885Z" fill="white"/>
<path d="M108.07 61.7248C108.371 61.4416 108.672 61.1583 108.973 60.8721C109.169 60.6886 109.104 60.3378 108.913 60.1768C108.686 59.9883 108.4 60.0469 108.203 60.2304C107.902 60.5137 107.601 60.7969 107.3 61.0831C107.103 61.2666 107.168 61.6174 107.36 61.7784C107.587 61.9699 107.873 61.9113 108.07 61.7248Z" fill="white"/>
<path d="M105.82 64.6638C106.267 64.464 106.653 64.2049 107.012 63.8772C107.211 63.6972 107.144 63.34 106.951 63.1819C106.724 62.9934 106.441 63.0555 106.242 63.2355C106.053 63.4083 105.714 63.6272 105.468 63.7384C105.223 63.8496 105.072 64.1078 105.174 64.3712C105.263 64.6051 105.574 64.775 105.82 64.6638Z" fill="white"/>
<path d="M110.706 63.6409C111.172 63.2837 111.638 62.9236 112.107 62.5669C112.615 62.1779 112.037 61.3668 111.525 61.7553C111.059 62.1125 110.593 62.4727 110.124 62.8294C109.619 63.2189 110.197 64.0329 110.706 63.6409Z" fill="white"/>
<path d="M123.4 63.1616C123.746 62.7984 124.155 62.4856 124.61 62.2569C124.851 62.1358 125.008 61.8969 124.904 61.6241C124.817 61.3967 124.5 61.2104 124.256 61.331C123.641 61.6376 123.102 62.0243 122.63 62.5199C122.186 62.9839 122.959 63.6232 123.4 63.1616Z" fill="white"/>
<path d="M119.579 66.6113C120.08 66.2997 120.601 66.0188 121.14 65.7715C121.386 65.6603 121.536 65.4051 121.434 65.1387C121.345 64.9049 121.032 64.7315 120.786 64.8456C120.169 65.1277 119.571 65.4434 118.997 65.8026C118.454 66.1402 119.036 66.9488 119.579 66.6113Z" fill="white"/>
<path d="M115.393 66.5096C115.904 66.2482 116.436 66.0239 116.976 65.8252C117.582 65.6048 117.231 64.6765 116.622 64.8993C115.999 65.1258 115.4 65.3959 114.811 65.698C114.569 65.822 114.549 66.185 114.69 66.3856C114.867 66.6289 115.154 66.6341 115.393 66.5096Z" fill="white"/>
<path d="M113.821 69.68C114.428 69.4145 115.038 69.1525 115.646 68.8869C116.233 68.6329 115.886 67.7022 115.292 67.961C114.684 68.2265 114.074 68.4886 113.467 68.7541C112.879 69.0111 113.227 69.9389 113.821 69.68Z" fill="white"/>
<path d="M110.014 68.8999C110.586 68.625 111.142 68.323 111.673 67.9774C112.212 67.6271 111.63 66.8185 111.092 67.1659C110.633 67.4638 110.158 67.7345 109.661 67.971C109.417 68.0886 109.262 68.334 109.366 68.6038C109.455 68.8376 109.771 69.0174 110.014 68.8999Z" fill="white"/>
<path d="M123.621 60.1525L124.896 59.2109C125.413 58.8293 124.834 58.0183 124.314 58.3993C123.89 58.7124 123.463 59.0279 123.039 59.3409C122.526 59.723 123.104 60.5341 123.621 60.1525Z" fill="white"/>
<path d="M119.212 62.8746C119.743 62.5713 120.276 62.2714 120.807 61.9681C121.041 61.8337 121.074 61.4881 120.928 61.2805C120.758 61.0476 120.462 61.0226 120.225 61.1565L118.631 62.0631C118.396 62.1975 118.363 62.5431 118.509 62.7507C118.676 62.983 118.975 63.0085 119.212 62.8746Z" fill="white"/>
<path d="M113.793 65.0579C114.335 64.7415 114.88 64.4255 115.423 64.1091C115.978 63.786 115.396 62.9773 114.841 63.2975C114.299 63.614 113.753 63.9299 113.211 64.2463C112.655 64.5695 113.241 65.3786 113.793 65.0579Z" fill="white"/>
<path d="M123.197 57.1632C123.721 56.9162 124.241 56.6686 124.765 56.4217C125.008 56.307 125.161 56.0552 125.06 55.7888C124.97 55.558 124.658 55.3787 124.411 55.4957C123.887 55.7427 123.367 55.9902 122.843 56.2372C122.6 56.3519 122.447 56.6037 122.548 56.87C122.638 57.1009 122.953 57.2807 123.197 57.1632Z" fill="white"/>
<path d="M121.674 54.5221C122.147 54.3147 122.607 54.0807 123.05 53.8164C123.282 53.6786 123.32 53.3399 123.171 53.1288C123.007 52.8999 122.7 52.867 122.468 53.0048C122.098 53.2244 121.716 53.4207 121.32 53.5933C121.072 53.701 120.926 53.9632 121.026 54.2261C121.117 54.4663 121.425 54.6298 121.674 54.5221Z" fill="white"/>
<path d="M118.907 52.5739C119.498 52.2571 120.091 51.9374 120.683 51.6206C120.922 51.4932 120.948 51.1371 120.804 50.933C120.632 50.6937 120.34 50.6816 120.101 50.809C119.509 51.1258 118.917 51.4456 118.325 51.7624C118.085 51.8898 118.06 52.2458 118.203 52.4499C118.378 52.6898 118.67 52.7019 118.907 52.5739Z" fill="white"/>
<path d="M114.185 52.1504C114.613 51.938 115.041 51.7256 115.471 51.5167C115.712 51.3956 115.87 51.1537 115.766 50.8838C115.679 50.6564 115.361 50.4702 115.117 50.5907C114.689 50.8031 114.261 51.0155 113.831 51.2244C113.59 51.3455 113.432 51.5874 113.537 51.8573C113.624 52.0847 113.941 52.2709 114.185 52.1504Z" fill="white"/>
<path d="M117.203 56.2455C117.623 55.8985 118.083 55.5947 118.576 55.3606C118.82 55.246 118.975 54.9947 118.871 54.7278C118.781 54.4969 118.469 54.3176 118.222 54.4347C117.647 54.709 117.109 55.0353 116.62 55.4369C116.414 55.6065 116.332 55.8921 116.499 56.1245C116.646 56.3261 116.996 56.4151 117.203 56.2455Z" fill="white"/>
<path d="M118.99 59.1452C119.477 58.9493 119.964 58.7533 120.453 58.5609C121.05 58.3207 120.7 57.3924 120.099 57.6349C119.612 57.8309 119.126 58.0268 118.636 58.2192C118.04 58.4564 118.39 59.3848 118.99 59.1452Z" fill="white"/>
<path d="M112.28 55.7502C112.833 55.5144 113.386 55.2756 113.939 55.0398C114.529 54.7863 114.181 53.8585 113.585 54.1139C113.032 54.3497 112.479 54.5884 111.926 54.8242C111.337 55.0748 111.684 56.0026 112.28 55.7502Z" fill="white"/>
<path d="M108.026 54.2244C108.343 54.0621 108.659 53.8998 108.976 53.7375C109.218 53.6135 109.239 53.2506 109.097 53.05C108.923 52.8072 108.636 52.802 108.394 52.926C108.078 53.0883 107.761 53.2506 107.444 53.4128C107.202 53.5368 107.182 53.8998 107.323 54.1004C107.497 54.3403 107.784 54.3484 108.026 54.2244Z" fill="white"/>
<path d="M112.74 59.0096L114.143 58.348C114.386 58.2333 114.539 57.9815 114.437 57.7151C114.348 57.4843 114.035 57.305 113.789 57.422C113.322 57.6428 112.853 57.863 112.386 58.0837C112.143 58.1983 111.99 58.4501 112.092 58.7165C112.181 58.9474 112.494 59.1267 112.74 59.0096Z" fill="white"/>
<path d="M114.928 61.6254C115.447 61.3715 115.968 61.121 116.487 60.8671C116.731 60.7495 116.886 60.5041 116.781 60.2343C116.695 60.0039 116.377 59.8206 116.133 59.9412C115.614 60.1951 115.093 60.4455 114.574 60.6995C114.33 60.817 114.175 61.0624 114.28 61.3323C114.366 61.5597 114.684 61.743 114.928 61.6254Z" fill="white"/>
<path d="M108.591 58.2264C108.857 57.9098 109.18 57.6607 109.565 57.4983C109.813 57.3935 109.959 57.1254 109.859 56.8655C109.768 56.6252 109.462 56.4652 109.211 56.5724C108.668 56.8009 108.193 57.1413 107.817 57.5871C107.409 58.0726 108.179 58.7143 108.591 58.2264Z" fill="white"/>
<path d="M104.24 57.2108C104.62 56.9021 105.033 56.6326 105.481 56.4298C105.727 56.3186 105.877 56.0633 105.775 55.797C105.686 55.5631 105.373 55.3897 105.127 55.5038C104.601 55.7444 104.106 56.0389 103.658 56.4022C103.448 56.5713 103.37 56.8574 103.536 57.0898C103.686 57.2949 104.03 57.3829 104.24 57.2108Z" fill="white"/>
<path d="M103.011 59.9117C102.97 59.95 103.073 59.859 103.081 59.8513C103.131 59.8117 103.184 59.7726 103.237 59.7365C103.329 59.6739 103.425 59.6211 103.486 59.5925C103.729 59.4778 103.882 59.226 103.78 58.9596C103.691 58.7258 103.378 58.5524 103.131 58.6665C102.794 58.8222 102.509 59.0173 102.241 59.27C102.045 59.4535 102.11 59.8043 102.301 59.9654C102.528 60.1538 102.814 60.0952 103.011 59.9117Z" fill="white"/>
<path d="M24.612 84.443L24.603 86L16.593 86L16.593 73.076L24.603 73.076L24.603 74.633L18.519 74.633L18.519 78.728L23.415 78.728L23.415 80.231L18.519 80.231L18.519 84.443L24.612 84.443ZM28.4225 76.856L28.4225 86L26.6675 86L26.6675 76.856L28.4225 76.856ZM28.7555 74.03C28.7555 74.192 28.7225 74.348 28.6565 74.498C28.5905 74.642 28.5005 74.771 28.3865 74.885C28.2785 74.993 28.1495 75.08 27.9995 75.146C27.8495 75.206 27.6935 75.236 27.5315 75.236C27.3695 75.236 27.2165 75.206 27.0725 75.146C26.9285 75.08 26.7995 74.993 26.6855 74.885C26.5775 74.771 26.4905 74.642 26.4245 74.498C26.3645 74.348 26.3345 74.192 26.3345 74.03C26.3345 73.862 26.3645 73.706 26.4245 73.562C26.4905 73.412 26.5775 73.283 26.6855 73.175C26.7995 73.061 26.9285 72.974 27.0725 72.914C27.2165 72.848 27.3695 72.815 27.5315 72.815C27.6935 72.815 27.8495 72.848 27.9995 72.914C28.1495 72.974 28.2785 73.061 28.3865 73.175C28.5005 73.283 28.5905 73.412 28.6565 73.562C28.7225 73.706 28.7555 73.862 28.7555 74.03ZM34.1765 81.437C34.4885 81.437 34.7615 81.395 34.9955 81.311C35.2355 81.227 35.4335 81.11 35.5895 80.96C35.7515 80.804 35.8715 80.618 35.9495 80.402C36.0335 80.186 36.0755 79.949 36.0755 79.691C36.0755 79.163 35.9135 78.743 35.5895 78.431C35.2715 78.113 34.8005 77.954 34.1765 77.954C33.5585 77.954 33.0875 78.113 32.7635 78.431C32.4455 78.743 32.2865 79.163 32.2865 79.691C32.2865 79.949 32.3255 80.186 32.4035 80.402C32.4875 80.612 32.6075 80.795 32.7635 80.951C32.9255 81.101 33.1235 81.221 33.3575 81.311C33.5975 81.395 33.8705 81.437 34.1765 81.437ZM36.9755 86.477C36.9755 86.261 36.9155 86.09 36.7955 85.964C36.6755 85.832 36.5105 85.73 36.3005 85.658C36.0965 85.58 35.8565 85.526 35.5805 85.496C35.3045 85.46 35.0135 85.433 34.7075 85.415C34.4075 85.397 34.0985 85.382 33.7805 85.37C33.4625 85.352 33.1565 85.322 32.8625 85.28C32.5505 85.436 32.2925 85.625 32.0885 85.847C31.8905 86.069 31.7915 86.33 31.7915 86.63C31.7915 86.822 31.8395 87.002 31.9355 87.17C32.0375 87.338 32.1905 87.482 32.3945 87.602C32.6045 87.728 32.8655 87.824 33.1775 87.89C33.4955 87.962 33.8735 87.998 34.3115 87.998C34.7435 87.998 35.1245 87.959 35.4545 87.881C35.7845 87.809 36.0605 87.704 36.2825 87.566C36.5105 87.434 36.6815 87.275 36.7955 87.089C36.9155 86.903 36.9755 86.699 36.9755 86.477ZM38.7575 77.198L38.7575 77.855C38.7575 78.071 38.6225 78.206 38.3525 78.26L37.3715 78.404C37.4555 78.59 37.5215 78.788 37.5695 78.998C37.6175 79.202 37.6415 79.418 37.6415 79.646C37.6415 80.096 37.5545 80.504 37.3805 80.87C37.2065 81.23 36.9665 81.539 36.6605 81.797C36.3545 82.055 35.9885 82.253 35.5625 82.391C35.1425 82.529 34.6805 82.598 34.1765 82.598C33.7625 82.598 33.3755 82.553 33.0155 82.463C32.8355 82.571 32.6975 82.691 32.6015 82.823C32.5115 82.949 32.4665 83.075 32.4665 83.201C32.4665 83.411 32.5535 83.567 32.7275 83.669C32.9075 83.771 33.1385 83.846 33.4205 83.894C33.7085 83.936 34.0355 83.963 34.4015 83.975C34.7735 83.987 35.1485 84.008 35.5265 84.038C35.9105 84.062 36.2855 84.11 36.6515 84.182C37.0235 84.248 37.3505 84.359 37.6325 84.515C37.9205 84.665 38.1515 84.875 38.3255 85.145C38.5055 85.409 38.5955 85.754 38.5955 86.18C38.5955 86.576 38.4965 86.96 38.2985 87.332C38.1065 87.704 37.8245 88.034 37.4525 88.322C37.0805 88.61 36.6275 88.841 36.0935 89.015C35.5595 89.189 34.9535 89.276 34.2755 89.276C33.5975 89.276 33.0065 89.21 32.5025 89.078C32.0045 88.946 31.5875 88.769 31.2515 88.547C30.9215 88.325 30.6725 88.067 30.5045 87.773C30.3425 87.479 30.2615 87.173 30.2615 86.855C30.2615 86.411 30.3995 86.036 30.6755 85.73C30.9515 85.418 31.3325 85.175 31.8185 85.001C31.5545 84.881 31.3445 84.719 31.1885 84.515C31.0325 84.305 30.9545 84.029 30.9545 83.687C30.9545 83.555 30.9785 83.42 31.0265 83.282C31.0745 83.138 31.1465 82.997 31.2425 82.859C31.3445 82.715 31.4675 82.58 31.6115 82.454C31.7615 82.328 31.9325 82.214 32.1245 82.112C31.6745 81.86 31.3205 81.527 31.0625 81.113C30.8045 80.693 30.6755 80.204 30.6755 79.646C30.6755 79.196 30.7625 78.791 30.9365 78.431C31.1105 78.071 31.3505 77.762 31.6565 77.504C31.9685 77.246 32.3375 77.048 32.7635 76.91C33.1955 76.772 33.6665 76.703 34.1765 76.703C34.9685 76.703 35.6495 76.868 36.2195 77.198L38.7575 77.198ZM42.1228 78.017C42.5068 77.627 42.9298 77.312 43.3918 77.072C43.8598 76.832 44.3968 76.712 45.0028 76.712C45.5068 76.712 45.9478 76.796 46.3258 76.964C46.7098 77.132 47.0308 77.369 47.2888 77.675C47.5468 77.975 47.7418 78.338 47.8738 78.764C48.0058 79.19 48.0718 79.661 48.0718 80.177L48.0718 86L46.3078 86L46.3078 80.177C46.3078 79.523 46.1578 79.016 45.8578 78.656C45.5578 78.29 45.0988 78.107 44.4808 78.107C44.0308 78.107 43.6078 78.215 43.2118 78.431C42.8218 78.641 42.4588 78.929 42.1228 79.295L42.1228 86L40.3678 86L40.3678 72.716L42.1228 72.716L42.1228 78.017ZM53.179 86.144C52.441 86.144 51.871 85.937 51.469 85.523C51.073 85.109 50.875 84.518 50.875 83.75L50.875 78.278L49.813 78.278C49.711 78.278 49.624 78.248 49.552 78.188C49.486 78.122 49.453 78.026 49.453 77.9L49.453 77.189L50.938 76.982L51.334 74.255C51.358 74.153 51.403 74.075 51.469 74.021C51.541 73.961 51.631 73.931 51.739 73.931L52.63 73.931L52.63 77L55.222 77L55.222 78.278L52.63 78.278L52.63 83.633C52.63 83.993 52.717 84.263 52.891 84.443C53.071 84.617 53.299 84.704 53.575 84.704C53.737 84.704 53.875 84.683 53.989 84.641C54.109 84.599 54.211 84.554 54.295 84.506C54.379 84.452 54.451 84.404 54.511 84.362C54.571 84.32 54.625 84.299 54.673 84.299C54.733 84.299 54.778 84.314 54.808 84.344C54.844 84.368 54.88 84.41 54.916 84.47L55.438 85.316C55.15 85.58 54.808 85.784 54.412 85.928C54.016 86.072 53.605 86.144 53.179 86.144ZM72.3352 73.076L72.3352 86L70.4182 86L70.4182 80.177L63.6772 80.177L63.6772 86L61.7512 86L61.7512 73.076L63.6772 73.076L63.6772 78.782L70.4182 78.782L70.4182 73.076L72.3352 73.076ZM78.7882 76.712C79.4602 76.712 80.0662 76.823 80.6062 77.045C81.1522 77.261 81.6142 77.576 81.9922 77.99C82.3762 78.398 82.6702 78.893 82.8742 79.475C83.0782 80.051 83.1802 80.699 83.1802 81.419C83.1802 82.139 83.0782 82.79 82.8742 83.372C82.6702 83.954 82.3762 84.449 81.9922 84.857C81.6142 85.265 81.1522 85.58 80.6062 85.802C80.0662 86.018 79.4602 86.126 78.7882 86.126C78.1102 86.126 77.4982 86.018 76.9522 85.802C76.4122 85.58 75.9502 85.265 75.5662 84.857C75.1822 84.449 74.8852 83.954 74.6752 83.372C74.4712 82.79 74.3692 82.139 74.3692 81.419C74.3692 80.699 74.4712 80.051 74.6752 79.475C74.8852 78.893 75.1822 78.398 75.5662 77.99C75.9502 77.576 76.4122 77.261 76.9522 77.045C77.4982 76.823 78.1102 76.712 78.7882 76.712ZM78.7882 84.758C79.6522 84.758 80.2972 84.467 80.7232 83.885C81.1492 83.303 81.3622 82.484 81.3622 81.428C81.3622 80.372 81.1492 79.553 80.7232 78.971C80.2972 78.383 79.6522 78.089 78.7882 78.089C77.9122 78.089 77.2582 78.383 76.8262 78.971C76.4002 79.553 76.1872 80.372 76.1872 81.428C76.1872 82.484 76.4002 83.303 76.8262 83.885C77.2582 84.467 77.9122 84.758 78.7882 84.758ZM92.7443 76.856L92.7443 86L91.6913 86C91.4513 86 91.2953 85.883 91.2233 85.649L91.0973 84.731C90.8993 84.941 90.6923 85.133 90.4763 85.307C90.2603 85.481 90.0293 85.631 89.7833 85.757C89.5373 85.877 89.2763 85.97 89.0003 86.036C88.7243 86.108 88.4273 86.144 88.1093 86.144C87.6053 86.144 87.1613 86.06 86.7773 85.892C86.3993 85.724 86.0813 85.49 85.8233 85.19C85.5653 84.884 85.3703 84.518 85.2383 84.092C85.1063 83.666 85.0403 83.195 85.0403 82.679L85.0403 76.856L86.8043 76.856L86.8043 82.679C86.8043 83.333 86.9543 83.843 87.2543 84.209C87.5543 84.569 88.0133 84.749 88.6313 84.749C89.0813 84.749 89.5013 84.644 89.8913 84.434C90.2813 84.218 90.6473 83.924 90.9893 83.552L90.9893 76.856L92.7443 76.856ZM96.85 78.611C97.144 78.011 97.498 77.54 97.912 77.198C98.326 76.856 98.824 76.685 99.406 76.685C99.604 76.685 99.79 76.709 99.964 76.757C100.144 76.799 100.3 76.865 100.432 76.955L100.315 78.278C100.273 78.44 100.174 78.521 100.018 78.521C99.934 78.521 99.808 78.506 99.64 78.476C99.472 78.44 99.292 78.422 99.1 78.422C98.818 78.422 98.569 78.464 98.353 78.548C98.137 78.626 97.942 78.746 97.768 78.908C97.6 79.064 97.45 79.259 97.318 79.493C97.186 79.721 97.063 79.982 96.949 80.276L96.949 86L95.194 86L95.194 76.856L96.202 76.856C96.394 76.856 96.523 76.892 96.589 76.964C96.661 77.03 96.712 77.15 96.742 77.324L96.85 78.611ZM23.28 97.182C23.22 97.284 23.157 97.359 23.091 97.407C23.025 97.455 22.941 97.479 22.839 97.479C22.731 97.479 22.608 97.431 22.47 97.335C22.332 97.233 22.158 97.122 21.948 97.002C21.744 96.876 21.498 96.765 21.21 96.669C20.922 96.567 20.577 96.516 20.175 96.516C19.797 96.516 19.464 96.567 19.176 96.669C18.894 96.765 18.657 96.9 18.465 97.074C18.273 97.242 18.126 97.443 18.024 97.677C17.928 97.905 17.88 98.154 17.88 98.424C17.88 98.772 17.967 99.06 18.141 99.288C18.321 99.516 18.555 99.711 18.843 99.873C19.131 100.035 19.458 100.176 19.824 100.296C20.19 100.416 20.565 100.542 20.949 100.674C21.333 100.8 21.708 100.947 22.074 101.115C22.44 101.283 22.767 101.496 23.055 101.754C23.343 102.006 23.574 102.318 23.748 102.69C23.928 103.056 24.018 103.506 24.018 104.04C24.018 104.61 23.919 105.144 23.721 105.642C23.529 106.14 23.247 106.575 22.875 106.947C22.503 107.319 22.044 107.613 21.498 107.829C20.958 108.039 20.343 108.144 19.653 108.144C19.239 108.144 18.837 108.102 18.447 108.018C18.057 107.94 17.688 107.829 17.34 107.685C16.992 107.535 16.665 107.358 16.359 107.154C16.059 106.944 15.789 106.71 15.549 106.452L16.098 105.534C16.152 105.462 16.215 105.402 16.287 105.354C16.365 105.306 16.452 105.282 16.548 105.282C16.674 105.282 16.818 105.348 16.98 105.48C17.148 105.612 17.352 105.759 17.592 105.921C17.838 106.077 18.129 106.221 18.465 106.353C18.807 106.485 19.221 106.551 19.707 106.551C20.103 106.551 20.457 106.5 20.769 106.398C21.081 106.29 21.342 106.14 21.552 105.948C21.768 105.75 21.933 105.513 22.047 105.237C22.161 104.961 22.218 104.655 22.218 104.319C22.218 103.941 22.131 103.632 21.957 103.392C21.783 103.152 21.552 102.951 21.264 102.789C20.976 102.627 20.649 102.489 20.283 102.375C19.917 102.261 19.542 102.144 19.158 102.024C18.774 101.898 18.399 101.754 18.033 101.592C17.667 101.43 17.34 101.22 17.052 100.962C16.764 100.698 16.533 100.371 16.359 99.981C16.185 99.585 16.098 99.099 16.098 98.523C16.098 98.061 16.188 97.614 16.368 97.182C16.548 96.75 16.809 96.369 17.151 96.039C17.499 95.703 17.925 95.436 18.429 95.238C18.933 95.034 19.509 94.932 20.157 94.932C20.883 94.932 21.549 95.049 22.155 95.283C22.767 95.511 23.298 95.841 23.748 96.273L23.28 97.182ZM27.6658 94.716L27.6658 108L25.9018 108L25.9018 94.716L27.6658 94.716ZM36.2295 102.411C36.2295 102.063 36.1785 101.742 36.0765 101.448C35.9805 101.154 35.8365 100.899 35.6445 100.683C35.4525 100.467 35.2185 100.299 34.9425 100.179C34.6665 100.059 34.3485 99.999 33.9885 99.999C33.2505 99.999 32.6685 100.212 32.2425 100.638C31.8225 101.064 31.5555 101.655 31.4415 102.411L36.2295 102.411ZM37.6785 106.695C37.4625 106.947 37.2135 107.166 36.9315 107.352C36.6495 107.532 36.3495 107.679 36.0315 107.793C35.7135 107.907 35.3835 107.991 35.0415 108.045C34.7055 108.099 34.3725 108.126 34.0425 108.126C33.4125 108.126 32.8275 108.021 32.2875 107.811C31.7535 107.595 31.2885 107.283 30.8925 106.875C30.5025 106.461 30.1965 105.951 29.9745 105.345C29.7585 104.733 29.6505 104.031 29.6505 103.239C29.6505 102.603 29.7495 102.012 29.9475 101.466C30.1455 100.914 30.4275 100.434 30.7935 100.026C31.1655 99.618 31.6185 99.297 32.1525 99.063C32.6865 98.829 33.2865 98.712 33.9525 98.712C34.5105 98.712 35.0235 98.805 35.4915 98.991C35.9655 99.171 36.3735 99.435 36.7155 99.783C37.0575 100.131 37.3245 100.56 37.5165 101.07C37.7145 101.58 37.8135 102.162 37.8135 102.816C37.8135 103.086 37.7835 103.269 37.7235 103.365C37.6635 103.455 37.5525 103.5 37.3905 103.5L31.3965 103.5C31.4145 104.046 31.4925 104.523 31.6305 104.931C31.7685 105.333 31.9575 105.669 32.1975 105.939C32.4435 106.209 32.7345 106.41 33.0705 106.542C33.4065 106.674 33.7815 106.74 34.1955 106.74C34.5855 106.74 34.9215 106.695 35.2035 106.605C35.4915 106.515 35.7375 106.419 35.9415 106.317C36.1515 106.209 36.3255 106.11 36.4635 106.02C36.6075 105.93 36.7335 105.885 36.8415 105.885C36.9855 105.885 37.0965 105.939 37.1745 106.047L37.6785 106.695ZM45.7568 102.411C45.7568 102.063 45.7058 101.742 45.6038 101.448C45.5078 101.154 45.3638 100.899 45.1718 100.683C44.9798 100.467 44.7458 100.299 44.4698 100.179C44.1938 100.059 43.8758 99.999 43.5158 99.999C42.7778 99.999 42.1958 100.212 41.7698 100.638C41.3498 101.064 41.0828 101.655 40.9688 102.411L45.7568 102.411ZM47.2058 106.695C46.9898 106.947 46.7408 107.166 46.4588 107.352C46.1768 107.532 45.8768 107.679 45.5588 107.793C45.2408 107.907 44.9108 107.991 44.5688 108.045C44.2328 108.099 43.8998 108.126 43.5698 108.126C42.9398 108.126 42.3548 108.021 41.8148 107.811C41.2808 107.595 40.8158 107.283 40.4198 106.875C40.0298 106.461 39.7238 105.951 39.5018 105.345C39.2858 104.733 39.1778 104.031 39.1778 103.239C39.1778 102.603 39.2768 102.012 39.4748 101.466C39.6728 100.914 39.9548 100.434 40.3208 100.026C40.6928 99.618 41.1458 99.297 41.6798 99.063C42.2138 98.829 42.8138 98.712 43.4798 98.712C44.0378 98.712 44.5508 98.805 45.0188 98.991C45.4928 99.171 45.9008 99.435 46.2428 99.783C46.5848 100.131 46.8518 100.56 47.0438 101.07C47.2418 101.58 47.3408 102.162 47.3408 102.816C47.3408 103.086 47.3108 103.269 47.2508 103.365C47.1908 103.455 47.0798 103.5 46.9178 103.5L40.9238 103.5C40.9418 104.046 41.0198 104.523 41.1578 104.931C41.2958 105.333 41.4848 105.669 41.7248 105.939C41.9708 106.209 42.2618 106.41 42.5978 106.542C42.9338 106.674 43.3088 106.74 43.7228 106.74C44.1128 106.74 44.4488 106.695 44.7308 106.605C45.0188 106.515 45.2648 106.419 45.4688 106.317C45.6788 106.209 45.8528 106.11 45.9908 106.02C46.1348 105.93 46.2608 105.885 46.3688 105.885C46.5128 105.885 46.6238 105.939 46.7018 106.047L47.2058 106.695ZM50.9822 105.75C51.2702 106.128 51.5792 106.392 51.9092 106.542C52.2452 106.692 52.6202 106.767 53.0342 106.767C53.8382 106.767 54.4592 106.479 54.8972 105.903C55.3412 105.321 55.5632 104.475 55.5632 103.365C55.5632 102.783 55.5122 102.288 55.4102 101.88C55.3142 101.466 55.1702 101.13 54.9782 100.872C54.7922 100.608 54.5612 100.416 54.2852 100.296C54.0092 100.17 53.6972 100.107 53.3492 100.107C52.8392 100.107 52.3952 100.221 52.0172 100.449C51.6452 100.677 51.3002 101.001 50.9822 101.421L50.9822 105.75ZM50.8922 100.224C51.0842 99.996 51.2882 99.789 51.5042 99.603C51.7262 99.411 51.9632 99.249 52.2152 99.117C52.4672 98.979 52.7342 98.874 53.0162 98.802C53.3042 98.724 53.6102 98.685 53.9342 98.685C54.4562 98.685 54.9272 98.787 55.3472 98.991C55.7732 99.195 56.1362 99.495 56.4362 99.891C56.7362 100.287 56.9672 100.776 57.1292 101.358C57.2972 101.94 57.3812 102.609 57.3812 103.365C57.3812 104.043 57.2882 104.673 57.1022 105.255C56.9222 105.831 56.6612 106.332 56.3192 106.758C55.9832 107.184 55.5692 107.52 55.0772 107.766C54.5912 108.006 54.0422 108.126 53.4302 108.126C52.8842 108.126 52.4162 108.036 52.0262 107.856C51.6362 107.676 51.2882 107.424 50.9822 107.1L50.9822 111.069L49.2272 111.069L49.2272 98.856L50.2802 98.856C50.5262 98.856 50.6792 98.973 50.7392 99.207L50.8922 100.224Z" fill="white"/>
</svg>
