<svg width="84" height="40" viewBox="0 0 84 40" fill="none" xmlns="http://www.w3.org/2000/svg">
<path d="M80.6343 25.3561C80.4129 25.1338 80.1856 24.921 79.9528 24.7178C77.433 22.519 72.733 14.9752 70.9457 12.1487V12.1487C69.0123 9.08959 64.9607 7.46981 61.3215 8.29474C60.8445 8.40304 60.3796 8.54512 59.9297 8.7182C58.6535 9.20926 54.2658 7.53544 53.7554 6.2668V6.2668C52.4965 3.14325 49.88 0.805952 46.9283 0.174368C43.3321 -0.599001 39.1387 1.25279 36.737 4.68569C36.3281 5.26883 35.9555 5.89546 35.6215 6.55595C34.9791 7.8266 31.2594 8.39183 30.0388 7.65886V7.65886C27.3062 6.0133 23.6026 5.96174 20.608 7.52567C17.8195 8.98218 15.6369 11.805 14.7647 15.0746V15.0746C14.1347 17.4525 9.79591 20.041 7.33793 20.1397C7.00449 20.1531 6.66325 20.1897 6.31353 20.2519C3.86882 20.6858 1.84947 22.1896 0.775349 24.3765C-0.294478 26.5505 -0.25581 29.0511 0.882761 31.2337C2.80759 34.9201 6.73888 37.223 12.9086 38.2714C17.1751 38.9975 21.5704 39.0404 25.8153 39.0834C26.6016 39.092 27.3921 39.1006 28.1784 39.1092C28.8014 39.1178 29.3513 39.1307 29.8583 39.1479C33.3385 39.2553 36.8229 39.3283 40.2172 39.3584C41.6737 39.3713 43.1259 39.3799 44.5738 39.3799C49.8413 39.3799 55.0615 39.2896 60.14 39.1049C61.3946 39.0576 62.6749 38.9932 63.908 38.9287C65.7297 38.8342 67.6116 38.7354 69.4634 38.7053C72.5783 38.6495 75.3668 38.512 77.9017 37.3777C80.0929 36.3938 83.0274 34.7096 83.2251 31.4314C83.354 29.3476 82.4087 27.1349 80.6343 25.3561Z" fill="#0D6EFD" fill-opacity="0.2"/>
</svg>
