<svg width="353" height="67" viewBox="0 0 353 67" fill="none" xmlns="http://www.w3.org/2000/svg">
<path d="M0.5 4.17779C9.85084 10.9405 50.9197 16.8442 95.8995 20.9857C95.8874 21.0583 95.8834 21.1349 95.8834 21.2075C83.0079 30.3293 66.2053 36.8016 49.1694 39.3744C73.8783 39.3744 96.4587 30.8213 117.699 22.8327L117.619 22.8246C117.345 22.8044 117.068 22.7802 116.794 22.756H116.798L117.619 22.8246C139.403 24.5264 161.066 25.7886 179.566 26.5144C179.816 26.5225 180.065 26.5346 180.315 26.5427C160.724 39.8664 130.728 52.8918 109.918 59.2875C109.817 59.3198 109.761 59.4125 109.785 59.5093C109.805 59.5899 109.877 59.6504 109.962 59.6585C109.978 59.6585 109.994 59.6585 110.006 59.6585C135.484 56.6542 173.808 43.0522 194.977 27.075C221.906 27.9863 248.531 28.5307 272.193 28.8453C255.862 43.032 234.251 57.243 218.104 65.6671C218.012 65.7155 217.975 65.8203 218.016 65.909C218.052 65.9857 218.132 66.03 218.217 66.022C218.233 66.022 218.249 66.0179 218.261 66.0139C238.431 59.8158 265.772 44.9515 284.61 28.9905C318.565 29.3534 344.711 29.2647 353.949 29.2163V0C237.9 16.5257 116.243 21.8164 0.5 4.17779Z" fill="#3F4553"/>
</svg>
