<svg width="354" height="456" viewBox="0 0 354 456" fill="none" xmlns="http://www.w3.org/2000/svg">
<path d="M233.742 231C230.146 231 226.775 232.095 223.854 233.997V233.997C219.562 236.517 213.607 236.942 208.714 236.026C207.812 235.857 206.887 235.769 205.944 235.769C202.322 235.769 198.962 237.066 196.189 239.28C193.102 241.744 188.095 242.375 184.146 242.375V242.375C183.324 242.375 182.522 242.478 181.751 242.674C173.467 244.771 180.185 254.507 188.73 254.507V254.507H192.661C194.256 254.507 195.704 255.439 196.363 256.892V256.892C197.274 258.9 199.619 259.815 201.649 258.957L211.964 254.593C212.099 254.536 212.244 254.507 212.39 254.507V254.507C212.994 254.507 213.476 255 213.528 255.602C214.507 266.871 231.141 257 242 257C253.191 257 254 267.485 254 254.507C253.989 241.515 244.921 231 233.742 231Z" fill="url(#paint0_linear_111_2285)"/>
<path d="M48.9585 246C46.0604 246 43.3435 246.909 40.9889 248.488V248.488C37.5437 250.572 32.6911 250.908 28.7344 250.162C28.0237 250.029 27.2952 249.959 26.5531 249.959C23.6072 249.959 20.8767 251.056 18.6293 252.925C16.1962 254.948 12.1483 255.444 8.98387 255.444V255.444C8.24045 255.444 7.51827 255.551 6.82757 255.754C0.215493 257.694 5.78805 265.515 12.6788 265.515V265.515H17.9587H31.5703V265.515C32.1555 265.515 32.6274 265.99 32.6536 266.575C33.1141 276.856 40.236 285.019 48.9585 285.019C57.9786 285.019 65.287 276.289 65.287 265.515C65.278 254.73 57.9695 246 48.9585 246Z" fill="url(#paint1_linear_111_2285)"/>
<path d="M122.795 427.342V427.342C120.425 427.342 117.703 426.533 116.378 424.569C113.425 420.187 108.907 417.379 103.831 417.379C102.677 417.379 101.552 417.528 100.467 417.808C98.5108 418.313 96.2543 417.423 95.4446 415.573V415.573C91.6772 405.793 83.4088 399 73.8091 399C60.6593 399 50 411.732 50 427.439C50 443.146 60.6593 455.879 73.8091 455.879C74.8046 455.879 75.786 455.806 76.7495 455.664C84.6353 454.503 95.86 455.911 103.831 455.911V455.911C107.356 455.911 110.618 454.559 113.27 452.263C115.681 450.178 119.598 449.734 122.786 449.734V449.734C127.957 449.734 132.159 444.726 132.159 438.538C132.159 432.351 127.966 427.342 122.795 427.342Z" fill="url(#paint2_linear_111_2285)"/>
<path d="M0 106.559C9.35084 113.322 50.4197 119.226 95.3995 123.367C95.3874 123.44 95.3834 123.516 95.3834 123.589C82.5079 132.711 65.7053 139.183 48.6694 141.756C73.3783 141.756 95.9587 133.203 117.199 125.214L117.119 125.206C116.845 125.186 116.568 125.162 116.294 125.137H116.298L117.119 125.206C138.903 126.908 160.566 128.17 179.066 128.896C179.316 128.904 179.565 128.916 179.815 128.924C160.224 142.248 130.228 155.273 109.418 161.669C109.317 161.701 109.261 161.794 109.285 161.891C109.305 161.971 109.377 162.032 109.462 162.04C109.478 162.04 109.494 162.04 109.506 162.04C134.984 159.035 173.308 145.433 194.477 129.456C221.406 130.368 248.031 130.912 271.693 131.227C255.362 145.413 233.751 159.624 217.604 168.048C217.512 168.097 217.475 168.202 217.516 168.29C217.552 168.367 217.632 168.411 217.717 168.403C217.733 168.403 217.749 168.399 217.761 168.395C237.931 162.197 265.272 147.333 284.11 131.372C318.065 131.735 344.211 131.646 353.449 131.598V102.381C237.4 118.907 115.743 124.198 0 106.559Z" fill="#3F4553"/>
<path d="M151.702 64.4937C152.04 66.2963 152.414 68.107 152.837 69.9297C155.122 79.862 160.393 89.3387 167.587 97.1176C167.628 97.7104 167.664 98.3072 167.692 98.896C167.728 99.7186 167.736 100.513 167.438 101.243C167.157 101.924 166.469 102.63 165.604 102.63C165.567 102.63 165.535 102.63 165.499 102.626C164.541 102.566 163.906 101.699 163.507 101.053C162.731 99.7912 162.095 98.3838 161.653 96.9885C161.653 97.5975 161.628 98.2104 161.58 98.8153C161.5 99.8194 161.166 100.424 160.594 100.618C160.156 100.763 159.625 100.61 159.242 100.223C158.912 99.888 158.731 99.4484 158.587 99.0613C158.1 97.7547 157.774 96.3514 157.613 94.9722C157.593 95.1134 157.565 95.2505 157.536 95.3876C157.347 96.2223 156.8 97.0168 156.144 97.4079C155.69 97.6781 155.207 97.7547 154.74 97.6217C154.048 97.4281 153.501 96.8272 153.066 95.7747C152.29 93.8955 152.028 91.9034 151.811 89.8548C151.091 83.1526 150.849 76.3375 151.091 69.6031C151.147 67.9013 151.26 66.1431 151.702 64.4937Z" fill="#0D6EFD"/>
<path d="M160.602 93.3308V94.8068C160.602 95.6214 159.339 95.6214 159.339 94.8068V93.3308C159.343 92.5162 160.602 92.5122 160.602 93.3308Z" fill="white"/>
<path d="M163.552 94.2261V95.4924C163.552 96.307 162.288 96.307 162.288 95.4924V94.2261C162.288 93.4115 163.552 93.4115 163.552 94.2261Z" fill="white"/>
<path d="M165.97 97.7063V98.9726C165.97 99.7871 164.707 99.7871 164.707 98.9726V97.7063C164.707 96.8918 165.97 96.8918 165.97 97.7063Z" fill="white"/>
<path d="M152.817 71.341V73.3453C152.817 74.1598 151.553 74.1598 151.553 73.3453V71.341C151.553 70.5265 152.817 70.5265 152.817 71.341Z" fill="white"/>
<path d="M153.026 76.6117V79.0353C153.026 79.8499 151.763 79.8499 151.763 79.0353V76.6117C151.767 75.8011 153.026 75.7971 153.026 76.6117Z" fill="white"/>
<path d="M153.44 82.4145C153.485 83.0799 153.529 83.7493 153.577 84.4147C153.634 85.2293 152.37 85.2253 152.314 84.4147C152.27 83.7493 152.225 83.0799 152.177 82.4145C152.121 81.6 153.384 81.604 153.44 82.4145Z" fill="white"/>
<path d="M153.847 87.4796C154.209 87.4796 154.45 87.77 154.479 88.1127C154.515 88.6047 154.555 89.0967 154.591 89.5887C154.619 89.9315 154.281 90.2218 153.959 90.2218C153.597 90.2218 153.356 89.9315 153.328 89.5887C153.292 89.0967 153.251 88.6047 153.215 88.1127C153.191 87.77 153.525 87.4796 153.847 87.4796Z" fill="white"/>
<path d="M155.368 80.2249C155.674 80.1402 156.084 80.3298 156.144 80.6685C156.269 81.3904 156.325 82.1082 156.285 82.8381C156.241 83.6486 154.978 83.6527 155.022 82.8381C155.054 82.2251 155.03 81.6122 154.925 81.0073C154.869 80.6685 155.018 80.3217 155.368 80.2249Z" fill="white"/>
<path d="M157.343 88.1086V89.3748C157.343 90.1894 156.08 90.1894 156.08 89.3748V88.1086C156.08 87.294 157.343 87.294 157.343 88.1086Z" fill="white"/>
<path d="M155.867 93.2785V94.8593C155.867 95.6738 154.603 95.6738 154.603 94.8593V93.2785C154.607 92.4639 155.867 92.4599 155.867 93.2785Z" fill="white"/>
<path d="M159.029 88.4273C159.053 88.0845 159.303 87.7941 159.661 87.7941C159.983 87.7941 160.317 88.0845 160.293 88.4273C160.261 88.8708 160.277 89.3023 160.369 89.7379C160.438 90.0726 160.273 90.4234 159.927 90.5161C159.613 90.6008 159.222 90.4113 159.15 90.0726C159.033 89.5282 158.985 88.9797 159.029 88.4273Z" fill="white"/>
<path d="M187.838 122.83C187.774 122.592 187.585 122.422 187.363 122.366L187.11 114.551C187.098 114.184 186.784 113.885 186.426 113.906C186.06 113.918 185.77 114.224 185.782 114.591L186.023 122.1L182.338 124.076C182.016 124.249 181.891 124.653 182.064 124.979C182.185 125.205 182.414 125.33 182.652 125.33C182.756 125.33 182.865 125.306 182.965 125.253L185.182 124.064L183.839 126.447C183.658 126.766 183.77 127.173 184.088 127.354C184.193 127.415 184.305 127.439 184.414 127.439C184.647 127.439 184.869 127.318 184.993 127.1L186.772 123.951L187.512 126.637C187.593 126.931 187.862 127.124 188.152 127.124C188.212 127.124 188.269 127.116 188.329 127.1C188.683 127.004 188.888 126.637 188.792 126.282L187.838 122.83Z" fill="white"/>
<path d="M205.626 126.281L204.673 122.826C204.608 122.588 204.419 122.418 204.198 122.362L203.945 114.547C203.933 114.18 203.615 113.881 203.261 113.901C202.894 113.913 202.605 114.22 202.617 114.587L202.858 122.096L199.173 124.072C198.851 124.245 198.726 124.648 198.899 124.975C199.02 125.201 199.249 125.326 199.486 125.326C199.591 125.326 199.7 125.302 199.8 125.249L202.017 124.06L200.673 126.443C200.492 126.761 200.605 127.169 200.923 127.35C201.027 127.411 201.14 127.435 201.249 127.435C201.482 127.435 201.703 127.314 201.828 127.096L203.607 123.947L204.347 126.632C204.427 126.927 204.697 127.12 204.987 127.12C205.047 127.12 205.103 127.112 205.164 127.096C205.514 127.003 205.723 126.636 205.626 126.281Z" fill="white"/>
<path d="M256.408 79.7128C256.143 79.2128 255.503 78.9345 254.851 79.0313C254.296 79.116 253.817 79.4225 253.383 79.7411C252.147 80.6524 251.065 81.7654 250.015 82.8462L245.738 87.2458C247.746 84.8504 249.54 82.2776 251.089 79.5596C251.994 77.9667 252.831 76.2408 252.803 74.414C252.791 73.7163 252.646 73.1639 252.365 72.7243C251.994 72.1557 251.379 71.821 250.783 71.8775C250.019 71.946 249.484 72.5872 249.105 73.1397C247.206 75.898 246.289 79.1765 245.4 82.3502C244.933 84.0076 244.454 85.7053 243.839 87.3345C244.434 85.4754 244.965 83.5801 245.303 81.6485C245.947 77.9828 245.806 74.6842 244.877 71.8371C244.764 71.4903 244.599 71.1113 244.237 70.95C243.67 70.6959 243.098 71.1435 242.784 71.6073C241.67 73.2284 241.742 75.2971 241.923 77.4546L242.873 88.6935C239.465 89.3629 236.17 86.6328 234.757 85.2536C230.496 81.088 230.239 74.6479 230.01 68.9699L229.989 68.4981C229.643 60.0619 229.265 52.9847 228.525 45.8631C226.944 30.5916 223.6 13.8078 210.801 5.08529C206.053 1.85113 199.981 0.0929112 193.246 0.00419367C184.08 -0.128883 175.574 2.90767 168.646 8.759C162.099 14.2837 157.259 21.9981 154.643 31.0714C151.867 40.7134 151.549 50.928 151.586 58.7513C151.606 63.3606 151.763 67.1432 152.076 70.6556C152.507 75.4584 153.235 79.7128 154.306 83.6608C158.679 99.7872 170.975 112.619 186.394 117.152C191.029 118.515 195.664 119.192 200.231 119.192C207.526 119.192 214.639 117.462 221.262 114.026C232.484 108.211 240.447 99.9646 244.414 90.0928C249.343 89.2419 253.825 86.0481 256.163 81.5961C256.432 81.092 256.746 80.346 256.408 79.7128Z" fill="#FFCB14"/>
<path d="M228.613 80.5153C226.935 76.2044 224.903 72.8735 222.405 70.3208C219.355 67.2117 215.601 65.3406 211.827 65.0623C207.59 64.7518 203.434 66.6068 201.229 69.7885C198.38 73.9018 199.132 79.1886 199.836 81.9711C201.398 88.1611 205.268 93.835 210.459 97.5329C211.457 98.2427 212.664 99.0088 214.06 99.2952C214.519 99.3879 214.973 99.4202 215.412 99.396C216.402 99.3395 217.299 98.9806 217.947 98.3677C219.637 96.7667 217.689 92.7906 216.418 90.6815C216.695 90.9033 218.554 92.3107 218.852 92.5083C219.709 93.0728 220.49 93.3672 221.238 93.4116C222.216 93.4721 223.117 93.0728 223.592 92.3712C224.417 91.1573 223.793 89.5604 223.161 88.3023L220.984 84.6447C221.439 85.1407 222.807 86.6166 223.391 86.9594C224.895 87.8425 227.201 87.9797 228.509 86.4957C229.643 85.2093 229.679 83.2534 228.613 80.5153Z" fill="#0D6EFD"/>
<path d="M177.517 26.1355C177.091 26.0064 176.644 26.2443 176.512 26.6678C175.912 28.6196 174.25 30.2084 172.279 30.7205C171.51 30.9181 170.806 30.9222 170.243 30.7286C169.458 30.4584 168.77 29.7245 168.444 28.8131C168.147 27.9784 168.114 26.9541 168.348 25.8532C168.44 25.4177 168.163 24.9902 167.728 24.8974C167.294 24.8047 166.867 25.0829 166.774 25.5185C166.477 26.9138 166.529 28.2405 166.927 29.3575C167.418 30.7447 168.464 31.8295 169.724 32.257C170.174 32.4102 170.653 32.4868 171.164 32.4868C171.647 32.4868 172.154 32.4183 172.681 32.2812C175.184 31.6359 177.288 29.6156 178.049 27.1436C178.181 26.7202 177.94 26.2685 177.517 26.1355Z" fill="#3F4553"/>
<path d="M203.023 28.672C202.991 28.2284 202.609 27.8937 202.162 27.9259C201.719 27.9582 201.385 28.3453 201.418 28.7889C201.498 29.8898 200.899 31.0875 199.889 31.8416C198.959 32.5352 197.672 32.9022 196.271 32.878C195.515 32.8659 194.968 32.7247 194.602 32.4545C194.143 32.1158 193.845 31.4625 193.805 30.7044C193.765 29.918 193.97 29.0833 194.167 28.2768C194.272 27.8453 194.01 27.4057 193.58 27.3009C193.149 27.196 192.711 27.4581 192.606 27.8896C192.389 28.7687 192.143 29.7608 192.2 30.7891C192.268 32.0432 192.795 33.124 193.648 33.753C194.292 34.2289 195.141 34.4668 196.243 34.487C196.296 34.487 196.352 34.487 196.404 34.487C198.102 34.487 199.675 34.0071 200.85 33.132C202.307 32.0472 203.14 30.3334 203.023 28.672Z" fill="#3F4553"/>
<path d="M181.742 46.9358C181.674 46.7906 181.614 46.6535 181.557 46.5244C181.127 45.5244 180.588 44.5727 179.948 43.7057C178.942 42.3346 177.868 41.6248 176.761 41.6006C176.045 41.5845 175.361 41.8628 174.729 42.1652C173.683 42.6652 172.713 43.3951 171.78 44.0968C171.321 44.4396 170.846 44.7985 170.376 45.113C168.143 46.6212 165.998 48.3069 164.006 50.1256C163.552 50.5409 163.419 50.9805 163.648 51.3031C163.906 51.662 164.413 51.5773 164.606 51.545L170.223 50.5933C169.108 51.4684 168.098 52.4121 167.04 53.4041C166.714 53.7065 166.392 54.013 166.062 54.3154C165.785 54.5735 165.531 54.8639 165.555 55.2429C165.592 55.7632 166.127 56.0374 166.577 56.114C166.771 56.1463 166.964 56.1624 167.157 56.1624C168.191 56.1624 169.197 55.7349 170.03 55.3801L178.62 51.7144C178.809 51.6338 179.002 51.5531 179.195 51.4725C179.887 51.1821 180.604 50.8837 181.272 50.5208C181.71 50.2828 182 50.0046 182.165 49.6699C182.181 49.6376 182.197 49.6013 182.209 49.5691C182.559 48.698 182.108 47.7221 181.742 46.9358Z" fill="#3F4553"/>
<path d="M190.647 94.9077C190.626 95.6578 190.522 97.6297 189.283 97.2224C188.623 97.0046 188.148 96.2264 187.524 95.8916C186.772 95.4884 186.1 96.6377 186.852 97.0409C187.963 97.6378 188.659 98.9806 190.124 98.5169C191.673 98.0289 191.934 96.307 191.97 94.9077C191.998 94.0487 190.671 94.0487 190.647 94.9077Z" fill="white"/>
<path d="M184.338 107.848C184.233 108.308 184.132 108.768 184.028 109.231C183.979 109.457 183.971 109.796 183.855 109.998C183.798 110.099 183.806 110.139 183.819 110.155C183.802 110.151 183.77 110.147 183.702 110.147C183.396 110.155 182.825 109.732 182.563 109.598C182.149 109.389 181.742 109.167 181.336 108.941C180.588 108.522 179.92 109.671 180.664 110.09C181.312 110.453 181.968 110.8 182.64 111.115C183.114 111.341 183.67 111.679 184.221 111.518C184.692 111.381 184.949 110.966 185.09 110.522C185.327 109.776 185.444 108.965 185.613 108.199C185.806 107.368 184.527 107.01 184.338 107.848Z" fill="white"/>
<path d="M192.63 103.473C192.469 102.63 191.19 102.989 191.347 103.828C191.455 104.408 191.733 105.747 190.888 105.965C190.59 106.042 190.256 105.792 190.015 105.654C189.685 105.465 189.359 105.292 188.997 105.171C188.184 104.9 187.834 106.183 188.643 106.457C189.214 106.647 189.673 107.078 190.26 107.235C190.824 107.384 191.391 107.288 191.862 106.941C192.98 106.11 192.86 104.683 192.63 103.473Z" fill="white"/>
<path d="M194.381 111.175C194.308 110.328 192.98 110.32 193.053 111.175C193.085 111.542 193.097 111.905 193.077 112.272C193.057 112.615 192.952 112.95 192.916 113.284C192.811 113.216 192.695 113.143 192.667 113.119C192.353 112.893 192.035 112.667 191.721 112.441C191.025 111.941 190.361 113.095 191.049 113.591C191.733 114.083 192.984 115.41 193.829 114.53C194.167 114.18 194.24 113.563 194.312 113.103C194.413 112.462 194.433 111.824 194.381 111.175Z" fill="white"/>
<path d="M160.14 71.8895C159.77 72.6759 159.114 74.2163 157.975 73.8937C157.15 73.6598 156.575 72.2686 156.152 71.6072C155.694 70.8894 154.539 71.5548 155.006 72.2807C155.734 73.4179 156.523 75.172 158.08 75.2567C159.729 75.3454 160.671 73.8695 161.286 72.563C161.653 71.7927 160.506 71.1153 160.14 71.8895Z" fill="white"/>
<path d="M170.215 70.4095C169.736 71.2322 169.141 72.2323 168.296 72.7404C167.298 73.3412 166.163 71.6233 165.552 70.9862C164.956 70.3652 164.019 71.3088 164.61 71.9298C165.547 72.9057 166.638 74.6438 168.223 74.2244C169.66 73.8453 170.661 72.2806 171.362 71.087C171.796 70.341 170.649 69.6715 170.215 70.4095Z" fill="white"/>
<path d="M179.312 68.9093C178.95 69.6796 178.604 70.9337 177.912 71.4942C177.393 71.9136 176.995 71.3047 176.665 70.9216C176.306 70.5022 175.952 70.0828 175.598 69.6675C175.043 69.0142 174.106 69.9578 174.657 70.6111C175.445 71.5426 176.467 73.3613 177.94 72.9823C179.356 72.6153 179.912 70.7361 180.455 69.5828C180.825 68.8126 179.678 68.1351 179.312 68.9093Z" fill="white"/>
<path d="M188.687 67.9012C188.345 68.3811 188.003 68.857 187.661 69.3369C187.412 69.6837 187.001 70.5708 186.635 70.7725C185.605 71.3411 184.579 69.7159 184.314 68.9538C184.032 68.1513 182.748 68.494 183.03 69.3086C183.501 70.6555 184.668 72.1355 186.197 72.3129C186.873 72.3895 187.303 72.0548 187.701 71.5548C188.458 70.6031 189.126 69.5667 189.834 68.5787C190.333 67.877 189.182 67.2117 188.687 67.9012Z" fill="white"/>
<path d="M164.115 80.862C164.022 81.7169 163.833 83.4792 162.61 83.455C161.797 83.4389 160.731 82.2654 160.12 81.8057C159.436 81.2895 158.772 82.4468 159.448 82.9549C160.598 83.8179 161.926 85.2697 163.495 84.5922C164.992 83.947 165.29 82.3138 165.447 80.862C165.535 80.0112 164.204 80.0192 164.115 80.862Z" fill="white"/>
<path d="M175.578 78.8578C175.389 79.7853 175.039 81.0031 174.279 81.6363C173.168 82.5597 172.154 81.0677 171.623 80.2611C171.152 79.5474 170.002 80.2168 170.477 80.9346C171.281 82.1565 172.472 83.6042 174.134 83.205C175.767 82.8138 176.568 80.6725 176.866 79.2127C177.031 78.3739 175.747 78.015 175.578 78.8578Z" fill="white"/>
<path d="M187.114 77.5512C186.712 78.3981 186.305 79.4828 185.42 79.8579C184.708 80.1603 184.33 79.8175 183.79 79.3135C183.416 78.9667 183.135 78.5675 182.877 78.1279C182.443 77.3899 181.296 78.0593 181.73 78.8013C182.431 79.999 183.742 81.4709 185.259 81.4548C186.852 81.4387 187.685 79.4425 188.265 78.2206C188.627 77.4544 187.48 76.777 187.114 77.5512Z" fill="white"/>
<path d="M168.279 91.7137C168.014 92.1573 167.752 92.6009 167.487 93.0445C167.326 93.3147 166.968 94.2381 166.694 94.3753C165.869 94.7826 164.694 93.2461 164.28 92.7098C163.757 92.0323 162.823 92.984 163.338 93.6534C164.031 94.5487 165.535 96.1416 166.823 95.8956C167.374 95.7907 167.668 95.331 167.937 94.8834C168.44 94.0567 168.927 93.2219 169.422 92.3912C169.865 91.6492 168.718 90.9757 168.279 91.7137Z" fill="white"/>
<path d="M176.737 89.3548C176.532 90.1492 175.88 92.5889 174.689 92.4115C173.993 92.3066 173.313 91.1976 172.758 90.7823C172.07 90.2701 171.406 91.4275 172.086 91.9316C173.156 92.726 173.9 94.1818 175.474 93.6293C176.978 93.101 177.662 91.1009 178.017 89.7096C178.23 88.8789 176.95 88.524 176.737 89.3548Z" fill="white"/>
<path d="M186.748 85.9472C186.329 86.8303 185.975 88.0764 185.323 88.8063C184.808 89.383 184.454 89.1209 184 88.6369C183.613 88.2256 183.231 87.8103 182.845 87.3949C182.261 86.7658 181.324 87.7094 181.903 88.3385C182.764 89.262 183.799 90.9355 185.283 90.4556C186.764 89.9758 187.303 87.8748 187.895 86.6206C188.261 85.8464 187.114 85.1689 186.748 85.9472Z" fill="white"/>
<path d="M174.822 101.243C174.641 101.819 174.452 102.392 174.259 102.965C174.19 103.17 174.142 103.582 173.993 103.743C173.486 104.3 173.212 103.9 172.903 103.533C172.371 102.912 171.981 102.295 171.136 102.098C170.303 101.9 169.949 103.187 170.782 103.384C171.486 103.549 171.776 104.36 172.275 104.816C172.726 105.227 173.329 105.542 173.957 105.445C174.568 105.352 174.947 104.904 175.176 104.36C175.554 103.473 175.812 102.513 176.105 101.594C176.363 100.779 175.083 100.428 174.822 101.243Z" fill="white"/>
<path d="M183.36 98.0894C182.913 98.8395 182.946 99.7871 182.495 100.505C182.093 101.146 181.477 100.763 180.954 100.444C180.495 100.166 180.037 99.8839 179.578 99.6056C178.846 99.158 178.178 100.311 178.906 100.755C179.968 101.404 181.405 102.719 182.724 102.078C184.052 101.432 183.859 99.8557 184.507 98.7588C184.945 98.0249 183.799 97.3514 183.36 98.0894Z" fill="white"/>
<path d="M217.552 88.4555C217.106 88.1288 216.659 87.8022 216.208 87.4756C215.919 87.2618 215.468 87.4272 215.299 87.7135C215.102 88.0522 215.247 88.4111 215.536 88.6249C215.983 88.9515 216.43 89.2781 216.88 89.6048C217.17 89.8185 217.621 89.6532 217.79 89.3669C217.991 89.0281 217.846 88.6692 217.552 88.4555Z" fill="white"/>
<path d="M221.982 90.7098C221.612 90.1734 221.177 89.7298 220.658 89.3387C220.373 89.1209 219.914 89.2903 219.749 89.5766C219.552 89.9153 219.701 90.2702 219.986 90.488C220.26 90.6936 220.63 91.0848 220.835 91.3792C221.041 91.6736 221.419 91.8107 221.745 91.6171C222.034 91.4477 222.187 91.0041 221.982 90.7098Z" fill="white"/>
<path d="M219.479 84.5842C218.896 84.06 218.309 83.5357 217.725 83.0074C217.089 82.4348 216.148 83.3744 216.784 83.9511C217.367 84.4753 217.954 84.9996 218.538 85.5278C219.174 86.0964 220.119 85.1568 219.479 84.5842Z" fill="white"/>
<path d="M215.87 68.1715C215.307 67.8045 214.796 67.3448 214.386 66.8044C214.168 66.5181 213.814 66.3689 213.476 66.5665C213.195 66.7318 213.022 67.1875 213.239 67.4778C213.79 68.2077 214.43 68.8207 215.198 69.3207C215.919 69.7925 216.587 68.6392 215.87 68.1715Z" fill="white"/>
<path d="M221.346 72.3533C220.815 71.7726 220.32 71.1597 219.866 70.5145C219.66 70.2201 219.286 70.083 218.956 70.2765C218.667 70.4459 218.51 70.8935 218.719 71.1879C219.238 71.9259 219.797 72.6316 220.409 73.297C220.984 73.926 221.922 72.9824 221.346 72.3533Z" fill="white"/>
<path d="M222.192 77.8255C221.725 77.2206 221.302 76.5794 220.912 75.9221C220.477 75.1842 219.327 75.8536 219.765 76.5956C220.212 77.3537 220.711 78.0715 221.25 78.7691C221.471 79.0554 221.958 78.999 222.192 78.7691C222.473 78.4828 222.413 78.1078 222.192 77.8255Z" fill="white"/>
<path d="M226.77 79.1441C226.275 78.4142 225.784 77.6803 225.289 76.9504C224.815 76.2447 223.66 76.9101 224.143 77.6239C224.638 78.3538 225.129 79.0877 225.623 79.8176C226.102 80.5233 227.253 79.8579 226.77 79.1441Z" fill="white"/>
<path d="M226.625 84.2777C226.126 83.5962 225.595 82.9429 225.012 82.3299C224.42 81.7089 223.483 82.6525 224.07 83.2736C224.573 83.8018 225.044 84.3583 225.475 84.9511C225.688 85.2415 226.05 85.3866 226.384 85.189C226.674 85.0197 226.839 84.568 226.625 84.2777Z" fill="white"/>
<path d="M211.823 68.5747L210.274 67.1311C209.646 66.5463 208.704 67.4859 209.332 68.0747C209.847 68.5546 210.366 69.0385 210.881 69.5184C211.509 70.0991 212.45 69.1595 211.823 68.5747Z" fill="white"/>
<path d="M216.47 73.6881C215.943 73.0671 215.42 72.442 214.893 71.821C214.659 71.5468 214.193 71.5831 213.951 71.821C213.682 72.0952 213.718 72.4864 213.951 72.7647L215.528 74.6318C215.762 74.906 216.229 74.8697 216.47 74.6318C216.74 74.3616 216.703 73.9664 216.47 73.6881Z" fill="white"/>
<path d="M220.638 80.2411C220.091 79.608 219.544 78.9708 218.997 78.3377C218.437 77.6884 217.5 78.6321 218.055 79.2813C218.602 79.9145 219.15 80.5516 219.697 81.1847C220.256 81.834 221.194 80.8863 220.638 80.2411Z" fill="white"/>
<path d="M207.952 69.8128C207.501 69.1877 207.051 68.5667 206.6 67.9417C206.391 67.6513 206.021 67.5102 205.691 67.7037C205.405 67.8731 205.24 68.3207 205.453 68.6151C205.904 69.2402 206.355 69.8612 206.805 70.4862C207.014 70.7766 207.385 70.9177 207.715 70.7242C208 70.5548 208.165 70.1031 207.952 69.8128Z" fill="white"/>
<path d="M204.801 72.4016C204.415 71.833 203.997 71.2886 203.542 70.7724C203.305 70.5022 202.846 70.5305 202.6 70.7724C202.335 71.0386 202.363 71.4459 202.6 71.716C202.979 72.1475 203.329 72.5992 203.651 73.075C203.852 73.3734 204.234 73.5025 204.56 73.313C204.858 73.1396 205.003 72.7 204.801 72.4016Z" fill="white"/>
<path d="M202.862 76.4504C202.303 75.7528 201.739 75.0551 201.18 74.3575C200.955 74.0752 200.476 74.1236 200.239 74.3575C199.961 74.6357 200.013 75.0188 200.239 75.3011C200.798 75.9987 201.361 76.6964 201.921 77.394C202.146 77.6763 202.625 77.6279 202.862 77.394C203.14 77.1117 203.087 76.7287 202.862 76.4504Z" fill="white"/>
<path d="M203.405 82.693C203.023 82.1848 202.641 81.6767 202.263 81.1646C202.045 80.8783 201.687 80.7291 201.353 80.9267C201.072 81.092 200.898 81.5477 201.116 81.838C201.498 82.3462 201.88 82.8543 202.258 83.3664C202.476 83.6527 202.834 83.8019 203.168 83.6043C203.449 83.439 203.622 82.9833 203.405 82.693Z" fill="white"/>
<path d="M208.137 77.8255C207.578 77.3577 207.067 76.8295 206.64 76.2407C206.431 75.9504 206.061 75.8052 205.731 76.0028C205.445 76.1721 205.28 76.6198 205.493 76.9142C205.992 77.5997 206.552 78.2248 207.199 78.7692C207.473 78.999 207.871 79.0393 208.141 78.7692C208.374 78.5312 208.411 78.0554 208.137 77.8255Z" fill="white"/>
<path d="M211.569 74.8333C211.195 74.2445 210.821 73.6557 210.451 73.0629C209.992 72.3411 208.841 73.0105 209.304 73.7364C209.678 74.3252 210.052 74.9139 210.422 75.5067C210.877 76.2286 212.028 75.5591 211.569 74.8333Z" fill="white"/>
<path d="M208.632 84.3463C208.189 83.6809 207.743 83.0155 207.3 82.3501C206.825 81.6404 205.675 82.3058 206.153 83.0236C206.596 83.689 207.043 84.3544 207.485 85.0197C207.956 85.7295 209.107 85.0641 208.632 84.3463Z" fill="white"/>
<path d="M207.602 90.2339C207.312 89.8588 207.022 89.4838 206.733 89.1088C206.511 88.8225 206.025 88.8789 205.791 89.1088C205.51 89.3911 205.57 89.7661 205.791 90.0524C206.081 90.4275 206.371 90.8025 206.66 91.1775C206.882 91.4638 207.368 91.4074 207.602 91.1775C207.879 90.8952 207.823 90.5202 207.602 90.2339Z" fill="white"/>
<path d="M212.853 82.9993L211.646 81.3258C211.436 81.0355 211.066 80.8943 210.736 81.0879C210.451 81.2573 210.286 81.7049 210.499 81.9993C210.901 82.5557 211.304 83.1163 211.706 83.6728C211.915 83.9631 212.285 84.1043 212.615 83.9107C212.901 83.7413 213.066 83.2937 212.853 82.9993Z" fill="white"/>
<path d="M215.814 79.5514C215.356 78.9345 214.901 78.3134 214.442 77.6964C214.229 77.4061 213.867 77.2609 213.533 77.4585C213.247 77.6239 213.078 78.0795 213.295 78.3699C213.754 78.9869 214.209 79.6079 214.667 80.2249C214.881 80.5152 215.243 80.6604 215.577 80.4628C215.858 80.2975 216.027 79.8418 215.814 79.5514Z" fill="white"/>
<path d="M212.784 88.5805C212.301 88.3062 211.895 87.9433 211.589 87.4795C211.392 87.1811 211.002 87.0521 210.68 87.2416C210.382 87.415 210.241 87.8506 210.443 88.153C210.873 88.8063 211.436 89.3467 212.116 89.7338C212.857 90.1532 213.529 89.0039 212.784 88.5805Z" fill="white"/>
<path d="M212.454 94.4762C211.955 94.0527 211.501 93.5769 211.127 93.0405C210.921 92.7462 210.547 92.609 210.217 92.8026C209.928 92.972 209.771 93.4196 209.98 93.714C210.422 94.3431 210.929 94.9198 211.517 95.4198C211.79 95.6537 212.189 95.69 212.458 95.4198C212.696 95.1779 212.732 94.7101 212.454 94.4762Z" fill="white"/>
<path d="M216.329 95.4561C216.389 95.5004 216.245 95.3875 216.232 95.3795C216.168 95.323 216.104 95.2625 216.043 95.202C215.939 95.0972 215.846 94.9843 215.794 94.9117C215.585 94.6213 215.214 94.4802 214.885 94.6738C214.595 94.8431 214.438 95.2908 214.647 95.5851C214.933 95.9884 215.259 96.315 215.657 96.6054C215.947 96.8191 216.397 96.6538 216.566 96.3675C216.764 96.0287 216.619 95.6698 216.329 95.4561Z" fill="white"/>
<defs>
<linearGradient id="paint0_linear_111_2285" x1="213.313" y1="232.452" x2="214.277" y2="320.591" gradientUnits="userSpaceOnUse">
<stop stop-color="white"/>
<stop offset="1" stop-color="white"/>
</linearGradient>
<linearGradient id="paint1_linear_111_2285" x1="32.4927" y1="247.206" x2="33.3172" y2="320.377" gradientUnits="userSpaceOnUse">
<stop stop-color="white"/>
<stop offset="1" stop-color="white"/>
</linearGradient>
<linearGradient id="paint2_linear_111_2285" x1="90.8263" y1="400.315" x2="92.0363" y2="507.7" gradientUnits="userSpaceOnUse">
<stop stop-color="white"/>
<stop offset="1" stop-color="white"/>
</linearGradient>
</defs>
</svg>
