<svg width="182" height="116" viewBox="0 0 182 116" fill="none" xmlns="http://www.w3.org/2000/svg">
<rect x="1" width="180" height="115" rx="20" fill="#6CB28E"/>
<path d="M66.0971 33.8143C43.7281 10.7871 13.3786 13.6409 1 17.9462L1 96.9177C5.8932 111.384 17.0194 115 21.9709 115L159.592 115C176.718 110.867 181 101.223 181 96.9177L181 29.386C152.689 19.0533 126.68 36.3975 117.214 46.3612C103.233 31.6002 77.3107 31.8462 66.0971 33.8143Z" fill="#76C79E" stroke="#76C79E"/>
<g style="mix-blend-mode:overlay">
<path d="M172.756 51.625C172.505 50.2612 172.227 48.8912 171.914 47.5121C170.219 39.9972 166.311 32.8271 160.976 26.9415C160.946 26.493 160.919 26.0414 160.898 25.596C160.871 24.9735 160.865 24.3725 161.086 23.8202C161.295 23.3046 161.805 22.7706 162.447 22.7706C162.473 22.7706 162.497 22.7706 162.524 22.7737C163.234 22.8194 163.706 23.4754 164.001 23.9636C164.577 24.9186 165.048 25.9835 165.377 27.0391C165.377 26.5784 165.395 26.1147 165.43 25.657C165.49 24.8973 165.738 24.4396 166.161 24.2931C166.487 24.1833 166.88 24.2992 167.164 24.5922C167.409 24.8454 167.543 25.178 167.65 25.4709C168.011 26.4594 168.253 27.5212 168.372 28.5647C168.387 28.4579 168.408 28.3542 168.429 28.2504C168.569 27.6189 168.975 27.0178 169.461 26.7218C169.799 26.5174 170.157 26.4594 170.503 26.5601C171.016 26.7066 171.422 27.1612 171.744 27.9575C172.32 29.3793 172.514 30.8866 172.675 32.4366C173.209 37.5075 173.388 42.6639 173.209 47.7593C173.167 49.0468 173.084 50.3771 172.756 51.625Z" fill="#0D6EFD"/>
<path d="M166.155 29.8066V28.6899C166.155 28.0736 167.092 28.0736 167.092 28.6899V29.8066C167.089 30.4229 166.155 30.426 166.155 29.8066Z" fill="white"/>
<path d="M163.968 29.1292V28.1712C163.968 27.5548 164.905 27.5548 164.905 28.1712V29.1292C164.905 29.7456 163.968 29.7456 163.968 29.1292Z" fill="white"/>
<path d="M162.175 26.4961V25.538C162.175 24.9217 163.112 24.9217 163.112 25.538V26.4961C163.112 27.1124 162.175 27.1124 162.175 26.4961Z" fill="white"/>
<path d="M171.929 46.4443V44.9279C171.929 44.3115 172.866 44.3115 172.866 44.9279V46.4443C172.866 47.0606 171.929 47.0606 171.929 46.4443Z" fill="white"/>
<path d="M171.774 42.4565V40.6227C171.774 40.0064 172.711 40.0064 172.711 40.6227V42.4565C172.708 43.0697 171.774 43.0728 171.774 42.4565Z" fill="white"/>
<path d="M171.466 38.066C171.434 37.5625 171.401 37.056 171.365 36.5526C171.323 35.9363 172.26 35.9393 172.302 36.5526C172.335 37.056 172.368 37.5625 172.403 38.066C172.445 38.6823 171.508 38.6792 171.466 38.066Z" fill="white"/>
<path d="M171.165 34.2337C170.897 34.2337 170.718 34.014 170.697 33.7547C170.67 33.3824 170.64 33.0102 170.613 32.6379C170.592 32.3786 170.843 32.1589 171.082 32.1589C171.35 32.1589 171.529 32.3786 171.55 32.6379C171.577 33.0102 171.607 33.3824 171.634 33.7547C171.651 34.014 171.404 34.2337 171.165 34.2337Z" fill="white"/>
<path d="M170.037 39.7227C169.81 39.7867 169.506 39.6433 169.461 39.387C169.369 38.8409 169.327 38.2978 169.357 37.7455C169.39 37.1322 170.327 37.1292 170.294 37.7455C170.27 38.2093 170.288 38.6731 170.365 39.1307C170.407 39.387 170.297 39.6494 170.037 39.7227Z" fill="white"/>
<path d="M168.572 33.7578V32.7997C168.572 32.1834 169.509 32.1834 169.509 32.7997V33.7578C169.509 34.3741 168.572 34.3741 168.572 33.7578Z" fill="white"/>
<path d="M169.667 29.8462V28.6502C169.667 28.0338 170.604 28.0338 170.604 28.6502V29.8462C170.601 30.4625 169.667 30.4656 169.667 29.8462Z" fill="white"/>
<path d="M167.322 33.5167C167.304 33.776 167.119 33.9957 166.854 33.9957C166.615 33.9957 166.367 33.776 166.385 33.5167C166.409 33.1811 166.397 32.8546 166.328 32.5251C166.278 32.2718 166.4 32.0064 166.657 31.9362C166.889 31.8721 167.179 32.0155 167.232 32.2718C167.319 32.6837 167.355 33.0987 167.322 33.5167Z" fill="white"/>
<path d="M145.958 7.48731C146.006 7.66732 146.146 7.79547 146.311 7.83818L146.499 13.7512C146.507 14.0289 146.74 14.2547 147.006 14.2394C147.277 14.2303 147.492 13.9984 147.483 13.7207L147.304 8.03956L150.037 6.54451C150.276 6.41332 150.368 6.1082 150.24 5.86106C150.151 5.6902 149.981 5.59561 149.804 5.59561C149.727 5.59561 149.646 5.61392 149.572 5.65359L147.928 6.55367L148.924 4.75046C149.059 4.50942 148.975 4.20126 148.739 4.06396C148.662 4.01819 148.578 3.99988 148.498 3.99988C148.325 3.99988 148.16 4.09142 148.068 4.25618L146.749 6.6391L146.2 4.60706C146.14 4.38433 145.941 4.23787 145.726 4.23787C145.681 4.23787 145.639 4.24398 145.594 4.25618C145.332 4.32941 145.18 4.60706 145.251 4.87556L145.958 7.48731Z" fill="white"/>
<path d="M132.767 4.87582L133.474 7.49062C133.522 7.67064 133.662 7.79879 133.826 7.84151L134.014 13.7546C134.023 14.0322 134.259 14.258 134.522 14.2427C134.793 14.2336 135.008 14.0017 134.999 13.7241L134.82 8.04287L137.553 6.54783C137.792 6.41663 137.884 6.11152 137.756 5.86438C137.666 5.69352 137.496 5.59893 137.32 5.59893C137.243 5.59893 137.162 5.61724 137.088 5.65691L135.444 6.55698L136.44 4.75377C136.574 4.51273 136.491 4.20457 136.255 4.06727C136.178 4.0215 136.094 4.0032 136.013 4.0032C135.84 4.0032 135.676 4.09473 135.584 4.25949L134.265 6.64241L133.716 4.61037C133.656 4.38764 133.456 4.24118 133.242 4.24118C133.197 4.24118 133.155 4.24729 133.11 4.25949C132.851 4.32967 132.696 4.60732 132.767 4.87582Z" fill="white"/>
<path d="M95.1091 40.1101C95.306 40.4884 95.7805 40.699 96.2638 40.6257C96.6756 40.5617 97.0307 40.3298 97.3529 40.0887C98.2689 39.3992 99.0716 38.5571 99.8503 37.7394L103.022 34.4106C101.533 36.223 100.202 38.1696 99.0537 40.226C98.3823 41.4312 97.7617 42.7371 97.7826 44.1193C97.7915 44.6471 97.8989 45.0651 98.1078 45.3977C98.3823 45.8279 98.8388 46.0811 99.2804 46.0384C99.8473 45.9865 100.244 45.5014 100.525 45.0834C101.933 42.9965 102.613 40.5159 103.273 38.1147C103.619 36.8607 103.974 35.5761 104.43 34.3435C103.989 35.7501 103.595 37.1841 103.344 38.6456C102.867 41.419 102.971 43.9148 103.661 46.0689C103.744 46.3313 103.866 46.6181 104.135 46.7402C104.556 46.9324 104.979 46.5937 105.212 46.2428C106.039 45.0163 105.985 43.4511 105.851 41.8187L105.146 33.3153C107.674 32.8088 110.117 34.8744 111.165 35.9179C114.325 39.0697 114.515 43.9423 114.686 48.2383L114.7 48.5952C114.957 54.9782 115.238 60.3329 115.787 65.7211C116.959 77.2757 119.439 89.9745 128.93 96.574C132.451 99.021 136.953 100.351 141.948 100.418C148.745 100.519 155.053 98.2216 160.191 93.7945C165.045 89.6144 168.635 83.7776 170.574 76.9126C172.633 69.6174 172.869 61.8889 172.842 55.9698C172.827 52.4824 172.711 49.6204 172.478 46.9629C172.159 43.329 171.619 40.1101 170.825 37.1231C167.582 24.9217 158.463 15.213 147.03 11.7836C143.592 10.7523 140.155 10.2397 136.768 10.2397C131.359 10.2397 126.084 11.5486 121.172 14.1482C112.851 18.5479 106.946 24.7874 104.004 32.2565C100.349 32.9003 97.0247 35.3168 95.2911 38.6852C95.0912 39.0666 94.8585 39.6311 95.1091 40.1101Z" fill="#FFCB14"/>
<path d="M115.721 39.5029C116.965 42.7646 118.472 45.2848 120.325 47.2162C122.587 49.5686 125.37 50.9843 128.169 51.1948C131.311 51.4297 134.393 50.0262 136.028 47.6189C138.141 44.5068 137.583 40.5068 137.061 38.4015C135.903 33.718 133.033 29.4251 129.184 26.6272C128.444 26.0903 127.549 25.5105 126.513 25.2939C126.173 25.2237 125.836 25.1993 125.511 25.2176C124.777 25.2604 124.111 25.5319 123.631 25.9957C122.378 27.207 123.822 30.2154 124.765 31.8111C124.559 31.6433 123.18 30.5784 122.96 30.4289C122.324 30.0018 121.745 29.779 121.19 29.7455C120.465 29.6997 119.797 30.0018 119.445 30.5327C118.833 31.4511 119.296 32.6593 119.764 33.6112L121.378 36.3786C121.041 36.0033 120.027 34.8866 119.594 34.6273C118.478 33.9591 116.768 33.8553 115.799 34.9781C114.957 35.9514 114.93 37.4312 115.721 39.5029Z" fill="#0D6EFD"/>
<path d="M134.862 68.0645C134.925 68.7663 135.369 69.4345 136.052 69.8525C136.581 70.1728 137.246 70.3528 138.081 70.4047C139.093 70.4657 140.098 70.3406 141.065 70.0386C141.456 69.9165 141.954 69.7304 142.363 69.3765C142.787 69.0104 143.034 68.5008 143.028 68.0157C143.02 67.2926 142.491 66.7373 142.002 66.4596C141.498 66.1759 140.958 65.944 140.397 65.7731C139.654 65.5473 138.875 65.4345 138.111 65.4345C137.884 65.4345 137.658 65.4436 137.434 65.465C136.097 65.587 134.74 66.661 134.862 68.0645Z" fill="white"/>
<path d="M160.898 72.8151C161.367 73.0988 161.954 73.2605 162.697 73.3032C163.592 73.3582 164.482 73.2483 165.338 72.9798C165.684 72.87 166.129 72.7052 166.49 72.394C166.869 72.0675 167.089 71.6129 167.083 71.1797C167.074 70.5328 166.606 70.0355 166.167 69.7884C165.72 69.5351 165.242 69.3307 164.747 69.1812C164.091 68.9829 163.401 68.8791 162.724 68.8791C162.524 68.8791 162.321 68.8883 162.124 68.9066C160.931 69.0164 159.725 69.9714 159.836 71.2224C159.893 71.8479 160.289 72.4428 160.898 72.8151Z" fill="white"/>
<path d="M153.612 80.6472C153.928 80.7449 154.259 80.5649 154.358 80.2445C154.802 78.7678 156.035 77.5656 157.497 77.1781C158.067 77.0286 158.589 77.0256 159.006 77.172C159.588 77.3765 160.098 77.9318 160.34 78.6213C160.561 79.2529 160.585 80.0279 160.412 80.8608C160.343 81.1904 160.549 81.5138 160.871 81.5839C161.194 81.6541 161.51 81.4436 161.578 81.1141C161.799 80.0584 161.76 79.0546 161.465 78.2094C161.101 77.1598 160.325 76.3391 159.391 76.0157C159.057 75.8997 158.702 75.8417 158.323 75.8417C157.965 75.8417 157.589 75.8936 157.198 75.9974C155.342 76.4855 153.782 78.0141 153.218 79.8845C153.119 80.2048 153.299 80.5466 153.612 80.6472Z" fill="#3F4553"/>
<path d="M134.698 78.7281C134.722 79.0637 135.005 79.317 135.336 79.2926C135.664 79.2682 135.912 78.9753 135.888 78.6396C135.829 77.8067 136.273 76.9005 137.022 76.3299C137.711 75.8052 138.666 75.5275 139.705 75.5458C140.265 75.555 140.671 75.6618 140.943 75.8662C141.283 76.1225 141.504 76.6168 141.534 77.1904C141.563 77.7853 141.411 78.4169 141.265 79.0271C141.187 79.3536 141.381 79.6862 141.701 79.7655C142.02 79.8448 142.345 79.6465 142.423 79.32C142.584 78.6549 142.766 77.9043 142.724 77.1263C142.673 76.1774 142.282 75.3597 141.65 74.8837C141.173 74.5237 140.543 74.3437 139.725 74.3284C139.687 74.3284 139.645 74.3284 139.606 74.3284C138.347 74.3284 137.18 74.6915 136.309 75.3536C135.229 76.1743 134.611 77.4711 134.698 78.7281Z" fill="#3F4553"/>
<path d="M150.479 64.9095C150.53 65.0194 150.574 65.1231 150.616 65.2207C150.935 65.9774 151.335 66.6975 151.81 67.3535C152.555 68.3909 153.352 68.9279 154.173 68.9462C154.704 68.9584 155.211 68.7478 155.679 68.519C156.455 68.1407 157.174 67.5884 157.867 67.0575C158.207 66.7982 158.559 66.5266 158.908 66.2886C160.564 65.1475 162.154 63.8722 163.631 62.4961C163.968 62.1818 164.067 61.8493 163.897 61.6052C163.706 61.3336 163.33 61.3977 163.187 61.4221L159.021 62.1422C159.848 61.4801 160.597 60.7661 161.381 60.0156C161.623 59.7867 161.862 59.5548 162.106 59.326C162.312 59.1307 162.5 58.9111 162.482 58.6242C162.456 58.2307 162.059 58.0232 161.725 57.9652C161.581 57.9408 161.438 57.9286 161.295 57.9286C160.528 57.9286 159.782 58.252 159.165 58.5205L152.794 61.294C152.654 61.355 152.511 61.416 152.368 61.477C151.854 61.6967 151.323 61.9225 150.828 62.1971C150.503 62.3771 150.288 62.5876 150.165 62.8409C150.154 62.8653 150.142 62.8927 150.133 62.9172C149.873 63.5762 150.207 64.3146 150.479 64.9095Z" fill="#3F4553"/>
<path d="M143.876 28.6135C143.891 28.046 143.968 26.554 144.887 26.8622C145.377 27.027 145.729 27.6158 146.191 27.8691C146.749 28.1742 147.247 27.3046 146.689 26.9995C145.866 26.5479 145.35 25.5319 144.264 25.8828C143.115 26.252 142.921 27.5548 142.894 28.6135C142.873 29.2634 143.858 29.2634 143.876 28.6135Z" fill="white"/>
<path d="M148.554 18.8225C148.632 18.4747 148.706 18.1269 148.784 17.776C148.82 17.6051 148.826 17.3488 148.912 17.1963C148.954 17.12 148.948 17.0895 148.939 17.0773C148.951 17.0803 148.975 17.0834 149.026 17.0834C149.252 17.0773 149.676 17.3977 149.87 17.4983C150.177 17.657 150.479 17.8248 150.78 17.9957C151.335 18.313 151.83 17.4434 151.278 17.1261C150.798 16.8515 150.312 16.5891 149.813 16.3511C149.461 16.1803 149.05 15.924 148.641 16.046C148.292 16.1497 148.101 16.464 147.996 16.7996C147.82 17.3641 147.734 17.9774 147.608 18.5571C147.465 19.1856 148.414 19.4572 148.554 18.8225Z" fill="white"/>
<path d="M142.405 22.1331C142.524 22.7707 143.473 22.4992 143.356 21.8646C143.276 21.4252 143.07 20.4122 143.697 20.2475C143.917 20.1895 144.165 20.3787 144.344 20.4824C144.589 20.6258 144.83 20.757 145.099 20.8485C145.702 21.053 145.961 20.0827 145.362 19.8752C144.938 19.7318 144.598 19.4054 144.162 19.2864C143.744 19.1735 143.324 19.2467 142.975 19.5091C142.145 20.1376 142.235 21.2177 142.405 22.1331Z" fill="white"/>
<path d="M141.107 16.3053C141.16 16.9461 142.145 16.9522 142.091 16.3053C142.067 16.0277 142.058 15.7531 142.073 15.4754C142.088 15.2161 142.166 14.9628 142.193 14.7096C142.27 14.7615 142.357 14.8164 142.378 14.8347C142.61 15.0055 142.846 15.1764 143.079 15.3473C143.595 15.7256 144.087 14.853 143.577 14.4777C143.07 14.1055 142.142 13.1016 141.515 13.7668C141.265 14.0322 141.211 14.4991 141.157 14.8469C141.083 15.332 141.068 15.8141 141.107 16.3053Z" fill="white"/>
<path d="M166.499 46.0293C166.773 45.4343 167.259 44.2688 168.104 44.5129C168.715 44.6899 169.142 45.7425 169.455 46.2429C169.796 46.786 170.652 46.2825 170.306 45.7333C169.766 44.8729 169.181 43.5457 168.026 43.4816C166.803 43.4145 166.105 44.5312 165.648 45.5198C165.377 46.1025 166.227 46.6151 166.499 46.0293Z" fill="white"/>
<path d="M159.027 47.1491C159.382 46.5266 159.824 45.77 160.45 45.3855C161.19 44.9309 162.032 46.2307 162.485 46.7128C162.927 47.1826 163.622 46.4687 163.184 45.9988C162.488 45.2604 161.68 43.9454 160.504 44.2627C159.439 44.5495 158.696 45.7334 158.177 46.6365C157.855 47.2009 158.705 47.7074 159.027 47.1491Z" fill="white"/>
<path d="M152.281 48.2841C152.55 47.7014 152.806 46.7525 153.319 46.3284C153.704 46.011 154 46.4718 154.244 46.7616C154.51 47.0789 154.772 47.3963 155.035 47.7105C155.447 48.2048 156.142 47.4908 155.733 46.9966C155.148 46.2917 154.391 44.9157 153.298 45.2025C152.248 45.4801 151.836 46.902 151.434 47.7746C151.159 48.3574 152.009 48.8699 152.281 48.2841Z" fill="white"/>
<path d="M145.329 49.0469C145.582 48.6838 145.836 48.3237 146.09 47.9607C146.275 47.6983 146.579 47.027 146.851 46.8745C147.614 46.4443 148.375 47.6739 148.572 48.2505C148.781 48.8577 149.733 48.5983 149.524 47.982C149.175 46.963 148.31 45.8432 147.176 45.7089C146.674 45.651 146.355 45.9042 146.06 46.2826C145.499 47.0026 145.004 47.7868 144.478 48.5343C144.108 49.0652 144.962 49.5686 145.329 49.0469Z" fill="white"/>
<path d="M163.551 39.2406C163.619 38.5938 163.759 37.2604 164.667 37.2787C165.269 37.2909 166.06 38.1788 166.513 38.5266C167.021 38.9172 167.513 38.0415 167.012 37.6571C166.158 37.0041 165.174 35.9057 164.01 36.4183C162.9 36.9065 162.679 38.1422 162.563 39.2406C162.497 39.8844 163.485 39.8783 163.551 39.2406Z" fill="white"/>
<path d="M155.05 40.757C155.19 40.0553 155.45 39.1338 156.014 38.6548C156.837 37.9561 157.589 39.085 157.983 39.6952C158.332 40.2353 159.185 39.7288 158.833 39.1857C158.236 38.2612 157.353 37.1659 156.121 37.4679C154.91 37.7639 154.316 39.384 154.095 40.4885C153.973 41.1232 154.924 41.3947 155.05 40.757Z" fill="white"/>
<path d="M146.495 41.7456C146.794 41.1049 147.095 40.2841 147.752 40.0004C148.28 39.7715 148.56 40.0309 148.96 40.4123C149.237 40.6746 149.446 40.9767 149.637 41.3093C149.96 41.8676 150.81 41.3611 150.488 40.7997C149.968 39.8936 148.996 38.7799 147.871 38.7921C146.689 38.8043 146.072 40.3146 145.642 41.2391C145.374 41.8188 146.224 42.3314 146.495 41.7456Z" fill="white"/>
<path d="M160.462 31.0301C160.659 30.6945 160.853 30.3589 161.05 30.0232C161.17 29.8188 161.435 29.1201 161.638 29.0164C162.25 28.7082 163.121 29.8707 163.428 30.2765C163.816 30.7891 164.508 30.069 164.126 29.5625C163.613 28.8852 162.497 27.68 161.543 27.8661C161.134 27.9454 160.916 28.2932 160.716 28.6319C160.343 29.2574 159.982 29.889 159.615 30.5175C159.287 31.0789 160.137 31.5885 160.462 31.0301Z" fill="white"/>
<path d="M154.191 32.8149C154.343 32.2139 154.826 30.3679 155.709 30.5022C156.225 30.5815 156.73 31.4206 157.142 31.7348C157.652 32.1223 158.144 31.2467 157.64 30.8653C156.846 30.2642 156.294 29.1627 155.127 29.5808C154.012 29.9804 153.504 31.4938 153.242 32.5464C153.084 33.175 154.032 33.4434 154.191 32.8149Z" fill="white"/>
<path d="M146.767 35.3931C147.077 34.7249 147.34 33.7821 147.823 33.2299C148.205 32.7936 148.468 32.9919 148.805 33.358C149.091 33.6692 149.375 33.9835 149.661 34.2978C150.094 34.7737 150.789 34.0598 150.359 33.5838C149.721 32.8851 148.954 31.6189 147.853 31.982C146.755 32.3451 146.355 33.9347 145.917 34.8836C145.645 35.4694 146.495 35.982 146.767 35.3931Z" fill="white"/>
<path d="M155.611 23.8203C155.745 23.384 155.885 22.9507 156.029 22.5175C156.079 22.3619 156.115 22.0506 156.225 21.9286C156.601 21.5075 156.804 21.8096 157.034 22.0873C157.428 22.5571 157.717 23.024 158.344 23.1735C158.962 23.323 159.224 22.3497 158.606 22.2002C158.084 22.0751 157.869 21.4618 157.5 21.117C157.165 20.8058 156.718 20.5678 156.252 20.641C155.799 20.7112 155.518 21.0499 155.348 21.4618C155.068 22.133 154.877 22.8592 154.659 23.5548C154.468 24.1712 155.417 24.4366 155.611 23.8203Z" fill="white"/>
<path d="M149.279 26.2062C149.61 25.6387 149.587 24.9217 149.921 24.3786C150.219 23.8935 150.676 24.1833 151.064 24.4244C151.404 24.6349 151.744 24.8485 152.084 25.059C152.627 25.3977 153.122 24.5251 152.582 24.1894C151.795 23.6982 150.729 22.7035 149.751 23.1887C148.766 23.6768 148.909 24.8698 148.429 25.6997C148.104 26.255 148.954 26.7646 149.279 26.2062Z" fill="white"/>
<path d="M123.923 33.4953C124.255 33.7425 124.586 33.9896 124.92 34.2367C125.135 34.3985 125.469 34.2734 125.594 34.0567C125.741 33.8004 125.633 33.5289 125.418 33.3672C125.087 33.12 124.756 32.8729 124.422 32.6257C124.207 32.464 123.873 32.5891 123.747 32.8058C123.598 33.0621 123.706 33.3336 123.923 33.4953Z" fill="white"/>
<path d="M120.638 31.7897C120.913 32.1955 121.235 32.5311 121.62 32.8271C121.832 32.9919 122.172 32.8637 122.294 32.6471C122.441 32.3908 122.33 32.1223 122.118 31.9575C121.915 31.8019 121.641 31.506 121.489 31.2832C121.337 31.0605 121.056 30.9568 120.814 31.1032C120.6 31.2314 120.486 31.567 120.638 31.7897Z" fill="white"/>
<path d="M122.494 36.4244C122.927 36.821 123.363 37.2177 123.795 37.6174C124.267 38.0506 124.965 37.3397 124.493 36.9034C124.061 36.5068 123.625 36.1101 123.192 35.7104C122.721 35.2802 122.02 35.9911 122.494 36.4244Z" fill="white"/>
<path d="M125.171 48.8424C125.588 49.1201 125.967 49.4679 126.272 49.8767C126.433 50.0934 126.695 50.2063 126.946 50.0568C127.155 49.9317 127.283 49.5869 127.122 49.3672C126.713 48.815 126.239 48.3512 125.669 47.9729C125.135 47.6159 124.64 48.4885 125.171 48.8424Z" fill="white"/>
<path d="M121.11 45.6784C121.504 46.1177 121.871 46.5815 122.208 47.0697C122.36 47.2924 122.637 47.3961 122.882 47.2497C123.097 47.1215 123.213 46.7829 123.058 46.5601C122.673 46.0018 122.259 45.4678 121.805 44.9644C121.378 44.4884 120.683 45.2024 121.11 45.6784Z" fill="white"/>
<path d="M120.483 41.5381C120.829 41.9957 121.142 42.4808 121.432 42.9782C121.754 43.5365 122.607 43.03 122.282 42.4686C121.951 41.895 121.581 41.3519 121.181 40.8241C121.017 40.6075 120.656 40.6502 120.483 40.8241C120.274 41.0407 120.319 41.3245 120.483 41.5381Z" fill="white"/>
<path d="M117.088 40.5404C117.455 41.0926 117.819 41.6479 118.186 42.2002C118.538 42.7341 119.394 42.2307 119.036 41.6906C118.669 41.1384 118.305 40.5831 117.938 40.0308C117.583 39.4969 116.73 40.0003 117.088 40.5404Z" fill="white"/>
<path d="M117.195 36.6563C117.565 37.1719 117.959 37.6662 118.392 38.13C118.83 38.5999 119.525 37.8859 119.09 37.416C118.717 37.0163 118.368 36.5953 118.048 36.1468C117.89 35.9271 117.622 35.8172 117.374 35.9667C117.159 36.0949 117.037 36.4366 117.195 36.6563Z" fill="white"/>
<path d="M128.172 48.5373L129.321 49.6296C129.787 50.072 130.485 49.3611 130.019 48.9156C129.637 48.5525 129.252 48.1864 128.871 47.8233C128.405 47.384 127.707 48.0949 128.172 48.5373Z" fill="white"/>
<path d="M124.726 44.6684C125.117 45.1383 125.505 45.6112 125.896 46.0811C126.069 46.2886 126.415 46.2611 126.594 46.0811C126.794 45.8736 126.767 45.5777 126.594 45.3672L125.424 43.9545C125.251 43.747 124.905 43.7745 124.726 43.9545C124.526 44.1589 124.553 44.4579 124.726 44.6684Z" fill="white"/>
<path d="M121.635 39.7104C122.041 40.1894 122.446 40.6715 122.852 41.1505C123.267 41.6418 123.962 40.9278 123.55 40.4366C123.145 39.9575 122.739 39.4755 122.333 38.9964C121.918 38.5052 121.223 39.2222 121.635 39.7104Z" fill="white"/>
<path d="M131.043 47.6006C131.377 48.0735 131.711 48.5434 132.045 49.0163C132.2 49.236 132.475 49.3427 132.719 49.1963C132.931 49.0681 133.054 48.7295 132.896 48.5067C132.561 48.0338 132.227 47.564 131.893 47.091C131.738 46.8714 131.463 46.7646 131.219 46.911C131.007 47.0392 130.884 47.3809 131.043 47.6006Z" fill="white"/>
<path d="M133.379 45.6419C133.665 46.0721 133.976 46.484 134.313 46.8745C134.489 47.0789 134.829 47.0576 135.011 46.8745C135.208 46.6731 135.187 46.365 135.011 46.1605C134.731 45.8341 134.471 45.4924 134.232 45.1323C134.083 44.9065 133.8 44.8089 133.558 44.9523C133.337 45.0835 133.23 45.4161 133.379 45.6419Z" fill="white"/>
<path d="M134.817 42.5785C135.232 43.1063 135.65 43.6342 136.064 44.162C136.231 44.3756 136.587 44.339 136.763 44.162C136.968 43.9515 136.93 43.6616 136.763 43.4481C136.348 42.9202 135.93 42.3924 135.515 41.8645C135.348 41.6509 134.993 41.6876 134.817 41.8645C134.611 42.0781 134.65 42.368 134.817 42.5785Z" fill="white"/>
<path d="M134.414 37.8553C134.698 38.2397 134.981 38.6242 135.262 39.0117C135.423 39.2283 135.688 39.3412 135.936 39.1917C136.145 39.0666 136.273 38.7218 136.112 38.5021C135.829 38.1177 135.545 37.7333 135.265 37.3458C135.104 37.1291 134.838 37.0162 134.59 37.1658C134.382 37.2908 134.253 37.6356 134.414 37.8553Z" fill="white"/>
<path d="M130.905 41.538C131.32 41.892 131.699 42.2917 132.015 42.7371C132.171 42.9568 132.445 43.0667 132.69 42.9172C132.902 42.789 133.024 42.4503 132.866 42.2276C132.496 41.7089 132.081 41.236 131.601 40.8241C131.398 40.6502 131.102 40.6197 130.902 40.8241C130.729 41.0041 130.703 41.3641 130.905 41.538Z" fill="white"/>
<path d="M128.36 43.802C128.638 44.2475 128.915 44.693 129.19 45.1415C129.53 45.6876 130.383 45.1811 130.04 44.6319C129.763 44.1865 129.485 43.741 129.211 43.2925C128.873 42.7463 128.02 43.2528 128.36 43.802Z" fill="white"/>
<path d="M130.538 36.6044C130.867 37.1078 131.198 37.6112 131.526 38.1147C131.878 38.6517 132.732 38.1482 132.376 37.6051C132.048 37.1017 131.717 36.5983 131.389 36.0948C131.04 35.5578 130.186 36.0613 130.538 36.6044Z" fill="white"/>
<path d="M131.302 32.1498C131.517 32.4335 131.732 32.7173 131.947 33.001C132.111 33.2177 132.472 33.175 132.645 33.001C132.854 32.7875 132.809 32.5037 132.645 32.2871C132.43 32.0033 132.215 31.7196 132 31.4358C131.836 31.2192 131.475 31.2619 131.302 31.4358C131.096 31.6494 131.138 31.9331 131.302 32.1498Z" fill="white"/>
<path d="M127.408 37.6235L128.304 38.8897C128.459 39.1094 128.733 39.2162 128.978 39.0697C129.19 38.9416 129.312 38.6029 129.154 38.3802C128.856 37.9591 128.557 37.535 128.259 37.114C128.104 36.8943 127.829 36.7875 127.584 36.9339C127.373 37.0621 127.25 37.4008 127.408 37.6235Z" fill="white"/>
<path d="M125.212 40.2322C125.552 40.699 125.89 41.1689 126.23 41.6357C126.388 41.8554 126.656 41.9652 126.904 41.8157C127.116 41.6906 127.241 41.3459 127.08 41.1262C126.74 40.6594 126.403 40.1895 126.063 39.7227C125.905 39.503 125.636 39.3932 125.388 39.5427C125.179 39.6678 125.054 40.0125 125.212 40.2322Z" fill="white"/>
<path d="M127.459 33.4008C127.817 33.6082 128.119 33.8828 128.345 34.2337C128.492 34.4595 128.781 34.5571 129.02 34.4137C129.241 34.2825 129.345 33.953 129.196 33.7242C128.876 33.2299 128.459 32.821 127.955 32.5281C127.405 32.2108 126.907 33.0804 127.459 33.4008Z" fill="white"/>
<path d="M127.704 28.94C128.074 29.2604 128.411 29.6204 128.688 30.0262C128.841 30.249 129.118 30.3527 129.363 30.2062C129.578 30.0781 129.694 29.7394 129.539 29.5167C129.211 29.0407 128.835 28.6044 128.399 28.226C128.196 28.0491 127.901 28.0216 127.701 28.226C127.525 28.4091 127.498 28.763 127.704 28.94Z" fill="white"/>
<path d="M124.831 28.1986C124.786 28.165 124.893 28.2505 124.902 28.2566C124.95 28.2993 124.998 28.345 125.042 28.3908C125.12 28.4701 125.189 28.5556 125.227 28.6105C125.383 28.8302 125.657 28.937 125.902 28.7905C126.117 28.6624 126.233 28.3237 126.078 28.101C125.866 27.7959 125.624 27.5487 125.329 27.329C125.114 27.1673 124.78 27.2924 124.655 27.5091C124.508 27.7653 124.616 28.0369 124.831 28.1986Z" fill="white"/>
</g>
<path d="M27.177 78.076L27.177 91L26.205 91C26.055 91 25.929 90.973 25.827 90.919C25.731 90.865 25.632 90.778 25.53 90.658L18.231 81.217C18.243 81.379 18.252 81.538 18.258 81.694C18.27 81.85 18.276 81.997 18.276 82.135L18.276 91L16.593 91L16.593 78.076L17.583 78.076C17.751 78.076 17.877 78.097 17.961 78.139C18.045 78.175 18.138 78.262 18.24 78.4L25.557 87.85C25.539 87.676 25.524 87.508 25.512 87.346C25.506 87.178 25.503 87.022 25.503 86.878L25.503 78.076L27.177 78.076ZM34.6646 86.941C33.9506 86.965 33.3446 87.022 32.8466 87.112C32.3486 87.196 31.9436 87.31 31.6316 87.454C31.3196 87.598 31.0946 87.769 30.9566 87.967C30.8186 88.159 30.7496 88.375 30.7496 88.615C30.7496 88.843 30.7856 89.041 30.8576 89.209C30.9356 89.371 31.0376 89.506 31.1636 89.614C31.2956 89.716 31.4486 89.791 31.6226 89.839C31.7966 89.887 31.9856 89.911 32.1896 89.911C32.4596 89.911 32.7056 89.884 32.9276 89.83C33.1556 89.776 33.3686 89.701 33.5666 89.605C33.7646 89.503 33.9536 89.38 34.1336 89.236C34.3136 89.092 34.4906 88.927 34.6646 88.741L34.6646 86.941ZM29.5166 83.134C30.0266 82.648 30.5786 82.285 31.1726 82.045C31.7726 81.805 32.4296 81.685 33.1436 81.685C33.6656 81.685 34.1276 81.772 34.5296 81.946C34.9316 82.114 35.2706 82.351 35.5466 82.657C35.8226 82.963 36.0296 83.329 36.1676 83.755C36.3116 84.181 36.3836 84.652 36.3836 85.168L36.3836 91L35.6006 91C35.4266 91 35.2946 90.973 35.2046 90.919C35.1146 90.859 35.0426 90.751 34.9886 90.595L34.7996 89.794C34.5656 90.01 34.3346 90.202 34.1066 90.37C33.8786 90.532 33.6386 90.673 33.3866 90.793C33.1406 90.907 32.8766 90.994 32.5946 91.054C32.3126 91.114 32.0006 91.144 31.6586 91.144C31.2986 91.144 30.9596 91.096 30.6416 91C30.3296 90.898 30.0566 90.745 29.8226 90.541C29.5886 90.337 29.4026 90.082 29.2646 89.776C29.1326 89.47 29.0666 89.113 29.0666 88.705C29.0666 88.345 29.1626 88 29.3546 87.67C29.5526 87.334 29.8706 87.034 30.3086 86.77C30.7526 86.506 31.3286 86.29 32.0366 86.122C32.7506 85.954 33.6266 85.858 34.6646 85.834L34.6646 85.168C34.6646 84.478 34.5176 83.962 34.2236 83.62C33.9296 83.278 33.4976 83.107 32.9276 83.107C32.5436 83.107 32.2196 83.155 31.9556 83.251C31.6976 83.347 31.4726 83.455 31.2806 83.575C31.0946 83.689 30.9296 83.794 30.7856 83.89C30.6476 83.986 30.5036 84.034 30.3536 84.034C30.2336 84.034 30.1286 84.001 30.0386 83.935C29.9546 83.869 29.8856 83.791 29.8316 83.701L29.5166 83.134ZM44.124 83.431C44.076 83.509 44.025 83.566 43.971 83.602C43.917 83.632 43.848 83.647 43.764 83.647C43.668 83.647 43.56 83.614 43.44 83.548C43.326 83.482 43.185 83.41 43.017 83.332C42.855 83.254 42.663 83.182 42.441 83.116C42.219 83.05 41.955 83.017 41.649 83.017C41.397 83.017 41.166 83.05 40.956 83.116C40.752 83.176 40.578 83.263 40.434 83.377C40.29 83.485 40.179 83.617 40.101 83.773C40.023 83.923 39.984 84.085 39.984 84.259C39.984 84.487 40.05 84.676 40.182 84.826C40.32 84.976 40.497 85.105 40.713 85.213C40.935 85.321 41.184 85.42 41.46 85.51C41.742 85.594 42.027 85.684 42.315 85.78C42.609 85.876 42.894 85.987 43.17 86.113C43.452 86.233 43.701 86.386 43.917 86.572C44.139 86.752 44.316 86.971 44.448 87.229C44.586 87.487 44.655 87.802 44.655 88.174C44.655 88.6 44.577 88.996 44.421 89.362C44.271 89.722 44.046 90.034 43.746 90.298C43.452 90.562 43.086 90.769 42.648 90.919C42.21 91.069 41.709 91.144 41.145 91.144C40.515 91.144 39.933 91.039 39.399 90.829C38.865 90.619 38.418 90.352 38.058 90.028L38.472 89.353C38.52 89.269 38.58 89.206 38.652 89.164C38.724 89.116 38.82 89.092 38.94 89.092C39.054 89.092 39.171 89.134 39.291 89.218C39.411 89.302 39.555 89.395 39.723 89.497C39.891 89.593 40.095 89.683 40.335 89.767C40.575 89.845 40.875 89.884 41.235 89.884C41.535 89.884 41.796 89.848 42.018 89.776C42.24 89.698 42.423 89.596 42.567 89.47C42.717 89.338 42.828 89.188 42.9 89.02C42.972 88.852 43.008 88.675 43.008 88.489C43.008 88.249 42.939 88.051 42.801 87.895C42.669 87.733 42.492 87.595 42.27 87.481C42.054 87.367 41.805 87.268 41.523 87.184C41.241 87.1 40.953 87.01 40.659 86.914C40.365 86.818 40.077 86.707 39.795 86.581C39.513 86.455 39.261 86.296 39.039 86.104C38.823 85.912 38.646 85.678 38.508 85.402C38.376 85.126 38.31 84.79 38.31 84.394C38.31 84.04 38.382 83.701 38.526 83.377C38.676 83.053 38.889 82.768 39.165 82.522C39.447 82.276 39.792 82.081 40.2 81.937C40.614 81.787 41.085 81.712 41.613 81.712C42.219 81.712 42.765 81.808 43.251 82C43.743 82.192 44.163 82.456 44.511 82.792L44.124 83.431ZM51.4693 86.941C50.7553 86.965 50.1493 87.022 49.6513 87.112C49.1533 87.196 48.7483 87.31 48.4363 87.454C48.1243 87.598 47.8993 87.769 47.7613 87.967C47.6233 88.159 47.5543 88.375 47.5543 88.615C47.5543 88.843 47.5903 89.041 47.6623 89.209C47.7403 89.371 47.8423 89.506 47.9683 89.614C48.1003 89.716 48.2533 89.791 48.4273 89.839C48.6013 89.887 48.7903 89.911 48.9943 89.911C49.2643 89.911 49.5103 89.884 49.7323 89.83C49.9603 89.776 50.1733 89.701 50.3713 89.605C50.5693 89.503 50.7583 89.38 50.9383 89.236C51.1183 89.092 51.2953 88.927 51.4693 88.741L51.4693 86.941ZM46.3213 83.134C46.8313 82.648 47.3833 82.285 47.9773 82.045C48.5773 81.805 49.2343 81.685 49.9483 81.685C50.4703 81.685 50.9323 81.772 51.3343 81.946C51.7363 82.114 52.0753 82.351 52.3513 82.657C52.6273 82.963 52.8343 83.329 52.9723 83.755C53.1163 84.181 53.1883 84.652 53.1883 85.168L53.1883 91L52.4053 91C52.2313 91 52.0993 90.973 52.0093 90.919C51.9193 90.859 51.8473 90.751 51.7933 90.595L51.6043 89.794C51.3703 90.01 51.1393 90.202 50.9113 90.37C50.6833 90.532 50.4433 90.673 50.1913 90.793C49.9453 90.907 49.6813 90.994 49.3993 91.054C49.1173 91.114 48.8053 91.144 48.4633 91.144C48.1033 91.144 47.7643 91.096 47.4463 91C47.1343 90.898 46.8613 90.745 46.6273 90.541C46.3933 90.337 46.2073 90.082 46.0693 89.776C45.9373 89.47 45.8713 89.113 45.8713 88.705C45.8713 88.345 45.9673 88 46.1593 87.67C46.3573 87.334 46.6753 87.034 47.1133 86.77C47.5573 86.506 48.1333 86.29 48.8413 86.122C49.5553 85.954 50.4313 85.858 51.4693 85.834L51.4693 85.168C51.4693 84.478 51.3223 83.962 51.0283 83.62C50.7343 83.278 50.3023 83.107 49.7323 83.107C49.3483 83.107 49.0243 83.155 48.7603 83.251C48.5023 83.347 48.2773 83.455 48.0853 83.575C47.8993 83.689 47.7343 83.794 47.5903 83.89C47.4523 83.986 47.3083 84.034 47.1583 84.034C47.0383 84.034 46.9333 84.001 46.8433 83.935C46.7593 83.869 46.6903 83.791 46.6363 83.701L46.3213 83.134ZM57.3377 77.716L57.3377 91L55.5737 91L55.5737 77.716L57.3377 77.716ZM69.3741 89.479C69.8601 89.479 70.2741 89.422 70.6161 89.308C70.9641 89.194 71.2461 89.038 71.4621 88.84C71.6841 88.642 71.8461 88.408 71.9481 88.138C72.0501 87.862 72.1011 87.562 72.1011 87.238C72.1011 86.596 71.8791 86.092 71.4351 85.726C70.9911 85.354 70.3041 85.168 69.3741 85.168L66.6741 85.168L66.6741 89.479L69.3741 89.479ZM66.6741 79.579L66.6741 83.809L68.8791 83.809C69.8211 83.809 70.5201 83.62 70.9761 83.242C71.4381 82.858 71.6691 82.342 71.6691 81.694C71.6691 80.956 71.4501 80.419 71.0121 80.083C70.5741 79.747 69.8931 79.579 68.9691 79.579L66.6741 79.579ZM68.9691 78.076C69.7791 78.076 70.4721 78.154 71.0481 78.31C71.6301 78.466 72.1071 78.691 72.4791 78.985C72.8511 79.279 73.1241 79.636 73.2981 80.056C73.4781 80.47 73.5681 80.941 73.5681 81.469C73.5681 81.781 73.5201 82.081 73.4241 82.369C73.3281 82.657 73.1811 82.927 72.9831 83.179C72.7851 83.425 72.5361 83.647 72.2361 83.845C71.9361 84.043 71.5821 84.208 71.1741 84.34C73.0521 84.712 73.9911 85.693 73.9911 87.283C73.9911 87.835 73.8891 88.339 73.6851 88.795C73.4811 89.245 73.1841 89.635 72.7941 89.965C72.4041 90.295 71.9241 90.55 71.3541 90.73C70.7841 90.91 70.1361 91 69.4101 91L64.7571 91L64.7571 78.076L68.9691 78.076ZM77.5492 83.611C77.8432 83.011 78.1972 82.54 78.6112 82.198C79.0252 81.856 79.5232 81.685 80.1052 81.685C80.3032 81.685 80.4892 81.709 80.6632 81.757C80.8432 81.799 80.9992 81.865 81.1312 81.955L81.0142 83.278C80.9722 83.44 80.8732 83.521 80.7172 83.521C80.6332 83.521 80.5072 83.506 80.3392 83.476C80.1712 83.44 79.9912 83.422 79.7992 83.422C79.5172 83.422 79.2682 83.464 79.0522 83.548C78.8362 83.626 78.6412 83.746 78.4672 83.908C78.2992 84.064 78.1492 84.259 78.0172 84.493C77.8852 84.721 77.7622 84.982 77.6482 85.276L77.6482 91L75.8932 91L75.8932 81.856L76.9012 81.856C77.0932 81.856 77.2222 81.892 77.2882 81.964C77.3602 82.03 77.4112 82.15 77.4412 82.324L77.5492 83.611ZM88.208 85.411C88.208 85.063 88.157 84.742 88.055 84.448C87.959 84.154 87.815 83.899 87.623 83.683C87.431 83.467 87.197 83.299 86.921 83.179C86.645 83.059 86.327 82.999 85.967 82.999C85.229 82.999 84.647 83.212 84.221 83.638C83.801 84.064 83.534 84.655 83.42 85.411L88.208 85.411ZM89.657 89.695C89.441 89.947 89.192 90.166 88.91 90.352C88.628 90.532 88.328 90.679 88.01 90.793C87.692 90.907 87.362 90.991 87.02 91.045C86.684 91.099 86.351 91.126 86.021 91.126C85.391 91.126 84.806 91.021 84.266 90.811C83.732 90.595 83.267 90.283 82.871 89.875C82.481 89.461 82.175 88.951 81.953 88.345C81.737 87.733 81.629 87.031 81.629 86.239C81.629 85.603 81.728 85.012 81.926 84.466C82.124 83.914 82.406 83.434 82.772 83.026C83.144 82.618 83.597 82.297 84.131 82.063C84.665 81.829 85.265 81.712 85.931 81.712C86.489 81.712 87.002 81.805 87.47 81.991C87.944 82.171 88.352 82.435 88.694 82.783C89.036 83.131 89.303 83.56 89.495 84.07C89.693 84.58 89.792 85.162 89.792 85.816C89.792 86.086 89.762 86.269 89.702 86.365C89.642 86.455 89.531 86.5 89.369 86.5L83.375 86.5C83.393 87.046 83.471 87.523 83.609 87.931C83.747 88.333 83.936 88.669 84.176 88.939C84.422 89.209 84.713 89.41 85.049 89.542C85.385 89.674 85.76 89.74 86.174 89.74C86.564 89.74 86.9 89.695 87.182 89.605C87.47 89.515 87.716 89.419 87.92 89.317C88.13 89.209 88.304 89.11 88.442 89.02C88.586 88.93 88.712 88.885 88.82 88.885C88.964 88.885 89.075 88.939 89.153 89.047L89.657 89.695ZM96.5923 86.941C95.8783 86.965 95.2723 87.022 94.7743 87.112C94.2763 87.196 93.8713 87.31 93.5593 87.454C93.2473 87.598 93.0223 87.769 92.8843 87.967C92.7463 88.159 92.6773 88.375 92.6773 88.615C92.6773 88.843 92.7133 89.041 92.7853 89.209C92.8633 89.371 92.9653 89.506 93.0913 89.614C93.2233 89.716 93.3763 89.791 93.5503 89.839C93.7243 89.887 93.9133 89.911 94.1173 89.911C94.3873 89.911 94.6333 89.884 94.8553 89.83C95.0833 89.776 95.2963 89.701 95.4943 89.605C95.6923 89.503 95.8813 89.38 96.0613 89.236C96.2413 89.092 96.4183 88.927 96.5923 88.741L96.5923 86.941ZM91.4443 83.134C91.9543 82.648 92.5063 82.285 93.1003 82.045C93.7003 81.805 94.3573 81.685 95.0713 81.685C95.5933 81.685 96.0553 81.772 96.4573 81.946C96.8593 82.114 97.1983 82.351 97.4743 82.657C97.7503 82.963 97.9573 83.329 98.0953 83.755C98.2393 84.181 98.3113 84.652 98.3113 85.168L98.3113 91L97.5283 91C97.3543 91 97.2223 90.973 97.1323 90.919C97.0423 90.859 96.9703 90.751 96.9163 90.595L96.7273 89.794C96.4933 90.01 96.2623 90.202 96.0343 90.37C95.8063 90.532 95.5663 90.673 95.3143 90.793C95.0683 90.907 94.8043 90.994 94.5223 91.054C94.2403 91.114 93.9283 91.144 93.5863 91.144C93.2263 91.144 92.8873 91.096 92.5693 91C92.2573 90.898 91.9843 90.745 91.7503 90.541C91.5163 90.337 91.3303 90.082 91.1923 89.776C91.0603 89.47 90.9943 89.113 90.9943 88.705C90.9943 88.345 91.0903 88 91.2823 87.67C91.4803 87.334 91.7983 87.034 92.2363 86.77C92.6803 86.506 93.2563 86.29 93.9643 86.122C94.6783 85.954 95.5543 85.858 96.5923 85.834L96.5923 85.168C96.5923 84.478 96.4453 83.962 96.1513 83.62C95.8573 83.278 95.4253 83.107 94.8553 83.107C94.4713 83.107 94.1473 83.155 93.8833 83.251C93.6253 83.347 93.4003 83.455 93.2083 83.575C93.0223 83.689 92.8573 83.794 92.7133 83.89C92.5753 83.986 92.4313 84.034 92.2813 84.034C92.1613 84.034 92.0563 84.001 91.9663 83.935C91.8823 83.869 91.8133 83.791 91.7593 83.701L91.4443 83.134ZM103.4 91.144C102.662 91.144 102.092 90.937 101.69 90.523C101.294 90.109 101.096 89.518 101.096 88.75L101.096 83.278L100.034 83.278C99.9317 83.278 99.8447 83.248 99.7727 83.188C99.7067 83.122 99.6737 83.026 99.6737 82.9L99.6737 82.189L101.159 81.982L101.555 79.255C101.579 79.153 101.624 79.075 101.69 79.021C101.762 78.961 101.852 78.931 101.96 78.931L102.851 78.931L102.851 82L105.443 82L105.443 83.278L102.851 83.278L102.851 88.633C102.851 88.993 102.938 89.263 103.112 89.443C103.292 89.617 103.52 89.704 103.796 89.704C103.958 89.704 104.096 89.683 104.21 89.641C104.33 89.599 104.432 89.554 104.516 89.506C104.6 89.452 104.672 89.404 104.732 89.362C104.792 89.32 104.846 89.299 104.894 89.299C104.954 89.299 104.999 89.314 105.029 89.344C105.065 89.368 105.101 89.41 105.137 89.47L105.659 90.316C105.371 90.58 105.029 90.784 104.633 90.928C104.237 91.072 103.826 91.144 103.4 91.144ZM108.814 83.017C109.198 82.627 109.621 82.312 110.083 82.072C110.551 81.832 111.088 81.712 111.694 81.712C112.198 81.712 112.639 81.796 113.017 81.964C113.401 82.132 113.722 82.369 113.98 82.675C114.238 82.975 114.433 83.338 114.565 83.764C114.697 84.19 114.763 84.661 114.763 85.177L114.763 91L112.999 91L112.999 85.177C112.999 84.523 112.849 84.016 112.549 83.656C112.249 83.29 111.79 83.107 111.172 83.107C110.722 83.107 110.299 83.215 109.903 83.431C109.513 83.641 109.15 83.929 108.814 84.295L108.814 91L107.059 91L107.059 77.716L108.814 77.716L108.814 83.017ZM118.967 81.856L118.967 91L117.212 91L117.212 81.856L118.967 81.856ZM119.3 79.03C119.3 79.192 119.267 79.348 119.201 79.498C119.135 79.642 119.045 79.771 118.931 79.885C118.823 79.993 118.694 80.08 118.544 80.146C118.394 80.206 118.238 80.236 118.076 80.236C117.914 80.236 117.761 80.206 117.617 80.146C117.473 80.08 117.344 79.993 117.23 79.885C117.122 79.771 117.035 79.642 116.969 79.498C116.909 79.348 116.879 79.192 116.879 79.03C116.879 78.862 116.909 78.706 116.969 78.562C117.035 78.412 117.122 78.283 117.23 78.175C117.344 78.061 117.473 77.974 117.617 77.914C117.761 77.848 117.914 77.815 118.076 77.815C118.238 77.815 118.394 77.848 118.544 77.914C118.694 77.974 118.823 78.061 118.931 78.175C119.045 78.283 119.135 78.412 119.201 78.562C119.267 78.706 119.3 78.862 119.3 79.03ZM123.155 83.125C123.353 82.915 123.56 82.723 123.776 82.549C123.992 82.375 124.22 82.228 124.46 82.108C124.706 81.982 124.967 81.886 125.243 81.82C125.525 81.748 125.825 81.712 126.143 81.712C126.647 81.712 127.088 81.796 127.466 81.964C127.85 82.132 128.171 82.369 128.429 82.675C128.687 82.975 128.882 83.338 129.014 83.764C129.146 84.19 129.212 84.661 129.212 85.177L129.212 91L127.448 91L127.448 85.177C127.448 84.523 127.298 84.016 126.998 83.656C126.698 83.29 126.239 83.107 125.621 83.107C125.171 83.107 124.748 83.215 124.352 83.431C123.962 83.641 123.599 83.929 123.263 84.295L123.263 91L121.508 91L121.508 81.856L122.561 81.856C122.807 81.856 122.96 81.973 123.02 82.207L123.155 83.125ZM134.794 86.437C135.106 86.437 135.379 86.395 135.613 86.311C135.853 86.227 136.051 86.11 136.207 85.96C136.369 85.804 136.489 85.618 136.567 85.402C136.651 85.186 136.693 84.949 136.693 84.691C136.693 84.163 136.531 83.743 136.207 83.431C135.889 83.113 135.418 82.954 134.794 82.954C134.176 82.954 133.705 83.113 133.381 83.431C133.063 83.743 132.904 84.163 132.904 84.691C132.904 84.949 132.943 85.186 133.021 85.402C133.105 85.612 133.225 85.795 133.381 85.951C133.543 86.101 133.741 86.221 133.975 86.311C134.215 86.395 134.488 86.437 134.794 86.437ZM137.593 91.477C137.593 91.261 137.533 91.09 137.413 90.964C137.293 90.832 137.128 90.73 136.918 90.658C136.714 90.58 136.474 90.526 136.198 90.496C135.922 90.46 135.631 90.433 135.325 90.415C135.025 90.397 134.716 90.382 134.398 90.37C134.08 90.352 133.774 90.322 133.48 90.28C133.168 90.436 132.91 90.625 132.706 90.847C132.508 91.069 132.409 91.33 132.409 91.63C132.409 91.822 132.457 92.002 132.553 92.17C132.655 92.338 132.808 92.482 133.012 92.602C133.222 92.728 133.483 92.824 133.795 92.89C134.113 92.962 134.491 92.998 134.929 92.998C135.361 92.998 135.742 92.959 136.072 92.881C136.402 92.809 136.678 92.704 136.9 92.566C137.128 92.434 137.299 92.275 137.413 92.089C137.533 91.903 137.593 91.699 137.593 91.477ZM139.375 82.198L139.375 82.855C139.375 83.071 139.24 83.206 138.97 83.26L137.989 83.404C138.073 83.59 138.139 83.788 138.187 83.998C138.235 84.202 138.259 84.418 138.259 84.646C138.259 85.096 138.172 85.504 137.998 85.87C137.824 86.23 137.584 86.539 137.278 86.797C136.972 87.055 136.606 87.253 136.18 87.391C135.76 87.529 135.298 87.598 134.794 87.598C134.38 87.598 133.993 87.553 133.633 87.463C133.453 87.571 133.315 87.691 133.219 87.823C133.129 87.949 133.084 88.075 133.084 88.201C133.084 88.411 133.171 88.567 133.345 88.669C133.525 88.771 133.756 88.846 134.038 88.894C134.326 88.936 134.653 88.963 135.019 88.975C135.391 88.987 135.766 89.008 136.144 89.038C136.528 89.062 136.903 89.11 137.269 89.182C137.641 89.248 137.968 89.359 138.25 89.515C138.538 89.665 138.769 89.875 138.943 90.145C139.123 90.409 139.213 90.754 139.213 91.18C139.213 91.576 139.114 91.96 138.916 92.332C138.724 92.704 138.442 93.034 138.07 93.322C137.698 93.61 137.245 93.841 136.711 94.015C136.177 94.189 135.571 94.276 134.893 94.276C134.215 94.276 133.624 94.21 133.12 94.078C132.622 93.946 132.205 93.769 131.869 93.547C131.539 93.325 131.29 93.067 131.122 92.773C130.96 92.479 130.879 92.173 130.879 91.855C130.879 91.411 131.017 91.036 131.293 90.73C131.569 90.418 131.95 90.175 132.436 90.001C132.172 89.881 131.962 89.719 131.806 89.515C131.65 89.305 131.572 89.029 131.572 88.687C131.572 88.555 131.596 88.42 131.644 88.282C131.692 88.138 131.764 87.997 131.86 87.859C131.962 87.715 132.085 87.58 132.229 87.454C132.379 87.328 132.55 87.214 132.742 87.112C132.292 86.86 131.938 86.527 131.68 86.113C131.422 85.693 131.293 85.204 131.293 84.646C131.293 84.196 131.38 83.791 131.554 83.431C131.728 83.071 131.968 82.762 132.274 82.504C132.586 82.246 132.955 82.048 133.381 81.91C133.813 81.772 134.284 81.703 134.794 81.703C135.586 81.703 136.267 81.868 136.837 82.198L139.375 82.198Z" fill="white"/>
</svg>
