<svg width="84" height="40" viewBox="0 0 84 40" fill="none" xmlns="http://www.w3.org/2000/svg">
<path d="M81.1343 25.3561C80.9129 25.1338 80.6856 24.921 80.4528 24.7178C77.933 22.519 73.233 14.9752 71.4457 12.1487C69.5123 9.08959 65.4607 7.46981 61.8215 8.29474C61.3445 8.40304 60.8796 8.54512 60.4297 8.7182C59.1535 9.20926 54.7658 7.53544 54.2554 6.2668C52.9965 3.14325 50.38 0.805952 47.4283 0.174368C43.8321 -0.599001 39.6387 1.25279 37.237 4.68569C36.8281 5.26883 36.4555 5.89546 36.1215 6.55595C35.4791 7.8266 31.7594 8.39183 30.5388 7.65886C27.8062 6.0133 24.1026 5.96175 21.108 7.52567C18.3195 8.98218 16.1369 11.805 15.2647 15.0746C14.6347 17.4525 10.2959 20.041 7.83793 20.1397C7.50449 20.1531 7.16325 20.1897 6.81353 20.2519C4.36882 20.6858 2.34947 22.1896 1.27535 24.3765C0.205522 26.5505 0.24419 29.0511 1.38276 31.2337C3.30759 34.9201 7.23888 37.223 13.4086 38.2714C17.6751 38.9975 22.0704 39.0404 26.3153 39.0834C27.1016 39.092 27.8921 39.1006 28.6784 39.1092C29.3014 39.1178 29.8513 39.1307 30.3583 39.1479C33.8385 39.2553 37.3229 39.3283 40.7172 39.3584C42.1737 39.3713 43.6259 39.3799 45.0738 39.3799C50.3413 39.3799 55.5615 39.2896 60.64 39.1049C61.8946 39.0576 63.1749 38.9932 64.408 38.9287C66.2297 38.8342 68.1116 38.7354 69.9634 38.7053C73.0783 38.6495 75.8668 38.512 78.4017 37.3777C80.5929 36.3938 83.5274 34.7096 83.7251 31.4314C83.854 29.3476 82.9087 27.1349 81.1343 25.3561Z" fill="#0D6EFD"/>
</svg>
