<svg width="20" height="24" viewBox="0 0 20 24" fill="none" xmlns="http://www.w3.org/2000/svg">
<path d="M19.0418 18.424C18.6939 19.2275 18.2822 19.9672 17.8052 20.6473C17.155 21.5743 16.6226 22.216 16.2123 22.5724C15.5762 23.1573 14.8948 23.4569 14.1651 23.4739C13.6412 23.4739 13.0094 23.3248 12.274 23.0224C11.5362 22.7214 10.8581 22.5724 10.2381 22.5724C9.58791 22.5724 8.89055 22.7214 8.14463 23.0224C7.39758 23.3248 6.79576 23.4824 6.33564 23.498C5.63586 23.5278 4.93836 23.2198 4.24213 22.5724C3.79776 22.1848 3.24195 21.5204 2.5761 20.5791C1.86171 19.574 1.27437 18.4084 0.814243 17.0795C0.321462 15.6442 0.0744324 14.2543 0.0744324 12.9087C0.0744324 11.3673 0.407496 10.0379 1.07462 8.92386C1.59892 8.02902 2.29642 7.32314 3.1694 6.80495C4.04238 6.28675 4.98563 6.02269 6.00144 6.00579C6.55725 6.00579 7.28613 6.17772 8.19191 6.51561C9.09513 6.85464 9.67508 7.02656 9.92935 7.02656C10.1194 7.02656 10.7637 6.82553 11.8559 6.42475C12.8887 6.05307 13.7604 5.89917 14.4745 5.95979C16.4096 6.11596 17.8634 6.87877 18.8302 8.25305C17.0996 9.30165 16.2435 10.7703 16.2605 12.6544C16.2762 14.122 16.8086 15.3432 17.8549 16.3129C18.3291 16.7629 18.8586 17.1108 19.4478 17.3578C19.32 17.7283 19.1851 18.0833 19.0418 18.424V18.424ZM14.6037 0.960146C14.6037 2.11041 14.1835 3.1844 13.3459 4.17848C12.335 5.36025 11.1124 6.04313 9.78653 5.93537C9.76963 5.79738 9.75984 5.65214 9.75984 5.49952C9.75984 4.39527 10.2405 3.21351 11.0942 2.24725C11.5204 1.75802 12.0625 1.35123 12.7198 1.02673C13.3757 0.707068 13.9961 0.530288 14.5796 0.500015C14.5966 0.653787 14.6037 0.807569 14.6037 0.960131V0.960146Z" fill="white"/>
</svg>
