<svg width="390" height="830" viewBox="0 0 390 830" fill="none" xmlns="http://www.w3.org/2000/svg">
<ellipse rx="23.3766" ry="22.0611" transform="matrix(-1 0 0 1 319 79.0611)" fill="#242530"/>
<ellipse rx="23.8961" ry="19.855" transform="matrix(-1 0 0 1 357.961 98.916)" fill="#242530"/>
<ellipse rx="23.3766" ry="22.0611" transform="matrix(-1 0 0 1 333.545 105.534)" fill="#242530"/>
<ellipse rx="23.3766" ry="22.0611" transform="matrix(-1 0 0 1 302.377 105.534)" fill="#242530"/>
<ellipse cx="29.658" cy="525.617" rx="35.5753" ry="32.1446" fill="black"/>
<ellipse cx="-29.6342" cy="554.547" rx="36.3658" ry="28.9302" fill="black"/>
<ellipse cx="7.52224" cy="564.19" rx="35.5753" ry="32.1446" fill="black"/>
<ellipse cx="54.956" cy="564.19" rx="35.5753" ry="32.1446" fill="black"/>
<ellipse rx="34.5289" ry="30.2538" transform="matrix(-1 0 0 1 56.0023 478.345)" fill="black"/>
<ellipse rx="35.2963" ry="27.2284" transform="matrix(-1 0 0 1 113.551 505.574)" fill="black"/>
<ellipse rx="34.5289" ry="30.2538" transform="matrix(-1 0 0 1 77.487 514.65)" fill="black"/>
<ellipse rx="34.5289" ry="30.2538" transform="matrix(-1 0 0 1 31.4484 514.65)" fill="black"/>
<ellipse cx="105.963" cy="587.637" rx="35.9241" ry="28.3629" transform="rotate(180 105.963 587.637)" fill="black"/>
<ellipse cx="165.836" cy="562.11" rx="36.7224" ry="25.5266" transform="rotate(180 165.836 562.11)" fill="black"/>
<ellipse cx="128.315" cy="553.602" rx="35.9241" ry="28.3629" transform="rotate(180 128.315 553.602)" fill="black"/>
<ellipse cx="80.4167" cy="553.602" rx="35.9241" ry="28.3629" transform="rotate(180 80.4167 553.602)" fill="black"/>
<ellipse cx="-14.2381" cy="652.432" rx="24.085" ry="23.4399" fill="black"/>
<ellipse cx="2.88905" cy="680.56" rx="24.085" ry="23.4399" fill="black"/>
<ellipse rx="23.3766" ry="22.0611" transform="matrix(-1 0 0 1 3.59741 617.962)" fill="black"/>
<ellipse rx="23.8961" ry="19.855" transform="matrix(-1 0 0 1 42.5585 637.817)" fill="black"/>
<ellipse rx="23.3766" ry="22.0611" transform="matrix(-1 0 0 1 18.1429 644.435)" fill="black"/>
<ellipse rx="23.3766" ry="22.0611" transform="matrix(-1 0 0 1 -13.026 644.435)" fill="black"/>
<ellipse cx="3.1514" cy="441.887" rx="24.8616" ry="18.614" transform="rotate(-180 3.1514 441.887)" fill="black"/>
<ellipse cx="-22.2507" cy="435.682" rx="24.3211" ry="20.6823" transform="rotate(-180 -22.2507 435.682)" fill="black"/>
<ellipse cx="-5.5" cy="776" rx="22.5" ry="20" fill="#D9D9D9"/>
<ellipse cx="-19.5" cy="800" rx="22.5" ry="20" fill="#D9D9D9"/>
<ellipse cx="10.5" cy="800" rx="22.5" ry="20" fill="#D9D9D9"/>
<ellipse rx="25.0364" ry="28.7162" transform="matrix(-1 0 0 1 148.68 703.257)" fill="#242530"/>
<ellipse rx="25.5927" ry="25.8446" transform="matrix(-1 0 0 1 190.407 729.101)" fill="#242530"/>
<ellipse rx="25.0364" ry="28.7162" transform="matrix(-1 0 0 1 164.258 737.716)" fill="#242530"/>
<ellipse rx="25.0364" ry="28.7162" transform="matrix(-1 0 0 1 130.876 737.716)" fill="#242530"/>
<ellipse cx="130.14" cy="661.027" rx="24.3" ry="27.027" fill="#242530"/>
<ellipse cx="89.64" cy="685.351" rx="24.84" ry="24.3243" fill="#242530"/>
<ellipse cx="115.02" cy="693.459" rx="24.3" ry="27.027" fill="#242530"/>
<ellipse cx="147.42" cy="693.459" rx="24.3" ry="27.027" fill="#242530"/>
<ellipse rx="25.2818" ry="25.3378" transform="matrix(1 0 0 -1 94.98 758.662)" fill="#242530"/>
<ellipse rx="25.8436" ry="22.8041" transform="matrix(1 0 0 -1 52.8436 735.858)" fill="#242530"/>
<ellipse rx="25.2818" ry="25.3378" transform="matrix(1 0 0 -1 79.2491 728.257)" fill="#242530"/>
<ellipse rx="25.2818" ry="25.3378" transform="matrix(1 0 0 -1 112.958 728.257)" fill="#242530"/>
<ellipse rx="23.4091" ry="18.75" transform="matrix(1 0 0 -1 267.944 811.25)" fill="#D9D9D9"/>
<ellipse rx="23.9293" ry="16.875" transform="matrix(1 0 0 -1 228.929 794.375)" fill="#D9D9D9"/>
<ellipse rx="23.4091" ry="18.75" transform="matrix(1 0 0 -1 253.379 788.75)" fill="#D9D9D9"/>
<ellipse rx="23.4091" ry="18.75" transform="matrix(1 0 0 -1 284.591 788.75)" fill="#D9D9D9"/>
<ellipse rx="36.4286" ry="29.8649" transform="matrix(-1 0 0 1 139.048 345.027)" fill="#242530"/>
<ellipse rx="37.2381" ry="26.8784" transform="matrix(-1 0 0 1 199.762 371.905)" fill="#242530"/>
<ellipse rx="36.4286" ry="29.8649" transform="matrix(-1 0 0 1 161.714 380.865)" fill="#242530"/>
<ellipse rx="36.4286" ry="29.8649" transform="matrix(-1 0 0 1 113.143 380.865)" fill="#242530"/>
<ellipse cx="112.071" cy="301.108" rx="35.3571" ry="28.1081" fill="#242530"/>
<ellipse cx="53.1429" cy="326.405" rx="36.1429" ry="25.2973" fill="#242530"/>
<ellipse cx="90.0714" cy="334.838" rx="35.3571" ry="28.1081" fill="#242530"/>
<ellipse cx="137.214" cy="334.838" rx="35.3571" ry="28.1081" fill="#242530"/>
<ellipse rx="36.7857" ry="26.3514" transform="matrix(1 0 0 -1 60.9127 402.649)" fill="#242530"/>
<ellipse rx="37.6032" ry="23.7162" transform="matrix(1 0 0 -1 -0.396828 378.932)" fill="#242530"/>
<ellipse rx="36.7857" ry="26.3514" transform="matrix(1 0 0 -1 38.0238 371.027)" fill="#242530"/>
<ellipse rx="36.7857" ry="26.3514" transform="matrix(1 0 0 -1 87.0714 371.027)" fill="#242530"/>
<ellipse rx="23.1818" ry="21.25" transform="matrix(-1 0 0 1 332.667 447.25)" fill="#242530"/>
<ellipse rx="23.697" ry="19.125" transform="matrix(-1 0 0 1 371.303 466.375)" fill="#242530"/>
<ellipse rx="23.1818" ry="21.25" transform="matrix(-1 0 0 1 347.091 472.75)" fill="#242530"/>
<ellipse rx="23.1818" ry="21.25" transform="matrix(-1 0 0 1 316.182 472.75)" fill="#242530"/>
<ellipse cx="315.5" cy="416" rx="22.5" ry="20" fill="#242530"/>
<ellipse cx="278" cy="434" rx="23" ry="18" fill="#242530"/>
<ellipse cx="301.5" cy="440" rx="22.5" ry="20" fill="#242530"/>
<ellipse cx="331.5" cy="440" rx="22.5" ry="20" fill="#242530"/>
<ellipse rx="23.4091" ry="18.75" transform="matrix(1 0 0 -1 234.944 219.25)" fill="#242530"/>
<ellipse rx="23.9293" ry="16.875" transform="matrix(1 0 0 -1 195.929 202.375)" fill="#242530"/>
<ellipse rx="23.4091" ry="18.75" transform="matrix(1 0 0 -1 220.379 196.75)" fill="#242530"/>
<ellipse rx="23.4091" ry="18.75" transform="matrix(1 0 0 -1 251.591 196.75)" fill="#242530"/>
<ellipse cx="-31.5429" cy="206.473" rx="34.013" ry="22.4427" fill="black"/>
<ellipse cx="-7.35585" cy="233.405" rx="34.013" ry="22.4427" fill="black"/>
<ellipse rx="42.2571" ry="31.9707" transform="matrix(-1 0 0 1 212.375 95.1059)" fill="black"/>
<ellipse rx="43.1962" ry="28.7737" transform="matrix(-1 0 0 1 282.804 123.88)" fill="black"/>
<ellipse rx="42.2571" ry="31.9707" transform="matrix(-1 0 0 1 238.669 133.471)" fill="black"/>
<ellipse rx="42.2571" ry="31.9707" transform="matrix(-1 0 0 1 182.326 133.471)" fill="black"/>
<ellipse cx="181.083" cy="48.0901" rx="41.0143" ry="30.0901" fill="black"/>
<ellipse cx="112.726" cy="75.1712" rx="41.9257" ry="27.0811" fill="black"/>
<ellipse cx="155.563" cy="84.1982" rx="41.0143" ry="30.0901" fill="black"/>
<ellipse cx="210.249" cy="84.1982" rx="41.0143" ry="30.0901" fill="black"/>
<ellipse rx="42.6714" ry="28.2095" transform="matrix(1 0 0 -1 121.739 156.791)" fill="black"/>
<ellipse rx="43.6197" ry="25.3885" transform="matrix(1 0 0 -1 50.6197 131.402)" fill="black"/>
<ellipse rx="42.6714" ry="28.2095" transform="matrix(1 0 0 -1 95.1876 122.939)" fill="black"/>
<ellipse rx="42.6714" ry="28.2095" transform="matrix(1 0 0 -1 152.083 122.939)" fill="black"/>
<ellipse rx="36.4286" ry="29.4832" transform="matrix(-1 0 0 1 361.048 255.137)" fill="black"/>
<ellipse rx="37.2381" ry="26.5349" transform="matrix(-1 0 0 1 421.762 281.672)" fill="black"/>
<ellipse rx="36.4286" ry="29.4832" transform="matrix(-1 0 0 1 383.714 290.517)" fill="black"/>
<ellipse rx="36.4286" ry="29.4832" transform="matrix(-1 0 0 1 335.143 290.517)" fill="black"/>
<ellipse cx="334.071" cy="211.779" rx="35.3571" ry="27.7489" fill="black"/>
<ellipse cx="275.143" cy="236.753" rx="36.1429" ry="24.974" fill="black"/>
<ellipse cx="312.071" cy="245.078" rx="35.3571" ry="27.7489" fill="black"/>
<ellipse cx="359.214" cy="245.078" rx="35.3571" ry="27.7489" fill="black"/>
<ellipse rx="35.3872" ry="21.0401" transform="matrix(1 0 0 -1 398.448 46.2882)" fill="black"/>
<ellipse rx="36.1736" ry="18.9361" transform="matrix(1 0 0 -1 339.47 27.3521)" fill="black"/>
<ellipse rx="35.3872" ry="21.0401" transform="matrix(1 0 0 -1 376.43 21.0401)" fill="black"/>
<ellipse rx="35.3872" ry="21.0401" transform="matrix(1 0 0 -1 423.613 21.0401)" fill="black"/>
<ellipse cx="300" cy="723.5" rx="23" ry="19.5" fill="#242530"/>
<ellipse cx="276.237" cy="703.887" rx="22.1538" ry="18.2993" transform="rotate(7.06887 276.237 703.887)" fill="#242530"/>
<ellipse rx="25.3344" ry="21.25" transform="matrix(-1 0 0 1 365.879 717.25)" fill="#242530"/>
<ellipse rx="25.8974" ry="19.125" transform="matrix(-1 0 0 1 408.103 736.375)" fill="#242530"/>
<ellipse rx="25.3344" ry="21.25" transform="matrix(-1 0 0 1 381.642 742.75)" fill="#242530"/>
<ellipse rx="25.3344" ry="21.25" transform="matrix(-1 0 0 1 347.863 742.75)" fill="#242530"/>
<ellipse cx="347.118" cy="686" rx="24.5893" ry="20" fill="#242530"/>
<ellipse cx="306.136" cy="704" rx="25.1357" ry="18" fill="#242530"/>
<ellipse cx="331.818" cy="710" rx="24.5893" ry="20" fill="#242530"/>
<ellipse cx="364.604" cy="710" rx="24.5893" ry="20" fill="#242530"/>
<ellipse cx="144.538" cy="502.819" rx="19.539" ry="21.9005" fill="#242530"/>
<ellipse cx="111.973" cy="522.529" rx="19.9732" ry="19.7105" fill="#242530"/>
<ellipse cx="132.381" cy="529.099" rx="19.539" ry="21.9005" fill="#242530"/>
<ellipse cx="158.432" cy="529.099" rx="19.539" ry="21.9005" fill="#242530"/>
<ellipse rx="18.9643" ry="20.6122" transform="matrix(-1 0 0 1 159.007 470.612)" fill="#242530"/>
<ellipse rx="19.3857" ry="18.551" transform="matrix(-1 0 0 1 190.614 489.163)" fill="#242530"/>
<ellipse rx="18.9643" ry="20.6122" transform="matrix(-1 0 0 1 170.807 495.347)" fill="#242530"/>
<ellipse rx="18.9643" ry="20.6122" transform="matrix(-1 0 0 1 145.521 495.347)" fill="#242530"/>
<ellipse rx="18.6132" ry="29.5789" transform="matrix(-1 0 0 1 391.268 589.337)" fill="black"/>
<ellipse rx="18.6132" ry="29.5789" transform="matrix(-1 0 0 1 402.849 624.832)" fill="black"/>
<ellipse rx="18.6132" ry="29.5789" transform="matrix(-1 0 0 1 378.032 624.832)" fill="black"/>
<ellipse cx="377.484" cy="545.839" rx="18.0658" ry="27.839" fill="black"/>
<ellipse cx="347.375" cy="570.894" rx="18.4672" ry="25.0551" fill="black"/>
<ellipse cx="366.243" cy="579.246" rx="18.0658" ry="27.839" fill="black"/>
<ellipse cx="390.331" cy="579.246" rx="18.0658" ry="27.839" fill="black"/>
<ellipse rx="21.6388" ry="32.8095" transform="matrix(-1 0 0 1 347.033 612.643)" fill="black"/>
<ellipse rx="24.3931" ry="36.969" transform="matrix(-0.971251 -0.238057 -0.0915417 0.995801 323.076 588.036)" fill="black"/>
<ellipse rx="23.8961" ry="19.855" transform="matrix(-1 0 0 1 15.5584 57.916)" fill="#242530"/>
<ellipse rx="23.3766" ry="22.0611" transform="matrix(-1 0 0 1 -8.85715 64.5343)" fill="#242530"/>
<ellipse cx="16" cy="91" rx="28" ry="26" fill="#242530"/>
<ellipse cx="47" cy="71.5" rx="31" ry="29.5" transform="rotate(-8.5367 47 71.5)" fill="#242530"/>
<ellipse rx="25.0364" ry="28.7162" transform="matrix(-1 0 0 1 247.68 664.257)" fill="black"/>
<ellipse rx="25.5927" ry="25.8446" transform="matrix(-1 0 0 1 289.407 690.101)" fill="black"/>
<ellipse rx="25.0364" ry="28.7162" transform="matrix(-1 0 0 1 263.258 698.716)" fill="black"/>
<ellipse rx="25.0364" ry="28.7162" transform="matrix(-1 0 0 1 229.876 698.716)" fill="black"/>
<ellipse cx="229.14" cy="622.027" rx="24.3" ry="27.027" fill="black"/>
<ellipse cx="188.64" cy="646.351" rx="24.84" ry="24.3243" fill="black"/>
<ellipse cx="214.02" cy="654.459" rx="24.3" ry="27.027" fill="black"/>
<ellipse cx="246.42" cy="654.459" rx="24.3" ry="27.027" fill="black"/>
<ellipse rx="25.2818" ry="25.3378" transform="matrix(1 0 0 -1 193.98 719.662)" fill="black"/>
<ellipse rx="25.8436" ry="22.8041" transform="matrix(1 0 0 -1 151.844 696.858)" fill="black"/>
<ellipse rx="25.2818" ry="25.3378" transform="matrix(1 0 0 -1 178.249 689.257)" fill="black"/>
<ellipse rx="25.2818" ry="25.3378" transform="matrix(1 0 0 -1 211.958 689.257)" fill="black"/>
</svg>
