<svg width="107" height="129" viewBox="0 0 107 129" fill="none" xmlns="http://www.w3.org/2000/svg">
<path d="M1.20218 65.1125C1.54016 66.9151 1.91436 68.7258 2.33684 70.5485C4.62224 80.4808 9.89316 89.9575 17.0874 97.7364C17.1276 98.3292 17.1638 98.926 17.192 99.5148C17.2282 100.337 17.2362 101.132 16.9385 101.862C16.6568 102.543 15.9688 103.249 15.1037 103.249C15.0675 103.249 15.0353 103.249 14.9991 103.245C14.0415 103.184 13.4058 102.317 13.0074 101.672C12.2309 100.41 11.5951 99.0026 11.1525 97.6073C11.1525 98.2163 11.1284 98.8292 11.0801 99.4341C10.9996 100.438 10.6657 101.043 10.0943 101.237C9.65576 101.382 9.12464 101.229 8.7424 100.842C8.41246 100.507 8.2314 100.067 8.08655 99.6801C7.5997 98.3735 7.27379 96.9702 7.11285 95.591C7.09273 95.7322 7.06456 95.8693 7.0364 96.0064C6.84729 96.8412 6.30008 97.6356 5.64424 98.0267C5.18957 98.2969 4.70673 98.3735 4.23999 98.2405C3.54793 98.0469 3.00072 97.446 2.56617 96.3935C1.78962 94.5143 1.52809 92.5222 1.31081 90.4737C0.590586 83.7715 0.349179 76.9563 0.590595 70.2219C0.646926 68.5201 0.759582 66.7619 1.20218 65.1125Z" fill="#0D6EFD"/>
<path d="M10.1024 93.9496V95.4256C10.1024 96.2401 8.83899 96.2401 8.83899 95.4256V93.9496C8.84301 93.135 10.1024 93.131 10.1024 93.9496Z" fill="white"/>
<path d="M13.0516 94.8448V96.1111C13.0516 96.9257 11.7882 96.9257 11.7882 96.1111V94.8448C11.7882 94.0302 13.0516 94.0302 13.0516 94.8448Z" fill="white"/>
<path d="M15.47 98.325V99.5913C15.47 100.406 14.2066 100.406 14.2066 99.5913V98.325C14.2066 97.5105 15.47 97.5105 15.47 98.325Z" fill="white"/>
<path d="M2.3168 71.9598V73.964C2.3168 74.7786 1.05341 74.7786 1.05341 73.964V71.9598C1.05341 71.1452 2.3168 71.1452 2.3168 71.9598Z" fill="white"/>
<path d="M2.52602 77.2305V79.6541C2.52602 80.4687 1.2626 80.4687 1.2626 79.6541V77.2305C1.26663 76.42 2.52602 76.4159 2.52602 77.2305Z" fill="white"/>
<path d="M2.94047 83.0333C2.98473 83.6986 3.02899 84.368 3.07727 85.0334C3.1336 85.848 1.87019 85.844 1.81386 85.0334C1.7696 84.368 1.72534 83.6986 1.67706 83.0333C1.62073 82.2187 2.88414 82.2227 2.94047 83.0333Z" fill="white"/>
<path d="M3.3468 88.0984C3.70893 88.0984 3.95035 88.3887 3.97851 88.7315C4.01472 89.2235 4.05496 89.7155 4.09117 90.2075C4.11934 90.5502 3.78135 90.8406 3.45946 90.8406C3.09734 90.8406 2.85593 90.5502 2.82776 90.2075C2.79155 89.7155 2.75131 89.2235 2.7151 88.7315C2.69096 88.3887 3.02491 88.0984 3.3468 88.0984Z" fill="white"/>
<path d="M4.86783 80.8437C5.17363 80.759 5.58405 80.9486 5.64441 81.2873C5.76914 82.0091 5.82546 82.7269 5.78522 83.4569C5.74096 84.2674 4.47755 84.2714 4.52181 83.4569C4.554 82.8439 4.52986 82.2309 4.42524 81.626C4.36891 81.2873 4.51778 80.9405 4.86783 80.8437Z" fill="white"/>
<path d="M6.84337 88.7274V89.9936C6.84337 90.8082 5.57996 90.8082 5.57996 89.9936V88.7274C5.57996 87.9128 6.84337 87.9128 6.84337 88.7274Z" fill="white"/>
<path d="M5.36662 93.8972V95.478C5.36662 96.2926 4.10321 96.2926 4.10321 95.478V93.8972C4.10723 93.0827 5.36662 93.0786 5.36662 93.8972Z" fill="white"/>
<path d="M8.52931 89.046C8.55345 88.7032 8.80292 88.4128 9.16102 88.4128C9.48291 88.4128 9.81687 88.7032 9.79273 89.046C9.76054 89.4896 9.77664 89.921 9.86918 90.3566C9.93758 90.6913 9.77261 91.0421 9.42658 91.1349C9.11274 91.2195 8.72245 91.03 8.65003 90.6913C8.53334 90.1469 8.48505 89.5984 8.52931 89.046Z" fill="white"/>
<path d="M37.338 123.449C37.2737 123.211 37.0845 123.041 36.8632 122.985L36.6097 115.17C36.5977 114.803 36.2839 114.504 35.9258 114.524C35.5596 114.537 35.2699 114.843 35.282 115.21L35.5234 122.719L31.8378 124.695C31.5159 124.868 31.3911 125.271 31.5642 125.598C31.6849 125.824 31.9142 125.949 32.1516 125.949C32.2562 125.949 32.3648 125.925 32.4654 125.872L34.6824 124.683L33.3386 127.066C33.1575 127.384 33.2702 127.792 33.588 127.973C33.6927 128.034 33.8053 128.058 33.914 128.058C34.1473 128.058 34.3686 127.937 34.4934 127.719L36.2718 124.57L37.0121 127.255C37.0926 127.55 37.3622 127.743 37.6519 127.743C37.7122 127.743 37.7686 127.735 37.8289 127.719C38.183 127.622 38.3882 127.255 38.2916 126.9L37.338 123.449Z" fill="white"/>
<path d="M55.1264 126.9L54.1728 123.444C54.1085 123.206 53.9194 123.037 53.6981 122.981L53.4446 115.165C53.4325 114.798 53.1146 114.5 52.7606 114.52C52.3944 114.532 52.1047 114.839 52.1168 115.206L52.3582 122.714L48.6726 124.69C48.3507 124.864 48.226 125.267 48.399 125.594C48.5197 125.82 48.749 125.945 48.9864 125.945C49.091 125.945 49.1997 125.92 49.3003 125.868L51.5173 124.678L50.1734 127.062C49.9923 127.38 50.105 127.787 50.4228 127.969C50.5275 128.029 50.6401 128.054 50.7488 128.054C50.9821 128.054 51.2034 127.933 51.3282 127.715L53.1066 124.565L53.8469 127.251C53.9274 127.545 54.197 127.739 54.4867 127.739C54.547 127.739 54.6034 127.731 54.6637 127.715C55.0138 127.622 55.223 127.255 55.1264 126.9Z" fill="white"/>
<path d="M105.908 80.3316C105.643 79.8316 105.003 79.5533 104.351 79.6501C103.796 79.7348 103.317 80.0413 102.883 80.3598C101.647 81.2712 100.565 82.3842 99.5148 83.465L95.2377 87.8645C97.2455 85.4692 99.04 82.8964 100.589 80.1784C101.494 78.5855 102.331 76.8595 102.303 75.0328C102.291 74.3351 102.146 73.7826 101.865 73.3431C101.494 72.7745 100.879 72.4398 100.283 72.4962C99.5188 72.5648 98.9837 73.206 98.6055 73.7584C96.7063 76.5168 95.789 79.7953 94.8998 82.9689C94.433 84.6263 93.9542 86.3241 93.3386 87.9532C93.9341 86.0942 94.4652 84.1989 94.8032 82.2673C95.447 78.6016 95.3061 75.3029 94.3767 72.4559C94.264 72.1091 94.0991 71.73 93.7369 71.5687C93.1696 71.3147 92.5983 71.7623 92.2844 72.2261C91.1699 73.8472 91.2423 75.9159 91.4234 78.0733L92.3729 89.3122C88.9649 89.9817 85.6696 87.2516 84.2573 85.8724C79.9963 81.7067 79.7389 75.2666 79.5095 69.5887L79.4894 69.1169C79.1433 60.6807 78.7651 53.6034 78.0248 46.4818C76.4435 31.2103 73.0999 14.4266 60.3008 5.70406C55.553 2.4699 49.4814 0.711686 42.7459 0.622968C33.5801 0.489892 25.0742 3.52645 18.1456 9.37777C11.5992 14.9025 6.75883 22.6168 4.14349 31.6902C1.36721 41.3322 1.04934 51.5468 1.08555 59.3701C1.10567 63.9794 1.26259 67.7619 1.57643 71.2744C2.00696 76.0772 2.73523 80.3316 3.80551 84.2795C8.17916 100.406 20.4753 113.238 35.8937 117.77C40.5289 119.133 45.1641 119.811 49.7309 119.811C57.0256 119.811 64.1393 118.081 70.7622 114.645C81.984 108.83 89.9467 100.583 93.914 90.7116C98.8429 89.8607 103.325 86.6668 105.663 82.2148C105.932 81.7108 106.246 80.9647 105.908 80.3316Z" fill="#FFCB14"/>
<path d="M78.1132 81.134C76.4354 76.8232 74.4035 73.4922 71.9048 70.9396C68.8549 67.8304 65.1009 65.9593 61.3268 65.681C57.09 65.3705 52.9336 67.2255 50.7286 70.4073C47.8799 74.5205 48.6323 79.8073 49.3365 82.5898C50.8976 88.7799 54.7683 94.4537 59.9588 98.1516C60.9566 98.8614 62.1637 99.6276 63.5599 99.9139C64.0186 100.007 64.4732 100.039 64.9118 100.015C65.9016 99.9582 66.7989 99.5993 67.4467 98.9864C69.1366 97.3854 67.1892 93.4093 65.9177 91.3002C66.1953 91.522 68.0542 92.9294 68.352 93.127C69.209 93.6916 69.9896 93.986 70.738 94.0303C71.7157 94.0908 72.617 93.6916 73.0918 92.9899C73.9166 91.7761 73.293 90.1792 72.6612 88.921L70.4845 85.2634C70.9391 85.7594 72.3072 87.2354 72.8906 87.5781C74.3954 88.4613 76.7009 88.5984 78.0086 87.1144C79.1432 85.828 79.1795 83.8722 78.1132 81.134Z" fill="#0D6EFD"/>
<path d="M27.0175 26.7543C26.591 26.6252 26.1444 26.8631 26.0116 27.2866C25.4121 29.2383 23.7503 30.8272 21.7787 31.3393C21.0102 31.5369 20.3061 31.541 19.7428 31.3474C18.9582 31.0772 18.2702 30.3433 17.9443 29.4319C17.6465 28.5972 17.6143 27.5729 17.8477 26.472C17.9402 26.0365 17.6626 25.609 17.2281 25.5162C16.7935 25.4235 16.367 25.7017 16.2745 26.1373C15.9767 27.5326 16.029 28.8593 16.4274 29.9763C16.9183 31.3635 17.9644 32.4483 19.2238 32.8758C19.6744 33.029 20.1532 33.1056 20.6642 33.1056C21.147 33.1056 21.654 33.0371 22.1811 32.9C24.6838 32.2547 26.7881 30.2344 27.5486 27.7624C27.6814 27.339 27.4399 26.8873 27.0175 26.7543Z" fill="#3F4553"/>
<path d="M52.523 29.2908C52.4908 28.8472 52.1086 28.5125 51.662 28.5447C51.2194 28.577 50.8854 28.9641 50.9176 29.4077C50.9981 30.5086 50.3985 31.7063 49.3886 32.4604C48.4592 33.154 47.1716 33.521 45.7714 33.4968C45.015 33.4847 44.4678 33.3435 44.1016 33.0734C43.6429 32.7346 43.3452 32.0813 43.3049 31.3232C43.2647 30.5368 43.4699 29.7021 43.6671 28.8956C43.7717 28.4641 43.5101 28.0245 43.0796 27.9197C42.6491 27.8148 42.2105 28.077 42.1059 28.5084C41.8886 29.3876 41.6432 30.3796 41.6995 31.4079C41.7679 32.662 42.295 33.7428 43.148 34.3719C43.7918 34.8477 44.6408 35.0856 45.7432 35.1058C45.7955 35.1058 45.8519 35.1058 45.9042 35.1058C47.6022 35.1058 49.1754 34.6259 50.3503 33.7508C51.8068 32.6661 52.6397 30.9522 52.523 29.2908Z" fill="#3F4553"/>
<path d="M31.2423 47.5546C31.1739 47.4094 31.1136 47.2723 31.0572 47.1432C30.6267 46.1432 30.0876 45.1915 29.4478 44.3244C28.4419 42.9534 27.3676 42.2436 26.2611 42.2194C25.5449 42.2033 24.8609 42.4815 24.2292 42.784C23.1831 43.284 22.2134 44.0139 21.2799 44.7156C20.8212 45.0584 20.3464 45.4173 19.8757 45.7318C17.6426 47.24 15.498 48.9256 13.5063 50.7444C13.0516 51.1597 12.9189 51.5993 13.1482 51.9219C13.4057 52.2808 13.9127 52.1961 14.1058 52.1638L19.7228 51.2121C18.6082 52.0872 17.5983 53.0308 16.5401 54.0229C16.2142 54.3253 15.8923 54.6318 15.5624 54.9342C15.2847 55.1923 15.0313 55.4827 15.0554 55.8617C15.0916 56.3819 15.6268 56.6562 16.0774 56.7328C16.2705 56.765 16.4637 56.7812 16.6568 56.7812C17.6909 56.7812 18.6967 56.3537 19.5296 55.9988L28.12 52.3332C28.3091 52.2526 28.5023 52.1719 28.6954 52.0912C29.3874 51.8009 30.1036 51.5025 30.7716 51.1395C31.2101 50.9016 31.4998 50.6234 31.6648 50.2887C31.6809 50.2564 31.697 50.2201 31.7091 50.1879C32.0591 49.3168 31.6085 48.3409 31.2423 47.5546Z" fill="#3F4553"/>
<path d="M40.1466 95.5264C40.1264 96.2765 40.0218 98.2484 38.7826 97.8411C38.1227 97.6234 37.6479 96.8451 37.0243 96.5104C36.2719 96.1071 35.5999 97.2564 36.3523 97.6597C37.4628 98.2565 38.1589 99.5994 39.6235 99.1356C41.1726 98.6477 41.4341 96.9257 41.4703 95.5264C41.4985 94.6675 40.1707 94.6675 40.1466 95.5264Z" fill="white"/>
<path d="M33.8376 108.467C33.733 108.927 33.6324 109.387 33.5278 109.85C33.4795 110.076 33.4715 110.415 33.3548 110.617C33.2984 110.717 33.3065 110.758 33.3186 110.774C33.3025 110.77 33.2703 110.766 33.2019 110.766C32.8961 110.774 32.3247 110.35 32.0632 110.217C31.6488 110.008 31.2424 109.786 30.836 109.56C30.0876 109.141 29.4197 110.29 30.1641 110.709C30.8119 111.072 31.4677 111.419 32.1396 111.734C32.6144 111.959 33.1697 112.298 33.7209 112.137C34.1917 112 34.4492 111.584 34.59 111.141C34.8274 110.395 34.9441 109.584 35.1131 108.818C35.3062 107.987 34.0267 107.628 33.8376 108.467Z" fill="white"/>
<path d="M42.1303 104.092C41.9694 103.249 40.6899 103.608 40.8468 104.446C40.9554 105.027 41.2331 106.366 40.3881 106.584C40.0904 106.66 39.7564 106.41 39.515 106.273C39.1851 106.084 38.8591 105.91 38.497 105.789C37.6842 105.519 37.3342 106.802 38.143 107.076C38.7143 107.265 39.173 107.697 39.7604 107.854C40.3237 108.003 40.8911 107.906 41.3618 107.56C42.4804 106.729 42.3597 105.301 42.1303 104.092Z" fill="white"/>
<path d="M43.8806 111.794C43.8082 110.947 42.4804 110.939 42.5529 111.794C42.5851 112.161 42.5971 112.524 42.577 112.891C42.5569 113.234 42.4523 113.568 42.4161 113.903C42.3115 113.835 42.1948 113.762 42.1666 113.738C41.8528 113.512 41.5349 113.286 41.2211 113.06C40.525 112.56 39.8611 113.714 40.5491 114.21C41.2331 114.702 42.4845 116.028 43.3294 115.149C43.6674 114.798 43.7398 114.181 43.8123 113.722C43.9128 113.08 43.933 112.443 43.8806 111.794Z" fill="white"/>
<path d="M9.63973 72.5083C9.26956 73.2947 8.61371 74.8351 7.47504 74.5125C6.6502 74.2786 6.07483 72.8874 5.65236 72.226C5.19367 71.5082 4.0389 72.1736 4.50563 72.8995C5.2339 74.0367 6.02253 75.7908 7.57965 75.8755C9.22932 75.9642 10.1708 74.4883 10.7865 73.1818C11.1526 72.4115 10.0059 71.7341 9.63973 72.5083Z" fill="white"/>
<path d="M19.7148 71.0282C19.236 71.8509 18.6405 72.851 17.7956 73.3591C16.7977 73.96 15.6631 72.2421 15.0515 71.6049C14.456 70.9839 13.5185 71.9275 14.11 72.5485C15.0475 73.5244 16.1379 75.2625 17.7232 74.8431C19.1596 74.464 20.1615 72.8994 20.8616 71.7057C21.2961 70.9597 20.1494 70.2903 19.7148 71.0282Z" fill="white"/>
<path d="M28.8121 69.5281C28.45 70.2983 28.1039 71.5524 27.4119 72.113C26.8928 72.5324 26.4945 71.9234 26.1646 71.5403C25.8065 71.1209 25.4524 70.7016 25.0983 70.2862C24.543 69.6329 23.6055 70.5765 24.1568 71.2298C24.9454 72.1614 25.9674 73.9801 27.44 73.601C28.8563 73.234 29.4116 71.3548 29.9548 70.2015C30.325 69.4313 29.1782 68.7538 28.8121 69.5281Z" fill="white"/>
<path d="M38.1872 68.52C37.8452 68.9999 37.5032 69.4757 37.1612 69.9556C36.9117 70.3024 36.5013 71.1896 36.1351 71.3912C35.1051 71.9598 34.0791 70.3347 33.8135 69.5725C33.5319 68.77 32.2483 69.1128 32.53 69.9274C33.0008 71.2743 34.1676 72.7543 35.6966 72.9317C36.3725 73.0083 36.803 72.6736 37.2014 72.1736C37.9578 71.2219 38.6257 70.1855 39.3339 69.1975C39.8328 68.4958 38.6821 67.8304 38.1872 68.52Z" fill="white"/>
<path d="M13.615 81.4808C13.5225 82.3358 13.3334 84.098 12.1102 84.0738C11.2974 84.0577 10.2312 82.8842 9.61959 82.4245C8.93558 81.9083 8.27169 83.0656 8.94765 83.5738C10.0984 84.4367 11.4262 85.8885 12.9954 85.211C14.4922 84.5658 14.7899 82.9326 14.9468 81.4808C15.0353 80.63 13.7035 80.638 13.615 81.4808Z" fill="white"/>
<path d="M25.0784 79.4766C24.8893 80.4041 24.5392 81.6219 23.7788 82.2551C22.6683 83.1785 21.6543 81.6865 21.1232 80.8799C20.6525 80.1662 19.5017 80.8356 19.9765 81.5534C20.7812 82.7753 21.9722 84.223 23.6339 83.8238C25.2675 83.4326 26.0682 81.2913 26.3659 79.8315C26.5309 78.9927 25.2474 78.6338 25.0784 79.4766Z" fill="white"/>
<path d="M36.614 78.17C36.2116 79.0169 35.8052 80.1017 34.9201 80.4767C34.2079 80.7791 33.8297 80.4364 33.2905 79.9323C32.9163 79.5855 32.6347 79.1863 32.3772 78.7467C31.9426 78.0087 30.7959 78.6781 31.2304 79.4201C31.9305 80.6178 33.2422 82.0897 34.7591 82.0736C36.3524 82.0575 37.1853 80.0613 37.7647 78.8394C38.1269 78.0733 36.9801 77.3958 36.614 78.17Z" fill="white"/>
<path d="M17.7794 92.3325C17.5139 92.7761 17.2524 93.2197 16.9868 93.6633C16.8259 93.9335 16.4678 94.857 16.1942 94.9941C15.3693 95.4014 14.1944 93.8649 13.78 93.3286C13.2569 92.6511 12.3235 93.6028 12.8385 94.2722C13.5305 95.1675 15.0354 96.7604 16.3229 96.5144C16.8741 96.4095 17.1679 95.9498 17.4374 95.5022C17.9404 94.6755 18.4272 93.8407 18.9221 93.01C19.3647 92.268 18.218 91.5945 17.7794 92.3325Z" fill="white"/>
<path d="M26.237 89.9736C26.0318 90.768 25.38 93.2077 24.189 93.0303C23.493 92.9255 22.813 91.8165 22.2577 91.4011C21.5697 90.889 20.9058 92.0463 21.5858 92.5504C22.6561 93.3448 23.4004 94.8006 24.9736 94.2481C26.4784 93.7199 27.1625 91.7197 27.5165 90.3284C27.7298 89.4977 26.4503 89.1429 26.237 89.9736Z" fill="white"/>
<path d="M36.2478 86.5659C35.8293 87.4491 35.4753 88.6952 34.8235 89.4251C34.3084 90.0017 33.9543 89.7396 33.4997 89.2557C33.1134 88.8444 32.7312 88.429 32.3449 88.0136C31.7615 87.3846 30.824 88.3282 31.4034 88.9573C32.2644 89.8807 33.2985 91.5543 34.7832 91.0744C36.2639 90.5945 36.803 88.4935 37.3945 87.2394C37.7607 86.4651 36.6139 85.7876 36.2478 86.5659Z" fill="white"/>
<path d="M24.3219 101.862C24.1408 102.438 23.9517 103.011 23.7586 103.584C23.6902 103.789 23.6419 104.201 23.493 104.362C22.986 104.918 22.7124 104.519 22.4026 104.152C21.8715 103.531 21.4812 102.914 20.6362 102.717C19.8034 102.519 19.4493 103.805 20.2822 104.003C20.9863 104.168 21.276 104.979 21.7749 105.434C22.2256 105.846 22.8291 106.16 23.4568 106.064C24.0684 105.971 24.4466 105.523 24.6759 104.979C25.0542 104.092 25.3117 103.132 25.6054 102.212C25.8629 101.398 24.5834 101.047 24.3219 101.862Z" fill="white"/>
<path d="M32.86 98.7081C32.4134 99.4582 32.4456 100.406 31.9949 101.124C31.5926 101.765 30.977 101.382 30.4539 101.063C29.9952 100.785 29.5365 100.503 29.0778 100.224C28.3455 99.7768 27.6776 100.93 28.4059 101.374C29.4681 102.023 30.9045 103.338 32.2243 102.696C33.5521 102.051 33.3589 100.474 34.0067 99.3775C34.4453 98.6436 33.2986 97.9701 32.86 98.7081Z" fill="white"/>
<path d="M67.0523 89.0743C66.6056 88.7477 66.159 88.421 65.7084 88.0944C65.4187 87.8807 64.968 88.046 64.7991 88.3323C64.6019 88.6711 64.7467 89.03 65.0364 89.2437C65.483 89.5703 65.9297 89.897 66.3803 90.2236C66.67 90.4374 67.1206 90.272 67.2896 89.9857C67.4908 89.647 67.346 89.2881 67.0523 89.0743Z" fill="white"/>
<path d="M71.4821 91.3285C71.1119 90.7921 70.6774 90.3486 70.1583 89.9574C69.8727 89.7396 69.414 89.909 69.249 90.1953C69.0519 90.5341 69.2007 90.8889 69.4864 91.1067C69.76 91.3124 70.1302 91.7035 70.3354 91.9979C70.5406 92.2923 70.9188 92.4294 71.2447 92.2358C71.5344 92.0665 71.6873 91.6229 71.4821 91.3285Z" fill="white"/>
<path d="M68.9794 85.203C68.396 84.6787 67.8085 84.1545 67.2251 83.6262C66.5894 83.0536 65.6478 83.9932 66.2836 84.5698C66.867 85.0941 67.4545 85.6183 68.0379 86.1466C68.6736 86.7152 69.6192 85.7756 68.9794 85.203Z" fill="white"/>
<path d="M65.3704 68.7902C64.8071 68.4233 64.2961 67.9636 63.8857 67.4232C63.6684 67.1369 63.3143 66.9877 62.9763 67.1853C62.6947 67.3506 62.5217 67.8063 62.7389 68.0966C63.2902 68.8265 63.93 69.4395 64.6985 69.9395C65.4187 70.4113 66.0866 69.258 65.3704 68.7902Z" fill="white"/>
<path d="M70.8463 72.9721C70.3152 72.3914 69.8203 71.7785 69.3657 71.1333C69.1605 70.8389 68.7863 70.7018 68.4563 70.8953C68.1666 71.0647 68.0097 71.5123 68.219 71.8067C68.738 72.5447 69.2972 73.2504 69.9088 73.9158C70.4842 74.5448 71.4217 73.6012 70.8463 72.9721Z" fill="white"/>
<path d="M71.6915 78.4443C71.2248 77.8394 70.8023 77.1982 70.412 76.5409C69.9775 75.803 68.8268 76.4724 69.2653 77.2144C69.712 77.9725 70.2109 78.6903 70.75 79.3879C70.9713 79.6743 71.4582 79.6178 71.6915 79.3879C71.9732 79.1016 71.9128 78.7266 71.6915 78.4443Z" fill="white"/>
<path d="M76.2701 79.7629C75.7753 79.033 75.2844 78.2991 74.7895 77.5692C74.3147 76.8635 73.16 77.5289 73.6428 78.2427C74.1377 78.9726 74.6285 79.7065 75.1234 80.4364C75.6022 81.1421 76.753 80.4767 76.2701 79.7629Z" fill="white"/>
<path d="M76.1254 84.8965C75.6265 84.215 75.0953 83.5617 74.5119 82.9488C73.9204 82.3277 72.983 83.2714 73.5704 83.8924C74.0734 84.4207 74.5441 84.9772 74.9746 85.57C75.1879 85.8603 75.55 86.0055 75.884 85.8079C76.1737 85.6385 76.3386 85.1869 76.1254 84.8965Z" fill="white"/>
<path d="M61.3226 69.1936L59.7735 67.7499C59.1458 67.1652 58.2043 68.1047 58.832 68.6935C59.347 69.1734 59.866 69.6573 60.3811 70.1372C61.0087 70.7179 61.9503 69.7783 61.3226 69.1936Z" fill="white"/>
<path d="M65.9699 74.307C65.4428 73.6859 64.9198 73.0609 64.3927 72.4399C64.1593 72.1656 63.6926 72.2019 63.4512 72.4399C63.1816 72.7141 63.2178 73.1052 63.4512 73.3835L65.0284 75.2506C65.2618 75.5248 65.7285 75.4885 65.9699 75.2506C66.2395 74.9804 66.2033 74.5852 65.9699 74.307Z" fill="white"/>
<path d="M70.1383 80.8599C69.5911 80.2268 69.0439 79.5896 68.4967 78.9565C67.9375 78.3072 67 79.2509 67.5552 79.9001C68.1024 80.5332 68.6496 81.1704 69.1968 81.8035C69.7561 82.4528 70.6936 81.5051 70.1383 80.8599Z" fill="white"/>
<path d="M57.452 70.4315C57.0013 69.8065 56.5507 69.1855 56.1 68.5604C55.8908 68.2701 55.5206 68.1289 55.1907 68.3225C54.905 68.4919 54.7401 68.9395 54.9533 69.2338C55.404 69.8589 55.8546 70.4799 56.3052 71.105C56.5145 71.3953 56.8846 71.5365 57.2146 71.3429C57.5003 71.1735 57.6652 70.7219 57.452 70.4315Z" fill="white"/>
<path d="M54.3013 73.0203C53.9151 72.4517 53.4966 71.9073 53.0419 71.3912C52.8045 71.121 52.3458 71.1492 52.1004 71.3912C51.8348 71.6573 51.863 72.0646 52.1004 72.3348C52.4786 72.7663 52.8287 73.2179 53.1506 73.6938C53.3518 73.9922 53.734 74.1212 54.0599 73.9317C54.3577 73.7583 54.5025 73.3188 54.3013 73.0203Z" fill="white"/>
<path d="M52.3621 77.0691C51.8028 76.3715 51.2395 75.6739 50.6802 74.9762C50.4549 74.6939 49.9761 74.7423 49.7387 74.9762C49.461 75.2545 49.5134 75.6376 49.7387 75.9198C50.298 76.6175 50.8613 77.3151 51.4206 78.0128C51.6459 78.2951 52.1247 78.2467 52.3621 78.0128C52.6397 77.7305 52.5874 77.3474 52.3621 77.0691Z" fill="white"/>
<path d="M52.9052 83.3118C52.523 82.8037 52.1407 82.2956 51.7625 81.7834C51.5452 81.4971 51.1871 81.3479 50.8532 81.5455C50.5715 81.7108 50.3985 82.1665 50.6158 82.4569C50.998 82.965 51.3803 83.4731 51.7585 83.9852C51.9758 84.2716 52.3339 84.4208 52.6678 84.2232C52.9495 84.0578 53.1225 83.6021 52.9052 83.3118Z" fill="white"/>
<path d="M57.637 78.4443C57.0777 77.9765 56.5667 77.4482 56.1402 76.8594C55.931 76.5691 55.5608 76.4239 55.2309 76.6215C54.9452 76.7909 54.7802 77.2385 54.9935 77.5329C55.4924 78.2184 56.0517 78.8435 56.6995 79.3879C56.9731 79.6178 57.3714 79.6581 57.641 79.3879C57.8744 79.15 57.9106 78.6741 57.637 78.4443Z" fill="white"/>
<path d="M61.0692 75.452C60.695 74.8632 60.3208 74.2745 59.9507 73.6817C59.492 72.9598 58.3412 73.6293 58.8039 74.3551C59.1781 74.9439 59.5523 75.5327 59.9225 76.1255C60.3772 76.8473 61.5279 76.1779 61.0692 75.452Z" fill="white"/>
<path d="M58.1319 84.9651C57.6893 84.2997 57.2427 83.6344 56.8001 82.969C56.3253 82.2592 55.1745 82.9246 55.6533 83.6424C56.0959 84.3078 56.5426 84.9732 56.9852 85.6386C57.4559 86.3483 58.6067 85.6829 58.1319 84.9651Z" fill="white"/>
<path d="M57.1018 90.8527C56.8121 90.4777 56.5224 90.1026 56.2327 89.7276C56.0114 89.4413 55.5246 89.4977 55.2912 89.7276C55.0096 90.0099 55.0699 90.3849 55.2912 90.6712C55.5809 91.0463 55.8706 91.4213 56.1603 91.7964C56.3816 92.0827 56.8685 92.0262 57.1018 91.7964C57.3795 91.5141 57.3231 91.139 57.1018 90.8527Z" fill="white"/>
<path d="M62.3527 83.6181L61.1456 81.9446C60.9364 81.6542 60.5662 81.5131 60.2362 81.7066C59.9506 81.876 59.7856 82.3236 59.9988 82.618C60.4012 83.1745 60.8036 83.735 61.2059 84.2915C61.4151 84.5819 61.7853 84.723 62.1153 84.5294C62.4009 84.3601 62.5659 83.9125 62.3527 83.6181Z" fill="white"/>
<path d="M65.3142 80.1703C64.8555 79.5533 64.4008 78.9322 63.9422 78.3152C63.7289 78.0249 63.3668 77.8797 63.0328 78.0773C62.7472 78.2427 62.5781 78.6983 62.7954 78.9887C63.2541 79.6057 63.7088 80.2267 64.1675 80.8437C64.3807 81.134 64.7428 81.2792 65.0768 81.0816C65.3584 80.9163 65.5274 80.4606 65.3142 80.1703Z" fill="white"/>
<path d="M62.2843 89.1993C61.8014 88.9251 61.395 88.5621 61.0892 88.0984C60.8921 87.8 60.5018 87.6709 60.1799 87.8605C59.8822 88.0339 59.7413 88.4694 59.9425 88.7718C60.3731 89.4251 60.9363 89.9655 61.6163 90.3526C62.3567 90.772 63.0286 89.6227 62.2843 89.1993Z" fill="white"/>
<path d="M61.9543 95.095C61.4554 94.6716 61.0007 94.1957 60.6265 93.6594C60.4213 93.365 60.0471 93.2279 59.7172 93.4215C59.4275 93.5908 59.2706 94.0385 59.4798 94.3329C59.9224 94.962 60.4294 95.5386 61.0168 96.0387C61.2904 96.2726 61.6887 96.3089 61.9583 96.0387C62.1957 95.7967 62.2319 95.3289 61.9543 95.095Z" fill="white"/>
<path d="M65.829 96.0749C65.8894 96.1192 65.7445 96.0063 65.7324 95.9983C65.6681 95.9418 65.6037 95.8813 65.5433 95.8208C65.4387 95.716 65.3462 95.6031 65.2939 95.5305C65.0847 95.2402 64.7145 95.099 64.3846 95.2926C64.0949 95.4619 63.9379 95.9096 64.1472 96.2039C64.4328 96.6072 64.7588 96.9338 65.1571 97.2242C65.4468 97.4379 65.8974 97.2726 66.0664 96.9863C66.2636 96.6475 66.1187 96.2886 65.829 96.0749Z" fill="white"/>
</svg>
