<svg width="24" height="24" viewBox="0 0 24 24" fill="none" xmlns="http://www.w3.org/2000/svg">
<path fill-rule="evenodd" clip-rule="evenodd" d="M22.8011 12.2614C22.8011 11.4459 22.7279 10.6618 22.592 9.90909H11.7611V14.3575H17.9502C17.6836 15.795 16.8734 17.013 15.6554 17.8284V20.7139H19.372C21.5466 18.7118 22.8011 15.7636 22.8011 12.2614Z" fill="#4285F4"/>
<path fill-rule="evenodd" clip-rule="evenodd" d="M11.761 23.4998C14.866 23.4998 17.4692 22.4701 19.3719 20.7137L15.6553 17.8283C14.6256 18.5183 13.3083 18.926 11.761 18.926C8.7658 18.926 6.23057 16.903 5.32625 14.1848H1.48421V17.1644C3.37648 20.9228 7.26557 23.4998 11.761 23.4998Z" fill="#34A853"/>
<path fill-rule="evenodd" clip-rule="evenodd" d="M5.32634 14.1851C5.09634 13.4951 4.96565 12.758 4.96565 12.0001C4.96565 11.2421 5.09634 10.5051 5.32634 9.81506V6.83551H1.48429C0.705427 8.38801 0.261108 10.1444 0.261108 12.0001C0.261108 13.8557 0.705427 15.6121 1.48429 17.1646L5.32634 14.1851Z" fill="#FBBC05"/>
<path fill-rule="evenodd" clip-rule="evenodd" d="M11.761 5.07386C13.4494 5.07386 14.9653 5.65409 16.1572 6.79364L19.4556 3.49523C17.464 1.63955 14.8608 0.5 11.761 0.5C7.26557 0.5 3.37648 3.07705 1.48421 6.83545L5.32625 9.815C6.23057 7.09682 8.7658 5.07386 11.761 5.07386Z" fill="#EA4335"/>
</svg>
