<svg width="182" height="116" viewBox="0 0 182 116" fill="none" xmlns="http://www.w3.org/2000/svg">
<rect x="0.999985" y="7.62939e-06" width="180" height="115" rx="20" fill="#FFCF86"/>
<path d="M66.0971 33.8144C43.7281 10.7872 13.3786 13.641 0.999985 17.9463L0.999985 96.9177C5.89319 111.384 17.0194 115 21.9709 115L159.592 115C176.718 110.867 181 101.223 181 96.9177L181 29.3861C152.689 19.0533 126.68 36.3975 117.214 46.3612C103.233 31.6002 77.3107 31.8462 66.0971 33.8144Z" fill="#F5C371" stroke="#F5C371"/>
<g style="mix-blend-mode:overlay">
<path d="M86.2043 90.0525C87.9344 90.6611 89.6895 91.2423 91.4793 91.7878C101.224 94.7747 112.066 94.9483 122.4 92.6074C122.933 92.869 123.468 93.136 123.992 93.406C124.723 93.786 125.415 94.1762 125.898 94.799C126.348 95.3837 126.615 96.3324 126.182 97.0816C126.164 97.113 126.148 97.1408 126.126 97.1702C125.595 97.9693 124.526 98.0863 123.769 98.1087C122.287 98.1501 120.75 97.9969 119.321 97.6826C119.848 97.9871 120.367 98.3145 120.867 98.6587C121.696 99.2305 122.053 99.8221 121.935 100.414C121.841 100.866 121.443 101.249 120.917 101.387C120.462 101.505 119.991 101.442 119.583 101.374C118.208 101.143 116.83 100.723 115.555 100.173C115.667 100.261 115.772 100.354 115.876 100.447C116.505 101.028 116.919 101.899 116.93 102.663C116.937 103.191 116.761 103.648 116.413 103.986C115.899 104.488 115.105 104.662 113.976 104.512C111.961 104.245 110.105 103.475 108.222 102.639C102.058 99.9116 96.0348 96.7131 90.3233 93.1368C88.8777 92.2371 87.4114 91.2604 86.2043 90.0525Z" fill="#0D6EFD"/>
<path d="M115.628 96.7632L116.906 97.5012C117.612 97.9085 116.98 99.0026 116.275 98.5953L114.996 97.8573C114.293 97.4465 114.919 96.3539 115.628 96.7632Z" fill="white"/>
<path d="M117.878 94.6567L118.975 95.2898C119.68 95.6971 119.048 96.7913 118.343 96.384L117.246 95.7509C116.541 95.3436 117.173 94.2494 117.878 94.6567Z" fill="white"/>
<path d="M122.101 94.3025L123.198 94.9356C123.903 95.3429 123.271 96.437 122.566 96.0297L121.469 95.3966C120.764 94.9893 121.396 93.8952 122.101 94.3025Z" fill="white"/>
<path d="M92.6916 92.5108L94.4273 93.5129C95.1327 93.9202 94.501 95.0144 93.7956 94.6071L92.0599 93.605C91.3544 93.1977 91.9861 92.1035 92.6916 92.5108Z" fill="white"/>
<path d="M97.3607 94.965L99.4596 96.1768C100.165 96.5841 99.5333 97.6782 98.8279 97.2709L96.729 96.0591C96.029 95.6504 96.6552 94.5577 97.3607 94.965Z" fill="white"/>
<path d="M102.593 97.5075C103.192 97.8018 103.794 98.0982 104.394 98.3891C105.128 98.7476 104.492 99.8397 103.762 99.4832C103.164 99.1889 102.562 98.8925 101.962 98.6016C101.228 98.2431 101.863 97.151 102.593 97.5075Z" fill="white"/>
<path d="M107.183 99.6881C107.364 99.3745 107.736 99.3106 108.047 99.4576C108.491 99.6722 108.937 99.8834 109.382 100.098C109.693 100.245 109.775 100.683 109.614 100.962C109.433 101.275 109.061 101.339 108.75 101.192C108.306 100.977 107.86 100.766 107.415 100.552C107.106 100.401 107.022 99.9669 107.183 99.6881Z" fill="white"/>
<path d="M101.661 94.7435C101.74 94.4364 102.11 94.1757 102.433 94.2928C103.121 94.5457 103.77 94.8558 104.382 95.2556C105.062 95.6992 104.434 96.7954 103.751 96.3498C103.236 96.0154 102.693 95.7298 102.117 95.518C101.795 95.3974 101.57 95.0951 101.661 94.7435Z" fill="white"/>
<path d="M109.476 96.9745L110.573 97.6076C111.278 98.0149 110.646 99.1091 109.941 98.7018L108.844 98.0686C108.139 97.6614 108.771 96.5672 109.476 96.9745Z" fill="white"/>
<path d="M113.215 100.838L114.584 101.629C115.289 102.036 114.658 103.13 113.952 102.723L112.583 101.932C111.88 101.522 112.506 100.429 113.215 100.838Z" fill="white"/>
<path d="M110.595 95.6737C110.31 95.4814 110.183 95.1202 110.362 94.8101C110.523 94.5313 110.942 94.3873 111.227 94.5796C111.595 94.8293 111.976 95.0311 112.4 95.1687C112.724 95.2768 112.945 95.5951 112.853 95.9411C112.769 96.2553 112.41 96.4985 112.08 96.3918C111.55 96.2207 111.051 95.9883 110.595 95.6737Z" fill="white"/>
<path d="M154.793 87.9259C154.554 87.8627 154.313 87.9418 154.154 88.1052L147.259 84.4172C146.935 84.2441 146.52 84.3667 146.358 84.6869C146.185 85.01 146.306 85.4142 146.63 85.5872L153.253 89.1325L153.122 93.3123C153.111 93.6778 153.398 93.9874 153.767 94.0009C154.023 94.0093 154.246 93.8732 154.365 93.6676C154.417 93.577 154.45 93.4708 154.455 93.3575L154.534 90.8427L155.926 93.1982C156.111 93.5143 156.52 93.6203 156.836 93.4358C156.941 93.3754 157.018 93.29 157.072 93.1959C157.189 92.9938 157.195 92.7416 157.069 92.5247L155.23 89.4099L157.927 90.1116C158.222 90.1891 158.524 90.0524 158.669 89.8015C158.699 89.7492 158.72 89.6964 158.737 89.6361C158.83 89.281 158.615 88.9198 158.259 88.826L154.793 87.9259Z" fill="white"/>
<path d="M166.676 74.2466L163.206 73.3444C162.968 73.2812 162.727 73.3603 162.567 73.5237L155.673 69.8356C155.349 69.6626 154.931 69.7887 154.772 70.1054C154.599 70.4285 154.72 70.8327 155.044 71.0057L161.667 74.551L161.535 78.7308C161.525 79.0963 161.812 79.4059 162.181 79.4194C162.437 79.4278 162.66 79.2917 162.778 79.0861C162.831 78.9955 162.864 78.8893 162.869 78.776L162.947 76.2612L164.339 78.6167C164.525 78.9328 164.934 79.0388 165.25 78.8543C165.355 78.794 165.432 78.7085 165.486 78.6144C165.603 78.4123 165.609 78.1602 165.483 77.9433L163.644 74.8284L166.34 75.5301C166.635 75.6076 166.938 75.4709 167.083 75.22C167.113 75.1677 167.134 75.1149 167.15 75.0546C167.245 74.705 167.032 74.3404 166.676 74.2466Z" fill="white"/>
<path d="M151.737 6.98385C151.172 6.96381 150.611 7.37872 150.369 7.99161C150.164 8.51482 150.19 9.08272 150.249 9.61834C150.421 11.1438 150.843 12.6376 151.254 14.0874L152.926 19.9913C151.855 17.0548 150.524 14.2143 148.945 11.5138C148.018 9.93333 146.942 8.34556 145.346 7.45657C144.736 7.1182 144.185 6.9674 143.663 6.99154C142.986 7.02781 142.388 7.39362 142.139 7.93756C141.816 8.6339 142.104 9.41793 142.394 10.0217C143.833 13.0456 146.213 15.4793 148.517 17.8362C149.719 19.0691 150.95 20.3326 152.053 21.6804C150.741 20.2351 149.365 18.8275 147.861 17.569C145.009 15.1787 142.081 13.6513 139.151 13.0327C138.794 12.9569 138.384 12.9102 138.063 13.1431C137.559 13.5074 137.661 14.226 137.906 14.7297C138.753 16.5055 140.58 17.4771 142.539 18.399L152.747 23.1961C151.623 26.4823 147.611 27.9711 145.71 28.5045C139.972 30.1118 134.266 27.1148 129.234 24.4744L128.816 24.256C121.337 20.3375 115.019 17.1264 108.481 14.2068C94.4648 7.94047 78.2579 2.44427 64.3044 9.16731C59.1296 11.662 54.5711 16.0411 51.1266 21.8298C46.4284 29.701 44.8052 38.5856 46.4083 47.5117C47.9196 55.9433 52.1803 63.9924 58.7304 70.7941C65.6925 78.0194 74.3796 83.402 81.1729 87.2823C85.1747 89.5695 88.529 91.3249 91.7277 92.8093C96.1024 94.8379 100.151 96.3344 104.105 97.3814C120.258 101.657 137.519 97.4241 149.153 86.3377C152.651 83.005 155.555 79.3295 157.839 75.3746C161.486 69.0571 163.545 62.0315 163.881 54.578C164.456 41.9522 161.295 30.9329 154.73 22.5612C156.457 17.8672 155.932 12.3885 153.246 8.13801C152.944 7.65251 152.455 7.00771 151.737 6.98385Z" fill="#FFCB14"/>
<path d="M138.535 31.4563C133.963 30.7539 130.062 30.8481 126.602 31.7357C122.385 32.8224 118.887 35.1379 116.759 38.2673C114.372 41.7812 113.9 46.3083 115.553 49.8087C117.691 54.3323 122.645 56.3241 125.407 57.1056C131.549 58.8486 138.398 58.3334 144.195 55.6873C145.309 55.178 146.576 54.5158 147.522 53.4498C147.832 53.0989 148.087 52.7213 148.285 52.3294C148.731 51.444 148.869 50.4875 148.662 49.62C148.121 47.356 143.704 47.0544 141.241 47.101C141.572 46.9715 143.721 46.0653 144.041 45.9063C144.958 45.4464 145.603 44.9176 146.016 44.2916C146.557 43.4751 146.662 42.4949 146.292 41.7329C145.653 40.4117 143.958 40.1533 142.553 40.0713L138.297 40.1277C138.954 39.9819 140.916 39.5352 141.504 39.2013C143.022 38.3396 144.293 36.4116 143.662 34.5371C143.115 32.9113 141.439 31.902 138.535 31.4563Z" fill="#0D6EFD"/>
<path d="M92.9372 34.9351C92.0917 34.5445 91.0271 34.6221 90.088 35.1438C89.3652 35.5489 88.7105 36.207 88.0878 37.1484C87.336 38.2893 86.8012 39.5463 86.4951 40.8749C86.3713 41.412 86.2483 42.1169 86.3778 42.8282C86.5112 43.5649 86.9275 44.1909 87.4868 44.5045C88.3205 44.9719 89.3122 44.7221 89.9599 44.3341C90.6247 43.9328 91.2543 43.4553 91.8281 42.9131C92.5874 42.1947 93.2417 41.3598 93.7568 40.4678C93.9097 40.2029 94.0521 39.9321 94.1785 39.6566C94.9401 38.0149 94.6262 35.7197 92.9372 34.9351Z" fill="white"/>
<path d="M69.9448 62.2017C69.3041 62.5612 68.7227 63.1408 68.1729 63.9803C67.5065 64.9893 67.0327 66.1003 66.7626 67.2778C66.655 67.7546 66.5438 68.3827 66.6566 69.01C66.7748 69.6682 67.1463 70.2265 67.6462 70.5059C68.3926 70.9229 69.2777 70.7045 69.8563 70.3556C70.448 70.0002 71.0038 69.5778 71.5089 69.0982C72.1785 68.4626 72.762 67.7263 73.2187 66.9353C73.3534 66.7018 73.4798 66.4588 73.5916 66.2167C74.2706 64.7503 73.9903 62.7115 72.484 62.0137C71.7298 61.6666 70.7812 61.7368 69.9448 62.2017Z" fill="white"/>
<path d="M65.8927 48.5166C65.5677 48.8215 65.5504 49.3272 65.8508 49.6539C67.2413 51.149 67.7864 53.3825 67.2442 55.346C67.031 56.1104 66.6825 56.7222 66.2332 57.1132C65.6069 57.6576 64.6273 57.8865 63.675 57.7131C62.8032 57.5536 61.9001 57.0693 61.0634 56.3167C60.7325 56.0188 60.2235 56.0455 59.9259 56.3755C59.6283 56.7054 59.656 57.2139 59.9869 57.5118C61.0464 58.4673 62.2215 59.0854 63.3881 59.2989C64.8349 59.5674 66.2974 59.2038 67.2973 58.3269C67.6553 58.0133 67.961 57.6369 68.2165 57.1944C68.458 56.7762 68.6521 56.3029 68.7969 55.7779C69.4894 53.2879 68.7919 50.4553 67.0314 48.5607C66.7311 48.234 66.2192 48.2173 65.8927 48.5166Z" fill="#3F4553"/>
<path d="M80.8422 27.6964C80.4419 27.5025 79.9609 27.6662 79.7656 28.0691C79.5722 28.4685 79.7405 28.9513 80.1407 29.1452C81.1344 29.626 81.8718 30.744 82.0199 31.9957C82.1559 33.1474 81.8299 34.4459 81.1089 35.6465C80.7202 36.2955 80.3243 36.6988 79.9073 36.8808C79.3846 37.1087 78.6699 37.0399 77.9933 36.6957C77.2921 36.3374 76.6718 35.7423 76.0719 35.1683C75.7506 34.8619 75.2391 34.8687 74.9331 35.1891C74.627 35.5095 74.6347 36.0204 74.9561 36.3267C75.6088 36.9544 76.3452 37.663 77.2639 38.1284C78.3842 38.6962 79.5837 38.7801 80.555 38.3559C81.289 38.0363 81.9195 37.4201 82.4882 36.4754C82.5144 36.4301 82.5426 36.3813 82.5687 36.336C83.4177 34.8655 83.7887 33.2631 83.6183 31.8081C83.4072 30.0043 82.3394 28.4261 80.8422 27.6964Z" fill="#3F4553"/>
<path d="M86.0187 55.2579C85.8588 55.2446 85.7099 55.2283 85.57 55.2126C84.4886 55.0854 83.3948 55.0764 82.3241 55.197C80.6338 55.3826 79.482 55.9581 78.9078 56.9042C78.5357 57.5164 78.4347 58.2479 78.3807 58.9462C78.2907 60.1022 78.438 61.3069 78.5789 62.4662C78.6464 63.0348 78.7199 63.6254 78.7569 64.1904C78.9465 66.8784 79.334 69.5785 79.9132 72.2127C80.0456 72.8141 80.3598 73.1489 80.7539 73.1116C81.1935 73.068 81.3736 72.5866 81.4422 72.4032L83.4265 67.063C83.6271 68.4657 83.9393 69.8121 84.2693 71.2246C84.3683 71.6581 84.4728 72.0901 84.5697 72.527C84.6544 72.8965 84.7791 73.2612 85.1195 73.4298C85.5881 73.6586 86.0932 73.3322 86.3848 72.9803C86.5094 72.8291 86.6199 72.6699 86.7165 72.5027C87.2335 71.6072 87.3662 70.5223 87.4754 69.6236L88.596 60.3513C88.6207 60.1472 88.6474 59.9396 88.6742 59.732C88.7687 58.9875 88.8684 58.218 88.888 57.4581C88.9013 56.9594 88.8052 56.5693 88.5978 56.2591C88.5779 56.2291 88.5545 56.197 88.5326 56.1704C87.9533 55.4317 86.8828 55.334 86.0187 55.2579Z" fill="#3F4553"/>
<path d="M132.016 71.5326C132.655 71.9251 134.311 73.0017 133.338 73.8712C132.82 74.3338 131.908 74.3559 131.307 74.7286C130.581 75.1786 131.241 76.3351 131.966 75.8852C133.038 75.2218 134.549 75.2905 134.88 73.7902C135.232 72.2047 133.871 71.1173 132.678 70.3862C131.948 69.9324 131.284 71.0823 132.016 71.5326Z" fill="white"/>
<path d="M140.068 83.4667C140.414 83.7871 140.762 84.1041 141.111 84.4266C141.283 84.5813 141.572 84.7577 141.688 84.9595C141.747 85.0587 141.786 85.0719 141.806 85.0695C141.795 85.0815 141.775 85.1073 141.741 85.1665C141.595 85.4354 140.943 85.7185 140.697 85.8784C140.308 86.1325 139.913 86.3735 139.514 86.6126C138.776 87.051 139.438 88.2041 140.173 87.7691C140.811 87.3896 141.44 86.995 142.048 86.5704C142.481 86.2721 143.052 85.9606 143.188 85.4026C143.304 84.9263 143.074 84.4956 142.76 84.1519C142.232 83.5733 141.589 83.067 141.01 82.5375C140.387 81.9549 139.436 82.8835 140.068 83.4667Z" fill="white"/>
<path d="M140.425 74.0972C139.615 73.8152 139.286 75.1027 140.091 75.3862C140.648 75.5825 141.946 76.0115 141.712 76.8521C141.63 77.1483 141.246 77.3125 141.007 77.453C140.678 77.6439 140.365 77.8395 140.079 78.0926C139.439 78.6614 140.374 79.6057 141.016 79.0424C141.466 78.6424 142.069 78.4609 142.499 78.0308C142.91 77.6176 143.109 77.0779 143.044 76.4968C142.884 75.1127 141.588 74.5035 140.425 74.0972Z" fill="white"/>
<path d="M147.971 76.4326C147.201 76.0719 146.53 77.2177 147.307 77.5825C147.641 77.7381 147.961 77.9091 148.269 78.11C148.556 78.2988 148.793 78.5568 149.065 78.7555C148.953 78.8118 148.832 78.8766 148.797 78.8889C148.445 79.0477 148.09 79.2101 147.738 79.369C146.957 79.7218 147.623 80.8734 148.397 80.5255C149.165 80.1792 150.94 79.7589 150.601 78.5876C150.466 78.1194 149.968 77.7482 149.606 77.4556C149.101 77.0479 148.559 76.7119 147.971 76.4326Z" fill="white"/>
<path d="M96.828 86.4433C97.3239 87.157 98.3301 88.4952 97.4813 89.32C96.8664 89.9174 95.3738 89.7201 94.5898 89.7553C93.7389 89.7936 93.7377 91.1264 94.5997 91.0851C95.9487 91.023 97.8621 91.2171 98.7141 89.9109C99.6157 88.5266 98.8083 86.9733 97.9846 85.7869C97.5006 85.0847 96.3405 85.739 96.828 86.4433Z" fill="white"/>
<path d="M100.584 76.9779C101.057 77.8039 101.625 78.8197 101.643 79.8055C101.664 80.9701 99.6092 81.0938 98.7516 81.3048C97.916 81.51 98.2645 82.7938 99.098 82.592C100.412 82.2681 102.462 82.1928 102.892 80.6102C103.282 79.1767 102.428 77.5267 101.744 76.3236C101.315 75.5742 100.162 76.2326 100.584 76.9779Z" fill="white"/>
<path d="M103.833 68.3494C104.319 69.0481 105.232 69.9749 105.372 70.8545C105.475 71.5137 104.749 71.5542 104.252 71.6484C103.71 71.7488 103.17 71.8457 102.633 71.9447C101.79 72.0989 102.138 73.3826 102.979 73.2319C104.18 73.0147 106.266 73.039 106.675 71.5741C107.065 70.1641 105.715 68.7436 104.988 67.6965C104.506 66.9908 103.346 67.6452 103.833 68.3494Z" fill="white"/>
<path d="M107.648 59.7263C107.892 60.2624 108.133 60.7965 108.378 61.3327C108.554 61.7221 109.117 62.5211 109.108 62.939C109.086 64.1154 107.165 64.1914 106.372 64.0403C105.537 63.8829 105.192 65.1659 106.038 65.3293C107.44 65.595 109.305 65.3245 110.223 64.0891C110.627 63.542 110.553 63.0018 110.319 62.4068C109.873 61.2759 109.309 60.1792 108.808 59.072C108.45 58.289 107.298 58.9529 107.648 59.7263Z" fill="white"/>
<path d="M106.586 87.4868C107.28 87.9944 108.712 89.0393 108.079 90.0865C107.659 90.7823 106.109 91.119 105.406 91.4187C104.617 91.753 105.287 92.9067 106.065 92.5753C107.388 92.0102 109.309 91.5862 109.507 89.8885C109.696 88.2696 108.431 87.1952 107.252 86.3334C106.559 85.8313 105.9 86.9887 106.586 87.4868Z" fill="white"/>
<path d="M110.582 76.5571C111.291 77.1847 112.17 78.0967 112.338 79.0719C112.583 80.4953 110.784 80.6274 109.82 80.6841C108.966 80.7349 108.971 82.0662 109.83 82.0139C111.29 81.9279 113.139 81.6204 113.625 79.9816C114.103 78.3713 112.648 76.6073 111.533 75.6195C110.889 75.0573 109.937 75.9894 110.582 76.5571Z" fill="white"/>
<path d="M115.218 65.9137C115.751 66.6856 116.487 67.5799 116.369 68.534C116.275 69.302 115.789 69.4582 115.083 69.6731C114.595 69.8237 114.109 69.868 113.599 69.8713C112.743 69.8786 112.749 71.2064 113.609 71.2011C114.996 71.1936 116.927 70.7936 117.671 69.4719C118.454 68.084 117.142 66.3646 116.373 65.2519C115.891 64.5552 114.731 65.2095 115.218 65.9137Z" fill="white"/>
<path d="M118.066 89.3062C118.317 89.7579 118.571 90.2062 118.822 90.658C118.976 90.9325 119.596 91.7043 119.578 92.0098C119.519 92.9278 117.601 93.1771 116.929 93.2678C116.081 93.3821 116.438 94.6663 117.275 94.555C118.397 94.4033 120.529 93.8965 120.959 92.6585C121.144 92.1287 120.893 91.6445 120.64 91.1872C120.176 90.3383 119.696 89.4993 119.224 88.6553C118.803 87.901 117.646 88.5574 118.066 89.3062Z" fill="white"/>
<path d="M120.252 80.8022C120.837 81.3771 122.624 83.1615 121.875 84.1042C121.436 84.6546 120.136 84.689 119.499 84.9622C118.711 85.3019 119.381 86.4556 120.158 86.1187C121.381 85.589 123.014 85.6723 123.322 84.0336C123.617 82.4663 122.227 80.8738 121.199 79.8716C120.586 79.2715 119.639 80.2022 120.252 80.8022Z" fill="white"/>
<path d="M122.306 70.4288C122.862 71.2328 123.764 72.1624 124.07 73.0919C124.312 73.8262 123.908 74.0018 123.262 74.1536C122.712 74.2825 122.161 74.4058 121.609 74.5327C120.772 74.7234 121.121 76.0071 121.955 75.8199C123.185 75.5359 125.152 75.4771 125.478 73.9514C125.803 72.4292 124.253 70.9117 123.463 69.7724C122.975 69.0682 121.815 69.7226 122.306 70.4288Z" fill="white"/>
<path d="M129.59 88.4048C129.999 88.8499 130.4 89.3 130.799 89.7536C130.943 89.9157 131.275 90.1631 131.341 90.3727C131.569 91.09 131.087 91.1274 130.614 91.2122C129.81 91.3616 129.081 91.3911 128.487 92.0241C127.9 92.6466 128.837 93.5964 129.424 92.9739C129.92 92.4468 130.766 92.6012 131.411 92.397C131.992 92.2124 132.566 91.8469 132.796 91.255C133.022 90.6789 132.823 90.1276 132.466 89.6568C131.887 88.8856 131.185 88.1827 130.535 87.4687C129.959 86.8383 129.015 87.771 129.59 88.4048Z" fill="white"/>
<path d="M131.128 79.4338C131.554 80.1957 132.391 80.6416 132.787 81.3908C133.141 82.0598 132.502 82.4014 131.964 82.6951C131.494 82.9532 131.02 83.2093 130.55 83.4674C129.796 83.8778 130.461 85.0329 131.209 84.624C132.303 84.0287 134.159 83.4421 134.264 81.9785C134.369 80.506 132.907 79.8849 132.281 78.7755C131.865 78.0287 130.708 78.685 131.128 79.4338Z" fill="white"/>
<path d="M139.881 45.0055C139.375 45.229 138.868 45.4525 138.36 45.6794C138.03 45.8234 137.948 46.2964 138.112 46.5859C138.306 46.926 138.69 46.98 139.02 46.836C139.526 46.6125 140.032 46.389 140.54 46.1621C140.87 46.0181 140.952 45.5452 140.789 45.2556C140.596 44.912 140.213 44.858 139.881 45.0055Z" fill="white"/>
<path d="M144.048 42.2962C143.398 42.3486 142.797 42.5032 142.199 42.7571C141.867 42.8956 141.785 43.3775 141.95 43.6635C142.145 44.0036 142.527 44.0522 142.858 43.9136C143.173 43.7795 143.697 43.6545 144.054 43.624C144.412 43.5935 144.72 43.3345 144.715 42.9555C144.713 42.6199 144.406 42.2657 144.048 42.2962Z" fill="white"/>
<path d="M137.492 41.4008C136.746 41.644 135.998 41.8906 135.249 42.1317C134.435 42.396 134.778 43.6812 135.596 43.4189C136.341 43.1758 137.089 42.9291 137.838 42.688C138.649 42.4218 138.308 41.1331 137.492 41.4008Z" fill="white"/>
<path d="M121.473 36.32C120.874 36.6244 120.22 36.837 119.547 36.9223C119.191 36.9673 118.884 37.1993 118.886 37.5908C118.889 37.9174 119.197 38.2951 119.557 38.2521C120.465 38.1397 121.315 37.8921 122.133 37.4766C122.901 37.0887 122.237 35.9336 121.473 36.32Z" fill="white"/>
<path d="M127.833 33.6686C127.065 33.8382 126.286 33.9603 125.5 34.0315C125.143 34.062 124.837 34.3175 124.839 34.7C124.841 35.0356 125.15 35.3953 125.51 35.3613C126.409 35.2807 127.299 35.1493 128.181 34.9523C129.014 34.7686 128.666 33.4849 127.833 33.6686Z" fill="white"/>
<path d="M132.995 35.6727C132.237 35.7745 131.471 35.8198 130.707 35.8291C129.85 35.8365 129.855 37.1677 130.716 37.1589C131.596 37.1512 132.467 37.078 133.341 36.9599C133.7 36.9114 133.894 36.4616 133.812 36.1445C133.705 35.7575 133.35 35.6222 132.995 35.6727Z" fill="white"/>
<path d="M136.426 32.3669C135.546 32.4305 134.665 32.4887 133.786 32.5523C132.937 32.6106 132.936 33.9434 133.796 33.8821C134.675 33.8185 135.556 33.7603 136.436 33.6967C137.286 33.6349 137.285 32.3056 136.426 32.3669Z" fill="white"/>
<path d="M140.799 35.059C139.96 35.1504 139.128 35.2837 138.306 35.4825C137.472 35.6842 137.821 36.9679 138.652 36.7696C139.361 36.5982 140.079 36.4688 140.807 36.3923C141.165 36.3528 141.472 36.1118 141.468 35.7238C141.466 35.3882 141.157 35.0195 140.799 35.059Z" fill="white"/>
<path d="M119.799 40.0272L117.774 40.6469C116.954 40.8981 117.297 42.1832 118.12 41.934C118.794 41.728 119.472 41.5204 120.145 41.3143C120.962 41.0611 120.619 39.7759 119.799 40.0272Z" fill="white"/>
<path d="M126.551 38.5591C125.749 38.7051 124.947 38.8455 124.145 38.9915C123.791 39.0565 123.589 39.4788 123.674 39.8069C123.777 40.1775 124.134 40.3417 124.492 40.2787L126.897 39.8463C127.251 39.7813 127.453 39.359 127.368 39.0309C127.269 38.6624 126.908 38.4962 126.551 38.5591Z" fill="white"/>
<path d="M134.31 38.2256C133.488 38.383 132.663 38.5383 131.841 38.6956C130.999 38.8553 131.347 40.139 132.187 39.9828C133.009 39.8255 133.835 39.6701 134.656 39.5128C135.498 39.3531 135.146 38.0674 134.31 38.2256Z" fill="white"/>
<path d="M118.936 43.9982C118.169 44.0759 117.406 44.1557 116.639 44.2335C116.283 44.2695 115.976 44.5195 115.979 44.902C115.982 45.2341 116.288 45.6008 116.649 45.5633C117.416 45.4855 118.179 45.4058 118.945 45.328C119.302 45.292 119.609 45.042 119.606 44.6595C119.602 44.3274 119.294 43.9587 118.936 43.9982Z" fill="white"/>
<path d="M119.602 48.0211C118.917 48.0713 118.236 48.1615 117.562 48.2972C117.209 48.3677 117.004 48.7791 117.091 49.1126C117.189 49.4757 117.555 49.6549 117.908 49.5844C118.471 49.4726 119.037 49.3953 119.61 49.3544C119.969 49.3294 120.272 49.0629 120.271 48.6859C120.27 48.3413 119.961 47.9961 119.602 48.0211Z" fill="white"/>
<path d="M122.139 51.725C121.255 51.8605 120.369 51.9996 119.486 52.1351C119.128 52.1891 118.931 52.6279 119.015 52.9505C119.117 53.33 119.475 53.4763 119.832 53.4223C120.716 53.2868 121.602 53.1477 122.485 53.0122C122.843 52.9582 123.04 52.5194 122.956 52.1968C122.851 51.8152 122.493 51.669 122.139 51.725Z" fill="white"/>
<path d="M127.817 54.3759C127.186 54.4529 126.554 54.5299 125.922 54.6014C125.565 54.6464 125.257 54.8819 125.261 55.2699C125.263 55.5965 125.572 55.9742 125.932 55.9312C126.563 55.8542 127.194 55.7772 127.827 55.7058C128.183 55.6608 128.492 55.4252 128.487 55.0372C128.485 54.7106 128.177 54.3329 127.817 54.3759Z" fill="white"/>
<path d="M125.967 47.8444C125.283 48.0948 124.57 48.2732 123.846 48.3482C123.49 48.3842 123.18 48.6322 123.186 49.0168C123.19 49.3488 123.495 49.7155 123.856 49.678C124.7 49.5887 125.52 49.4169 126.316 49.1281C126.652 49.0061 126.886 48.6813 126.787 48.3127C126.697 47.9916 126.303 47.7224 125.967 47.8444Z" fill="white"/>
<path d="M125.092 43.3759C124.395 43.4055 123.698 43.4352 123 43.4594C122.145 43.4957 122.15 44.827 123.01 44.7892C123.707 44.7595 124.404 44.7299 125.102 44.7057C125.954 44.6729 125.95 43.3416 125.092 43.3759Z" fill="white"/>
<path d="M131.862 50.6762C131.064 50.7268 130.265 50.7809 129.467 50.8315C128.615 50.8878 128.616 52.2171 129.477 52.1613C130.275 52.1107 131.074 52.0566 131.872 52.006C132.722 51.9532 132.721 50.6239 131.862 50.6762Z" fill="white"/>
<path d="M136.446 54.512C135.976 54.5754 135.506 54.6387 135.037 54.7021C134.678 54.7506 134.484 55.2004 134.566 55.5175C134.67 55.9025 135.025 56.0378 135.383 55.9893C135.853 55.9259 136.323 55.8626 136.792 55.7992C137.151 55.7507 137.345 55.3008 137.263 54.9838C137.157 54.6022 136.804 54.4635 136.446 54.512Z" fill="white"/>
<path d="M132.806 46.3474L130.753 46.556C130.397 46.592 130.09 46.842 130.092 47.2245C130.096 47.5566 130.401 47.9233 130.763 47.8858C131.446 47.8156 132.133 47.7474 132.816 47.6772C133.172 47.6412 133.479 47.3911 133.476 47.0086C133.473 46.6765 133.167 46.3099 132.806 46.3474Z" fill="white"/>
<path d="M131.301 42.0587C130.537 42.1474 129.772 42.2307 129.008 42.3194C128.65 42.3589 128.343 42.5999 128.347 42.988C128.348 43.318 128.658 43.6922 129.018 43.6492C129.782 43.5605 130.547 43.4772 131.311 43.3885C131.669 43.349 131.975 43.108 131.971 42.72C131.969 42.3934 131.659 42.0192 131.301 42.0587Z" fill="white"/>
<path d="M137.605 49.1972C137.126 49.4782 136.609 49.6487 136.054 49.6817C135.697 49.7032 135.39 49.9767 135.393 50.3502C135.395 50.6948 135.701 51.0345 136.064 51.0115C136.845 50.9653 137.595 50.7476 138.27 50.3523C139.003 49.9208 138.344 48.7643 137.605 49.1972Z" fill="white"/>
<path d="M142.546 52.4308C141.93 52.6511 141.29 52.807 140.639 52.8628C140.281 52.8934 139.975 53.1489 139.978 53.5314C139.98 53.8669 140.289 54.2267 140.649 54.1927C141.415 54.1239 142.168 53.9732 142.894 53.7145C143.234 53.5945 143.464 53.2677 143.365 52.8991C143.274 52.5725 142.887 52.3073 142.546 52.4308Z" fill="white"/>
<path d="M145.332 49.5652C145.4 49.5351 145.23 49.6041 145.217 49.6105C145.136 49.638 145.052 49.6635 144.969 49.6856C144.826 49.7237 144.682 49.7474 144.593 49.7564C144.237 49.7924 143.929 50.0424 143.932 50.4249C143.934 50.7605 144.243 51.1202 144.603 51.0862C145.095 51.0405 145.541 50.9215 145.991 50.7217C146.321 50.5777 146.403 50.1048 146.24 49.8153C146.045 49.4752 145.662 49.4212 145.332 49.5652Z" fill="white"/>
</g>
<path d="M17.256 91.304C17.748 91.304 18.18 91.244 18.552 91.124C18.93 91.004 19.245 90.836 19.497 90.62C19.749 90.398 19.938 90.137 20.064 89.837C20.19 89.531 20.253 89.195 20.253 88.829C20.253 88.085 20.007 87.524 19.515 87.146C19.029 86.768 18.297 86.579 17.319 86.579L15.51 86.579L15.51 91.304L17.256 91.304ZM23.286 98L21.576 98C21.234 98 20.985 97.865 20.829 97.595L17.634 93.113C17.532 92.963 17.421 92.858 17.301 92.798C17.181 92.732 17.001 92.699 16.761 92.699L15.51 92.699L15.51 98L13.593 98L13.593 85.076L17.319 85.076C18.153 85.076 18.87 85.163 19.47 85.337C20.076 85.505 20.574 85.748 20.964 86.066C21.36 86.378 21.651 86.756 21.837 87.2C22.029 87.644 22.125 88.142 22.125 88.694C22.125 89.144 22.056 89.567 21.918 89.963C21.78 90.359 21.576 90.716 21.306 91.034C21.042 91.346 20.718 91.616 20.334 91.844C19.95 92.072 19.515 92.246 19.029 92.366C19.269 92.51 19.476 92.711 19.65 92.969L23.286 98ZM30.0478 92.411C30.0478 92.063 29.9968 91.742 29.8948 91.448C29.7988 91.154 29.6548 90.899 29.4628 90.683C29.2708 90.467 29.0368 90.299 28.7608 90.179C28.4848 90.059 28.1668 89.999 27.8068 89.999C27.0688 89.999 26.4868 90.212 26.0608 90.638C25.6408 91.064 25.3738 91.655 25.2598 92.411L30.0478 92.411ZM31.4968 96.695C31.2808 96.947 31.0318 97.166 30.7498 97.352C30.4678 97.532 30.1678 97.679 29.8498 97.793C29.5318 97.907 29.2018 97.991 28.8598 98.045C28.5238 98.099 28.1908 98.126 27.8608 98.126C27.2308 98.126 26.6458 98.021 26.1058 97.811C25.5718 97.595 25.1068 97.283 24.7108 96.875C24.3208 96.461 24.0148 95.951 23.7928 95.345C23.5768 94.733 23.4688 94.031 23.4688 93.239C23.4688 92.603 23.5678 92.012 23.7658 91.466C23.9638 90.914 24.2458 90.434 24.6118 90.026C24.9838 89.618 25.4368 89.297 25.9708 89.063C26.5048 88.829 27.1048 88.712 27.7708 88.712C28.3288 88.712 28.8418 88.805 29.3098 88.991C29.7838 89.171 30.1918 89.435 30.5338 89.783C30.8758 90.131 31.1428 90.56 31.3348 91.07C31.5328 91.58 31.6318 92.162 31.6318 92.816C31.6318 93.086 31.6018 93.269 31.5418 93.365C31.4818 93.455 31.3708 93.5 31.2088 93.5L25.2148 93.5C25.2328 94.046 25.3108 94.523 25.4488 94.931C25.5868 95.333 25.7758 95.669 26.0158 95.939C26.2618 96.209 26.5528 96.41 26.8888 96.542C27.2248 96.674 27.5998 96.74 28.0138 96.74C28.4038 96.74 28.7398 96.695 29.0218 96.605C29.3098 96.515 29.5558 96.419 29.7598 96.317C29.9698 96.209 30.1438 96.11 30.2818 96.02C30.4258 95.93 30.5518 95.885 30.6598 95.885C30.8038 95.885 30.9148 95.939 30.9928 96.047L31.4968 96.695ZM39.4132 91.07C39.1252 90.692 38.8132 90.428 38.4772 90.278C38.1472 90.128 37.7752 90.053 37.3612 90.053C36.5572 90.053 35.9332 90.344 35.4892 90.926C35.0512 91.502 34.8322 92.345 34.8322 93.455C34.8322 94.037 34.8802 94.535 34.9762 94.949C35.0782 95.357 35.2222 95.693 35.4082 95.957C35.6002 96.215 35.8342 96.407 36.1102 96.533C36.3862 96.653 36.6982 96.713 37.0462 96.713C37.5562 96.713 37.9972 96.599 38.3692 96.371C38.7412 96.143 39.0892 95.822 39.4132 95.408L39.4132 91.07ZM41.1772 84.716L41.1772 98L40.1152 98C39.8692 98 39.7162 97.883 39.6562 97.649L39.5032 96.596C39.1132 97.058 38.6692 97.43 38.1712 97.712C37.6792 97.988 37.1092 98.126 36.4612 98.126C35.9392 98.126 35.4652 98.024 35.0392 97.82C34.6192 97.616 34.2592 97.319 33.9592 96.929C33.6592 96.533 33.4282 96.044 33.2662 95.462C33.1042 94.88 33.0232 94.211 33.0232 93.455C33.0232 92.777 33.1132 92.147 33.2932 91.565C33.4732 90.983 33.7342 90.479 34.0762 90.053C34.4182 89.627 34.8322 89.294 35.3182 89.054C35.8042 88.808 36.3532 88.685 36.9652 88.685C37.5172 88.685 37.9852 88.775 38.3692 88.955C38.7592 89.135 39.1072 89.39 39.4132 89.72L39.4132 84.716L41.1772 84.716ZM51.2306 88.856L51.2306 98L50.1776 98C49.9376 98 49.7816 97.883 49.7096 97.649L49.5836 96.731C49.3856 96.941 49.1786 97.133 48.9626 97.307C48.7466 97.481 48.5156 97.631 48.2696 97.757C48.0236 97.877 47.7626 97.97 47.4866 98.036C47.2106 98.108 46.9136 98.144 46.5956 98.144C46.0916 98.144 45.6476 98.06 45.2636 97.892C44.8856 97.724 44.5676 97.49 44.3096 97.19C44.0516 96.884 43.8566 96.518 43.7246 96.092C43.5926 95.666 43.5266 95.195 43.5266 94.679L43.5266 88.856L45.2906 88.856L45.2906 94.679C45.2906 95.333 45.4406 95.843 45.7406 96.209C46.0406 96.569 46.4996 96.749 47.1176 96.749C47.5676 96.749 47.9876 96.644 48.3776 96.434C48.7676 96.218 49.1336 95.924 49.4756 95.552L49.4756 88.856L51.2306 88.856ZM60.0883 90.566C60.0343 90.632 59.9803 90.686 59.9263 90.728C59.8783 90.764 59.8063 90.782 59.7103 90.782C59.6143 90.782 59.5123 90.746 59.4043 90.674C59.3023 90.596 59.1703 90.515 59.0083 90.431C58.8523 90.341 58.6603 90.26 58.4323 90.188C58.2103 90.11 57.9343 90.071 57.6043 90.071C57.1723 90.071 56.7913 90.149 56.4613 90.305C56.1313 90.461 55.8553 90.683 55.6333 90.971C55.4173 91.259 55.2523 91.61 55.1383 92.024C55.0243 92.438 54.9673 92.903 54.9673 93.419C54.9673 93.953 55.0273 94.43 55.1473 94.85C55.2673 95.264 55.4383 95.615 55.6603 95.903C55.8823 96.185 56.1523 96.401 56.4703 96.551C56.7883 96.695 57.1423 96.767 57.5323 96.767C57.9103 96.767 58.2223 96.722 58.4683 96.632C58.7143 96.536 58.9183 96.434 59.0803 96.326C59.2423 96.218 59.3773 96.119 59.4853 96.029C59.5933 95.933 59.7043 95.885 59.8183 95.885C59.9623 95.885 60.0733 95.939 60.1513 96.047L60.6553 96.695C60.4453 96.953 60.2083 97.172 59.9443 97.352C59.6863 97.532 59.4103 97.679 59.1163 97.793C58.8223 97.907 58.5133 97.991 58.1893 98.045C57.8713 98.099 57.5473 98.126 57.2173 98.126C56.6473 98.126 56.1133 98.021 55.6153 97.811C55.1233 97.601 54.6943 97.295 54.3283 96.893C53.9683 96.491 53.6833 95.999 53.4733 95.417C53.2633 94.829 53.1583 94.163 53.1583 93.419C53.1583 92.741 53.2513 92.114 53.4373 91.538C53.6293 90.962 53.9083 90.467 54.2743 90.053C54.6463 89.633 55.1023 89.306 55.6423 89.072C56.1823 88.832 56.8003 88.712 57.4963 88.712C58.1503 88.712 58.7263 88.817 59.2243 89.027C59.7223 89.237 60.1663 89.534 60.5563 89.918L60.0883 90.566ZM68.1923 92.411C68.1923 92.063 68.1413 91.742 68.0393 91.448C67.9433 91.154 67.7993 90.899 67.6073 90.683C67.4153 90.467 67.1813 90.299 66.9053 90.179C66.6293 90.059 66.3113 89.999 65.9513 89.999C65.2133 89.999 64.6313 90.212 64.2053 90.638C63.7853 91.064 63.5183 91.655 63.4043 92.411L68.1923 92.411ZM69.6413 96.695C69.4253 96.947 69.1763 97.166 68.8943 97.352C68.6123 97.532 68.3123 97.679 67.9943 97.793C67.6763 97.907 67.3463 97.991 67.0043 98.045C66.6683 98.099 66.3353 98.126 66.0053 98.126C65.3753 98.126 64.7903 98.021 64.2503 97.811C63.7163 97.595 63.2513 97.283 62.8553 96.875C62.4653 96.461 62.1593 95.951 61.9373 95.345C61.7213 94.733 61.6133 94.031 61.6133 93.239C61.6133 92.603 61.7123 92.012 61.9103 91.466C62.1083 90.914 62.3903 90.434 62.7563 90.026C63.1283 89.618 63.5813 89.297 64.1153 89.063C64.6493 88.829 65.2493 88.712 65.9153 88.712C66.4733 88.712 66.9863 88.805 67.4543 88.991C67.9283 89.171 68.3363 89.435 68.6783 89.783C69.0203 90.131 69.2873 90.56 69.4793 91.07C69.6773 91.58 69.7763 92.162 69.7763 92.816C69.7763 93.086 69.7463 93.269 69.6863 93.365C69.6263 93.455 69.5153 93.5 69.3533 93.5L63.3593 93.5C63.3773 94.046 63.4553 94.523 63.5933 94.931C63.7313 95.333 63.9203 95.669 64.1603 95.939C64.4063 96.209 64.6973 96.41 65.0333 96.542C65.3693 96.674 65.7443 96.74 66.1583 96.74C66.5483 96.74 66.8843 96.695 67.1663 96.605C67.4543 96.515 67.7003 96.419 67.9043 96.317C68.1143 96.209 68.2883 96.11 68.4263 96.02C68.5703 95.93 68.6963 95.885 68.8043 95.885C68.9483 95.885 69.0593 95.939 69.1373 96.047L69.6413 96.695ZM83.2624 87.182C83.2024 87.284 83.1394 87.359 83.0734 87.407C83.0074 87.455 82.9234 87.479 82.8214 87.479C82.7134 87.479 82.5904 87.431 82.4524 87.335C82.3144 87.233 82.1404 87.122 81.9304 87.002C81.7264 86.876 81.4804 86.765 81.1924 86.669C80.9044 86.567 80.5594 86.516 80.1574 86.516C79.7794 86.516 79.4464 86.567 79.1584 86.669C78.8764 86.765 78.6394 86.9 78.4474 87.074C78.2554 87.242 78.1084 87.443 78.0064 87.677C77.9104 87.905 77.8624 88.154 77.8624 88.424C77.8624 88.772 77.9494 89.06 78.1234 89.288C78.3034 89.516 78.5374 89.711 78.8254 89.873C79.1134 90.035 79.4404 90.176 79.8064 90.296C80.1724 90.416 80.5474 90.542 80.9314 90.674C81.3154 90.8 81.6904 90.947 82.0564 91.115C82.4224 91.283 82.7494 91.496 83.0374 91.754C83.3254 92.006 83.5564 92.318 83.7304 92.69C83.9104 93.056 84.0004 93.506 84.0004 94.04C84.0004 94.61 83.9014 95.144 83.7034 95.642C83.5114 96.14 83.2294 96.575 82.8574 96.947C82.4854 97.319 82.0264 97.613 81.4804 97.829C80.9404 98.039 80.3254 98.144 79.6354 98.144C79.2214 98.144 78.8194 98.102 78.4294 98.018C78.0394 97.94 77.6704 97.829 77.3224 97.685C76.9744 97.535 76.6474 97.358 76.3414 97.154C76.0414 96.944 75.7714 96.71 75.5314 96.452L76.0804 95.534C76.1344 95.462 76.1974 95.402 76.2694 95.354C76.3474 95.306 76.4344 95.282 76.5304 95.282C76.6564 95.282 76.8004 95.348 76.9624 95.48C77.1304 95.612 77.3344 95.759 77.5744 95.921C77.8204 96.077 78.1114 96.221 78.4474 96.353C78.7894 96.485 79.2034 96.551 79.6894 96.551C80.0854 96.551 80.4394 96.5 80.7514 96.398C81.0634 96.29 81.3244 96.14 81.5344 95.948C81.7504 95.75 81.9154 95.513 82.0294 95.237C82.1434 94.961 82.2004 94.655 82.2004 94.319C82.2004 93.941 82.1134 93.632 81.9394 93.392C81.7654 93.152 81.5344 92.951 81.2464 92.789C80.9584 92.627 80.6314 92.489 80.2654 92.375C79.8994 92.261 79.5244 92.144 79.1404 92.024C78.7564 91.898 78.3814 91.754 78.0154 91.592C77.6494 91.43 77.3224 91.22 77.0344 90.962C76.7464 90.698 76.5154 90.371 76.3414 89.981C76.1674 89.585 76.0804 89.099 76.0804 88.523C76.0804 88.061 76.1704 87.614 76.3504 87.182C76.5304 86.75 76.7914 86.369 77.1334 86.039C77.4814 85.703 77.9074 85.436 78.4114 85.238C78.9154 85.034 79.4914 84.932 80.1394 84.932C80.8654 84.932 81.5314 85.049 82.1374 85.283C82.7494 85.511 83.2804 85.841 83.7304 86.273L83.2624 87.182ZM88.4641 98.144C87.7261 98.144 87.1561 97.937 86.7541 97.523C86.3581 97.109 86.1601 96.518 86.1601 95.75L86.1601 90.278L85.0981 90.278C84.9961 90.278 84.9091 90.248 84.8371 90.188C84.7711 90.122 84.7381 90.026 84.7381 89.9L84.7381 89.189L86.2231 88.982L86.6191 86.255C86.6431 86.153 86.6881 86.075 86.7541 86.021C86.8261 85.961 86.9161 85.931 87.0241 85.931L87.9151 85.931L87.9151 89L90.5071 89L90.5071 90.278L87.9151 90.278L87.9151 95.633C87.9151 95.993 88.0021 96.263 88.1761 96.443C88.3561 96.617 88.5841 96.704 88.8601 96.704C89.0221 96.704 89.1601 96.683 89.2741 96.641C89.3941 96.599 89.4961 96.554 89.5801 96.506C89.6641 96.452 89.7361 96.404 89.7961 96.362C89.8561 96.32 89.9101 96.299 89.9581 96.299C90.0181 96.299 90.0631 96.314 90.0931 96.344C90.1291 96.368 90.1651 96.41 90.2011 96.47L90.7231 97.316C90.4351 97.58 90.0931 97.784 89.6971 97.928C89.3011 98.072 88.8901 98.144 88.4641 98.144ZM93.7796 90.611C94.0736 90.011 94.4276 89.54 94.8416 89.198C95.2556 88.856 95.7536 88.685 96.3356 88.685C96.5336 88.685 96.7196 88.709 96.8936 88.757C97.0736 88.799 97.2296 88.865 97.3616 88.955L97.2446 90.278C97.2026 90.44 97.1036 90.521 96.9476 90.521C96.8636 90.521 96.7376 90.506 96.5696 90.476C96.4016 90.44 96.2216 90.422 96.0296 90.422C95.7476 90.422 95.4986 90.464 95.2826 90.548C95.0666 90.626 94.8716 90.746 94.6976 90.908C94.5296 91.064 94.3796 91.259 94.2476 91.493C94.1156 91.721 93.9926 91.982 93.8786 92.276L93.8786 98L92.1236 98L92.1236 88.856L93.1316 88.856C93.3236 88.856 93.4526 88.892 93.5186 88.964C93.5906 89.03 93.6416 89.15 93.6716 89.324L93.7796 90.611ZM104.438 92.411C104.438 92.063 104.387 91.742 104.285 91.448C104.189 91.154 104.045 90.899 103.853 90.683C103.661 90.467 103.427 90.299 103.151 90.179C102.875 90.059 102.557 89.999 102.197 89.999C101.459 89.999 100.877 90.212 100.451 90.638C100.031 91.064 99.7644 91.655 99.6504 92.411L104.438 92.411ZM105.887 96.695C105.671 96.947 105.422 97.166 105.14 97.352C104.858 97.532 104.558 97.679 104.24 97.793C103.922 97.907 103.592 97.991 103.25 98.045C102.914 98.099 102.581 98.126 102.251 98.126C101.621 98.126 101.036 98.021 100.496 97.811C99.9624 97.595 99.4974 97.283 99.1014 96.875C98.7114 96.461 98.4054 95.951 98.1834 95.345C97.9674 94.733 97.8594 94.031 97.8594 93.239C97.8594 92.603 97.9584 92.012 98.1564 91.466C98.3544 90.914 98.6364 90.434 99.0024 90.026C99.3744 89.618 99.8274 89.297 100.361 89.063C100.895 88.829 101.495 88.712 102.161 88.712C102.719 88.712 103.232 88.805 103.7 88.991C104.174 89.171 104.582 89.435 104.924 89.783C105.266 90.131 105.533 90.56 105.725 91.07C105.923 91.58 106.022 92.162 106.022 92.816C106.022 93.086 105.992 93.269 105.932 93.365C105.872 93.455 105.761 93.5 105.599 93.5L99.6054 93.5C99.6234 94.046 99.7014 94.523 99.8394 94.931C99.9774 95.333 100.166 95.669 100.406 95.939C100.652 96.209 100.943 96.41 101.279 96.542C101.615 96.674 101.99 96.74 102.404 96.74C102.794 96.74 103.13 96.695 103.412 96.605C103.7 96.515 103.946 96.419 104.15 96.317C104.36 96.209 104.534 96.11 104.672 96.02C104.816 95.93 104.942 95.885 105.05 95.885C105.194 95.885 105.305 95.939 105.383 96.047L105.887 96.695ZM113.3 90.431C113.252 90.509 113.201 90.566 113.147 90.602C113.093 90.632 113.024 90.647 112.94 90.647C112.844 90.647 112.736 90.614 112.616 90.548C112.502 90.482 112.361 90.41 112.193 90.332C112.031 90.254 111.839 90.182 111.617 90.116C111.395 90.05 111.131 90.017 110.825 90.017C110.573 90.017 110.342 90.05 110.132 90.116C109.928 90.176 109.754 90.263 109.61 90.377C109.466 90.485 109.355 90.617 109.277 90.773C109.199 90.923 109.16 91.085 109.16 91.259C109.16 91.487 109.226 91.676 109.358 91.826C109.496 91.976 109.673 92.105 109.889 92.213C110.111 92.321 110.36 92.42 110.636 92.51C110.918 92.594 111.203 92.684 111.491 92.78C111.785 92.876 112.07 92.987 112.346 93.113C112.628 93.233 112.877 93.386 113.093 93.572C113.315 93.752 113.492 93.971 113.624 94.229C113.762 94.487 113.831 94.802 113.831 95.174C113.831 95.6 113.753 95.996 113.597 96.362C113.447 96.722 113.222 97.034 112.922 97.298C112.628 97.562 112.262 97.769 111.824 97.919C111.386 98.069 110.885 98.144 110.321 98.144C109.691 98.144 109.109 98.039 108.575 97.829C108.041 97.619 107.594 97.352 107.234 97.028L107.648 96.353C107.696 96.269 107.756 96.206 107.828 96.164C107.9 96.116 107.996 96.092 108.116 96.092C108.23 96.092 108.347 96.134 108.467 96.218C108.587 96.302 108.731 96.395 108.899 96.497C109.067 96.593 109.271 96.683 109.511 96.767C109.751 96.845 110.051 96.884 110.411 96.884C110.711 96.884 110.972 96.848 111.194 96.776C111.416 96.698 111.599 96.596 111.743 96.47C111.893 96.338 112.004 96.188 112.076 96.02C112.148 95.852 112.184 95.675 112.184 95.489C112.184 95.249 112.115 95.051 111.977 94.895C111.845 94.733 111.668 94.595 111.446 94.481C111.23 94.367 110.981 94.268 110.699 94.184C110.417 94.1 110.129 94.01 109.835 93.914C109.541 93.818 109.253 93.707 108.971 93.581C108.689 93.455 108.437 93.296 108.215 93.104C107.999 92.912 107.822 92.678 107.684 92.402C107.552 92.126 107.486 91.79 107.486 91.394C107.486 91.04 107.558 90.701 107.702 90.377C107.852 90.053 108.065 89.768 108.341 89.522C108.623 89.276 108.968 89.081 109.376 88.937C109.79 88.787 110.261 88.712 110.789 88.712C111.395 88.712 111.941 88.808 112.427 89C112.919 89.192 113.339 89.456 113.687 89.792L113.3 90.431ZM121.122 90.431C121.074 90.509 121.023 90.566 120.969 90.602C120.915 90.632 120.846 90.647 120.762 90.647C120.666 90.647 120.558 90.614 120.438 90.548C120.324 90.482 120.183 90.41 120.015 90.332C119.853 90.254 119.661 90.182 119.439 90.116C119.217 90.05 118.953 90.017 118.647 90.017C118.395 90.017 118.164 90.05 117.954 90.116C117.75 90.176 117.576 90.263 117.432 90.377C117.288 90.485 117.177 90.617 117.099 90.773C117.021 90.923 116.982 91.085 116.982 91.259C116.982 91.487 117.048 91.676 117.18 91.826C117.318 91.976 117.495 92.105 117.711 92.213C117.933 92.321 118.182 92.42 118.458 92.51C118.74 92.594 119.025 92.684 119.313 92.78C119.607 92.876 119.892 92.987 120.168 93.113C120.45 93.233 120.699 93.386 120.915 93.572C121.137 93.752 121.314 93.971 121.446 94.229C121.584 94.487 121.653 94.802 121.653 95.174C121.653 95.6 121.575 95.996 121.419 96.362C121.269 96.722 121.044 97.034 120.744 97.298C120.45 97.562 120.084 97.769 119.646 97.919C119.208 98.069 118.707 98.144 118.143 98.144C117.513 98.144 116.931 98.039 116.397 97.829C115.863 97.619 115.416 97.352 115.056 97.028L115.47 96.353C115.518 96.269 115.578 96.206 115.65 96.164C115.722 96.116 115.818 96.092 115.938 96.092C116.052 96.092 116.169 96.134 116.289 96.218C116.409 96.302 116.553 96.395 116.721 96.497C116.889 96.593 117.093 96.683 117.333 96.767C117.573 96.845 117.873 96.884 118.233 96.884C118.533 96.884 118.794 96.848 119.016 96.776C119.238 96.698 119.421 96.596 119.565 96.47C119.715 96.338 119.826 96.188 119.898 96.02C119.97 95.852 120.006 95.675 120.006 95.489C120.006 95.249 119.937 95.051 119.799 94.895C119.667 94.733 119.49 94.595 119.268 94.481C119.052 94.367 118.803 94.268 118.521 94.184C118.239 94.1 117.951 94.01 117.657 93.914C117.363 93.818 117.075 93.707 116.793 93.581C116.511 93.455 116.259 93.296 116.037 93.104C115.821 92.912 115.644 92.678 115.506 92.402C115.374 92.126 115.308 91.79 115.308 91.394C115.308 91.04 115.38 90.701 115.524 90.377C115.674 90.053 115.887 89.768 116.163 89.522C116.445 89.276 116.79 89.081 117.198 88.937C117.612 88.787 118.083 88.712 118.611 88.712C119.217 88.712 119.763 88.808 120.249 89C120.741 89.192 121.161 89.456 121.509 89.792L121.122 90.431Z" fill="white"/>
</svg>
