<svg width="180" height="115" viewBox="0 0 180 115" fill="none" xmlns="http://www.w3.org/2000/svg">
<path d="M0 20C0 8.95431 8.95431 0 20 0H160C171.046 0 180 8.95431 180 20V95C180 106.046 171.046 115 160 115H20C8.9543 115 0 106.046 0 95V20Z" fill="url(#paint0_linear_90_1953)"/>
<path d="M15.256 93.304C15.748 93.304 16.18 93.244 16.552 93.124C16.93 93.004 17.245 92.836 17.497 92.62C17.749 92.398 17.938 92.137 18.064 91.837C18.19 91.531 18.253 91.195 18.253 90.829C18.253 90.085 18.007 89.524 17.515 89.146C17.029 88.768 16.297 88.579 15.319 88.579L13.51 88.579L13.51 93.304L15.256 93.304ZM21.286 100L19.576 100C19.234 100 18.985 99.865 18.829 99.595L15.634 95.113C15.532 94.963 15.421 94.858 15.301 94.798C15.181 94.732 15.001 94.699 14.761 94.699L13.51 94.699L13.51 100L11.593 100L11.593 87.076L15.319 87.076C16.153 87.076 16.87 87.163 17.47 87.337C18.076 87.505 18.574 87.748 18.964 88.066C19.36 88.378 19.651 88.756 19.837 89.2C20.029 89.644 20.125 90.142 20.125 90.694C20.125 91.144 20.056 91.567 19.918 91.963C19.78 92.359 19.576 92.716 19.306 93.034C19.042 93.346 18.718 93.616 18.334 93.844C17.95 94.072 17.515 94.246 17.029 94.366C17.269 94.51 17.476 94.711 17.65 94.969L21.286 100ZM27.3618 95.941C26.6478 95.965 26.0418 96.022 25.5438 96.112C25.0458 96.196 24.6408 96.31 24.3288 96.454C24.0168 96.598 23.7918 96.769 23.6538 96.967C23.5158 97.159 23.4468 97.375 23.4468 97.615C23.4468 97.843 23.4828 98.041 23.5548 98.209C23.6328 98.371 23.7348 98.506 23.8608 98.614C23.9928 98.716 24.1458 98.791 24.3198 98.839C24.4938 98.887 24.6828 98.911 24.8868 98.911C25.1568 98.911 25.4028 98.884 25.6248 98.83C25.8528 98.776 26.0658 98.701 26.2638 98.605C26.4618 98.503 26.6508 98.38 26.8308 98.236C27.0108 98.092 27.1878 97.927 27.3618 97.741L27.3618 95.941ZM22.2138 92.134C22.7238 91.648 23.2758 91.285 23.8698 91.045C24.4698 90.805 25.1268 90.685 25.8408 90.685C26.3628 90.685 26.8248 90.772 27.2268 90.946C27.6288 91.114 27.9678 91.351 28.2438 91.657C28.5198 91.963 28.7268 92.329 28.8648 92.755C29.0088 93.181 29.0808 93.652 29.0808 94.168L29.0808 100L28.2978 100C28.1238 100 27.9918 99.973 27.9018 99.919C27.8118 99.859 27.7398 99.751 27.6858 99.595L27.4968 98.794C27.2628 99.01 27.0318 99.202 26.8038 99.37C26.5758 99.532 26.3358 99.673 26.0838 99.793C25.8378 99.907 25.5738 99.994 25.2918 100.054C25.0098 100.114 24.6978 100.144 24.3558 100.144C23.9958 100.144 23.6568 100.096 23.3388 100C23.0268 99.898 22.7538 99.745 22.5198 99.541C22.2858 99.337 22.0998 99.082 21.9618 98.776C21.8298 98.47 21.7638 98.113 21.7638 97.705C21.7638 97.345 21.8598 97 22.0518 96.67C22.2498 96.334 22.5678 96.034 23.0058 95.77C23.4498 95.506 24.0258 95.29 24.7338 95.122C25.4478 94.954 26.3238 94.858 27.3618 94.834L27.3618 94.168C27.3618 93.478 27.2148 92.962 26.9208 92.62C26.6268 92.278 26.1948 92.107 25.6248 92.107C25.2408 92.107 24.9168 92.155 24.6528 92.251C24.3948 92.347 24.1698 92.455 23.9778 92.575C23.7918 92.689 23.6268 92.794 23.4828 92.89C23.3448 92.986 23.2008 93.034 23.0508 93.034C22.9308 93.034 22.8258 93.001 22.7358 92.935C22.6518 92.869 22.5828 92.791 22.5288 92.701L22.2138 92.134ZM33.2663 90.856L33.2663 100L31.5113 100L31.5113 90.856L33.2663 90.856ZM33.5993 88.03C33.5993 88.192 33.5663 88.348 33.5003 88.498C33.4343 88.642 33.3443 88.771 33.2303 88.885C33.1223 88.993 32.9933 89.08 32.8433 89.146C32.6933 89.206 32.5373 89.236 32.3753 89.236C32.2133 89.236 32.0603 89.206 31.9163 89.146C31.7723 89.08 31.6433 88.993 31.5293 88.885C31.4213 88.771 31.3343 88.642 31.2683 88.498C31.2083 88.348 31.1783 88.192 31.1783 88.03C31.1783 87.862 31.2083 87.706 31.2683 87.562C31.3343 87.412 31.4213 87.283 31.5293 87.175C31.6433 87.061 31.7723 86.974 31.9163 86.914C32.0603 86.848 32.2133 86.815 32.3753 86.815C32.5373 86.815 32.6933 86.848 32.8433 86.914C32.9933 86.974 33.1223 87.061 33.2303 87.175C33.3443 87.283 33.4343 87.412 33.5003 87.562C33.5663 87.706 33.5993 87.862 33.5993 88.03ZM37.4542 92.125C37.6522 91.915 37.8592 91.723 38.0752 91.549C38.2912 91.375 38.5192 91.228 38.7592 91.108C39.0052 90.982 39.2662 90.886 39.5422 90.82C39.8242 90.748 40.1242 90.712 40.4422 90.712C40.9462 90.712 41.3872 90.796 41.7652 90.964C42.1492 91.132 42.4702 91.369 42.7282 91.675C42.9862 91.975 43.1812 92.338 43.3132 92.764C43.4452 93.19 43.5112 93.661 43.5112 94.177L43.5112 100L41.7472 100L41.7472 94.177C41.7472 93.523 41.5972 93.016 41.2972 92.656C40.9972 92.29 40.5382 92.107 39.9202 92.107C39.4702 92.107 39.0472 92.215 38.6512 92.431C38.2612 92.641 37.8982 92.929 37.5622 93.295L37.5622 100L35.8072 100L35.8072 90.856L36.8602 90.856C37.1062 90.856 37.2592 90.973 37.3192 91.207L37.4542 92.125Z" fill="#3F4553"/>
<path d="M163.671 18.2465C160.773 18.2465 158.057 19.1551 155.702 20.7345V20.7345C152.257 22.8181 147.404 23.154 143.447 22.4089C142.737 22.2751 142.008 22.2057 141.266 22.2057C138.32 22.2057 135.59 23.3022 133.342 25.171C130.909 27.1944 126.861 27.6902 123.697 27.6902V27.6902C122.953 27.6902 122.231 27.7977 121.541 28.0003C114.929 29.9403 120.501 37.7614 127.392 37.7614V37.7614H132.672H146.283V37.7614C146.869 37.7614 147.34 38.2364 147.367 38.821C147.827 49.1022 154.949 57.2654 163.671 57.2654C172.692 57.2654 180 48.5357 180 37.7614C179.991 26.9762 172.683 18.2465 163.671 18.2465Z" fill="url(#paint1_linear_90_1953)"/>
<path d="M79.7947 35.342V35.342C77.4251 35.342 74.7028 34.5334 73.3784 32.5685C70.4253 28.1872 65.9067 25.379 60.8308 25.379C59.6771 25.379 58.5517 25.5279 57.4668 25.8081C55.5108 26.3132 53.2543 25.4233 52.4446 23.5725V23.5725C48.6772 13.7934 40.4088 7 30.8091 7C17.6593 7 7 19.7323 7 35.4394C7 51.1465 17.6593 63.8788 30.8091 63.8788C31.8046 63.8788 32.786 63.8057 33.7495 63.6639C41.6353 62.5031 52.86 63.9112 60.8308 63.9112V63.9112C64.3561 63.9112 67.6176 62.5589 70.2705 60.2634C72.6808 58.1778 76.5983 57.7344 79.7856 57.7344V57.7344C84.9568 57.7344 89.1589 52.7258 89.1589 46.5382C89.1589 40.3506 84.9659 35.342 79.7947 35.342Z" fill="url(#paint2_linear_90_1953)"/>
<g style="mix-blend-mode:darken">
<path d="M87.271 77.6032C87.8402 78.6043 88.4306 79.6033 89.0495 80.5999C92.4126 86.0341 97.2755 90.6169 102.802 93.82C102.951 94.1631 103.099 94.5093 103.241 94.8524C103.438 95.3323 103.613 95.801 103.611 96.291C103.607 96.7493 103.391 97.3011 102.928 97.4696C102.909 97.4767 102.891 97.4829 102.871 97.4876C102.346 97.6384 101.819 97.249 101.466 96.9446C100.779 96.3488 100.135 95.6395 99.5978 94.8998C99.729 95.2603 99.8481 95.6278 99.9526 95.9953C100.126 96.6053 100.077 97.0285 99.8133 97.2543C99.6099 97.4257 99.2926 97.4385 99.0046 97.2838C98.7559 97.1499 98.5643 96.925 98.4033 96.7241C97.8612 96.0455 97.3845 95.2783 97.0012 94.4933C97.0208 94.5807 97.0353 94.6674 97.0497 94.754C97.1284 95.285 97.0066 95.8618 96.7399 96.2212C96.5547 96.4697 96.3128 96.6091 96.0343 96.6212C95.6222 96.6415 95.1999 96.3924 94.7405 95.854C93.92 94.8929 93.3508 93.7647 92.7932 92.5943C90.9637 88.7673 89.3662 84.7802 88.0444 80.7467C87.7079 79.7284 87.3894 78.6657 87.271 77.6032Z" fill="#0D6EFD"/>
<path d="M98.2477 92.9393L98.5657 93.8129C98.7412 94.2951 98.065 94.5413 97.8895 94.0591L97.5715 93.1854C97.3981 92.7024 98.0713 92.4547 98.2477 92.9393Z" fill="white"/>
<path d="M100.019 92.8947L100.292 93.6442C100.467 94.1264 99.7912 94.3725 99.6157 93.8903L99.3429 93.1408C99.1674 92.6586 99.8436 92.4125 100.019 92.8947Z" fill="white"/>
<path d="M102.063 94.4836L102.336 95.2332C102.512 95.7154 101.835 95.9615 101.66 95.4793L101.387 94.7298C101.212 94.2476 101.888 94.0015 102.063 94.4836Z" fill="white"/>
<path d="M89.3428 81.4392L89.7746 82.6256C89.9501 83.1078 89.2739 83.3539 89.0984 82.8718L88.6666 81.6854C88.4911 81.2032 89.1673 80.9571 89.3428 81.4392Z" fill="white"/>
<path d="M90.5904 84.5184L91.1125 85.9531C91.288 86.4353 90.6118 86.6814 90.4363 86.1992L89.9141 84.7646C89.7417 84.284 90.4149 84.0363 90.5904 84.5184Z" fill="white"/>
<path d="M92.0624 87.8726C92.2295 88.2579 92.3974 88.6455 92.5666 89.03C92.7722 89.5012 92.0951 89.7449 91.8903 89.2761C91.7233 88.8909 91.5554 88.5032 91.3862 88.1188C91.1805 87.6476 91.8576 87.4038 92.0624 87.8726Z" fill="white"/>
<path d="M93.3712 90.7917C93.565 90.7212 93.7568 90.846 93.8457 91.0434C93.9711 91.3276 94.0986 91.611 94.224 91.8951C94.3129 92.0926 94.1946 92.3303 94.0223 92.393C93.8285 92.4635 93.6367 92.3387 93.5478 92.1413C93.4224 91.8571 93.2949 91.5737 93.1695 91.2895C93.0827 91.0913 93.1989 90.8544 93.3712 90.7917Z" fill="white"/>
<path d="M92.6223 86.201C92.7677 86.0913 93.0282 86.1236 93.1335 86.3123C93.3558 86.7153 93.5406 87.1293 93.6763 87.5692C93.8272 88.0576 93.1519 88.3061 93 87.8153C92.8852 87.4462 92.7402 87.088 92.5539 86.7504C92.4508 86.5608 92.4557 86.3265 92.6223 86.201Z" fill="white"/>
<path d="M95.3782 90.4829L95.651 91.2324C95.8265 91.7146 95.1503 91.9607 94.9747 91.4785L94.7019 90.729C94.5264 90.2468 95.2027 90.0007 95.3782 90.4829Z" fill="white"/>
<path d="M95.7016 93.8308L96.0422 94.7666C96.2177 95.2487 95.5415 95.4949 95.366 95.0127L95.0254 94.077C94.852 93.594 95.5252 93.3463 95.7016 93.8308Z" fill="white"/>
<path d="M96.3492 90.3431C96.2883 90.1355 96.3592 89.915 96.5509 89.8452C96.7232 89.7825 96.9645 89.8893 97.0254 90.0969C97.1038 90.3658 97.2053 90.6181 97.3487 90.8578C97.4574 91.0426 97.4447 91.2825 97.2795 91.4048C97.1298 91.516 96.88 91.4799 96.7683 91.2935C96.5885 90.994 96.4445 90.6787 96.3492 90.3431Z" fill="white"/>
<path d="M119.181 105.095C119.095 104.967 118.957 104.903 118.827 104.913L117.007 100.336C116.922 100.121 116.689 100.006 116.502 100.088C116.309 100.166 116.22 100.404 116.305 100.619L118.052 105.017L116.505 106.904C116.37 107.07 116.39 107.333 116.553 107.492C116.667 107.602 116.816 107.632 116.943 107.586C116.999 107.565 117.052 107.53 117.095 107.479L118.025 106.343L117.819 108.015C117.791 108.239 117.939 108.458 118.148 108.504C118.217 108.519 118.283 108.512 118.341 108.491C118.466 108.445 118.558 108.33 118.578 108.177L118.852 105.966L119.826 107.412C119.933 107.571 120.119 107.633 120.274 107.576C120.306 107.564 120.335 107.549 120.364 107.527C120.532 107.401 120.563 107.144 120.435 106.953L119.181 105.095Z" fill="white"/>
<path d="M129.445 103.673L128.19 101.813C128.105 101.685 127.967 101.621 127.836 101.631L126.017 97.0543C125.931 96.8394 125.697 96.7247 125.512 96.8056C125.318 96.8841 125.229 97.1219 125.315 97.3368L127.062 101.735L125.515 103.622C125.38 103.788 125.4 104.051 125.563 104.21C125.676 104.32 125.826 104.35 125.953 104.303C126.009 104.283 126.062 104.248 126.105 104.197L127.035 103.061L126.829 104.733C126.801 104.957 126.949 105.176 127.158 105.222C127.227 105.237 127.293 105.23 127.351 105.209C127.476 105.163 127.568 105.048 127.588 104.895L127.861 102.684L128.836 104.13C128.943 104.289 129.129 104.351 129.284 104.294C129.316 104.282 129.344 104.267 129.373 104.245C129.541 104.122 129.574 103.864 129.445 103.673Z" fill="white"/>
<path d="M146.593 66.2142C146.343 65.9699 145.94 65.9298 145.612 66.1141C145.333 66.2724 145.143 66.5471 144.979 66.8203C144.514 67.6004 144.175 68.4701 143.846 69.3144L142.504 72.752C143.063 70.9429 143.469 69.0704 143.713 67.1597C143.854 66.0404 143.93 64.8557 143.521 63.7799C143.365 63.3692 143.168 63.0704 142.923 62.8651C142.602 62.6006 142.2 62.5224 141.894 62.6719C141.499 62.8614 141.351 63.3452 141.268 63.7459C140.845 65.7486 141.061 67.868 141.269 69.9199C141.376 70.9919 141.485 72.0901 141.507 73.1744C141.425 71.958 141.301 70.7326 141.066 69.5234C140.621 67.2281 139.835 65.3029 138.724 63.7987C138.589 63.6153 138.419 63.4231 138.19 63.3981C137.832 63.3583 137.622 63.7346 137.554 64.0702C137.307 65.2469 137.791 66.4574 138.353 67.6992L141.283 74.167C139.603 75.2272 137.251 74.2531 136.198 73.7118C133.02 72.0761 131.494 68.3141 130.148 64.9977L130.036 64.7224C128.033 59.796 126.306 55.6804 124.375 51.609C120.239 42.8772 114.833 33.5935 106.103 30.9237C102.865 29.9342 99.2367 30.0762 95.6125 31.3359C90.678 33.0427 86.7795 36.4972 84.3317 41.3106C82.0182 45.8562 81.0895 51.3656 81.6445 57.2461C82.2359 63.4944 84.2665 69.6028 85.9714 74.2267C86.9752 76.9512 87.8742 79.1597 88.7989 81.1777C90.0641 83.9369 91.3705 86.3134 92.794 88.4418C98.6093 97.1357 107.955 102.336 117.184 102.015C119.959 101.919 122.586 101.417 125.03 100.528C128.935 99.1065 132.369 96.6966 135.174 93.3726C139.927 87.7444 142.413 81.3116 142.409 74.6951C144.864 73.2312 146.575 70.4675 146.867 67.3767C146.903 67.0258 146.91 66.5231 146.593 66.2142Z" fill="#FFCB14"/>
<path d="M131.889 72.1039C130.062 69.879 128.257 68.3031 126.369 67.2789C124.067 66.0326 121.654 65.6563 119.574 66.2268C117.24 66.8684 115.415 68.7762 114.92 71.0891C114.282 74.0789 115.823 77.0618 116.8 78.5717C118.969 81.9317 122.263 84.5363 125.838 85.7141C126.525 85.9398 127.336 86.1582 128.145 86.0557C128.411 86.0212 128.661 85.9518 128.89 85.852C129.408 85.6258 129.811 85.2385 130.026 84.7495C130.585 83.4726 128.686 81.4983 127.551 80.4976C127.748 80.5748 129.046 81.0457 129.248 81.1047C129.828 81.2719 130.309 81.2941 130.72 81.1746C131.256 81.0199 131.652 80.608 131.755 80.1002C131.935 79.221 131.257 78.3972 130.648 77.7755L128.695 76.0345C129.045 76.2395 130.095 76.8467 130.482 76.9359C131.477 77.1655 132.741 76.7975 133.121 75.6644C133.451 74.6818 133.049 73.517 131.889 72.1039Z" fill="#0D6EFD"/>
<path d="M109.94 54.7868C109.695 54.2542 109.184 53.8483 108.572 53.7007C108.099 53.5888 107.568 53.6228 106.95 53.8017C106.203 54.0197 105.512 54.3817 104.901 54.872C104.653 55.0701 104.347 55.3466 104.152 55.7309C103.951 56.1287 103.917 56.5924 104.06 56.9704C104.272 57.5338 104.811 57.8295 105.244 57.9181C105.688 58.0077 106.144 58.0472 106.598 58.0335C107.198 58.015 107.793 57.8987 108.344 57.6981C108.508 57.6385 108.669 57.5718 108.824 57.4963C109.754 57.0496 110.428 55.8527 109.94 54.7868Z" fill="white"/>
<path d="M89.7953 57.9099C89.3764 57.811 88.9061 57.8389 88.3577 58.0006C87.696 58.1928 87.0855 58.5123 86.5439 58.9474C86.3253 59.1242 86.0514 59.3699 85.8794 59.7082C85.6989 60.0632 85.669 60.4769 85.7966 60.8143C85.9873 61.318 86.467 61.584 86.854 61.6621C87.2491 61.7427 87.6519 61.7772 88.052 61.7641C88.5822 61.7468 89.1092 61.6469 89.5981 61.4689C89.7424 61.4164 89.8862 61.356 90.0232 61.2899C90.8533 60.8904 91.4514 59.8266 91.0155 58.8769C90.7965 58.4025 90.3406 58.0412 89.7953 57.9099Z" fill="white"/>
<path d="M92.8241 49.8682C92.568 49.8749 92.3802 50.1027 92.4003 50.3792C92.5 51.6513 91.9529 52.9156 91.0079 53.6028C90.6392 53.8695 90.2632 54.0091 89.92 54.0042C89.4418 53.9971 88.9154 53.6967 88.5446 53.2207C88.2054 52.7846 87.9675 52.1846 87.8552 51.4874C87.8109 51.2116 87.5702 51.0126 87.3177 51.0424C87.0651 51.0721 86.8968 51.3199 86.9411 51.5958C87.0823 52.4797 87.3962 53.2549 87.85 53.8385C88.4116 54.564 89.2053 55.0023 89.9715 55.01C90.2457 55.0129 90.5184 54.965 90.792 54.8655C91.0504 54.7714 91.307 54.6321 91.5595 54.4482C92.7601 53.5788 93.4511 51.9729 93.3255 50.3615C93.3054 50.0849 93.0788 49.8646 92.8241 49.8682Z" fill="#3F4553"/>
<path d="M107.022 46.4009C106.909 46.1445 106.633 46.0209 106.4 46.127C106.171 46.2323 106.075 46.5265 106.188 46.7828C106.468 47.4188 106.405 48.2446 106.027 48.8877C105.679 49.4794 105.069 49.9474 104.315 50.2059C103.907 50.3461 103.584 50.3691 103.33 50.2805C103.011 50.1694 102.711 49.8407 102.526 49.3997C102.335 48.9421 102.265 48.408 102.197 47.8922C102.16 47.6164 101.925 47.4071 101.672 47.4289C101.419 47.4507 101.241 47.6913 101.278 47.9671C101.351 48.5298 101.433 49.1649 101.685 49.7626C101.992 50.4917 102.507 51.0287 103.099 51.2349C103.546 51.3912 104.052 51.3666 104.646 51.1638C104.674 51.1536 104.704 51.1426 104.732 51.1324C105.641 50.8017 106.38 50.2111 106.82 49.4642C107.366 48.5384 107.442 47.3616 107.022 46.4009Z" fill="#3F4553"/>
<path d="M99.5667 61.3577C99.4988 61.2851 99.437 61.2157 99.379 61.1503C98.9331 60.6422 98.4395 60.1838 97.9103 59.7952C97.0765 59.1796 96.3486 58.9688 95.7511 59.17C95.3643 59.3 95.0582 59.5979 94.7852 59.9C94.333 60.3998 93.9713 61.0208 93.6228 61.618C93.4511 61.9102 93.2743 62.2152 93.0901 62.4931C92.2199 63.8209 91.4352 65.2365 90.761 66.701C90.6071 67.0355 90.6308 67.3215 90.823 67.4678C91.0382 67.6301 91.2913 67.4812 91.3877 67.4245L94.189 65.7669C93.781 66.502 93.4438 67.2574 93.0911 68.0507C92.9819 68.2932 92.8756 68.5374 92.7642 68.7807C92.6712 68.9875 92.5981 69.2088 92.6926 69.4285C92.8241 69.7293 93.1696 69.7874 93.4273 69.745C93.5376 69.7265 93.6445 69.6984 93.7479 69.6608C94.3013 69.4593 94.7476 69.0103 95.117 68.638L98.9251 64.7946C99.0089 64.7101 99.0949 64.6247 99.1809 64.5393C99.4888 64.2326 99.8078 63.9165 100.087 63.5715C100.271 63.3452 100.366 63.1241 100.382 62.8938C100.384 62.8716 100.384 62.847 100.384 62.8255C100.384 62.2417 99.9321 61.7519 99.5667 61.3577Z" fill="#3F4553"/>
<path d="M114.668 88.0197C114.819 88.4677 115.188 89.6553 114.437 89.6556C114.037 89.6553 113.615 89.2871 113.209 89.2104C112.719 89.1183 112.607 89.9295 113.097 90.0217C113.82 90.1586 114.482 90.8179 115.166 90.2581C115.89 89.6675 115.659 88.5972 115.377 87.7619C115.207 87.2479 114.496 87.5066 114.668 88.0197Z" fill="white"/>
<path d="M114.079 96.9089C114.122 97.2014 114.168 97.4931 114.212 97.788C114.234 97.9311 114.303 98.1332 114.284 98.2753C114.276 98.346 114.289 98.3683 114.299 98.3754C114.289 98.3762 114.271 98.3801 114.234 98.3934C114.072 98.4578 113.675 98.3184 113.507 98.2906C113.24 98.2472 112.974 98.1951 112.708 98.1406C112.217 98.0381 112.108 98.8485 112.596 98.9518C113.021 99.0404 113.447 99.1179 113.874 99.1732C114.177 99.2144 114.547 99.3068 114.808 99.1039C115.03 98.931 115.078 98.635 115.058 98.345C115.025 97.8571 114.912 97.3546 114.838 96.8681C114.762 96.3388 114 96.3756 114.079 96.9089Z" fill="white"/>
<path d="M117.575 92.7034C117.308 92.2358 116.7 92.6975 116.965 93.1635C117.148 93.4861 117.585 94.2245 117.18 94.518C117.037 94.6214 116.804 94.5384 116.646 94.5043C116.428 94.4564 116.216 94.4172 115.996 94.4162C115.503 94.4146 115.592 95.2418 116.084 95.2466C116.431 95.2475 116.769 95.4136 117.117 95.3922C117.451 95.3708 117.734 95.203 117.911 94.906C118.331 94.1963 117.959 93.3748 117.575 92.7034Z" fill="white"/>
<path d="M120.172 96.9218C119.95 96.4346 119.238 96.6885 119.461 97.1804C119.557 97.3914 119.642 97.6039 119.71 97.825C119.773 98.0319 119.789 98.2504 119.842 98.4555C119.771 98.4353 119.693 98.4151 119.673 98.4063C119.456 98.3337 119.238 98.262 119.021 98.1894C118.541 98.029 118.434 98.8411 118.909 99.0007C119.381 99.1586 120.337 99.7002 120.599 99.0152C120.705 98.7417 120.611 98.3624 120.55 98.0761C120.466 97.677 120.339 97.2959 120.172 96.9218Z" fill="white"/>
<path d="M93.3805 80.3373C93.3518 80.8749 93.3327 81.9146 92.6537 81.9454C92.1618 81.9677 91.5541 81.2562 91.1855 80.947C90.7854 80.6115 90.3106 81.2303 90.7168 81.5691C91.3516 82.1003 92.1517 82.9851 93.0034 82.7319C93.9054 82.463 94.0914 81.4059 94.1394 80.5126C94.1694 79.9853 93.4097 79.8077 93.3805 80.3373Z" fill="white"/>
<path d="M98.4542 77.4985C98.3752 78.0788 98.2719 78.7868 97.9291 79.2521C97.5245 79.8022 96.5471 79.0063 96.0825 78.7483C95.6299 78.4967 95.3315 79.2379 95.7818 79.4903C96.4939 79.8854 97.452 80.7018 98.2101 80.1447C98.8973 79.6405 99.0964 78.5191 99.214 77.6762C99.2858 77.1499 98.5278 76.977 98.4542 77.4985Z" fill="white"/>
<path d="M103 74.8383C102.972 75.3647 103.057 76.1745 102.808 76.6412C102.62 76.9905 102.276 76.7077 102.017 76.5452C101.735 76.3667 101.455 76.1874 101.176 76.0105C100.738 75.732 100.439 76.4732 100.875 76.7525C101.498 77.1503 102.437 78.0278 103.143 77.5165C103.822 77.0234 103.715 75.8028 103.757 75.0143C103.789 74.4863 103.029 74.3086 103 74.8383Z" fill="white"/>
<path d="M107.801 72.4152C107.721 72.7659 107.641 73.1142 107.561 73.4648C107.502 73.7187 107.474 74.3238 107.321 74.5145C106.892 75.0518 105.993 74.2897 105.687 73.8902C105.363 73.4701 104.75 73.923 105.076 74.3503C105.618 75.0559 106.562 75.7047 107.418 75.5118C107.797 75.4255 107.955 75.1435 108.06 74.7699C108.26 74.0592 108.394 73.3156 108.561 72.5928C108.676 72.0803 107.917 71.9106 107.801 72.4152Z" fill="white"/>
<path d="M97.4414 84.8741C97.576 85.3982 97.8545 86.4782 97.1946 86.7022C96.7561 86.851 95.9326 86.364 95.5062 86.2111C95.0289 86.0388 94.9229 86.8532 95.3941 87.0223C96.196 87.3089 97.2194 87.9096 97.9134 87.2029C98.5755 86.5294 98.383 85.5046 98.1542 84.6147C98.0183 84.0938 97.3072 84.358 97.4414 84.8741Z" fill="white"/>
<path d="M103.145 81.4546C103.244 82.0404 103.319 82.8295 103.048 83.3524C102.653 84.1154 101.789 83.4297 101.331 83.0558C100.925 82.725 100.453 83.3454 100.862 83.6778C101.556 84.2443 102.505 84.8693 103.309 84.3092C104.099 83.7594 104.066 82.3359 103.911 81.4138C103.818 80.8851 103.054 80.9227 103.145 81.4546Z" fill="white"/>
<path d="M109.038 78.4339C109.005 79.0136 109.021 79.7349 108.628 80.1293C108.312 80.4471 108.036 80.3179 107.639 80.1245C107.364 79.9921 107.127 79.8107 106.894 79.6006C106.503 79.2485 106.033 79.8681 106.426 80.2227C107.059 80.7952 108.078 81.411 108.886 81.1059C109.735 80.786 109.751 79.4421 109.798 78.606C109.827 78.0819 109.067 77.9043 109.038 78.4339Z" fill="white"/>
<path d="M102.008 90.4865C101.962 90.8008 101.917 91.1143 101.871 91.4286C101.843 91.6199 101.85 92.2363 101.733 92.3708C101.379 92.7726 100.42 92.0919 100.082 91.8552C99.6563 91.5561 99.3617 92.3013 99.7816 92.5972C100.345 92.9923 101.494 93.6421 102.13 93.2456C102.402 93.0762 102.46 92.7468 102.508 92.4293C102.599 91.842 102.68 91.253 102.766 90.6649C102.843 90.1394 102.084 89.9642 102.008 90.4865Z" fill="white"/>
<path d="M106.027 87.4424C106.088 87.9527 106.265 89.5238 105.589 89.6508C105.194 89.7244 104.591 89.2004 104.205 89.0627C103.726 88.8935 103.62 89.708 104.093 89.8739C104.837 90.1356 105.549 90.8524 106.272 90.2189C106.963 89.613 106.898 88.2958 106.788 87.4032C106.723 86.87 105.962 86.9092 106.027 87.4424Z" fill="white"/>
<path d="M110.651 83.4752C110.617 84.0794 110.696 84.886 110.504 85.4451C110.353 85.8867 110.107 85.8006 109.759 85.6027C109.464 85.4345 109.17 85.2631 108.874 85.0924C108.426 84.8337 108.127 85.5749 108.573 85.8344C109.233 86.2133 110.147 87.0025 110.838 86.4292C111.527 85.8567 111.363 84.508 111.41 83.6504C111.439 83.1208 110.679 82.9431 110.651 83.4752Z" fill="white"/>
<path d="M107.563 94.8526C107.59 95.2292 107.613 95.605 107.633 95.9816C107.64 96.1167 107.703 96.3696 107.658 96.4941C107.507 96.9223 107.274 96.7392 107.029 96.5824C106.611 96.3182 106.269 96.029 105.775 96.0767C105.286 96.122 105.374 96.9524 105.862 96.9071C106.275 96.8678 106.604 97.2912 106.97 97.4637C107.299 97.6194 107.69 97.688 108.005 97.5085C108.313 97.3344 108.419 96.9958 108.424 96.6288C108.436 96.03 108.367 95.4117 108.326 94.8102C108.288 94.2779 107.528 94.3195 107.563 94.8526Z" fill="white"/>
<path d="M111.454 91.3226C111.376 91.8536 111.598 92.4083 111.511 92.921C111.434 93.379 111.022 93.2721 110.673 93.1854C110.368 93.1101 110.061 93.0323 109.756 92.957C109.268 92.8347 109.159 93.6475 109.644 93.7682C110.352 93.9456 111.404 94.4439 111.973 93.8073C112.544 93.1667 112.101 92.271 112.212 91.4955C112.288 90.9756 111.529 90.8004 111.454 91.3226Z" fill="white"/>
<path d="M127.679 78.9589C127.37 78.8526 127.06 78.7462 126.748 78.6407C126.547 78.5706 126.342 78.7562 126.313 78.9586C126.281 79.1976 126.435 79.3818 126.636 79.4519C126.946 79.5582 127.255 79.6646 127.567 79.7701C127.768 79.8402 127.974 79.6546 128.002 79.4522C128.037 79.2124 127.882 79.0282 127.679 78.9589Z" fill="white"/>
<path d="M130.536 79.4303C130.222 79.1849 129.894 79.007 129.532 78.8766C129.332 78.8033 129.123 78.9929 129.096 79.1946C129.064 79.4335 129.22 79.6146 129.42 79.6878C129.61 79.7562 129.893 79.9157 130.066 80.05C130.239 80.1842 130.471 80.1917 130.604 80.0137C130.723 79.857 130.709 79.5646 130.536 79.4303Z" fill="white"/>
<path d="M127.876 76.2919C127.451 76.0952 127.024 75.8993 126.598 75.7003C126.134 75.4852 125.833 76.2248 126.297 76.4423C126.722 76.6389 127.15 76.8348 127.576 77.0339C128.039 77.2466 128.342 76.5062 127.876 76.2919Z" fill="white"/>
<path d="M122.409 67.2796C122.028 67.1721 121.655 66.9995 121.319 66.7596C121.141 66.6324 120.92 66.6131 120.781 66.7959C120.666 66.9486 120.672 67.2521 120.851 67.3816C121.303 67.7063 121.777 67.9445 122.297 68.0908C122.784 68.2298 122.893 67.4169 122.409 67.2796Z" fill="white"/>
<path d="M126.241 68.6882C125.831 68.4479 125.434 68.1815 125.052 67.8881C124.879 67.7539 124.649 67.7456 124.514 67.9245C124.395 68.0811 124.408 68.3767 124.583 68.5102C125.02 68.8459 125.471 69.1547 125.942 69.4294C126.386 69.6897 126.684 68.9485 126.241 68.6882Z" fill="white"/>
<path d="M127.872 71.7628C127.492 71.4956 127.127 71.1984 126.777 70.8853C126.385 70.5332 125.914 71.1536 126.308 71.5074C126.711 71.8691 127.132 72.1968 127.571 72.5048C127.751 72.6311 128 72.5029 128.075 72.3213C128.164 72.097 128.051 71.8868 127.872 71.7628Z" fill="white"/>
<path d="M130.607 71.6514C130.184 71.3157 129.764 70.9769 129.341 70.6412C128.935 70.316 128.461 70.9348 128.873 71.2633C129.295 71.5989 129.716 71.9377 130.138 72.2734C130.546 72.5979 131.019 71.9798 130.607 71.6514Z" fill="white"/>
<path d="M131.635 74.7183C131.221 74.4121 130.796 74.1289 130.352 73.8797C129.902 73.6273 129.603 74.3685 130.051 74.6217C130.434 74.8364 130.806 75.0741 131.164 75.3412C131.341 75.4715 131.566 75.4869 131.702 75.3048C131.821 75.1482 131.812 74.8487 131.635 74.7183Z" fill="white"/>
<path d="M120.329 68.3068L119.189 67.754C118.727 67.5302 118.425 68.2698 118.888 68.496C119.267 68.6798 119.649 68.8651 120.028 69.0488C120.489 69.2703 120.791 68.5307 120.329 68.3068Z" fill="white"/>
<path d="M123.918 70.4283C123.502 70.1634 123.088 69.8953 122.672 69.6304C122.488 69.5135 122.246 69.6259 122.168 69.8138C122.082 70.0286 122.186 70.2531 122.371 70.3724L123.617 71.1703C123.801 71.2872 124.043 71.1748 124.121 70.9869C124.207 70.7744 124.103 70.5476 123.918 70.4283Z" fill="white"/>
<path d="M127.561 73.4953C127.132 73.2271 126.702 72.9565 126.272 72.6883C125.833 72.413 125.535 73.1542 125.972 73.4303C126.401 73.6985 126.831 73.9691 127.26 74.2372C127.7 74.5126 127.997 73.769 127.561 73.4953Z" fill="white"/>
<path d="M118.524 69.7937C118.148 69.5115 117.773 69.2317 117.397 68.9495C117.223 68.8184 116.994 68.807 116.859 68.9858C116.743 69.1417 116.751 69.4388 116.929 69.5715C117.304 69.8537 117.679 70.1336 118.055 70.4158C118.23 70.5469 118.458 70.5583 118.593 70.3794C118.71 70.2235 118.701 69.924 118.524 69.7937Z" fill="white"/>
<path d="M117.395 71.9399C117.066 71.6786 116.725 71.4378 116.37 71.2209C116.185 71.1072 115.946 71.2133 115.866 71.4043C115.782 71.6136 115.884 71.8492 116.07 71.9629C116.365 72.1446 116.65 72.3438 116.925 72.5627C117.097 72.7002 117.329 72.7021 117.463 72.5264C117.585 72.3658 117.567 72.0774 117.395 71.9399Z" fill="white"/>
<path d="M117.23 74.7144C116.78 74.4104 116.328 74.1071 115.879 73.8031C115.697 73.6799 115.451 73.8019 115.375 73.9866C115.286 74.2054 115.397 74.4219 115.578 74.5451C116.028 74.8491 116.479 75.1524 116.929 75.4564C117.111 75.5796 117.356 75.4577 117.433 75.273C117.521 75.0518 117.41 74.8352 117.23 74.7144Z" fill="white"/>
<path d="M118.865 78.3038C118.551 78.0775 118.237 77.8512 117.924 77.6217C117.747 77.4946 117.523 77.476 117.387 77.658C117.271 77.8108 117.277 78.1142 117.456 78.2437C117.77 78.4701 118.084 78.6964 118.397 78.9258C118.575 79.053 118.799 79.0716 118.935 78.8895C119.05 78.7368 119.044 78.4333 118.865 78.3038Z" fill="white"/>
<path d="M120.349 74.5008C119.949 74.3328 119.562 74.1197 119.207 73.8542C119.032 73.7231 118.803 73.7093 118.669 73.8905C118.552 74.0464 118.56 74.3436 118.738 74.4763C119.153 74.7849 119.587 75.0459 120.051 75.242C120.247 75.3247 120.469 75.271 120.555 75.0586C120.628 74.8723 120.545 74.5835 120.349 74.5008Z" fill="white"/>
<path d="M121.542 72.0609C121.215 71.7853 120.887 71.5097 120.562 71.2309C120.161 70.8929 119.689 71.5134 120.093 71.8529C120.42 72.1285 120.747 72.4041 121.073 72.6829C121.472 73.0217 121.944 72.4012 121.542 72.0609Z" fill="white"/>
<path d="M122.019 78.2643C121.639 77.9567 121.256 77.6498 120.876 77.3421C120.469 77.0145 119.997 77.6326 120.408 77.9642C120.788 78.2718 121.17 78.5787 121.55 78.8863C121.955 79.2148 122.428 78.5967 122.019 78.2643Z" fill="white"/>
<path d="M122.736 81.9501C122.5 81.7845 122.265 81.6189 122.029 81.4534C121.849 81.327 121.6 81.4553 121.525 81.6368C121.435 81.8588 121.548 82.069 121.728 82.1954C121.964 82.3609 122.2 82.5265 122.436 82.6921C122.616 82.8184 122.864 82.6902 122.94 82.5087C123.027 82.2875 122.916 82.0764 122.736 81.9501Z" fill="white"/>
<path d="M123.988 76.6447L122.981 75.8892C122.807 75.7581 122.578 75.7467 122.443 75.9255C122.327 76.0814 122.335 76.3785 122.513 76.5113C122.848 76.7623 123.184 77.0157 123.519 77.2667C123.694 77.3978 123.922 77.4093 124.057 77.2304C124.174 77.0745 124.166 76.7774 123.988 76.6447Z" fill="white"/>
<path d="M124.83 74.0268C124.452 73.751 124.075 73.4719 123.696 73.196C123.52 73.0657 123.294 73.0503 123.158 73.2324C123.041 73.3859 123.049 73.6885 123.228 73.8181C123.606 74.0939 123.983 74.373 124.362 74.6488C124.538 74.7792 124.763 74.7946 124.9 74.6125C125.015 74.4598 125.007 74.1571 124.83 74.0268Z" fill="white"/>
<path d="M125.154 79.9617C124.836 79.8935 124.541 79.7578 124.277 79.5429C124.107 79.4046 123.871 79.4043 123.739 79.5792C123.617 79.7398 123.636 80.0251 123.808 80.1649C124.18 80.4677 124.597 80.6779 125.045 80.7746C125.531 80.8786 125.644 80.0674 125.154 79.9617Z" fill="white"/>
<path d="M126.248 83.5159C125.889 83.3625 125.543 83.1694 125.228 82.9248C125.054 82.7905 124.824 82.7822 124.69 82.9611C124.571 83.1178 124.583 83.4133 124.759 83.5468C125.131 83.833 125.527 84.0756 125.949 84.2572C126.146 84.3423 126.367 84.2862 126.453 84.0737C126.528 83.8843 126.447 83.6003 126.248 83.5159Z" fill="white"/>
<path d="M128.533 83.3412C128.574 83.3557 128.473 83.3171 128.464 83.3146C128.418 83.2938 128.37 83.2705 128.325 83.2465C128.246 83.2048 128.172 83.156 128.129 83.1232C127.954 82.9921 127.726 82.9806 127.591 83.1595C127.472 83.3162 127.485 83.6117 127.66 83.7452C127.9 83.9283 128.145 84.0581 128.42 84.1524C128.622 84.2225 128.827 84.0368 128.856 83.8344C128.888 83.5955 128.734 83.4113 128.533 83.3412Z" fill="white"/>
</g>
<defs>
<linearGradient id="paint0_linear_90_1953" x1="-6.58294e-06" y1="33.4515" x2="-6.58294e-06" y2="174.574" gradientUnits="userSpaceOnUse">
<stop stop-color="#67548B"/>
<stop offset="1" stop-color="#EDC59F"/>
</linearGradient>
<linearGradient id="paint1_linear_90_1953" x1="147.206" y1="19.4522" x2="148.03" y2="92.6232" gradientUnits="userSpaceOnUse">
<stop stop-color="white" stop-opacity="0.35"/>
<stop offset="1" stop-color="white" stop-opacity="0"/>
</linearGradient>
<linearGradient id="paint2_linear_90_1953" x1="47.8263" y1="8.3152" x2="49.0363" y2="115.7" gradientUnits="userSpaceOnUse">
<stop stop-color="white" stop-opacity="0.31"/>
<stop offset="1" stop-color="white" stop-opacity="0"/>
</linearGradient>
</defs>
</svg>
