<svg width="353" height="170" viewBox="0 0 353 170" fill="none" xmlns="http://www.w3.org/2000/svg">
<path d="M0.5 107.178C9.85084 113.94 50.9197 119.844 95.8995 123.986C95.8874 124.058 95.8834 124.135 95.8834 124.208C83.0079 133.329 66.2053 139.802 49.1694 142.374C73.8783 142.374 96.4587 133.821 117.699 125.833L117.619 125.825C117.345 125.804 117.068 125.78 116.794 125.756H116.798L117.619 125.825C139.403 127.526 161.066 128.789 179.566 129.514C179.816 129.522 180.065 129.535 180.315 129.543C160.724 142.866 130.728 155.892 109.918 162.287C109.817 162.32 109.761 162.412 109.785 162.509C109.805 162.59 109.877 162.65 109.962 162.658C109.978 162.658 109.994 162.658 110.006 162.658C135.484 159.654 173.808 146.052 194.977 130.075C221.906 130.986 248.531 131.531 272.193 131.845C255.862 146.032 234.251 160.243 218.104 168.667C218.012 168.715 217.975 168.82 218.016 168.909C218.052 168.986 218.132 169.03 218.217 169.022C218.233 169.022 218.249 169.018 218.261 169.014C238.431 162.816 265.772 147.952 284.61 131.99C318.565 132.353 344.711 132.265 353.949 132.216V103C237.9 119.526 116.243 124.816 0.5 107.178Z" fill="#3F4553"/>
<path d="M152.202 65.1124C152.54 66.915 152.914 68.7257 153.337 70.5484C155.622 80.4807 160.893 89.9574 168.087 97.7363C168.128 98.3291 168.164 98.9259 168.192 99.5147C168.228 100.337 168.236 101.132 167.938 101.862C167.657 102.543 166.969 103.249 166.104 103.249C166.067 103.249 166.035 103.249 165.999 103.245C165.041 103.184 164.406 102.317 164.007 101.672C163.231 100.41 162.595 99.0025 162.153 97.6072C162.153 98.2162 162.128 98.8291 162.08 99.434C162 100.438 161.666 101.043 161.094 101.237C160.656 101.382 160.125 101.229 159.742 100.841C159.412 100.507 159.231 100.067 159.087 99.68C158.6 98.3734 158.274 96.9701 158.113 95.5909C158.093 95.7321 158.065 95.8692 158.036 96.0063C157.847 96.841 157.3 97.6355 156.644 98.0266C156.19 98.2968 155.707 98.3734 155.24 98.2404C154.548 98.0468 154.001 97.4459 153.566 96.3934C152.79 94.5142 152.528 92.5221 152.311 90.4735C151.591 83.7713 151.349 76.9562 151.591 70.2218C151.647 68.52 151.76 66.7618 152.202 65.1124Z" fill="#0D6EFD"/>
<path d="M161.102 93.9495V95.4254C161.102 96.24 159.839 96.24 159.839 95.4254V93.9495C159.843 93.1349 161.102 93.1309 161.102 93.9495Z" fill="white"/>
<path d="M164.052 94.8447V96.111C164.052 96.9256 162.788 96.9256 162.788 96.111V94.8447C162.788 94.0301 164.052 94.0301 164.052 94.8447Z" fill="white"/>
<path d="M166.47 98.325V99.5913C166.47 100.406 165.207 100.406 165.207 99.5913V98.325C165.207 97.5105 166.47 97.5105 166.47 98.325Z" fill="white"/>
<path d="M153.317 71.9597V73.9639C153.317 74.7785 152.053 74.7785 152.053 73.9639V71.9597C152.053 71.1451 153.317 71.1451 153.317 71.9597Z" fill="white"/>
<path d="M153.526 77.2304V79.654C153.526 80.4686 152.263 80.4686 152.263 79.654V77.2304C152.267 76.4198 153.526 76.4158 153.526 77.2304Z" fill="white"/>
<path d="M153.94 83.0333C153.985 83.6986 154.029 84.368 154.077 85.0334C154.134 85.848 152.87 85.844 152.814 85.0334C152.77 84.368 152.725 83.6986 152.677 83.0333C152.621 82.2187 153.884 82.2227 153.94 83.0333Z" fill="white"/>
<path d="M154.347 88.0983C154.709 88.0983 154.95 88.3886 154.979 88.7314C155.015 89.2234 155.055 89.7154 155.091 90.2073C155.119 90.5501 154.781 90.8405 154.459 90.8405C154.097 90.8405 153.856 90.5501 153.828 90.2073C153.792 89.7154 153.751 89.2234 153.715 88.7314C153.691 88.3886 154.025 88.0983 154.347 88.0983Z" fill="white"/>
<path d="M155.868 80.8436C156.174 80.7589 156.584 80.9484 156.644 81.2872C156.769 82.009 156.825 82.7268 156.785 83.4567C156.741 84.2673 155.478 84.2713 155.522 83.4567C155.554 82.8438 155.53 82.2308 155.425 81.6259C155.369 81.2872 155.518 80.9404 155.868 80.8436Z" fill="white"/>
<path d="M157.843 88.7273V89.9935C157.843 90.8081 156.58 90.8081 156.58 89.9935V88.7273C156.58 87.9127 157.843 87.9127 157.843 88.7273Z" fill="white"/>
<path d="M156.367 93.8971V95.4779C156.367 96.2925 155.103 96.2925 155.103 95.4779V93.8971C155.107 93.0825 156.367 93.0785 156.367 93.8971Z" fill="white"/>
<path d="M159.529 89.046C159.553 88.7032 159.803 88.4128 160.161 88.4128C160.483 88.4128 160.817 88.7032 160.793 89.046C160.761 89.4896 160.777 89.921 160.869 90.3566C160.938 90.6913 160.773 91.0421 160.427 91.1349C160.113 91.2195 159.722 91.03 159.65 90.6913C159.533 90.1469 159.485 89.5984 159.529 89.046Z" fill="white"/>
<path d="M188.338 123.448C188.274 123.211 188.085 123.041 187.863 122.985L187.61 115.17C187.598 114.803 187.284 114.504 186.926 114.524C186.56 114.536 186.27 114.843 186.282 115.21L186.523 122.719L182.838 124.695C182.516 124.868 182.391 125.271 182.564 125.598C182.685 125.824 182.914 125.949 183.152 125.949C183.256 125.949 183.365 125.924 183.465 125.872L185.682 124.682L184.339 127.066C184.158 127.384 184.27 127.792 184.588 127.973C184.693 128.034 184.805 128.058 184.914 128.058C185.147 128.058 185.369 127.937 185.493 127.719L187.272 124.57L188.012 127.255C188.093 127.55 188.362 127.743 188.652 127.743C188.712 127.743 188.769 127.735 188.829 127.719C189.183 127.622 189.388 127.255 189.292 126.9L188.338 123.448Z" fill="white"/>
<path d="M206.126 126.9L205.173 123.444C205.108 123.206 204.919 123.037 204.698 122.98L204.445 115.165C204.432 114.798 204.115 114.5 203.761 114.52C203.394 114.532 203.105 114.839 203.117 115.206L203.358 122.714L199.673 124.69C199.351 124.864 199.226 125.267 199.399 125.594C199.52 125.819 199.749 125.944 199.986 125.944C200.091 125.944 200.2 125.92 200.3 125.868L202.517 124.678L201.173 127.061C200.992 127.38 201.105 127.787 201.423 127.969C201.527 128.029 201.64 128.053 201.749 128.053C201.982 128.053 202.203 127.932 202.328 127.715L204.107 124.565L204.847 127.251C204.927 127.545 205.197 127.739 205.487 127.739C205.547 127.739 205.603 127.731 205.664 127.715C206.014 127.622 206.223 127.255 206.126 126.9Z" fill="white"/>
<path d="M256.908 80.3315C256.643 79.8314 256.003 79.5532 255.351 79.65C254.796 79.7347 254.317 80.0411 253.883 80.3597C252.647 81.2711 251.565 82.3841 250.515 83.4648L246.238 87.8644C248.246 85.469 250.04 82.8962 251.589 80.1783C252.494 78.5854 253.331 76.8594 253.303 75.0326C253.291 74.335 253.146 73.7825 252.865 73.343C252.494 72.7744 251.879 72.4397 251.283 72.4961C250.519 72.5647 249.984 73.2059 249.605 73.7583C247.706 76.5166 246.789 79.7951 245.9 82.9688C245.433 84.6262 244.954 86.3239 244.339 87.9531C244.934 86.0941 245.465 84.1988 245.803 82.2671C246.447 78.6015 246.306 75.3028 245.377 72.4558C245.264 72.109 245.099 71.7299 244.737 71.5686C244.17 71.3146 243.598 71.7622 243.284 72.2259C242.17 73.847 242.242 75.9158 242.423 78.0732L243.373 89.3121C239.965 89.9815 236.67 87.2515 235.257 85.8723C230.996 81.7066 230.739 75.2665 230.51 69.5886L230.489 69.1168C230.143 60.6806 229.765 53.6033 229.025 46.4817C227.444 31.2102 224.1 14.4265 211.301 5.70394C206.553 2.46978 200.481 0.711564 193.746 0.622846C184.58 0.48977 176.074 3.52633 169.146 9.37765C162.599 14.9023 157.759 22.6167 155.143 31.6901C152.367 41.3321 152.049 51.5467 152.086 59.37C152.106 63.9792 152.263 67.7618 152.576 71.2742C153.007 76.0771 153.735 80.3315 154.806 84.2794C159.179 100.406 171.475 113.238 186.894 117.77C191.529 119.133 196.164 119.811 200.731 119.811C208.026 119.811 215.139 118.081 221.762 114.645C232.984 108.83 240.947 100.583 244.914 90.7114C249.843 89.8606 254.325 86.6667 256.663 82.2147C256.932 81.7106 257.246 80.9646 256.908 80.3315Z" fill="#FFCB14"/>
<path d="M229.113 81.1339C227.435 76.823 225.403 73.4921 222.905 70.9395C219.855 67.8303 216.101 65.9592 212.327 65.6809C208.09 65.3704 203.934 67.2254 201.729 70.4071C198.88 74.5204 199.632 79.8072 200.336 82.5897C201.898 88.7797 205.768 94.4536 210.959 98.1515C211.957 98.8613 213.164 99.6275 214.56 99.9138C215.019 100.007 215.473 100.039 215.912 100.015C216.902 99.9581 217.799 99.5992 218.447 98.9863C220.137 97.3853 218.189 93.4092 216.918 91.3001C217.195 91.5219 219.054 92.9293 219.352 93.1269C220.209 93.6914 220.99 93.9858 221.738 94.0302C222.716 94.0907 223.617 93.6914 224.092 92.9898C224.917 91.776 224.293 90.179 223.661 88.9209L221.484 85.2633C221.939 85.7593 223.307 87.2352 223.891 87.578C225.395 88.4612 227.701 88.5983 229.009 87.1143C230.143 85.8279 230.179 83.872 229.113 81.1339Z" fill="#0D6EFD"/>
<path d="M178.017 26.7541C177.591 26.6251 177.144 26.863 177.012 27.2864C176.412 29.2382 174.75 30.8271 172.779 31.3392C172.01 31.5368 171.306 31.5409 170.743 31.3473C169.958 31.0771 169.27 30.3432 168.944 29.4318C168.647 28.597 168.614 27.5728 168.848 26.4719C168.94 26.0363 168.663 25.6089 168.228 25.5161C167.794 25.4234 167.367 25.7016 167.274 26.1371C166.977 27.5324 167.029 28.8592 167.427 29.9762C167.918 31.3634 168.964 32.4482 170.224 32.8756C170.674 33.0289 171.153 33.1055 171.664 33.1055C172.147 33.1055 172.654 33.0369 173.181 32.8998C175.684 32.2546 177.788 30.2343 178.549 27.7623C178.681 27.3389 178.44 26.8872 178.017 26.7541Z" fill="#3F4553"/>
<path d="M203.523 29.2906C203.491 28.8471 203.109 28.5124 202.662 28.5446C202.219 28.5769 201.885 28.964 201.918 29.4076C201.998 30.5085 201.399 31.7062 200.389 32.4603C199.459 33.1539 198.172 33.5209 196.771 33.4967C196.015 33.4846 195.468 33.3434 195.102 33.0732C194.643 32.7345 194.345 32.0812 194.305 31.3231C194.265 30.5367 194.47 29.702 194.667 28.8955C194.772 28.464 194.51 28.0244 194.08 27.9196C193.649 27.8147 193.211 28.0768 193.106 28.5083C192.889 29.3874 192.643 30.3795 192.7 31.4078C192.768 32.6619 193.295 33.7427 194.148 34.3717C194.792 34.8476 195.641 35.0855 196.743 35.1057C196.796 35.1057 196.852 35.1057 196.904 35.1057C198.602 35.1057 200.175 34.6258 201.35 33.7507C202.807 32.6659 203.64 30.9521 203.523 29.2906Z" fill="#3F4553"/>
<path d="M182.242 47.5544C182.174 47.4093 182.114 47.2722 182.057 47.1431C181.627 46.143 181.088 45.1913 180.448 44.3243C179.442 42.9532 178.368 42.2435 177.261 42.2193C176.545 42.2032 175.861 42.4814 175.229 42.7839C174.183 43.2839 173.213 44.0138 172.28 44.7155C171.821 45.0583 171.346 45.4172 170.876 45.7317C168.643 47.2399 166.498 48.9255 164.506 50.7442C164.052 51.1596 163.919 51.5991 164.148 51.9218C164.406 52.2807 164.913 52.196 165.106 52.1637L170.723 51.212C169.608 52.0871 168.598 53.0307 167.54 54.0227C167.214 54.3252 166.892 54.6317 166.562 54.9341C166.285 55.1922 166.031 55.4826 166.055 55.8616C166.092 56.3818 166.627 56.656 167.077 56.7327C167.271 56.7649 167.464 56.7811 167.657 56.7811C168.691 56.7811 169.697 56.3536 170.53 55.9987L179.12 52.3331C179.309 52.2524 179.502 52.1718 179.695 52.0911C180.387 51.8008 181.104 51.5024 181.772 51.1394C182.21 50.9015 182.5 50.6233 182.665 50.2886C182.681 50.2563 182.697 50.22 182.709 50.1877C183.059 49.3167 182.608 48.3408 182.242 47.5544Z" fill="#3F4553"/>
<path d="M191.147 95.5263C191.126 96.2764 191.022 98.2483 189.783 97.841C189.123 97.6232 188.648 96.845 188.024 96.5102C187.272 96.107 186.6 97.2563 187.352 97.6595C188.463 98.2564 189.159 99.5992 190.624 99.1355C192.173 98.6475 192.434 96.9256 192.47 95.5263C192.498 94.6673 191.171 94.6673 191.147 95.5263Z" fill="white"/>
<path d="M184.838 108.467C184.733 108.927 184.632 109.386 184.528 109.85C184.48 110.076 184.471 110.415 184.355 110.616C184.298 110.717 184.306 110.758 184.319 110.774C184.302 110.77 184.27 110.766 184.202 110.766C183.896 110.774 183.325 110.35 183.063 110.217C182.649 110.007 182.242 109.786 181.836 109.56C181.088 109.14 180.42 110.29 181.164 110.709C181.812 111.072 182.468 111.419 183.14 111.733C183.614 111.959 184.17 112.298 184.721 112.137C185.192 112 185.449 111.584 185.59 111.141C185.827 110.395 185.944 109.584 186.113 108.818C186.306 107.987 185.027 107.628 184.838 108.467Z" fill="white"/>
<path d="M193.13 104.091C192.969 103.249 191.69 103.608 191.847 104.446C191.955 105.027 192.233 106.366 191.388 106.584C191.09 106.66 190.756 106.41 190.515 106.273C190.185 106.084 189.859 105.91 189.497 105.789C188.684 105.519 188.334 106.801 189.143 107.076C189.714 107.265 190.173 107.697 190.76 107.854C191.324 108.003 191.891 107.906 192.362 107.56C193.48 106.729 193.36 105.301 193.13 104.091Z" fill="white"/>
<path d="M194.881 111.794C194.808 110.947 193.48 110.939 193.553 111.794C193.585 112.161 193.597 112.524 193.577 112.891C193.557 113.234 193.452 113.568 193.416 113.903C193.311 113.834 193.195 113.762 193.167 113.738C192.853 113.512 192.535 113.286 192.221 113.06C191.525 112.56 190.861 113.713 191.549 114.209C192.233 114.701 193.484 116.028 194.329 115.149C194.667 114.798 194.74 114.181 194.812 113.722C194.913 113.08 194.933 112.443 194.881 111.794Z" fill="white"/>
<path d="M160.64 72.5082C160.27 73.2946 159.614 74.835 158.475 74.5124C157.65 74.2785 157.075 72.8873 156.652 72.2259C156.194 71.5081 155.039 72.1735 155.506 72.8994C156.234 74.0366 157.023 75.7907 158.58 75.8754C160.229 75.9641 161.171 74.4882 161.786 73.1816C162.153 72.4114 161.006 71.7339 160.64 72.5082Z" fill="white"/>
<path d="M170.715 71.0281C170.236 71.8508 169.641 72.8509 168.796 73.359C167.798 73.9598 166.663 72.2419 166.052 71.6048C165.456 70.9838 164.519 71.9274 165.11 72.5484C166.047 73.5243 167.138 75.2624 168.723 74.843C170.16 74.4639 171.161 72.8993 171.862 71.7056C172.296 70.9596 171.149 70.2902 170.715 71.0281Z" fill="white"/>
<path d="M179.812 69.5279C179.45 70.2982 179.104 71.5523 178.412 72.1129C177.893 72.5322 177.494 71.9233 177.165 71.5402C176.806 71.1208 176.452 70.7014 176.098 70.2861C175.543 69.6328 174.606 70.5764 175.157 71.2297C175.945 72.1612 176.967 73.98 178.44 73.6009C179.856 73.2339 180.412 71.3547 180.955 70.2014C181.325 69.4312 180.178 68.7537 179.812 69.5279Z" fill="white"/>
<path d="M189.187 68.5199C188.845 68.9998 188.503 69.4756 188.161 69.9555C187.912 70.3023 187.501 71.1895 187.135 71.3911C186.105 71.9597 185.079 70.3346 184.814 69.5724C184.532 68.7699 183.248 69.1127 183.53 69.9273C184.001 71.2742 185.168 72.7541 186.697 72.9316C187.373 73.0082 187.803 72.6735 188.201 72.1734C188.958 71.2217 189.626 70.1854 190.334 69.1974C190.833 68.4957 189.682 67.8303 189.187 68.5199Z" fill="white"/>
<path d="M164.615 81.4807C164.522 82.3356 164.333 84.0979 163.11 84.0737C162.297 84.0576 161.231 82.8841 160.62 82.4243C159.936 81.9082 159.272 83.0655 159.948 83.5736C161.098 84.4366 162.426 85.8884 163.995 85.2109C165.492 84.5657 165.79 82.9325 165.947 81.4807C166.035 80.6298 164.704 80.6379 164.615 81.4807Z" fill="white"/>
<path d="M176.078 79.4765C175.889 80.404 175.539 81.6218 174.779 82.2549C173.668 83.1784 172.654 81.6863 172.123 80.8798C171.652 80.1661 170.502 80.8355 170.977 81.5533C171.781 82.7752 172.972 84.2229 174.634 83.8236C176.267 83.4325 177.068 81.2911 177.366 79.8313C177.531 78.9926 176.247 78.6337 176.078 79.4765Z" fill="white"/>
<path d="M187.614 78.1699C187.212 79.0168 186.805 80.1015 185.92 80.4766C185.208 80.779 184.83 80.4362 184.29 79.9322C183.916 79.5854 183.635 79.1861 183.377 78.7466C182.943 78.0086 181.796 78.678 182.23 79.42C182.931 80.6177 184.242 82.0896 185.759 82.0735C187.352 82.0574 188.185 80.0612 188.765 78.8393C189.127 78.0731 187.98 77.3956 187.614 78.1699Z" fill="white"/>
<path d="M168.779 92.3324C168.514 92.776 168.252 93.2196 167.987 93.6632C167.826 93.9334 167.468 94.8568 167.194 94.9939C166.369 95.4012 165.194 93.8648 164.78 93.3285C164.257 92.651 163.323 93.6027 163.838 94.2721C164.531 95.1674 166.035 96.7602 167.323 96.5143C167.874 96.4094 168.168 95.9497 168.437 95.5021C168.94 94.6754 169.427 93.8406 169.922 93.0099C170.365 92.2679 169.218 91.5944 168.779 92.3324Z" fill="white"/>
<path d="M177.237 89.9735C177.032 90.7679 176.38 93.2076 175.189 93.0302C174.493 92.9253 173.813 91.8164 173.258 91.401C172.57 90.8889 171.906 92.0462 172.586 92.5503C173.656 93.3447 174.4 94.8005 175.974 94.248C177.478 93.7197 178.162 91.7196 178.517 90.3283C178.73 89.4976 177.45 89.1427 177.237 89.9735Z" fill="white"/>
<path d="M187.248 86.5658C186.829 87.449 186.475 88.695 185.823 89.4249C185.308 90.0016 184.954 89.7395 184.5 89.2556C184.113 88.8442 183.731 88.4289 183.345 88.0135C182.761 87.3844 181.824 88.3281 182.403 88.9571C183.264 89.8806 184.298 91.5541 185.783 91.0743C187.264 90.5944 187.803 88.4934 188.395 87.2393C188.761 86.465 187.614 85.7875 187.248 86.5658Z" fill="white"/>
<path d="M175.322 101.861C175.141 102.438 174.952 103.011 174.759 103.583C174.69 103.789 174.642 104.2 174.493 104.362C173.986 104.918 173.712 104.519 173.403 104.152C172.871 103.531 172.481 102.914 171.636 102.716C170.803 102.519 170.449 103.805 171.282 104.003C171.986 104.168 172.276 104.979 172.775 105.434C173.226 105.846 173.829 106.16 174.457 106.063C175.068 105.971 175.447 105.523 175.676 104.979C176.054 104.092 176.312 103.132 176.605 102.212C176.863 101.398 175.583 101.047 175.322 101.861Z" fill="white"/>
<path d="M183.86 98.708C183.413 99.4581 183.446 100.406 182.995 101.124C182.593 101.765 181.977 101.382 181.454 101.063C180.995 100.785 180.537 100.503 180.078 100.224C179.346 99.7766 178.678 100.93 179.406 101.374C180.468 102.023 181.905 103.337 183.224 102.696C184.552 102.051 184.359 100.474 185.007 99.3774C185.445 98.6435 184.299 97.97 183.86 98.708Z" fill="white"/>
<path d="M218.052 89.0742C217.606 88.7476 217.159 88.4209 216.708 88.0943C216.419 87.8805 215.968 88.0459 215.799 88.3322C215.602 88.6709 215.747 89.0298 216.036 89.2436C216.483 89.5702 216.93 89.8969 217.38 90.2235C217.67 90.4372 218.121 90.2719 218.29 89.9856C218.491 89.6468 218.346 89.2879 218.052 89.0742Z" fill="white"/>
<path d="M222.482 91.3285C222.112 90.7921 221.677 90.3486 221.158 89.9574C220.873 89.7396 220.414 89.909 220.249 90.1953C220.052 90.5341 220.201 90.8889 220.486 91.1067C220.76 91.3124 221.13 91.7035 221.335 91.9979C221.541 92.2923 221.919 92.4294 222.245 92.2358C222.534 92.0665 222.687 91.6229 222.482 91.3285Z" fill="white"/>
<path d="M219.979 85.2028C219.396 84.6786 218.809 84.1544 218.225 83.6261C217.589 83.0535 216.648 83.9931 217.284 84.5697C217.867 85.094 218.454 85.6182 219.038 86.1465C219.674 86.7151 220.619 85.7755 219.979 85.2028Z" fill="white"/>
<path d="M216.37 68.7901C215.807 68.4232 215.296 67.9634 214.886 67.4231C214.668 67.1367 214.314 66.9875 213.976 67.1851C213.695 67.3505 213.522 67.8062 213.739 68.0965C214.29 68.8264 214.93 69.4394 215.698 69.9394C216.419 70.4112 217.087 69.2579 216.37 68.7901Z" fill="white"/>
<path d="M221.846 72.972C221.315 72.3913 220.82 71.7784 220.366 71.1331C220.16 70.8388 219.786 70.7017 219.456 70.8952C219.167 71.0646 219.01 71.5122 219.219 71.8066C219.738 72.5445 220.297 73.2503 220.909 73.9156C221.484 74.5447 222.422 73.6011 221.846 72.972Z" fill="white"/>
<path d="M222.692 78.4442C222.225 77.8393 221.802 77.1981 221.412 76.5408C220.977 75.8029 219.827 76.4723 220.265 77.2142C220.712 77.9724 221.211 78.6902 221.75 79.3878C221.971 79.6741 222.458 79.6177 222.692 79.3878C222.973 79.1015 222.913 78.7265 222.692 78.4442Z" fill="white"/>
<path d="M227.27 79.7628C226.775 79.0329 226.284 78.299 225.789 77.5691C225.315 76.8634 224.16 77.5288 224.643 78.2425C225.138 78.9724 225.629 79.7064 226.123 80.4363C226.602 81.142 227.753 80.4766 227.27 79.7628Z" fill="white"/>
<path d="M227.125 84.8964C226.626 84.2149 226.095 83.5616 225.512 82.9486C224.92 82.3276 223.983 83.2712 224.57 83.8923C225.073 84.4205 225.544 84.977 225.975 85.5698C226.188 85.8602 226.55 86.0054 226.884 85.8078C227.174 85.6384 227.339 85.1868 227.125 84.8964Z" fill="white"/>
<path d="M212.323 69.1934L210.774 67.7498C210.146 67.165 209.204 68.1046 209.832 68.6934C210.347 69.1733 210.866 69.6572 211.381 70.1371C212.009 70.7178 212.95 69.7782 212.323 69.1934Z" fill="white"/>
<path d="M216.97 74.3068C216.443 73.6858 215.92 73.0608 215.393 72.4397C215.159 72.1655 214.693 72.2018 214.451 72.4397C214.182 72.7139 214.218 73.1051 214.451 73.3834L216.028 75.2505C216.262 75.5247 216.729 75.4884 216.97 75.2505C217.24 74.9803 217.203 74.5851 216.97 74.3068Z" fill="white"/>
<path d="M221.138 80.8598C220.591 80.2266 220.044 79.5895 219.497 78.9564C218.937 78.3071 218 79.2507 218.555 79.9C219.102 80.5331 219.65 81.1703 220.197 81.8034C220.756 82.4527 221.694 81.505 221.138 80.8598Z" fill="white"/>
<path d="M208.452 70.4314C208.001 69.8064 207.551 69.1853 207.1 68.5603C206.891 68.2699 206.521 68.1288 206.191 68.3224C205.905 68.4917 205.74 68.9393 205.953 69.2337C206.404 69.8588 206.855 70.4798 207.305 71.1049C207.514 71.3952 207.885 71.5363 208.215 71.3428C208.5 71.1734 208.665 70.7218 208.452 70.4314Z" fill="white"/>
<path d="M205.301 73.0202C204.915 72.4516 204.497 71.9072 204.042 71.3911C203.805 71.1209 203.346 71.1491 203.1 71.3911C202.835 71.6572 202.863 72.0645 203.1 72.3347C203.479 72.7662 203.829 73.2178 204.151 73.6937C204.352 73.9921 204.734 74.1211 205.06 73.9316C205.358 73.7582 205.503 73.3186 205.301 73.0202Z" fill="white"/>
<path d="M203.362 77.069C202.803 76.3714 202.239 75.6737 201.68 74.9761C201.455 74.6938 200.976 74.7422 200.739 74.9761C200.461 75.2543 200.513 75.6374 200.739 75.9197C201.298 76.6174 201.861 77.315 202.421 78.0126C202.646 78.2949 203.125 78.2465 203.362 78.0126C203.64 77.7304 203.587 77.3473 203.362 77.069Z" fill="white"/>
<path d="M203.905 83.3117C203.523 82.8035 203.141 82.2954 202.763 81.7833C202.545 81.497 202.187 81.3478 201.853 81.5454C201.572 81.7107 201.398 82.1664 201.616 82.4567C201.998 82.9649 202.38 83.473 202.758 83.9851C202.976 84.2714 203.334 84.4206 203.668 84.223C203.949 84.0577 204.122 83.602 203.905 83.3117Z" fill="white"/>
<path d="M208.637 78.4441C208.078 77.9764 207.567 77.4481 207.14 76.8593C206.931 76.569 206.561 76.4238 206.231 76.6214C205.945 76.7908 205.78 77.2384 205.993 77.5328C206.492 78.2183 207.052 78.8434 207.699 79.3878C207.973 79.6176 208.371 79.658 208.641 79.3878C208.874 79.1498 208.911 78.674 208.637 78.4441Z" fill="white"/>
<path d="M212.069 75.4519C211.695 74.8631 211.321 74.2744 210.951 73.6816C210.492 72.9597 209.341 73.6291 209.804 74.355C210.178 74.9438 210.552 75.5325 210.922 76.1253C211.377 76.8472 212.528 76.1778 212.069 75.4519Z" fill="white"/>
<path d="M209.132 84.965C208.689 84.2996 208.243 83.6342 207.8 82.9689C207.325 82.2591 206.175 82.9245 206.653 83.6423C207.096 84.3077 207.543 84.9731 207.985 85.6385C208.456 86.3482 209.607 85.6828 209.132 84.965Z" fill="white"/>
<path d="M208.102 90.8526C207.812 90.4775 207.522 90.1025 207.233 89.7275C207.011 89.4411 206.525 89.4976 206.291 89.7275C206.01 90.0098 206.07 90.3848 206.291 90.6711C206.581 91.0461 206.871 91.4212 207.16 91.7962C207.382 92.0825 207.868 92.0261 208.102 91.7962C208.379 91.5139 208.323 91.1389 208.102 90.8526Z" fill="white"/>
<path d="M213.353 83.618L212.146 81.9444C211.936 81.6541 211.566 81.513 211.236 81.7065C210.951 81.8759 210.786 82.3235 210.999 82.6179C211.401 83.1744 211.804 83.7349 212.206 84.2914C212.415 84.5817 212.785 84.7229 213.115 84.5293C213.401 84.36 213.566 83.9123 213.353 83.618Z" fill="white"/>
<path d="M216.314 80.1701C215.856 79.5531 215.401 78.9321 214.942 78.3151C214.729 78.0248 214.367 77.8796 214.033 78.0772C213.747 78.2425 213.578 78.6982 213.795 78.9886C214.254 79.6056 214.709 80.2266 215.167 80.8436C215.381 81.1339 215.743 81.2791 216.077 81.0815C216.358 80.9162 216.527 80.4605 216.314 80.1701Z" fill="white"/>
<path d="M213.284 89.1992C212.801 88.925 212.395 88.562 212.089 88.0983C211.892 87.7998 211.502 87.6708 211.18 87.8603C210.882 88.0337 210.741 88.4693 210.943 88.7717C211.373 89.425 211.936 89.9654 212.616 90.3525C213.357 90.7719 214.029 89.6226 213.284 89.1992Z" fill="white"/>
<path d="M212.954 95.0948C212.455 94.6714 212.001 94.1955 211.627 93.6591C211.421 93.3648 211.047 93.2277 210.717 93.4212C210.428 93.5906 210.271 94.0382 210.48 94.3326C210.922 94.9617 211.429 95.5384 212.017 96.0384C212.29 96.2723 212.689 96.3086 212.958 96.0384C213.196 95.7965 213.232 95.3287 212.954 95.0948Z" fill="white"/>
<path d="M216.829 96.0748C216.889 96.1191 216.745 96.0062 216.732 95.9982C216.668 95.9417 216.604 95.8812 216.543 95.8207C216.439 95.7159 216.346 95.603 216.294 95.5304C216.085 95.24 215.714 95.0989 215.385 95.2925C215.095 95.4618 214.938 95.9094 215.147 96.2038C215.433 96.6071 215.759 96.9337 216.157 97.2241C216.447 97.4378 216.897 97.2724 217.066 96.9861C217.264 96.6474 217.119 96.2885 216.829 96.0748Z" fill="white"/>
</svg>
