<svg width="353" height="237" viewBox="0 0 353 237" fill="none" xmlns="http://www.w3.org/2000/svg">
<path d="M77.7097 6.08714C43.2742 91.5879 20.6935 66.6501 9.40322 66.6501L3.19357 197.842C12.4012 228.468 33.3377 236.125 42.6549 236.125L301.62 236.125C333.847 227.374 341.903 206.957 341.903 197.842L351.5 22.8819C212.629 214.75 295.048 -144.048 190.613 74.2841C143.758 109.909 98.8105 1.92029 77.7097 6.08714Z" fill="#F05D48" stroke="#F05D48"/>
<path d="M118.677 64.5983C95.5711 125.703 16.4144 67.1591 8.83872 67.1591L1.5 197.955C7.67822 219.843 29.1192 235.107 35.371 235.107L304.081 235.107C325.704 228.853 344.726 202.942 344.726 196.428L344.726 84.9717C167.468 234.359 253.914 15.4545 183.839 171.49C152.4 196.951 132.835 61.6204 118.677 64.5983Z" fill="#F26D43" stroke="#F05D48"/>
</svg>
